  0
SECTION
  2
HEADER
  9
$ACADVER
  1
AC1014
  9
$HANDSEED
  5
FFFF
  9
$MEASUREMENT
 70
     1
  0
ENDSEC
  0
SECTION
  2
TABLES
  0
TABLE
  2
VPORT
  5
8
330
0
100
AcDbSymbolTable
 70
     4
  0
VPORT
  5
2E
330
8
100
AcDbSymbolTableRecord
100
AcDbViewportTableRecord
  2
*ACTIVE
 70
     0
 10
0.0
 20
0.0
 11
1.0
 21
1.0
 12
210.0
 22
148.5
 13
0.0
 23
0.0
 14
10.0
 24
10.0
 15
10.0
 25
10.0
 16
0.0
 26
0.0
 36
1.0
 17
0.0
 27
0.0
 37
0.0
 40
341.0
 41
1.24
 42
50.0
 43
0.0
 44
0.0
 50
0.0
 51
0.0
 71
     0
 72
   100
 73
     1
 74
     3
 75
     0
 76
     0
 77
     0
 78
     0
  0
ENDTAB
  0
TABLE
  2
LTYPE
  5
5
330
0
100
AcDbSymbolTable
 70
     1
  0
LTYPE
  5
14
330
5
100
AcDbSymbolTableRecord
100
AcDbLinetypeTableRecord
  2
BYBLOCK
 70
     0
  3

 72
    65
 73
     0
 40
0.0
  0
LTYPE
  5
15
330
5
100
AcDbSymbolTableRecord
100
AcDbLinetypeTableRecord
  2
BYLAYER
 70
     0
  3

 72
    65
 73
     0
 40
0.0
  0
LTYPE
  5
16
330
5
100
AcDbSymbolTableRecord
100
AcDbLinetypeTableRecord
  2
CONTINUOUS
 70
     0
  3
Solid line
 72
    65
 73
     0
 40
0.0
  0
ENDTAB
  0
TABLE
  2
LAYER
  5
2
100
AcDbSymbolTable
 70
2
  0
LAYER
  5
50
100
AcDbSymbolTableRecord
100
AcDbLayerTableRecord
  2
0
 70
0
  6
CONTINUOUS
  0
LAYER
  5
51
100
AcDbSymbolTableRecord
100
AcDbLayerTableRecord
  2
Plate_Outlines_alt_right
 70
0
  6
CONTINUOUS
  0
ENDTAB
  0
TABLE
  2
STYLE
  5
3
330
0
100
AcDbSymbolTable
 70
     1
  0
STYLE
  5
11
330
3
100
AcDbSymbolTableRecord
100
AcDbTextStyleTableRecord
  2
STANDARD
 70
     0
 40
0.0
 41
1.0
 50
0.0
 71
     0
 42
2.5
  3
txt
  4

  0
ENDTAB
  0
TABLE
  2
VIEW
  5
6
330
0
100
AcDbSymbolTable
 70
     0
  0
ENDTAB
  0
TABLE
  2
UCS
  5
7
330
0
100
AcDbSymbolTable
 70
     0
  0
ENDTAB
  0
TABLE
  2
APPID
  5
9
330
0
100
AcDbSymbolTable
 70
     2
  0
APPID
  5
12
330
9
100
AcDbSymbolTableRecord
100
AcDbRegAppTableRecord
  2
ACAD
 70
     0
  0
ENDTAB
  0
TABLE
  2
DIMSTYLE
  5
A
330
0
100
AcDbSymbolTable
 70
     1
  0
DIMSTYLE
105
27
330
A
100
AcDbSymbolTableRecord
100
AcDbDimStyleTableRecord
  2
ISO-25
 70
     0
  3

  4

  5

  6

  7

 40
1.0
 41
2.5
 42
0.625
 43
3.75
 44
1.25
 45
0.0
 46
0.0
 47
0.0
 48
0.0
140
2.5
141
2.5
142
0.0
143
0.03937007874016
144
1.0
145
0.0
146
1.0
147
0.625
 71
     0
 72
     0
 73
     0
 74
     0
 75
     0
 76
     0
 77
     1
 78
     8
170
     0
171
     3
172
     1
173
     0
174
     0
175
     0
176
     0
177
     0
178
     0
270
     2
271
     2
272
     2
273
     2
274
     3
340
11
275
     0
280
     0
281
     0
282
     0
283
     0
284
     8
285
     0
286
     0
287
     3
288
     0
  0
ENDTAB
  0
TABLE
  2
BLOCK_RECORD
  5
1
330
0
100
AcDbSymbolTable
 70
     1
  0
BLOCK_RECORD
  5
1F
330
1
100
AcDbSymbolTableRecord
100
AcDbBlockTableRecord
  2
*MODEL_SPACE
  0
BLOCK_RECORD
  5
1B
330
1
100
AcDbSymbolTableRecord
100
AcDbBlockTableRecord
  2
*PAPER_SPACE
  0
ENDTAB
  0
ENDSEC
  0
SECTION
  2
BLOCKS
  0
BLOCK
  5
20
330
1F
100
AcDbEntity
  8
0
100
AcDbBlockBegin
  2
*MODEL_SPACE
 70
     0
 10
0.0
 20
0.0
 30
0.0
  3
*MODEL_SPACE
  1

  0
ENDBLK
  5
21
330
1F
100
AcDbEntity
  8
0
100
AcDbBlockEnd
  0
BLOCK
  5
1C
330
1B
100
AcDbEntity
 67
     1
  8
0
100
AcDbBlockBegin
  2
*PAPER_SPACE
  1

  0
ENDBLK
  5
1D
330
1B
100
AcDbEntity
 67
     1
  8
0
100
AcDbBlockEnd
  0
ENDSEC
  0
SECTION
  2
ENTITIES
  0
LWPOLYLINE
  5
100
100
AcDbEntity
  8
Plate_Outlines_alt_right
 62
4
100
AcDbPolyline
 90
33
 70
0
 10
48.836361
 20
2.245611
 30
0.0
 10
51.198571
 20
2.507231
 30
0.0
 10
53.370281
 20
2.748531
 30
0.0
 10
55.359121
 20
2.966971
 30
0.0
 10
57.175231
 20
3.167631
 30
0.0
 10
58.826241
 20
3.350511
 30
0.0
 10
60.322301
 20
3.515611
 30
0.0
 10
61.671051
 20
3.665471
 30
0.0
 10
62.885181
 20
3.805171
 30
0.0
 10
63.969761
 20
3.932171
 30
0.0
 10
64.934971
 20
4.049011
 30
0.0
 10
65.790961
 20
4.158231
 30
0.0
 10
66.547881
 20
4.259831
 30
0.0
 10
67.210822
 20
4.356351
 30
0.0
 10
67.795032
 20
4.450331
 30
0.0
 10
68.303032
 20
4.541771
 30
0.0
 10
68.750072
 20
4.633211
 30
0.0
 10
69.138692
 20
4.727191
 30
0.0
 10
69.484142
 20
4.823711
 30
0.0
 10
69.794022
 20
4.925311
 30
0.0
 10
70.075962
 20
5.031991
 30
0.0
 10
70.340122
 20
5.146291
 30
0.0
 10
70.594122
 20
5.270751
 30
0.0
 10
70.850662
 20
5.405371
 30
0.0
 10
71.114832
 20
5.555231
 30
0.0
 10
71.396772
 20
5.715251
 30
0.0
 10
71.706652
 20
5.895591
 30
0.0
 10
72.054632
 20
6.088631
 30
0.0
 10
72.448332
 20
6.304531
 30
0.0
 10
72.897912
 20
6.540751
 30
0.0
 10
73.408462
 20
6.797291
 30
0.0
 10
73.995202
 20
7.079231
 30
0.0
 10
74.663232
 20
7.386571
 30
0.0
  0
LWPOLYLINE
  5
101
100
AcDbEntity
  8
Plate_Outlines_alt_right
 62
4
100
AcDbPolyline
 90
4
 70
0
 10
14.962730
 20
0.132211
 30
0.0
 10
17.215720
 20
0.210951
 30
0.0
 10
19.676990
 20
0.294771
 30
0.0
 10
22.361791
 20
0.386211
 30
0.0
  0
LWPOLYLINE
  5
102
100
AcDbEntity
  8
Plate_Outlines_alt_right
 62
4
100
AcDbPolyline
 90
27
 70
0
 10
101.582292
 20
87.635212
 30
0.0
 10
101.434972
 20
87.800312
 30
0.0
 10
101.213992
 20
87.965412
 30
0.0
 10
101.020952
 20
88.021292
 30
0.0
 10
100.749172
 20
88.039072
 30
0.0
 10
100.368172
 20
88.021292
 30
0.0
 10
100.124332
 20
87.998432
 30
0.0
 10
99.839852
 20
87.967952
 30
0.0
 10
99.512192
 20
87.929852
 30
0.0
 10
99.136262
 20
87.884132
 30
0.0
 10
98.704462
 20
87.830792
 30
0.0
 10
98.219322
 20
87.769832
 30
0.0
 10
97.670682
 20
87.701252
 30
0.0
 10
97.055992
 20
87.627592
 30
0.0
 10
96.370192
 20
87.546312
 30
0.0
 10
95.613262
 20
87.459952
 30
0.0
 10
94.775062
 20
87.365972
 30
0.0
 10
93.855572
 20
87.269452
 30
0.0
 10
92.849732
 20
87.165312
 30
0.0
 10
91.754982
 20
87.056092
 30
0.0
 10
90.561182
 20
86.944332
 30
0.0
 10
89.270852
 20
86.827492
 30
0.0
 10
87.876382
 20
86.705572
 30
0.0
 10
86.372692
 20
86.581112
 30
0.0
 10
84.757242
 20
86.451572
 30
0.0
 10
83.027492
 20
86.319492
 30
0.0
 10
81.173282
 20
86.184872
 30
0.0
  0
LWPOLYLINE
  5
103
100
AcDbEntity
  8
Plate_Outlines_alt_right
 62
4
100
AcDbPolyline
 90
2
 70
0
 10
109.433432
 20
26.746331
 30
0.0
 10
101.582292
 20
87.635212
 30
0.0
  0
LWPOLYLINE
  5
104
100
AcDbEntity
  8
Plate_Outlines_alt_right
 62
4
100
AcDbPolyline
 90
33
 70
0
 10
22.361791
 20
0.386212
 30
0.0
 10
23.136491
 20
0.411612
 30
0.0
 10
23.817221
 20
0.434472
 30
0.0
 10
24.414121
 20
0.454792
 30
0.0
 10
24.937361
 20
0.472572
 30
0.0
 10
25.397101
 20
0.490352
 30
0.0
 10
25.800971
 20
0.505592
 30
0.0
 10
26.161651
 20
0.520832
 30
0.0
 10
26.484231
 20
0.536072
 30
0.0
 10
26.783951
 20
0.553852
 30
0.0
 10
27.065901
 20
0.571632
 30
0.0
 10
27.342761
 20
0.589412
 30
0.0
 10
27.622161
 20
0.612272
 30
0.0
 10
27.914261
 20
0.635132
 30
0.0
 10
28.229221
 20
0.663072
 30
0.0
 10
28.577201
 20
0.693552
 30
0.0
 10
28.968371
 20
0.726572
 30
0.0
 10
29.410331
 20
0.767212
 30
0.0
 10
29.913251
 20
0.810392
 30
0.0
 10
30.487291
 20
0.861192
 30
0.0
 10
31.142621
 20
0.917072
 30
0.0
 10
31.889381
 20
0.978032
 30
0.0
 10
32.735211
 20
1.049152
 30
0.0
 10
33.692791
 20
1.125352
 30
0.0
 10
34.767221
 20
1.211712
 30
0.0
 10
35.971181
 20
1.305692
 30
0.0
 10
37.314851
 20
1.407292
 30
0.0
 10
38.808381
 20
1.521592
 30
0.0
 10
40.456851
 20
1.643512
 30
0.0
 10
42.275501
 20
1.775592
 30
0.0
 10
44.271951
 20
1.920372
 30
0.0
 10
46.456361
 20
2.077852
 30
0.0
 10
48.836361
 20
2.245492
 30
0.0
  0
LWPOLYLINE
  5
105
100
AcDbEntity
  8
Plate_Outlines_alt_right
 62
4
100
AcDbPolyline
 90
33
 70
0
 10
74.663232
 20
7.386451
 30
0.0
 10
77.711242
 20
9.141591
 30
0.0
 10
80.568762
 20
10.764651
 30
0.0
 10
83.240852
 20
12.260711
 30
0.0
 10
85.735152
 20
13.634851
 30
0.0
 10
88.056722
 20
14.892151
 30
0.0
 10
90.215732
 20
16.042771
 30
0.0
 10
92.214732
 20
17.089251
 30
0.0
 10
94.063852
 20
18.036671
 30
0.0
 10
95.765662
 20
18.892651
 30
0.0
 10
97.327772
 20
19.662271
 30
0.0
 10
98.757802
 20
20.353151
 30
0.0
 10
100.060832
 20
20.967831
 30
0.0
 10
101.244472
 20
21.513931
 30
0.0
 10
102.313812
 20
21.999071
 30
0.0
 10
103.276472
 20
22.428331
 30
0.0
 10
104.137532
 20
22.804251
 30
0.0
 10
104.904612
 20
23.136991
 30
0.0
 10
105.582792
 20
23.431631
 30
0.0
 10
106.182232
 20
23.690711
 30
0.0
 10
106.702932
 20
23.924391
 30
0.0
 10
107.157592
 20
24.135211
 30
0.0
 10
107.548752
 20
24.333331
 30
0.0
 10
107.884032
 20
24.521291
 30
0.0
 10
108.168512
 20
24.704171
 30
0.0
 10
108.409812
 20
24.889591
 30
0.0
 10
108.615552
 20
25.082631
 30
0.0
 10
108.790812
 20
25.290911
 30
0.0
 10
108.943212
 20
25.516971
 30
0.0
 10
109.075292
 20
25.770971
 30
0.0
 10
109.197212
 20
26.055451
 30
0.0
 10
109.316592
 20
26.378031
 30
0.0
 10
109.433432
 20
26.746331
 30
0.0
  0
LWPOLYLINE
  5
106
100
AcDbEntity
  8
Plate_Outlines_alt_right
 62
4
100
AcDbPolyline
 90
58
 70
0
 10
81.173282
 20
86.184872
 30
0.0
 10
80.619562
 20
86.156932
 30
0.0
 10
80.065842
 20
86.144232
 30
0.0
 10
79.512112
 20
86.146772
 30
0.0
 10
78.958392
 20
86.167092
 30
0.0
 10
78.407212
 20
86.200112
 30
0.0
 10
77.856022
 20
86.248372
 30
0.0
 10
77.304842
 20
86.309332
 30
0.0
 10
76.756202
 20
86.380452
 30
0.0
 10
76.205012
 20
86.461732
 30
0.0
 10
75.656372
 20
86.555712
 30
0.0
 10
75.107732
 20
86.654772
 30
0.0
 10
74.559082
 20
86.761452
 30
0.0
 10
74.010442
 20
86.875752
 30
0.0
 10
73.461802
 20
86.995132
 30
0.0
 10
72.913152
 20
87.119592
 30
0.0
 10
72.367052
 20
87.246592
 30
0.0
 10
71.818412
 20
87.373592
 30
0.0
 10
71.269772
 20
87.505672
 30
0.0
 10
70.721122
 20
87.635212
 30
0.0
 10
70.172482
 20
87.764752
 30
0.0
 10
69.623842
 20
87.894292
 30
0.0
 10
69.075192
 20
88.018752
 30
0.0
 10
68.526552
 20
88.140672
 30
0.0
 10
67.975372
 20
88.254972
 30
0.0
 10
67.426722
 20
88.366732
 30
0.0
 10
66.875541
 20
88.470872
 30
0.0
 10
66.324361
 20
88.564852
 30
0.0
 10
65.770641
 20
88.651212
 30
0.0
 10
65.219451
 20
88.727412
 30
0.0
 10
64.665731
 20
88.793452
 30
0.0
 10
64.109471
 20
88.846792
 30
0.0
 10
63.553201
 20
88.884892
 30
0.0
 10
61.615171
 20
88.989032
 30
0.0
 10
59.674601
 20
89.070312
 30
0.0
 10
57.734031
 20
89.128732
 30
0.0
 10
55.796001
 20
89.166832
 30
0.0
 10
53.855431
 20
89.184612
 30
0.0
 10
51.914861
 20
89.184612
 30
0.0
 10
49.974291
 20
89.166832
 30
0.0
 10
48.031171
 20
89.133812
 30
0.0
 10
46.090601
 20
89.085552
 30
0.0
 10
44.150031
 20
89.024592
 30
0.0
 10
42.209461
 20
88.953472
 30
0.0
 10
40.266351
 20
88.869652
 30
0.0
 10
38.325781
 20
88.775672
 30
0.0
 10
36.382671
 20
88.674072
 30
0.0
 10
34.442101
 20
88.564852
 30
0.0
 10
32.498991
 20
88.450552
 30
0.0
 10
30.555871
 20
88.331172
 30
0.0
 10
28.615311
 20
88.209252
 30
0.0
 10
26.672191
 20
88.084792
 30
0.0
 10
24.729081
 20
87.957792
 30
0.0
 10
22.785971
 20
87.833332
 30
0.0
 10
20.845400
 20
87.708872
 30
0.0
 10
18.902290
 20
87.589492
 30
0.0
 10
16.959180
 20
87.472652
 30
0.0
 10
6.129990
 20
73.809903
 30
0.0
  0
LWPOLYLINE
  5
107
100
AcDbEntity
  8
Plate_Outlines_alt_right
 62
4
100
AcDbPolyline
 90
4
 70
1
 10
99.187062
 20
80.548613
 30
0.0
 10
85.290652
 20
78.841733
 30
0.0
 10
86.997542
 20
64.945393
 30
0.0
 10
100.893952
 20
66.652273
 30
0.0
  0
LWPOLYLINE
  5
108
100
AcDbEntity
  8
Plate_Outlines_alt_right
 62
4
100
AcDbPolyline
 90
4
 70
1
 10
79.700072
 20
82.953993
 30
0.0
 10
65.803661
 20
81.247113
 30
0.0
 10
67.510542
 20
67.350773
 30
0.0
 10
81.406962
 20
69.057653
 30
0.0
  0
LWPOLYLINE
  5
109
100
AcDbEntity
  8
Plate_Outlines_alt_right
 62
4
100
AcDbPolyline
 90
4
 70
1
 10
60.208001
 20
85.359374
 30
0.0
 10
46.311581
 20
83.652494
 30
0.0
 10
48.018471
 20
69.756153
 30
0.0
 10
61.914891
 20
71.463033
 30
0.0
  0
LWPOLYLINE
  5
10a
100
AcDbEntity
  8
Plate_Outlines_alt_right
 62
4
100
AcDbPolyline
 90
4
 70
1
 10
41.881801
 20
78.310873
 30
0.0
 10
27.985381
 20
76.603993
 30
0.0
 10
29.692271
 20
62.707653
 30
0.0
 10
43.588691
 20
64.414533
 30
0.0
  0
LWPOLYLINE
  5
10b
100
AcDbEntity
  8
Plate_Outlines_alt_right
 62
4
100
AcDbPolyline
 90
4
 70
1
 10
22.973931
 20
75.989313
 30
0.0
 10
9.077510
 20
74.282433
 30
0.0
 10
10.784400
 20
60.386093
 30
0.0
 10
24.680821
 20
62.092973
 30
0.0
  0
LWPOLYLINE
  5
10c
100
AcDbEntity
  8
Plate_Outlines_alt_right
 62
4
100
AcDbPolyline
 90
4
 70
1
 10
25.295501
 20
57.081553
 30
0.0
 10
11.399090
 20
55.374673
 30
0.0
 10
13.105980
 20
41.478332
 30
0.0
 10
27.002391
 20
43.185212
 30
0.0
  0
LWPOLYLINE
  5
10d
100
AcDbEntity
  8
Plate_Outlines_alt_right
 62
4
100
AcDbPolyline
 90
4
 70
1
 10
44.203371
 20
59.403113
 30
0.0
 10
30.306951
 20
57.696233
 30
0.0
 10
32.013841
 20
43.799892
 30
0.0
 10
45.910261
 20
45.506773
 30
0.0
  0
LWPOLYLINE
  5
10e
100
AcDbEntity
  8
Plate_Outlines_alt_right
 62
4
100
AcDbPolyline
 90
4
 70
1
 10
62.532121
 20
66.451613
 30
0.0
 10
48.635701
 20
64.744733
 30
0.0
 10
50.342591
 20
50.848393
 30
0.0
 10
64.239011
 20
52.555273
 30
0.0
  0
LWPOLYLINE
  5
10f
100
AcDbEntity
  8
Plate_Outlines_alt_right
 62
4
100
AcDbPolyline
 90
4
 70
1
 10
82.019112
 20
64.046233
 30
0.0
 10
68.122692
 20
62.339353
 30
0.0
 10
69.829582
 20
48.443013
 30
0.0
 10
83.726002
 20
50.149893
 30
0.0
  0
LWPOLYLINE
  5
110
100
AcDbEntity
  8
Plate_Outlines_alt_right
 62
4
100
AcDbPolyline
 90
4
 70
1
 10
101.508632
 20
61.640853
 30
0.0
 10
87.612222
 20
59.933973
 30
0.0
 10
89.319112
 20
46.037633
 30
0.0
 10
103.215512
 20
47.744513
 30
0.0
  0
LWPOLYLINE
  5
111
100
AcDbEntity
  8
Plate_Outlines_alt_right
 62
4
100
AcDbPolyline
 90
4
 70
1
 10
103.830192
 20
42.733092
 30
0.0
 10
89.933792
 20
41.026212
 30
0.0
 10
91.640682
 20
27.129872
 30
0.0
 10
105.537072
 20
28.836752
 30
0.0
  0
LWPOLYLINE
  5
112
100
AcDbEntity
  8
Plate_Outlines_alt_right
 62
4
100
AcDbPolyline
 90
4
 70
1
 10
84.343222
 20
45.138473
 30
0.0
 10
70.446802
 20
43.431592
 30
0.0
 10
72.153692
 20
29.535252
 30
0.0
 10
86.050112
 20
31.242132
 30
0.0
  0
LWPOLYLINE
  5
113
100
AcDbEntity
  8
Plate_Outlines_alt_right
 62
4
100
AcDbPolyline
 90
4
 70
1
 10
64.851151
 20
47.543853
 30
0.0
 10
50.954731
 20
45.836973
 30
0.0
 10
52.661621
 20
31.940632
 30
0.0
 10
66.558041
 20
33.647512
 30
0.0
  0
LWPOLYLINE
  5
114
100
AcDbEntity
  8
Plate_Outlines_alt_right
 62
4
100
AcDbPolyline
 90
4
 70
1
 10
70.119142
 20
24.198712
 30
0.0
 10
56.222721
 20
22.491832
 30
0.0
 10
57.929611
 20
8.595492
 30
0.0
 10
71.826032
 20
10.302372
 30
0.0
  0
LWPOLYLINE
  5
115
100
AcDbEntity
  8
Plate_Outlines_alt_right
 62
4
100
AcDbPolyline
 90
4
 70
1
 10
46.524941
 20
40.495352
 30
0.0
 10
32.628531
 20
38.788472
 30
0.0
 10
34.335421
 20
24.892132
 30
0.0
 10
48.231841
 20
26.599012
 30
0.0
  0
LWPOLYLINE
  5
116
100
AcDbEntity
  8
Plate_Outlines_alt_right
 62
4
100
AcDbPolyline
 90
4
 70
1
 10
27.617081
 20
38.173792
 30
0.0
 10
13.720660
 20
36.466912
 30
0.0
 10
15.427550
 20
22.570572
 30
0.0
 10
29.323971
 20
24.277452
 30
0.0
  0
LWPOLYLINE
  5
117
100
AcDbEntity
  8
Plate_Outlines_alt_right
 62
4
100
AcDbPolyline
 90
4
 70
1
 10
39.392591
 20
20.426812
 30
0.0
 10
25.496171
 20
18.719932
 30
0.0
 10
27.203061
 20
4.823592
 30
0.0
 10
41.099471
 20
6.530472
 30
0.0
  0
LWPOLYLINE
  5
118
100
AcDbEntity
  8
Plate_Outlines_alt_right
 62
4
100
AcDbPolyline
 90
2
 70
0
 10
6.129990
 20
73.809903
 30
0.0
 10
14.962730
 20
0.132152
 30
0.0
  0
ENDSEC
  0
SECTION
  2
OBJECTS
  0
DICTIONARY
  5
C
330
0
100
AcDbDictionary
  3
ACAD_GROUP
350
D
  3
ACAD_MLINESTYLE
350
17
  0
DICTIONARY
  5
D
330
C
100
AcDbDictionary
  0
DICTIONARY
  5
1A
330
C
100
AcDbDictionary
  0
DICTIONARY
  5
17
330
C
100
AcDbDictionary
  3
STANDARD
350
18
  0
DICTIONARY
  5
19
330
C
100
AcDbDictionary
  0
ENDSEC
  0
EOF
