  0
SECTION
  2
HEADER
  9
$ACADVER
  1
AC1014
  9
$HANDSEED
  5
FFFF
  9
$MEASUREMENT
 70
     1
  0
ENDSEC
  0
SECTION
  2
TABLES
  0
TABLE
  2
VPORT
  5
8
330
0
100
AcDbSymbolTable
 70
     4
  0
VPORT
  5
2E
330
8
100
AcDbSymbolTableRecord
100
AcDbViewportTableRecord
  2
*ACTIVE
 70
     0
 10
0.0
 20
0.0
 11
1.0
 21
1.0
 12
210.0
 22
148.5
 13
0.0
 23
0.0
 14
10.0
 24
10.0
 15
10.0
 25
10.0
 16
0.0
 26
0.0
 36
1.0
 17
0.0
 27
0.0
 37
0.0
 40
341.0
 41
1.24
 42
50.0
 43
0.0
 44
0.0
 50
0.0
 51
0.0
 71
     0
 72
   100
 73
     1
 74
     3
 75
     0
 76
     0
 77
     0
 78
     0
  0
ENDTAB
  0
TABLE
  2
LTYPE
  5
5
330
0
100
AcDbSymbolTable
 70
     1
  0
LTYPE
  5
14
330
5
100
AcDbSymbolTableRecord
100
AcDbLinetypeTableRecord
  2
BYBLOCK
 70
     0
  3

 72
    65
 73
     0
 40
0.0
  0
LTYPE
  5
15
330
5
100
AcDbSymbolTableRecord
100
AcDbLinetypeTableRecord
  2
BYLAYER
 70
     0
  3

 72
    65
 73
     0
 40
0.0
  0
LTYPE
  5
16
330
5
100
AcDbSymbolTableRecord
100
AcDbLinetypeTableRecord
  2
CONTINUOUS
 70
     0
  3
Solid line
 72
    65
 73
     0
 40
0.0
  0
ENDTAB
  0
TABLE
  2
LAYER
  5
2
100
AcDbSymbolTable
 70
2
  0
LAYER
  5
50
100
AcDbSymbolTableRecord
100
AcDbLayerTableRecord
  2
0
 70
0
  6
CONTINUOUS
  0
LAYER
  5
51
100
AcDbSymbolTableRecord
100
AcDbLayerTableRecord
  2
Bottom_Plate
 70
0
  6
CONTINUOUS
  0
ENDTAB
  0
TABLE
  2
STYLE
  5
3
330
0
100
AcDbSymbolTable
 70
     1
  0
STYLE
  5
11
330
3
100
AcDbSymbolTableRecord
100
AcDbTextStyleTableRecord
  2
STANDARD
 70
     0
 40
0.0
 41
1.0
 50
0.0
 71
     0
 42
2.5
  3
txt
  4

  0
ENDTAB
  0
TABLE
  2
VIEW
  5
6
330
0
100
AcDbSymbolTable
 70
     0
  0
ENDTAB
  0
TABLE
  2
UCS
  5
7
330
0
100
AcDbSymbolTable
 70
     0
  0
ENDTAB
  0
TABLE
  2
APPID
  5
9
330
0
100
AcDbSymbolTable
 70
     2
  0
APPID
  5
12
330
9
100
AcDbSymbolTableRecord
100
AcDbRegAppTableRecord
  2
ACAD
 70
     0
  0
ENDTAB
  0
TABLE
  2
DIMSTYLE
  5
A
330
0
100
AcDbSymbolTable
 70
     1
  0
DIMSTYLE
105
27
330
A
100
AcDbSymbolTableRecord
100
AcDbDimStyleTableRecord
  2
ISO-25
 70
     0
  3

  4

  5

  6

  7

 40
1.0
 41
2.5
 42
0.625
 43
3.75
 44
1.25
 45
0.0
 46
0.0
 47
0.0
 48
0.0
140
2.5
141
2.5
142
0.0
143
0.03937007874016
144
1.0
145
0.0
146
1.0
147
0.625
 71
     0
 72
     0
 73
     0
 74
     0
 75
     0
 76
     0
 77
     1
 78
     8
170
     0
171
     3
172
     1
173
     0
174
     0
175
     0
176
     0
177
     0
178
     0
270
     2
271
     2
272
     2
273
     2
274
     3
340
11
275
     0
280
     0
281
     0
282
     0
283
     0
284
     8
285
     0
286
     0
287
     3
288
     0
  0
ENDTAB
  0
TABLE
  2
BLOCK_RECORD
  5
1
330
0
100
AcDbSymbolTable
 70
     1
  0
BLOCK_RECORD
  5
1F
330
1
100
AcDbSymbolTableRecord
100
AcDbBlockTableRecord
  2
*MODEL_SPACE
  0
BLOCK_RECORD
  5
1B
330
1
100
AcDbSymbolTableRecord
100
AcDbBlockTableRecord
  2
*PAPER_SPACE
  0
ENDTAB
  0
ENDSEC
  0
SECTION
  2
BLOCKS
  0
BLOCK
  5
20
330
1F
100
AcDbEntity
  8
0
100
AcDbBlockBegin
  2
*MODEL_SPACE
 70
     0
 10
0.0
 20
0.0
 30
0.0
  3
*MODEL_SPACE
  1

  0
ENDBLK
  5
21
330
1F
100
AcDbEntity
  8
0
100
AcDbBlockEnd
  0
BLOCK
  5
1C
330
1B
100
AcDbEntity
 67
     1
  8
0
100
AcDbBlockBegin
  2
*PAPER_SPACE
  1

  0
ENDBLK
  5
1D
330
1B
100
AcDbEntity
 67
     1
  8
0
100
AcDbBlockEnd
  0
ENDSEC
  0
SECTION
  2
ENTITIES
  0
LWPOLYLINE
  5
100
100
AcDbEntity
  8
Bottom_Plate
 62
2
100
AcDbPolyline
 90
33
 70
0
 10
60.696772
 20
2.952419
 30
0.0
 10
58.334572
 20
3.214039
 30
0.0
 10
56.162871
 20
3.455339
 30
0.0
 10
54.174051
 20
3.673779
 30
0.0
 10
52.357950
 20
3.874439
 30
0.0
 10
50.706950
 20
4.057319
 30
0.0
 10
49.210890
 20
4.222419
 30
0.0
 10
47.862150
 20
4.372279
 30
0.0
 10
46.648029
 20
4.511979
 30
0.0
 10
45.563449
 20
4.638979
 30
0.0
 10
44.598249
 20
4.755819
 30
0.0
 10
43.742269
 20
4.865039
 30
0.0
 10
42.985349
 20
4.966639
 30
0.0
 10
42.322408
 20
5.063159
 30
0.0
 10
41.738208
 20
5.157139
 30
0.0
 10
41.230208
 20
5.248579
 30
0.0
 10
40.783168
 20
5.340019
 30
0.0
 10
40.394548
 20
5.433999
 30
0.0
 10
40.049108
 20
5.530519
 30
0.0
 10
39.739228
 20
5.632119
 30
0.0
 10
39.457288
 20
5.738799
 30
0.0
 10
39.193128
 20
5.853099
 30
0.0
 10
38.939128
 20
5.977559
 30
0.0
 10
38.682588
 20
6.112179
 30
0.0
 10
38.418428
 20
6.262039
 30
0.0
 10
38.136488
 20
6.422059
 30
0.0
 10
37.826608
 20
6.602399
 30
0.0
 10
37.478627
 20
6.795439
 30
0.0
 10
37.084927
 20
7.011339
 30
0.0
 10
36.635347
 20
7.247559
 30
0.0
 10
36.124807
 20
7.504100
 30
0.0
 10
35.538067
 20
7.786040
 30
0.0
 10
34.870047
 20
8.093380
 30
0.0
  0
LWPOLYLINE
  5
101
100
AcDbEntity
  8
Bottom_Plate
 62
2
100
AcDbPolyline
 90
33
 70
0
 10
117.039063
 20
0.099998
 30
0.0
 10
116.162763
 20
0.099998
 30
0.0
 10
115.390603
 20
0.099998
 30
0.0
 10
114.712423
 20
0.099998
 30
0.0
 10
114.120603
 20
0.102538
 30
0.0
 10
113.599903
 20
0.102538
 30
0.0
 10
113.142703
 20
0.105078
 30
0.0
 10
112.736303
 20
0.110158
 30
0.0
 10
112.368002
 20
0.115238
 30
0.0
 10
112.030182
 20
0.120318
 30
0.0
 10
111.712682
 20
0.130478
 30
0.0
 10
111.400262
 20
0.140638
 30
0.0
 10
111.085302
 20
0.150798
 30
0.0
 10
110.755102
 20
0.166038
 30
0.0
 10
110.399502
 20
0.181278
 30
0.0
 10
110.008342
 20
0.201598
 30
0.0
 10
109.568922
 20
0.224458
 30
0.0
 10
109.071082
 20
0.247318
 30
0.0
 10
108.504662
 20
0.275258
 30
0.0
 10
107.856962
 20
0.308278
 30
0.0
 10
107.120361
 20
0.341298
 30
0.0
 10
106.279621
 20
0.379398
 30
0.0
 10
105.327121
 20
0.422578
 30
0.0
 10
104.250161
 20
0.468298
 30
0.0
 10
103.036041
 20
0.519098
 30
0.0
 10
101.679680
 20
0.572438
 30
0.0
 10
100.163300
 20
0.630858
 30
0.0
 10
98.481820
 20
0.694358
 30
0.0
 10
96.619999
 20
0.765478
 30
0.0
 10
94.570219
 20
0.839138
 30
0.0
 10
92.317238
 20
0.917878
 30
0.0
 10
89.855978
 20
1.001698
 30
0.0
 10
87.171197
 20
1.093138
 30
0.0
  0
LWPOLYLINE
  5
102
100
AcDbEntity
  8
Bottom_Plate
 62
2
100
AcDbPolyline
 90
27
 70
0
 10
7.951122
 20
88.342156
 30
0.0
 10
8.098442
 20
88.507256
 30
0.0
 10
8.319422
 20
88.672356
 30
0.0
 10
8.512462
 20
88.728236
 30
0.0
 10
8.784242
 20
88.746016
 30
0.0
 10
9.165242
 20
88.728236
 30
0.0
 10
9.409082
 20
88.705376
 30
0.0
 10
9.693562
 20
88.674896
 30
0.0
 10
10.021222
 20
88.636796
 30
0.0
 10
10.397142
 20
88.591076
 30
0.0
 10
10.828942
 20
88.537736
 30
0.0
 10
11.314082
 20
88.476776
 30
0.0
 10
11.862722
 20
88.408196
 30
0.0
 10
12.477402
 20
88.334536
 30
0.0
 10
13.163203
 20
88.253256
 30
0.0
 10
13.920123
 20
88.166896
 30
0.0
 10
14.758323
 20
88.072916
 30
0.0
 10
15.677803
 20
87.976396
 30
0.0
 10
16.683643
 20
87.872256
 30
0.0
 10
17.778384
 20
87.763036
 30
0.0
 10
18.972184
 20
87.651276
 30
0.0
 10
20.262504
 20
87.534436
 30
0.0
 10
21.656964
 20
87.412515
 30
0.0
 10
23.160645
 20
87.288055
 30
0.0
 10
24.776085
 20
87.158515
 30
0.0
 10
26.505825
 20
87.026435
 30
0.0
 10
28.360026
 20
86.891815
 30
0.0
  0
LWPOLYLINE
  5
103
100
AcDbEntity
  8
Bottom_Plate
 62
2
100
AcDbPolyline
 90
28
 70
0
 10
205.438701
 20
86.782595
 30
0.0
 10
207.318301
 20
86.927375
 30
0.0
 10
209.073442
 20
87.069615
 30
0.0
 10
210.709202
 20
87.206775
 30
0.0
 10
212.233202
 20
87.338855
 30
0.0
 10
213.647983
 20
87.468395
 30
0.0
 10
214.956083
 20
87.592856
 30
0.0
 10
216.165123
 20
87.712236
 30
0.0
 10
217.277643
 20
87.826536
 30
0.0
 10
218.298724
 20
87.935756
 30
0.0
 10
219.228364
 20
88.037356
 30
0.0
 10
220.076724
 20
88.136416
 30
0.0
 10
220.846344
 20
88.225316
 30
0.0
 10
221.539764
 20
88.311676
 30
0.0
 10
222.162064
 20
88.387876
 30
0.0
 10
222.718325
 20
88.458996
 30
0.0
 10
223.213625
 20
88.522496
 30
0.0
 10
223.650505
 20
88.580916
 30
0.0
 10
224.031505
 20
88.629176
 30
0.0
 10
224.364245
 20
88.667276
 30
0.0
 10
224.651265
 20
88.700296
 30
0.0
 10
224.897645
 20
88.723156
 30
0.0
 10
225.108465
 20
88.738396
 30
0.0
 10
225.436125
 20
88.740936
 30
0.0
 10
225.667265
 20
88.705376
 30
0.0
 10
225.911105
 20
88.573296
 30
0.0
 10
226.053345
 20
88.431056
 30
0.0
 10
226.129545
 20
88.342156
 30
0.0
  0
LWPOLYLINE
  5
104
100
AcDbEntity
  8
Bottom_Plate
 62
2
100
AcDbPolyline
 90
2
 70
0
 10
0.099980
 20
27.453263
 30
0.0
 10
7.951122
 20
88.342156
 30
0.0
  0
LWPOLYLINE
  5
105
100
AcDbEntity
  8
Bottom_Plate
 62
2
100
AcDbPolyline
 90
2
 70
0
 10
226.129545
 20
88.342156
 30
0.0
 10
233.978147
 20
27.354203
 30
0.0
  0
LWPOLYLINE
  5
106
100
AcDbEntity
  8
Bottom_Plate
 62
2
100
AcDbPolyline
 90
33
 70
0
 10
125.896045
 20
87.539516
 30
0.0
 10
127.836606
 20
87.580156
 30
0.0
 10
129.779706
 20
87.633496
 30
0.0
 10
131.722806
 20
87.702076
 30
0.0
 10
133.665907
 20
87.780816
 30
0.0
 10
135.609007
 20
87.869716
 30
0.0
 10
137.549568
 20
87.968776
 30
0.0
 10
139.492668
 20
88.077996
 30
0.0
 10
141.435768
 20
88.189756
 30
0.0
 10
143.378869
 20
88.309136
 30
0.0
 10
145.321969
 20
88.433596
 30
0.0
 10
147.265069
 20
88.558056
 30
0.0
 10
149.205630
 20
88.687596
 30
0.0
 10
151.148730
 20
88.814596
 30
0.0
 10
153.091831
 20
88.941596
 30
0.0
 10
155.034931
 20
89.066056
 30
0.0
 10
156.975491
 20
89.187976
 30
0.0
 10
158.918592
 20
89.304816
 30
0.0
 10
160.859152
 20
89.414036
 30
0.0
 10
162.802253
 20
89.518176
 30
0.0
 10
164.742813
 20
89.612156
 30
0.0
 10
166.685913
 20
89.695976
 30
0.0
 10
168.626474
 20
89.769636
 30
0.0
 10
170.567034
 20
89.828056
 30
0.0
 10
172.510134
 20
89.876316
 30
0.0
 10
174.450695
 20
89.906796
 30
0.0
 10
176.391255
 20
89.922036
 30
0.0
 10
178.331816
 20
89.916956
 30
0.0
 10
180.269836
 20
89.896636
 30
0.0
 10
182.210396
 20
89.853456
 30
0.0
 10
184.150957
 20
89.789956
 30
0.0
 10
186.088977
 20
89.703596
 30
0.0
 10
188.029538
 20
89.591836
 30
0.0
  0
LWPOLYLINE
  5
107
100
AcDbEntity
  8
Bottom_Plate
 62
2
100
AcDbPolyline
 90
33
 70
0
 10
87.171197
 20
1.093138
 30
0.0
 10
86.396497
 20
1.118538
 30
0.0
 10
85.715777
 20
1.141398
 30
0.0
 10
85.118877
 20
1.161718
 30
0.0
 10
84.595637
 20
1.179498
 30
0.0
 10
84.135897
 20
1.197278
 30
0.0
 10
83.732037
 20
1.212518
 30
0.0
 10
83.371357
 20
1.227758
 30
0.0
 10
83.048777
 20
1.242998
 30
0.0
 10
82.749057
 20
1.260778
 30
0.0
 10
82.467116
 20
1.278558
 30
0.0
 10
82.190256
 20
1.296338
 30
0.0
 10
81.910856
 20
1.319198
 30
0.0
 10
81.618756
 20
1.342058
 30
0.0
 10
81.303796
 20
1.369998
 30
0.0
 10
80.955816
 20
1.400478
 30
0.0
 10
80.564656
 20
1.433498
 30
0.0
 10
80.122696
 20
1.474138
 30
0.0
 10
79.619776
 20
1.517318
 30
0.0
 10
79.045736
 20
1.568118
 30
0.0
 10
78.390416
 20
1.623998
 30
0.0
 10
77.643656
 20
1.684958
 30
0.0
 10
76.797835
 20
1.756078
 30
0.0
 10
75.840255
 20
1.832278
 30
0.0
 10
74.765835
 20
1.918638
 30
0.0
 10
73.561875
 20
2.012618
 30
0.0
 10
72.218214
 20
2.114218
 30
0.0
 10
70.724694
 20
2.228518
 30
0.0
 10
69.076234
 20
2.350438
 30
0.0
 10
67.257593
 20
2.482518
 30
0.0
 10
65.261153
 20
2.627299
 30
0.0
 10
63.076753
 20
2.784779
 30
0.0
 10
60.696772
 20
2.952419
 30
0.0
  0
LWPOLYLINE
  5
108
100
AcDbEntity
  8
Bottom_Plate
 62
2
100
AcDbPolyline
 90
33
 70
0
 10
108.116042
 20
87.539516
 30
0.0
 10
108.669762
 20
87.531896
 30
0.0
 10
109.226022
 20
87.524276
 30
0.0
 10
109.782282
 20
87.516655
 30
0.0
 10
110.336002
 20
87.509035
 30
0.0
 10
110.892262
 20
87.501415
 30
0.0
 10
111.448522
 20
87.496335
 30
0.0
 10
112.004782
 20
87.491255
 30
0.0
 10
112.558503
 20
87.486175
 30
0.0
 10
113.114763
 20
87.481095
 30
0.0
 10
113.671023
 20
87.478555
 30
0.0
 10
114.227283
 20
87.473475
 30
0.0
 10
114.781003
 20
87.470935
 30
0.0
 10
115.337263
 20
87.470935
 30
0.0
 10
115.893523
 20
87.468395
 30
0.0
 10
116.449783
 20
87.468395
 30
0.0
 10
117.006043
 20
87.468395
 30
0.0
 10
117.559764
 20
87.468395
 30
0.0
 10
118.116024
 20
87.468395
 30
0.0
 10
118.672284
 20
87.470935
 30
0.0
 10
119.228544
 20
87.470935
 30
0.0
 10
119.782264
 20
87.473475
 30
0.0
 10
120.338524
 20
87.478555
 30
0.0
 10
120.894784
 20
87.481095
 30
0.0
 10
121.451044
 20
87.486175
 30
0.0
 10
122.004764
 20
87.491255
 30
0.0
 10
122.561025
 20
87.496335
 30
0.0
 10
123.117285
 20
87.501415
 30
0.0
 10
123.673545
 20
87.509035
 30
0.0
 10
124.227265
 20
87.516655
 30
0.0
 10
124.783525
 20
87.524276
 30
0.0
 10
125.339785
 20
87.531896
 30
0.0
 10
125.896045
 20
87.539516
 30
0.0
  0
LWPOLYLINE
  5
109
100
AcDbEntity
  8
Bottom_Plate
 62
2
100
AcDbPolyline
 90
33
 70
0
 10
34.870047
 20
8.093380
 30
0.0
 10
31.822046
 20
9.848520
 30
0.0
 10
28.964546
 20
11.471580
 30
0.0
 10
26.292465
 20
12.967641
 30
0.0
 10
23.798185
 20
14.341781
 30
0.0
 10
21.476624
 20
15.599081
 30
0.0
 10
19.317624
 20
16.749701
 30
0.0
 10
17.318643
 20
17.796182
 30
0.0
 10
15.469523
 20
18.743602
 30
0.0
 10
13.767723
 20
19.599582
 30
0.0
 10
12.205622
 20
20.369202
 30
0.0
 10
10.775602
 20
21.060082
 30
0.0
 10
9.472582
 20
21.674762
 30
0.0
 10
8.288942
 20
22.220862
 30
0.0
 10
7.219601
 20
22.706003
 30
0.0
 10
6.256941
 20
23.135263
 30
0.0
 10
5.395881
 20
23.511183
 30
0.0
 10
4.628801
 20
23.843923
 30
0.0
 10
3.950621
 20
24.138563
 30
0.0
 10
3.351181
 20
24.397643
 30
0.0
 10
2.830481
 20
24.631323
 30
0.0
 10
2.375820
 20
24.842143
 30
0.0
 10
1.984660
 20
25.040263
 30
0.0
 10
1.649380
 20
25.228223
 30
0.0
 10
1.364900
 20
25.411103
 30
0.0
 10
1.123600
 20
25.596523
 30
0.0
 10
0.917860
 20
25.789563
 30
0.0
 10
0.742600
 20
25.997843
 30
0.0
 10
0.590200
 20
26.223903
 30
0.0
 10
0.458120
 20
26.477903
 30
0.0
 10
0.336200
 20
26.762383
 30
0.0
 10
0.216820
 20
27.084963
 30
0.0
 10
0.099980
 20
27.453263
 30
0.0
  0
LWPOLYLINE
  5
10a
100
AcDbEntity
  8
Bottom_Plate
 62
2
100
AcDbPolyline
 90
33
 70
0
 10
173.399135
 20
2.957499
 30
0.0
 10
171.024234
 20
2.800019
 30
0.0
 10
168.847454
 20
2.652699
 30
0.0
 10
166.853553
 20
2.515539
 30
0.0
 10
165.039993
 20
2.391078
 30
0.0
 10
163.391533
 20
2.274238
 30
0.0
 10
161.900552
 20
2.165018
 30
0.0
 10
160.559432
 20
2.065958
 30
0.0
 10
159.355472
 20
1.974518
 30
0.0
 10
158.281052
 20
1.890698
 30
0.0
 10
157.323471
 20
1.814498
 30
0.0
 10
156.477651
 20
1.743378
 30
0.0
 10
155.730891
 20
1.682418
 30
0.0
 10
155.075571
 20
1.623998
 30
0.0
 10
154.498991
 20
1.573198
 30
0.0
 10
153.993531
 20
1.524938
 30
0.0
 10
153.549031
 20
1.484298
 30
0.0
 10
153.157871
 20
1.446198
 30
0.0
 10
152.807351
 20
1.410638
 30
0.0
 10
152.489850
 20
1.380158
 30
0.0
 10
152.192670
 20
1.352218
 30
0.0
 10
151.910730
 20
1.326818
 30
0.0
 10
151.631330
 20
1.303958
 30
0.0
 10
151.346850
 20
1.283638
 30
0.0
 10
151.047130
 20
1.263318
 30
0.0
 10
150.719470
 20
1.242998
 30
0.0
 10
150.358790
 20
1.222678
 30
0.0
 10
149.952390
 20
1.204898
 30
0.0
 10
149.490110
 20
1.184578
 30
0.0
 10
148.966870
 20
1.164258
 30
0.0
 10
148.367430
 20
1.141398
 30
0.0
 10
147.686710
 20
1.118538
 30
0.0
 10
146.912009
 20
1.093138
 30
0.0
  0
LWPOLYLINE
  5
10b
100
AcDbEntity
  8
Bottom_Plate
 62
2
100
AcDbPolyline
 90
33
 70
0
 10
199.248720
 20
8.093380
 30
0.0
 10
198.580700
 20
7.786040
 30
0.0
 10
197.991420
 20
7.506640
 30
0.0
 10
197.478339
 20
7.250099
 30
0.0
 10
197.028759
 20
7.016419
 30
0.0
 10
196.635059
 20
6.800519
 30
0.0
 10
196.287079
 20
6.607479
 30
0.0
 10
195.977199
 20
6.429679
 30
0.0
 10
195.692719
 20
6.267119
 30
0.0
 10
195.428559
 20
6.119799
 30
0.0
 10
195.174559
 20
5.982639
 30
0.0
 10
194.918019
 20
5.860719
 30
0.0
 10
194.656399
 20
5.743879
 30
0.0
 10
194.374459
 20
5.637199
 30
0.0
 10
194.064579
 20
5.535599
 30
0.0
 10
193.719139
 20
5.439079
 30
0.0
 10
193.327979
 20
5.347639
 30
0.0
 10
192.883479
 20
5.253659
 30
0.0
 10
192.372938
 20
5.162219
 30
0.0
 10
191.791278
 20
5.068239
 30
0.0
 10
191.125798
 20
4.971719
 30
0.0
 10
190.371418
 20
4.867579
 30
0.0
 10
189.512898
 20
4.758359
 30
0.0
 10
188.547698
 20
4.641519
 30
0.0
 10
187.463117
 20
4.514519
 30
0.0
 10
186.248997
 20
4.377359
 30
0.0
 10
184.897717
 20
4.224959
 30
0.0
 10
183.401657
 20
4.059859
 30
0.0
 10
181.748116
 20
3.876979
 30
0.0
 10
179.932016
 20
3.678859
 30
0.0
 10
177.940656
 20
3.457879
 30
0.0
 10
175.766415
 20
3.219119
 30
0.0
 10
173.399135
 20
2.957499
 30
0.0
  0
LWPOLYLINE
  5
10c
100
AcDbEntity
  8
Bottom_Plate
 62
2
100
AcDbPolyline
 90
33
 70
0
 10
146.912009
 20
1.093138
 30
0.0
 10
144.224689
 20
1.001698
 30
0.0
 10
141.763428
 20
0.917878
 30
0.0
 10
139.510448
 20
0.839138
 30
0.0
 10
137.460667
 20
0.765478
 30
0.0
 10
135.598847
 20
0.694358
 30
0.0
 10
133.917367
 20
0.630858
 30
0.0
 10
132.400986
 20
0.572438
 30
0.0
 10
131.044626
 20
0.519098
 30
0.0
 10
129.830506
 20
0.468298
 30
0.0
 10
128.753546
 20
0.422578
 30
0.0
 10
127.801046
 20
0.379398
 30
0.0
 10
126.960305
 20
0.341298
 30
0.0
 10
126.223705
 20
0.308278
 30
0.0
 10
125.576005
 20
0.275258
 30
0.0
 10
125.009585
 20
0.247318
 30
0.0
 10
124.511745
 20
0.224458
 30
0.0
 10
124.072325
 20
0.201598
 30
0.0
 10
123.681165
 20
0.181278
 30
0.0
 10
123.325565
 20
0.166038
 30
0.0
 10
122.995365
 20
0.150798
 30
0.0
 10
122.680405
 20
0.140638
 30
0.0
 10
122.367984
 20
0.130478
 30
0.0
 10
122.050484
 20
0.120318
 30
0.0
 10
121.712664
 20
0.115238
 30
0.0
 10
121.344364
 20
0.110158
 30
0.0
 10
120.937964
 20
0.105078
 30
0.0
 10
120.480764
 20
0.102538
 30
0.0
 10
119.960064
 20
0.102538
 30
0.0
 10
119.368244
 20
0.099998
 30
0.0
 10
118.690064
 20
0.099998
 30
0.0
 10
117.917904
 20
0.099998
 30
0.0
 10
117.039063
 20
0.099998
 30
0.0
  0
LWPOLYLINE
  5
10d
100
AcDbEntity
  8
Bottom_Plate
 62
2
100
AcDbPolyline
 90
33
 70
0
 10
233.978147
 20
27.354203
 30
0.0
 10
233.947667
 20
26.988443
 30
0.0
 10
233.909567
 20
26.670943
 30
0.0
 10
233.853687
 20
26.389003
 30
0.0
 10
233.780027
 20
26.137543
 30
0.0
 10
233.680967
 20
25.914023
 30
0.0
 10
233.548887
 20
25.710823
 30
0.0
 10
233.378707
 20
25.520323
 30
0.0
 10
233.162807
 20
25.337443
 30
0.0
 10
232.898647
 20
25.159643
 30
0.0
 10
232.578607
 20
24.976763
 30
0.0
 10
232.195066
 20
24.783723
 30
0.0
 10
231.742946
 20
24.575443
 30
0.0
 10
231.219706
 20
24.346843
 30
0.0
 10
230.615186
 20
24.090303
 30
0.0
 10
229.924306
 20
23.800743
 30
0.0
 10
229.141986
 20
23.473083
 30
0.0
 10
228.260606
 20
23.099703
 30
0.0
 10
227.277625
 20
22.675523
 30
0.0
 10
226.182885
 20
22.192922
 30
0.0
 10
224.973845
 20
21.649362
 30
0.0
 10
223.640345
 20
21.037222
 30
0.0
 10
222.182384
 20
20.351422
 30
0.0
 10
220.589804
 20
19.584342
 30
0.0
 10
218.857524
 20
18.730902
 30
0.0
 10
216.977923
 20
17.786022
 30
0.0
 10
214.948463
 20
16.742081
 30
0.0
 10
212.761523
 20
15.596541
 30
0.0
 10
210.409482
 20
14.339241
 30
0.0
 10
207.889802
 20
12.965101
 30
0.0
 10
205.192321
 20
11.471580
 30
0.0
 10
202.314500
 20
9.848520
 30
0.0
 10
199.248720
 20
8.093380
 30
0.0
  0
LWPOLYLINE
  5
10e
100
AcDbEntity
  8
Bottom_Plate
 62
2
100
AcDbPolyline
 90
65
 70
0
 10
28.360026
 20
86.891815
 30
0.0
 10
28.913746
 20
86.863875
 30
0.0
 10
29.467466
 20
86.851175
 30
0.0
 10
30.021186
 20
86.853715
 30
0.0
 10
30.574906
 20
86.874035
 30
0.0
 10
31.126086
 20
86.907055
 30
0.0
 10
31.677266
 20
86.955315
 30
0.0
 10
32.228446
 20
87.016275
 30
0.0
 10
32.777087
 20
87.087395
 30
0.0
 10
33.328267
 20
87.168675
 30
0.0
 10
33.876907
 20
87.262655
 30
0.0
 10
34.425547
 20
87.361715
 30
0.0
 10
34.974187
 20
87.468395
 30
0.0
 10
35.522827
 20
87.582696
 30
0.0
 10
36.071467
 20
87.702076
 30
0.0
 10
36.620107
 20
87.826536
 30
0.0
 10
37.166207
 20
87.953536
 30
0.0
 10
37.714848
 20
88.080536
 30
0.0
 10
38.263488
 20
88.212616
 30
0.0
 10
38.812128
 20
88.342156
 30
0.0
 10
39.360768
 20
88.471696
 30
0.0
 10
39.909408
 20
88.601236
 30
0.0
 10
40.458048
 20
88.725696
 30
0.0
 10
41.006688
 20
88.847616
 30
0.0
 10
41.557868
 20
88.961916
 30
0.0
 10
42.106508
 20
89.073676
 30
0.0
 10
42.657689
 20
89.177816
 30
0.0
 10
43.208869
 20
89.271796
 30
0.0
 10
43.762589
 20
89.358156
 30
0.0
 10
44.313769
 20
89.434356
 30
0.0
 10
44.867489
 20
89.500396
 30
0.0
 10
45.423749
 20
89.553736
 30
0.0
 10
45.980009
 20
89.591836
 30
0.0
 10
47.918030
 20
89.695976
 30
0.0
 10
49.858590
 20
89.777256
 30
0.0
 10
51.799150
 20
89.835676
 30
0.0
 10
53.737171
 20
89.873776
 30
0.0
 10
55.677731
 20
89.891556
 30
0.0
 10
57.618292
 20
89.891556
 30
0.0
 10
59.558852
 20
89.873776
 30
0.0
 10
61.501952
 20
89.840756
 30
0.0
 10
63.442513
 20
89.792496
 30
0.0
 10
65.383073
 20
89.731536
 30
0.0
 10
67.323633
 20
89.660416
 30
0.0
 10
69.266734
 20
89.576596
 30
0.0
 10
71.207294
 20
89.482616
 30
0.0
 10
73.150395
 20
89.381016
 30
0.0
 10
75.090955
 20
89.271796
 30
0.0
 10
77.034055
 20
89.157496
 30
0.0
 10
78.977156
 20
89.038116
 30
0.0
 10
80.917716
 20
88.916196
 30
0.0
 10
82.860817
 20
88.791736
 30
0.0
 10
84.803917
 20
88.664736
 30
0.0
 10
86.747017
 20
88.540276
 30
0.0
 10
88.687578
 20
88.415816
 30
0.0
 10
90.630678
 20
88.296436
 30
0.0
 10
92.573779
 20
88.179596
 30
0.0
 10
94.516879
 20
88.067836
 30
0.0
 10
96.459979
 20
87.963696
 30
0.0
 10
98.400540
 20
87.864636
 30
0.0
 10
100.343640
 20
87.778276
 30
0.0
 10
102.286740
 20
87.699536
 30
0.0
 10
104.229841
 20
87.633496
 30
0.0
 10
106.172941
 20
87.580156
 30
0.0
 10
108.116042
 20
87.539516
 30
0.0
  0
SPLINE
  5
10f
100
AcDbEntity
  8
Bottom_Plate
 62
2
100
AcDbSpline
 70
8
 71
3
 72
8
 73
4
 74
0
 40
0
 40
0
 40
0
 40
0
 40
1
 40
1
 40
1
 40
1
 10
141.082728
 20
82.252505
 30
0.0
 10
141.082728
 20
81.644389
 30
0.0
 10
140.590318
 20
81.151414
 30
0.0
 10
139.982908
 20
81.151414
 30
0.0
  0
SPLINE
  5
110
100
AcDbEntity
  8
Bottom_Plate
 62
2
100
AcDbSpline
 70
8
 71
3
 72
8
 73
4
 74
0
 40
0
 40
0
 40
0
 40
0
 40
1
 40
1
 40
1
 40
1
 10
139.982908
 20
81.151414
 30
0.0
 10
139.375498
 20
81.151414
 30
0.0
 10
138.883088
 20
81.644389
 30
0.0
 10
138.883088
 20
82.252505
 30
0.0
  0
SPLINE
  5
111
100
AcDbEntity
  8
Bottom_Plate
 62
2
100
AcDbSpline
 70
8
 71
3
 72
8
 73
4
 74
0
 40
0
 40
0
 40
0
 40
0
 40
1
 40
1
 40
1
 40
1
 10
138.883088
 20
82.252505
 30
0.0
 10
138.883088
 20
82.860620
 30
0.0
 10
139.375498
 20
83.353595
 30
0.0
 10
139.982908
 20
83.353595
 30
0.0
  0
SPLINE
  5
112
100
AcDbEntity
  8
Bottom_Plate
 62
2
100
AcDbSpline
 70
8
 71
3
 72
8
 73
4
 74
0
 40
0
 40
0
 40
0
 40
0
 40
1
 40
1
 40
1
 40
1
 10
139.982908
 20
83.353595
 30
0.0
 10
140.590318
 20
83.353595
 30
0.0
 10
141.082728
 20
82.860620
 30
0.0
 10
141.082728
 20
82.252505
 30
0.0
  0
LWPOLYLINE
  5
113
100
AcDbEntity
  8
Bottom_Plate
 62
2
100
AcDbPolyline
 90
33
 70
0
 10
188.029538
 20
89.591836
 30
0.0
 10
188.578178
 20
89.551196
 30
0.0
 10
189.126818
 20
89.495316
 30
0.0
 10
189.672918
 20
89.426736
 30
0.0
 10
190.221558
 20
89.347996
 30
0.0
 10
190.765118
 20
89.256556
 30
0.0
 10
191.311218
 20
89.157496
 30
0.0
 10
191.854778
 20
89.050816
 30
0.0
 10
192.400878
 20
88.933976
 30
0.0
 10
192.941899
 20
88.814596
 30
0.0
 10
193.485459
 20
88.687596
 30
0.0
 10
194.029019
 20
88.558056
 30
0.0
 10
194.570039
 20
88.423436
 30
0.0
 10
195.111059
 20
88.288816
 30
0.0
 10
195.652079
 20
88.151656
 30
0.0
 10
196.195639
 20
88.017036
 30
0.0
 10
196.736659
 20
87.882416
 30
0.0
 10
197.277679
 20
87.750336
 30
0.0
 10
197.818700
 20
87.623336
 30
0.0
 10
198.359720
 20
87.498875
 30
0.0
 10
198.900740
 20
87.379495
 30
0.0
 10
199.444300
 20
87.267735
 30
0.0
 10
199.985320
 20
87.163595
 30
0.0
 10
200.528880
 20
87.069615
 30
0.0
 10
201.072440
 20
86.983255
 30
0.0
 10
201.616000
 20
86.909595
 30
0.0
 10
202.159560
 20
86.846095
 30
0.0
 10
202.703121
 20
86.797835
 30
0.0
 10
203.249221
 20
86.762275
 30
0.0
 10
203.795321
 20
86.741955
 30
0.0
 10
204.343961
 20
86.739415
 30
0.0
 10
204.890061
 20
86.752115
 30
0.0
 10
205.438701
 20
86.782595
 30
0.0
  0
SPLINE
  5
114
100
AcDbEntity
  8
Bottom_Plate
 62
2
100
AcDbSpline
 70
8
 71
3
 72
8
 73
4
 74
0
 40
0
 40
0
 40
0
 40
0
 40
1
 40
1
 40
1
 40
1
 10
95.035058
 20
82.252505
 30
0.0
 10
95.035058
 20
81.644389
 30
0.0
 10
94.542652
 20
81.151414
 30
0.0
 10
93.935238
 20
81.151414
 30
0.0
  0
SPLINE
  5
115
100
AcDbEntity
  8
Bottom_Plate
 62
2
100
AcDbSpline
 70
8
 71
3
 72
8
 73
4
 74
0
 40
0
 40
0
 40
0
 40
0
 40
1
 40
1
 40
1
 40
1
 10
93.935238
 20
81.151414
 30
0.0
 10
93.327824
 20
81.151414
 30
0.0
 10
92.835418
 20
81.644389
 30
0.0
 10
92.835418
 20
82.252505
 30
0.0
  0
SPLINE
  5
116
100
AcDbEntity
  8
Bottom_Plate
 62
2
100
AcDbSpline
 70
8
 71
3
 72
8
 73
4
 74
0
 40
0
 40
0
 40
0
 40
0
 40
1
 40
1
 40
1
 40
1
 10
92.835418
 20
82.252505
 30
0.0
 10
92.835418
 20
82.860620
 30
0.0
 10
93.327824
 20
83.353595
 30
0.0
 10
93.935238
 20
83.353595
 30
0.0
  0
SPLINE
  5
117
100
AcDbEntity
  8
Bottom_Plate
 62
2
100
AcDbSpline
 70
8
 71
3
 72
8
 73
4
 74
0
 40
0
 40
0
 40
0
 40
0
 40
1
 40
1
 40
1
 40
1
 10
93.935238
 20
83.353595
 30
0.0
 10
94.542652
 20
83.353595
 30
0.0
 10
95.035058
 20
82.860620
 30
0.0
 10
95.035058
 20
82.252505
 30
0.0
  0
LWPOLYLINE
  5
118
100
AcDbEntity
  8
Bottom_Plate
 62
2
100
AcDbPolyline
 90
1
 70
1
 10
141.082728
 20
82.252505
 30
0.0
  0
SPLINE
  5
119
100
AcDbEntity
  8
Bottom_Plate
 62
2
100
AcDbSpline
 70
8
 71
3
 72
8
 73
4
 74
0
 40
0
 40
0
 40
0
 40
0
 40
1
 40
1
 40
1
 40
1
 10
23.582304
 20
84.633755
 30
0.0
 10
23.582304
 20
84.026341
 30
0.0
 10
23.089898
 20
83.533935
 30
0.0
 10
22.482483
 20
83.533935
 30
0.0
  0
SPLINE
  5
11a
100
AcDbEntity
  8
Bottom_Plate
 62
2
100
AcDbSpline
 70
8
 71
3
 72
8
 73
4
 74
0
 40
0
 40
0
 40
0
 40
0
 40
1
 40
1
 40
1
 40
1
 10
22.482483
 20
83.533935
 30
0.0
 10
21.875069
 20
83.533935
 30
0.0
 10
21.382663
 20
84.026341
 30
0.0
 10
21.382663
 20
84.633755
 30
0.0
  0
SPLINE
  5
11b
100
AcDbEntity
  8
Bottom_Plate
 62
2
100
AcDbSpline
 70
8
 71
3
 72
8
 73
4
 74
0
 40
0
 40
0
 40
0
 40
0
 40
1
 40
1
 40
1
 40
1
 10
21.382663
 20
84.633755
 30
0.0
 10
21.382663
 20
85.241169
 30
0.0
 10
21.875069
 20
85.733575
 30
0.0
 10
22.482483
 20
85.733575
 30
0.0
  0
SPLINE
  5
11c
100
AcDbEntity
  8
Bottom_Plate
 62
2
100
AcDbSpline
 70
8
 71
3
 72
8
 73
4
 74
0
 40
0
 40
0
 40
0
 40
0
 40
1
 40
1
 40
1
 40
1
 10
22.482483
 20
85.733575
 30
0.0
 10
23.089898
 20
85.733575
 30
0.0
 10
23.582304
 20
85.241169
 30
0.0
 10
23.582304
 20
84.633755
 30
0.0
  0
LWPOLYLINE
  5
11d
100
AcDbEntity
  8
Bottom_Plate
 62
2
100
AcDbPolyline
 90
1
 70
1
 10
95.035058
 20
82.252505
 30
0.0
  0
SPLINE
  5
11e
100
AcDbEntity
  8
Bottom_Plate
 62
2
100
AcDbSpline
 70
8
 71
3
 72
8
 73
4
 74
0
 40
0
 40
0
 40
0
 40
0
 40
1
 40
1
 40
1
 40
1
 10
212.535482
 20
84.633755
 30
0.0
 10
212.535482
 20
84.026341
 30
0.0
 10
212.043072
 20
83.533935
 30
0.0
 10
211.435662
 20
83.533935
 30
0.0
  0
SPLINE
  5
11f
100
AcDbEntity
  8
Bottom_Plate
 62
2
100
AcDbSpline
 70
8
 71
3
 72
8
 73
4
 74
0
 40
0
 40
0
 40
0
 40
0
 40
1
 40
1
 40
1
 40
1
 10
211.435662
 20
83.533935
 30
0.0
 10
210.828252
 20
83.533935
 30
0.0
 10
210.335842
 20
84.026341
 30
0.0
 10
210.335842
 20
84.633755
 30
0.0
  0
SPLINE
  5
120
100
AcDbEntity
  8
Bottom_Plate
 62
2
100
AcDbSpline
 70
8
 71
3
 72
8
 73
4
 74
0
 40
0
 40
0
 40
0
 40
0
 40
1
 40
1
 40
1
 40
1
 10
210.335842
 20
84.633755
 30
0.0
 10
210.335842
 20
85.241169
 30
0.0
 10
210.828252
 20
85.733575
 30
0.0
 10
211.435662
 20
85.733575
 30
0.0
  0
SPLINE
  5
121
100
AcDbEntity
  8
Bottom_Plate
 62
2
100
AcDbSpline
 70
8
 71
3
 72
8
 73
4
 74
0
 40
0
 40
0
 40
0
 40
0
 40
1
 40
1
 40
1
 40
1
 10
211.435662
 20
85.733575
 30
0.0
 10
212.043072
 20
85.733575
 30
0.0
 10
212.535482
 20
85.241169
 30
0.0
 10
212.535482
 20
84.633755
 30
0.0
  0
LWPOLYLINE
  5
122
100
AcDbEntity
  8
Bottom_Plate
 62
2
100
AcDbPolyline
 90
1
 70
1
 10
23.582304
 20
84.633755
 30
0.0
  0
SPLINE
  5
123
100
AcDbEntity
  8
Bottom_Plate
 62
2
100
AcDbSpline
 70
8
 71
3
 72
8
 73
4
 74
0
 40
0
 40
0
 40
0
 40
0
 40
1
 40
1
 40
1
 40
1
 10
206.536011
 20
19.383686
 30
0.0
 10
206.536011
 20
18.776272
 30
0.0
 10
206.043041
 20
18.283866
 30
0.0
 10
205.434921
 20
18.283866
 30
0.0
  0
SPLINE
  5
124
100
AcDbEntity
  8
Bottom_Plate
 62
2
100
AcDbSpline
 70
8
 71
3
 72
8
 73
4
 74
0
 40
0
 40
0
 40
0
 40
0
 40
1
 40
1
 40
1
 40
1
 10
205.434921
 20
18.283866
 30
0.0
 10
204.826801
 20
18.283866
 30
0.0
 10
204.333831
 20
18.776272
 30
0.0
 10
204.333831
 20
19.383686
 30
0.0
  0
SPLINE
  5
125
100
AcDbEntity
  8
Bottom_Plate
 62
2
100
AcDbSpline
 70
8
 71
3
 72
8
 73
4
 74
0
 40
0
 40
0
 40
0
 40
0
 40
1
 40
1
 40
1
 40
1
 10
204.333831
 20
19.383686
 30
0.0
 10
204.333831
 20
19.991100
 30
0.0
 10
204.826801
 20
20.483506
 30
0.0
 10
205.434921
 20
20.483506
 30
0.0
  0
SPLINE
  5
126
100
AcDbEntity
  8
Bottom_Plate
 62
2
100
AcDbSpline
 70
8
 71
3
 72
8
 73
4
 74
0
 40
0
 40
0
 40
0
 40
0
 40
1
 40
1
 40
1
 40
1
 10
205.434921
 20
20.483506
 30
0.0
 10
206.043041
 20
20.483506
 30
0.0
 10
206.536011
 20
19.991100
 30
0.0
 10
206.536011
 20
19.383686
 30
0.0
  0
LWPOLYLINE
  5
127
100
AcDbEntity
  8
Bottom_Plate
 62
2
100
AcDbPolyline
 90
1
 70
1
 10
212.535482
 20
84.633755
 30
0.0
  0
SPLINE
  5
128
100
AcDbEntity
  8
Bottom_Plate
 62
2
100
AcDbSpline
 70
8
 71
3
 72
8
 73
4
 74
0
 40
0
 40
0
 40
0
 40
0
 40
1
 40
1
 40
1
 40
1
 10
29.665607
 20
19.383686
 30
0.0
 10
29.665607
 20
18.776272
 30
0.0
 10
29.173201
 20
18.283866
 30
0.0
 10
28.565787
 20
18.283866
 30
0.0
  0
SPLINE
  5
129
100
AcDbEntity
  8
Bottom_Plate
 62
2
100
AcDbSpline
 70
8
 71
3
 72
8
 73
4
 74
0
 40
0
 40
0
 40
0
 40
0
 40
1
 40
1
 40
1
 40
1
 10
28.565787
 20
18.283866
 30
0.0
 10
27.958373
 20
18.283866
 30
0.0
 10
27.465966
 20
18.776272
 30
0.0
 10
27.465966
 20
19.383686
 30
0.0
  0
SPLINE
  5
12a
100
AcDbEntity
  8
Bottom_Plate
 62
2
100
AcDbSpline
 70
8
 71
3
 72
8
 73
4
 74
0
 40
0
 40
0
 40
0
 40
0
 40
1
 40
1
 40
1
 40
1
 10
27.465966
 20
19.383686
 30
0.0
 10
27.465966
 20
19.991100
 30
0.0
 10
27.958373
 20
20.483506
 30
0.0
 10
28.565787
 20
20.483506
 30
0.0
  0
SPLINE
  5
12b
100
AcDbEntity
  8
Bottom_Plate
 62
2
100
AcDbSpline
 70
8
 71
3
 72
8
 73
4
 74
0
 40
0
 40
0
 40
0
 40
0
 40
1
 40
1
 40
1
 40
1
 10
28.565787
 20
20.483506
 30
0.0
 10
29.173201
 20
20.483506
 30
0.0
 10
29.665607
 20
19.991100
 30
0.0
 10
29.665607
 20
19.383686
 30
0.0
  0
LWPOLYLINE
  5
12c
100
AcDbEntity
  8
Bottom_Plate
 62
2
100
AcDbPolyline
 90
1
 70
1
 10
206.536011
 20
19.383686
 30
0.0
  0
SPLINE
  5
12d
100
AcDbEntity
  8
Bottom_Plate
 62
7
100
AcDbSpline
 70
8
 71
3
 72
8
 73
4
 74
0
 40
0
 40
0
 40
0
 40
0
 40
1
 40
1
 40
1
 40
1
 10
198.739100
 20
31.073343
 30
0.0
 10
200.342300
 20
31.384440
 30
0.0
 10
201.754090
 20
32.375619
 30
0.0
 10
202.746841
 20
33.887073
 30
0.0
  0
SPLINE
  5
12e
100
AcDbEntity
  8
Bottom_Plate
 62
7
100
AcDbSpline
 70
8
 71
3
 72
8
 73
4
 74
0
 40
0
 40
0
 40
0
 40
0
 40
1
 40
1
 40
1
 40
1
 10
202.746841
 20
33.887073
 30
0.0
 10
203.473381
 20
34.993221
 30
0.0
 10
203.813381
 20
36.251418
 30
0.0
 10
204.085191
 20
38.839673
 30
0.0
  0
SPLINE
  5
12f
100
AcDbEntity
  8
Bottom_Plate
 62
7
100
AcDbSpline
 70
8
 71
3
 72
8
 73
4
 74
0
 40
0
 40
0
 40
0
 40
0
 40
1
 40
1
 40
1
 40
1
 10
204.085191
 20
38.839673
 30
0.0
 10
204.405931
 20
41.893999
 30
0.0
 10
204.535391
 20
50.345516
 30
0.0
 10
204.338251
 20
55.361017
 30
0.0
  0
SPLINE
  5
130
100
AcDbEntity
  8
Bottom_Plate
 62
7
100
AcDbSpline
 70
8
 71
3
 72
8
 73
4
 74
0
 40
0
 40
0
 40
0
 40
0
 40
1
 40
1
 40
1
 40
1
 10
204.338251
 20
55.361017
 30
0.0
 10
204.042461
 20
62.886214
 30
0.0
 10
203.149881
 20
65.981609
 30
0.0
 10
200.989100
 20
66.975533
 30
0.0
  0
SPLINE
  5
131
100
AcDbEntity
  8
Bottom_Plate
 62
7
100
AcDbSpline
 70
8
 71
3
 72
8
 73
4
 74
0
 40
0
 40
0
 40
0
 40
0
 40
1
 40
1
 40
1
 40
1
 10
200.989100
 20
66.975533
 30
0.0
 10
200.471470
 20
67.213637
 30
0.0
 10
200.258690
 20
67.252175
 30
0.0
 10
199.439100
 20
67.256271
 30
0.0
  0
SPLINE
  5
132
100
AcDbEntity
  8
Bottom_Plate
 62
7
100
AcDbSpline
 70
8
 71
3
 72
8
 73
4
 74
0
 40
0
 40
0
 40
0
 40
0
 40
1
 40
1
 40
1
 40
1
 10
199.439100
 20
67.256271
 30
0.0
 10
198.648590
 20
67.260171
 30
0.0
 10
198.420800
 20
67.224461
 30
0.0
 10
198.082280
 20
67.043260
 30
0.0
  0
SPLINE
  5
133
100
AcDbEntity
  8
Bottom_Plate
 62
7
100
AcDbSpline
 70
8
 71
3
 72
8
 73
4
 74
0
 40
0
 40
0
 40
0
 40
0
 40
1
 40
1
 40
1
 40
1
 10
198.082280
 20
67.043260
 30
0.0
 10
196.581229
 20
66.239799
 30
0.0
 10
195.879449
 20
64.105744
 30
0.0
 10
195.679289
 20
59.736018
 30
0.0
  0
SPLINE
  5
134
100
AcDbEntity
  8
Bottom_Plate
 62
7
100
AcDbSpline
 70
8
 71
3
 72
8
 73
4
 74
0
 40
0
 40
0
 40
0
 40
0
 40
1
 40
1
 40
1
 40
1
 10
195.679289
 20
59.736018
 30
0.0
 10
195.640889
 20
58.897268
 30
0.0
 10
195.582389
 20
58.211413
 30
0.0
 10
195.549269
 20
58.211896
 30
0.0
  0
SPLINE
  5
135
100
AcDbEntity
  8
Bottom_Plate
 62
7
100
AcDbSpline
 70
8
 71
3
 72
8
 73
4
 74
0
 40
0
 40
0
 40
0
 40
0
 40
1
 40
1
 40
1
 40
1
 10
195.549269
 20
58.211896
 30
0.0
 10
195.516169
 20
58.212396
 30
0.0
 10
194.071599
 20
58.324128
 30
0.0
 10
192.339098
 20
58.460228
 30
0.0
  0
SPLINE
  5
136
100
AcDbEntity
  8
Bottom_Plate
 62
7
100
AcDbSpline
 70
8
 71
3
 72
8
 73
4
 74
0
 40
0
 40
0
 40
0
 40
0
 40
1
 40
1
 40
1
 40
1
 10
192.339098
 20
58.460228
 30
0.0
 10
190.606598
 20
58.596328
 30
0.0
 10
189.106768
 20
58.708432
 30
0.0
 10
189.006138
 20
58.709350
 30
0.0
  0
SPLINE
  5
137
100
AcDbEntity
  8
Bottom_Plate
 62
7
100
AcDbSpline
 70
8
 71
3
 72
8
 73
4
 74
0
 40
0
 40
0
 40
0
 40
0
 40
1
 40
1
 40
1
 40
1
 10
189.006138
 20
58.709350
 30
0.0
 10
188.840408
 20
58.710850
 30
0.0
 10
188.829488
 20
58.774580
 30
0.0
 10
188.890158
 20
59.386018
 30
0.0
  0
SPLINE
  5
138
100
AcDbEntity
  8
Bottom_Plate
 62
7
100
AcDbSpline
 70
8
 71
3
 72
8
 73
4
 74
0
 40
0
 40
0
 40
0
 40
0
 40
1
 40
1
 40
1
 40
1
 10
188.890158
 20
59.386018
 30
0.0
 10
189.110088
 20
61.602336
 30
0.0
 10
189.512828
 20
63.615974
 30
0.0
 10
190.085198
 20
65.361018
 30
0.0
  0
SPLINE
  5
139
100
AcDbEntity
  8
Bottom_Plate
 62
7
100
AcDbSpline
 70
8
 71
3
 72
8
 73
4
 74
0
 40
0
 40
0
 40
0
 40
0
 40
1
 40
1
 40
1
 40
1
 10
190.085198
 20
65.361018
 30
0.0
 10
191.416488
 20
69.419797
 30
0.0
 10
193.599639
 20
71.784544
 30
0.0
 10
196.889099
 20
72.730872
 30
0.0
  0
SPLINE
  5
13a
100
AcDbEntity
  8
Bottom_Plate
 62
7
100
AcDbSpline
 70
8
 71
3
 72
8
 73
4
 74
0
 40
0
 40
0
 40
0
 40
0
 40
1
 40
1
 40
1
 40
1
 10
196.889099
 20
72.730872
 30
0.0
 10
197.600910
 20
72.935649
 30
0.0
 10
197.893040
 20
72.960196
 30
0.0
 10
199.539100
 20
72.953547
 30
0.0
  0
SPLINE
  5
13b
100
AcDbEntity
  8
Bottom_Plate
 62
7
100
AcDbSpline
 70
8
 71
3
 72
8
 73
4
 74
0
 40
0
 40
0
 40
0
 40
0
 40
1
 40
1
 40
1
 40
1
 10
199.539100
 20
72.953547
 30
0.0
 10
201.751130
 20
72.944647
 30
0.0
 10
202.414020
 20
72.802801
 30
0.0
 10
204.039101
 20
71.990864
 30
0.0
  0
SPLINE
  5
13c
100
AcDbEntity
  8
Bottom_Plate
 62
7
100
AcDbSpline
 70
8
 71
3
 72
8
 73
4
 74
0
 40
0
 40
0
 40
0
 40
0
 40
1
 40
1
 40
1
 40
1
 10
204.039101
 20
71.990864
 30
0.0
 10
205.769861
 20
71.126125
 30
0.0
 10
207.274811
 20
69.537875
 30
0.0
 10
208.381672
 20
67.407922
 30
0.0
  0
SPLINE
  5
13d
100
AcDbEntity
  8
Bottom_Plate
 62
7
100
AcDbSpline
 70
8
 71
3
 72
8
 73
4
 74
0
 40
0
 40
0
 40
0
 40
0
 40
1
 40
1
 40
1
 40
1
 10
208.381672
 20
67.407922
 30
0.0
 10
209.644352
 20
64.978134
 30
0.0
 10
210.395602
 20
62.227286
 30
0.0
 10
210.893352
 20
58.211018
 30
0.0
  0
SPLINE
  5
13e
100
AcDbEntity
  8
Bottom_Plate
 62
7
100
AcDbSpline
 70
8
 71
3
 72
8
 73
4
 74
0
 40
0
 40
0
 40
0
 40
0
 40
1
 40
1
 40
1
 40
1
 10
210.893352
 20
58.211018
 30
0.0
 10
211.115922
 20
56.415134
 30
0.0
 10
211.206982
 20
50.625537
 30
0.0
 10
211.046042
 20
48.502972
 30
0.0
  0
SPLINE
  5
13f
100
AcDbEntity
  8
Bottom_Plate
 62
7
100
AcDbSpline
 70
8
 71
3
 72
8
 73
4
 74
0
 40
0
 40
0
 40
0
 40
0
 40
1
 40
1
 40
1
 40
1
 10
211.046042
 20
48.502972
 30
0.0
 10
210.630972
 20
43.028768
 30
0.0
 10
209.602892
 20
39.317317
 30
0.0
 10
207.738322
 20
36.561809
 30
0.0
  0
SPLINE
  5
140
100
AcDbEntity
  8
Bottom_Plate
 62
7
100
AcDbSpline
 70
8
 71
3
 72
8
 73
4
 74
0
 40
0
 40
0
 40
0
 40
0
 40
1
 40
1
 40
1
 40
1
 10
207.738322
 20
36.561809
 30
0.0
 10
207.477511
 20
36.176372
 30
0.0
 10
207.163881
 20
35.771121
 30
0.0
 10
207.041371
 20
35.661251
 30
0.0
  0
SPLINE
  5
141
100
AcDbEntity
  8
Bottom_Plate
 62
7
100
AcDbSpline
 70
8
 71
3
 72
8
 73
4
 74
0
 40
0
 40
0
 40
0
 40
0
 40
1
 40
1
 40
1
 40
1
 10
207.041371
 20
35.661251
 30
0.0
 10
206.770631
 20
35.418446
 30
0.0
 10
206.539101
 20
34.988920
 30
0.0
 10
206.539101
 20
34.729467
 30
0.0
  0
SPLINE
  5
142
100
AcDbEntity
  8
Bottom_Plate
 62
7
100
AcDbSpline
 70
8
 71
3
 72
8
 73
4
 74
0
 40
0
 40
0
 40
0
 40
0
 40
1
 40
1
 40
1
 40
1
 10
206.539101
 20
34.729467
 30
0.0
 10
206.539101
 20
34.368310
 30
0.0
 10
206.921441
 20
34.011015
 30
0.0
 10
207.307911
 20
34.011015
 30
0.0
  0
SPLINE
  5
143
100
AcDbEntity
  8
Bottom_Plate
 62
7
100
AcDbSpline
 70
8
 71
3
 72
8
 73
4
 74
0
 40
0
 40
0
 40
0
 40
0
 40
1
 40
1
 40
1
 40
1
 10
207.307911
 20
34.011015
 30
0.0
 10
207.748142
 20
34.011015
 30
0.0
 10
208.163342
 20
34.431172
 30
0.0
 10
209.094022
 20
35.818441
 30
0.0
  0
SPLINE
  5
144
100
AcDbEntity
  8
Bottom_Plate
 62
7
100
AcDbSpline
 70
8
 71
3
 72
8
 73
4
 74
0
 40
0
 40
0
 40
0
 40
0
 40
1
 40
1
 40
1
 40
1
 10
209.094022
 20
35.818441
 30
0.0
 10
210.889872
 20
38.495339
 30
0.0
 10
211.943702
 20
42.079033
 30
0.0
 10
212.458852
 20
47.261016
 30
0.0
  0
SPLINE
  5
145
100
AcDbEntity
  8
Bottom_Plate
 62
7
100
AcDbSpline
 70
8
 71
3
 72
8
 73
4
 74
0
 40
0
 40
0
 40
0
 40
0
 40
1
 40
1
 40
1
 40
1
 10
212.458852
 20
47.261016
 30
0.0
 10
212.541552
 20
48.093314
 30
0.0
 10
212.586733
 20
50.000102
 30
0.0
 10
212.584313
 20
52.561018
 30
0.0
  0
SPLINE
  5
146
100
AcDbEntity
  8
Bottom_Plate
 62
7
100
AcDbSpline
 70
8
 71
3
 72
8
 73
4
 74
0
 40
0
 40
0
 40
0
 40
0
 40
1
 40
1
 40
1
 40
1
 10
212.584313
 20
52.561018
 30
0.0
 10
212.580313
 20
56.849893
 30
0.0
 10
212.495912
 20
58.036073
 30
0.0
 10
211.984372
 20
60.998782
 30
0.0
  0
SPLINE
  5
147
100
AcDbEntity
  8
Bottom_Plate
 62
7
100
AcDbSpline
 70
8
 71
3
 72
8
 73
4
 74
0
 40
0
 40
0
 40
0
 40
0
 40
1
 40
1
 40
1
 40
1
 10
211.984372
 20
60.998782
 30
0.0
 10
211.175032
 20
65.686111
 30
0.0
 10
209.636592
 20
69.118943
 30
0.0
 10
207.289271
 20
71.475290
 30
0.0
  0
SPLINE
  5
148
100
AcDbEntity
  8
Bottom_Plate
 62
7
100
AcDbSpline
 70
8
 71
3
 72
8
 73
4
 74
0
 40
0
 40
0
 40
0
 40
0
 40
1
 40
1
 40
1
 40
1
 10
207.289271
 20
71.475290
 30
0.0
 10
205.265241
 20
73.507112
 30
0.0
 10
203.068881
 20
74.446795
 30
0.0
 10
200.039100
 20
74.577187
 30
0.0
  0
SPLINE
  5
149
100
AcDbEntity
  8
Bottom_Plate
 62
7
100
AcDbSpline
 70
8
 71
3
 72
8
 73
4
 74
0
 40
0
 40
0
 40
0
 40
0
 40
1
 40
1
 40
1
 40
1
 10
200.039100
 20
74.577187
 30
0.0
 10
196.800459
 20
74.716567
 30
0.0
 10
194.084219
 20
73.733814
 30
0.0
 10
191.991008
 20
71.665337
 30
0.0
  0
SPLINE
  5
14a
100
AcDbEntity
  8
Bottom_Plate
 62
7
100
AcDbSpline
 70
8
 71
3
 72
8
 73
4
 74
0
 40
0
 40
0
 40
0
 40
0
 40
1
 40
1
 40
1
 40
1
 10
191.991008
 20
71.665337
 30
0.0
 10
189.443768
 20
69.148193
 30
0.0
 10
187.868208
 20
64.885229
 30
0.0
 10
187.341747
 20
59.085888
 30
0.0
  0
SPLINE
  5
14b
100
AcDbEntity
  8
Bottom_Plate
 62
7
100
AcDbSpline
 70
8
 71
3
 72
8
 73
4
 74
0
 40
0
 40
0
 40
0
 40
0
 40
1
 40
1
 40
1
 40
1
 10
187.341747
 20
59.085888
 30
0.0
 10
187.241947
 20
57.986824
 30
0.0
 10
187.287947
 20
57.660950
 30
0.0
 10
187.576578
 20
57.421410
 30
0.0
  0
SPLINE
  5
14c
100
AcDbEntity
  8
Bottom_Plate
 62
7
100
AcDbSpline
 70
8
 71
3
 72
8
 73
4
 74
0
 40
0
 40
0
 40
0
 40
0
 40
1
 40
1
 40
1
 40
1
 10
187.576578
 20
57.421410
 30
0.0
 10
187.676278
 20
57.338690
 30
0.0
 10
188.485668
 20
57.221453
 30
0.0
 10
189.761988
 20
57.104884
 30
0.0
  0
SPLINE
  5
14d
100
AcDbEntity
  8
Bottom_Plate
 62
7
100
AcDbSpline
 70
8
 71
3
 72
8
 73
4
 74
0
 40
0
 40
0
 40
0
 40
0
 40
1
 40
1
 40
1
 40
1
 10
189.761988
 20
57.104884
 30
0.0
 10
197.136109
 20
56.431395
 30
0.0
 10
196.440449
 20
56.473040
 30
0.0
 10
196.728969
 20
56.687810
 30
0.0
  0
SPLINE
  5
14e
100
AcDbEntity
  8
Bottom_Plate
 62
7
100
AcDbSpline
 70
8
 71
3
 72
8
 73
4
 74
0
 40
0
 40
0
 40
0
 40
0
 40
1
 40
1
 40
1
 40
1
 10
196.728969
 20
56.687810
 30
0.0
 10
196.872039
 20
56.794310
 30
0.0
 10
197.019979
 20
56.989350
 30
0.0
 10
197.057719
 20
57.121232
 30
0.0
  0
SPLINE
  5
14f
100
AcDbEntity
  8
Bottom_Plate
 62
7
100
AcDbSpline
 70
8
 71
3
 72
8
 73
4
 74
0
 40
0
 40
0
 40
0
 40
0
 40
1
 40
1
 40
1
 40
1
 10
197.057719
 20
57.121232
 30
0.0
 10
197.095419
 20
57.253114
 30
0.0
 10
197.172799
 20
58.328518
 30
0.0
 10
197.229569
 20
59.511018
 30
0.0
  0
SPLINE
  5
150
100
AcDbEntity
  8
Bottom_Plate
 62
7
100
AcDbSpline
 70
8
 71
3
 72
8
 73
4
 74
0
 40
0
 40
0
 40
0
 40
0
 40
1
 40
1
 40
1
 40
1
 10
197.229569
 20
59.511018
 30
0.0
 10
197.471409
 20
64.548282
 30
0.0
 10
198.238810
 20
66.140421
 30
0.0
 10
200.166830
 20
65.605005
 30
0.0
  0
SPLINE
  5
151
100
AcDbEntity
  8
Bottom_Plate
 62
7
100
AcDbSpline
 70
8
 71
3
 72
8
 73
4
 74
0
 40
0
 40
0
 40
0
 40
0
 40
1
 40
1
 40
1
 40
1
 10
200.166830
 20
65.605005
 30
0.0
 10
202.218390
 20
65.035284
 30
0.0
 10
202.936821
 20
60.872853
 30
0.0
 10
202.936011
 20
49.561017
 30
0.0
  0
SPLINE
  5
152
100
AcDbEntity
  8
Bottom_Plate
 62
7
100
AcDbSpline
 70
8
 71
3
 72
8
 73
4
 74
0
 40
0
 40
0
 40
0
 40
0
 40
1
 40
1
 40
1
 40
1
 10
202.936011
 20
49.561017
 30
0.0
 10
202.935411
 20
41.158957
 30
0.0
 10
202.597291
 20
36.850461
 30
0.0
 10
201.813770
 20
35.261015
 30
0.0
  0
SPLINE
  5
153
100
AcDbEntity
  8
Bottom_Plate
 62
7
100
AcDbSpline
 70
8
 71
3
 72
8
 73
4
 74
0
 40
0
 40
0
 40
0
 40
0
 40
1
 40
1
 40
1
 40
1
 10
201.813770
 20
35.261015
 30
0.0
 10
201.499870
 20
34.624246
 30
0.0
 10
200.872910
 20
33.842389
 30
0.0
 10
200.335630
 20
33.417694
 30
0.0
  0
SPLINE
  5
154
100
AcDbEntity
  8
Bottom_Plate
 62
7
100
AcDbSpline
 70
8
 71
3
 72
8
 73
4
 74
0
 40
0
 40
0
 40
0
 40
0
 40
1
 40
1
 40
1
 40
1
 10
200.335630
 20
33.417694
 30
0.0
 10
199.566980
 20
32.810111
 30
0.0
 10
198.872490
 20
32.592005
 30
0.0
 10
197.728880
 20
32.599036
 30
0.0
  0
SPLINE
  5
155
100
AcDbEntity
  8
Bottom_Plate
 62
7
100
AcDbSpline
 70
8
 71
3
 72
8
 73
4
 74
0
 40
0
 40
0
 40
0
 40
0
 40
1
 40
1
 40
1
 40
1
 10
197.728880
 20
32.599036
 30
0.0
 10
193.883199
 20
32.622676
 30
0.0
 10
191.018148
 20
35.945343
 30
0.0
 10
189.699418
 20
41.911016
 30
0.0
  0
SPLINE
  5
156
100
AcDbEntity
  8
Bottom_Plate
 62
7
100
AcDbSpline
 70
8
 71
3
 72
8
 73
4
 74
0
 40
0
 40
0
 40
0
 40
0
 40
1
 40
1
 40
1
 40
1
 10
189.699418
 20
41.911016
 30
0.0
 10
189.395458
 20
43.286057
 30
0.0
 10
189.071798
 20
45.677047
 30
0.0
 10
189.175568
 20
45.780823
 30
0.0
  0
SPLINE
  5
157
100
AcDbEntity
  8
Bottom_Plate
 62
7
100
AcDbSpline
 70
8
 71
3
 72
8
 73
4
 74
0
 40
0
 40
0
 40
0
 40
0
 40
1
 40
1
 40
1
 40
1
 10
189.175568
 20
45.780823
 30
0.0
 10
189.241068
 20
45.846353
 30
0.0
 10
191.782408
 20
46.071126
 30
0.0
 10
194.714099
 20
46.270697
 30
0.0
  0
LWPOLYLINE
  5
158
100
AcDbEntity
  8
Bottom_Plate
 62
2
100
AcDbPolyline
 90
1
 70
1
 10
29.665607
 20
19.383686
 30
0.0
  0
SPLINE
  5
159
100
AcDbEntity
  8
Bottom_Plate
 62
7
100
AcDbSpline
 70
8
 71
3
 72
8
 73
4
 74
0
 40
0
 40
0
 40
0
 40
0
 40
1
 40
1
 40
1
 40
1
 10
195.741099
 20
45.050739
 30
0.0
 10
195.746099
 20
41.937758
 30
0.0
 10
196.346279
 20
39.897860
 30
0.0
 10
197.599920
 20
38.736011
 30
0.0
  0
SPLINE
  5
15a
100
AcDbEntity
  8
Bottom_Plate
 62
7
100
AcDbSpline
 70
8
 71
3
 72
8
 73
4
 74
0
 40
0
 40
0
 40
0
 40
0
 40
1
 40
1
 40
1
 40
1
 10
197.599920
 20
38.736011
 30
0.0
 10
198.147000
 20
38.228991
 30
0.0
 10
198.486860
 20
38.185998
 30
0.0
 10
198.875510
 20
38.574647
 30
0.0
  0
SPLINE
  5
15b
100
AcDbEntity
  8
Bottom_Plate
 62
7
100
AcDbSpline
 70
8
 71
3
 72
8
 73
4
 74
0
 40
0
 40
0
 40
0
 40
0
 40
1
 40
1
 40
1
 40
1
 10
198.875510
 20
38.574647
 30
0.0
 10
199.287140
 20
38.986277
 30
0.0
 10
199.229090
 20
39.327880
 30
0.0
 10
198.642040
 20
39.948607
 30
0.0
  0
SPLINE
  5
15c
100
AcDbEntity
  8
Bottom_Plate
 62
7
100
AcDbSpline
 70
8
 71
3
 72
8
 73
4
 74
0
 40
0
 40
0
 40
0
 40
0
 40
1
 40
1
 40
1
 40
1
 10
198.642040
 20
39.948607
 30
0.0
 10
197.637510
 20
41.010744
 30
0.0
 10
197.345579
 20
42.144553
 30
0.0
 10
197.252599
 20
45.344927
 30
0.0
  0
SPLINE
  5
15d
100
AcDbEntity
  8
Bottom_Plate
 62
7
100
AcDbSpline
 70
8
 71
3
 72
8
 73
4
 74
0
 40
0
 40
0
 40
0
 40
0
 40
1
 40
1
 40
1
 40
1
 10
197.252599
 20
45.344927
 30
0.0
 10
197.189399
 20
47.518936
 30
0.0
 10
197.187999
 20
47.529769
 30
0.0
 10
196.939149
 20
47.732905
 30
0.0
  0
SPLINE
  5
15e
100
AcDbEntity
  8
Bottom_Plate
 62
7
100
AcDbSpline
 70
8
 71
3
 72
8
 73
4
 74
0
 40
0
 40
0
 40
0
 40
0
 40
1
 40
1
 40
1
 40
1
 10
196.939149
 20
47.732905
 30
0.0
 10
196.646409
 20
47.971851
 30
0.0
 10
196.320359
 20
47.964690
 30
0.0
 10
191.539148
 20
47.614294
 30
0.0
  0
SPLINE
  5
15f
100
AcDbEntity
  8
Bottom_Plate
 62
7
100
AcDbSpline
 70
8
 71
3
 72
8
 73
4
 74
0
 40
0
 40
0
 40
0
 40
0
 40
1
 40
1
 40
1
 40
1
 10
191.539148
 20
47.614294
 30
0.0
 10
187.714658
 20
47.334012
 30
0.0
 10
187.868678
 20
47.358193
 30
0.0
 10
187.688498
 20
47.009752
 30
0.0
  0
SPLINE
  5
160
100
AcDbEntity
  8
Bottom_Plate
 62
7
100
AcDbSpline
 70
8
 71
3
 72
8
 73
4
 74
0
 40
0
 40
0
 40
0
 40
0
 40
1
 40
1
 40
1
 40
1
 10
187.688498
 20
47.009752
 30
0.0
 10
187.501707
 20
46.648536
 30
0.0
 10
187.502007
 20
46.377301
 30
0.0
 10
187.690498
 20
44.761694
 30
0.0
  0
SPLINE
  5
161
100
AcDbEntity
  8
Bottom_Plate
 62
7
100
AcDbSpline
 70
8
 71
3
 72
8
 73
4
 74
0
 40
0
 40
0
 40
0
 40
0
 40
1
 40
1
 40
1
 40
1
 10
187.690498
 20
44.761694
 30
0.0
 10
188.272078
 20
39.789909
 30
0.0
 10
189.858358
 20
35.702211
 30
0.0
 10
192.062778
 20
33.494712
 30
0.0
  0
SPLINE
  5
162
100
AcDbEntity
  8
Bottom_Plate
 62
7
100
AcDbSpline
 70
8
 71
3
 72
8
 73
4
 74
0
 40
0
 40
0
 40
0
 40
0
 40
1
 40
1
 40
1
 40
1
 10
192.062778
 20
33.494712
 30
0.0
 10
193.221229
 20
32.334655
 30
0.0
 10
194.333089
 20
31.683279
 30
0.0
 10
195.791489
 20
31.310285
 30
0.0
  0
SPLINE
  5
163
100
AcDbEntity
  8
Bottom_Plate
 62
7
100
AcDbSpline
 70
8
 71
3
 72
8
 73
4
 74
0
 40
0
 40
0
 40
0
 40
0
 40
1
 40
1
 40
1
 40
1
 10
195.791489
 20
31.310285
 30
0.0
 10
196.562059
 20
31.113204
 30
0.0
 10
198.246290
 20
30.977796
 30
0.0
 10
198.738650
 20
31.073338
 30
0.0
  0
LWPOLYLINE
  5
164
100
AcDbEntity
  8
Bottom_Plate
 62
7
100
AcDbPolyline
 90
3
 70
0
 10
194.714099
 20
46.270697
 30
0.0
 10
195.739099
 20
46.340467
 30
0.0
 10
195.741099
 20
45.050739
 30
0.0
  0
SPLINE
  5
165
100
AcDbEntity
  8
Bottom_Plate
 62
7
100
AcDbSpline
 70
8
 71
3
 72
8
 73
4
 74
0
 40
0
 40
0
 40
0
 40
0
 40
1
 40
1
 40
1
 40
1
 10
181.773596
 20
31.893889
 30
0.0
 10
182.001306
 20
32.145500
 30
0.0
 10
181.983626
 20
32.666481
 30
0.0
 10
181.739096
 20
32.911015
 30
0.0
  0
SPLINE
  5
166
100
AcDbEntity
  8
Bottom_Plate
 62
7
100
AcDbSpline
 70
8
 71
3
 72
8
 73
4
 74
0
 40
0
 40
0
 40
0
 40
0
 40
1
 40
1
 40
1
 40
1
 10
181.739096
 20
32.911015
 30
0.0
 10
181.542246
 20
33.107860
 30
0.0
 10
181.405766
 20
33.111015
 30
0.0
 10
173.087625
 20
33.111015
 30
0.0
  0
LWPOLYLINE
  5
167
100
AcDbEntity
  8
Bottom_Plate
 62
7
100
AcDbPolyline
 90
2
 70
0
 10
198.738650
 20
31.073338
 30
0.0
 10
198.739100
 20
31.073343
 30
0.0
  0
SPLINE
  5
168
100
AcDbEntity
  8
Bottom_Plate
 62
7
100
AcDbSpline
 70
8
 71
3
 72
8
 73
4
 74
0
 40
0
 40
0
 40
0
 40
0
 40
1
 40
1
 40
1
 40
1
 10
172.039164
 20
39.211016
 30
0.0
 10
178.063666
 20
39.251996
 30
0.0
 10
179.452286
 20
39.286576
 30
0.0
 10
179.739166
 20
39.402747
 30
0.0
  0
SPLINE
  5
169
100
AcDbEntity
  8
Bottom_Plate
 62
7
100
AcDbSpline
 70
8
 71
3
 72
8
 73
4
 74
0
 40
0
 40
0
 40
0
 40
0
 40
1
 40
1
 40
1
 40
1
 10
179.739166
 20
39.402747
 30
0.0
 10
180.214366
 20
39.595176
 30
0.0
 10
180.743576
 20
39.937751
 30
0.0
 10
181.008386
 20
40.224346
 30
0.0
  0
SPLINE
  5
16a
100
AcDbEntity
  8
Bottom_Plate
 62
7
100
AcDbSpline
 70
8
 71
3
 72
8
 73
4
 74
0
 40
0
 40
0
 40
0
 40
0
 40
1
 40
1
 40
1
 40
1
 10
181.008386
 20
40.224346
 30
0.0
 10
181.313036
 20
40.554062
 30
0.0
 10
181.718166
 20
41.472967
 30
0.0
 10
181.838406
 20
42.106981
 30
0.0
  0
SPLINE
  5
16b
100
AcDbEntity
  8
Bottom_Plate
 62
7
100
AcDbSpline
 70
8
 71
3
 72
8
 73
4
 74
0
 40
0
 40
0
 40
0
 40
0
 40
1
 40
1
 40
1
 40
1
 10
181.838406
 20
42.106981
 30
0.0
 10
181.903406
 20
42.449488
 30
0.0
 10
181.939166
 20
48.120182
 30
0.0
 10
181.939166
 20
58.063589
 30
0.0
  0
SPLINE
  5
16c
100
AcDbEntity
  8
Bottom_Plate
 62
7
100
AcDbSpline
 70
8
 71
3
 72
8
 73
4
 74
0
 40
0
 40
0
 40
0
 40
0
 40
1
 40
1
 40
1
 40
1
 10
181.939166
 20
58.063589
 30
0.0
 10
181.939166
 20
73.100051
 30
0.0
 10
181.934166
 20
73.494814
 30
0.0
 10
181.748076
 20
73.724942
 30
0.0
  0
LWPOLYLINE
  5
16d
100
AcDbEntity
  8
Bottom_Plate
 62
7
100
AcDbPolyline
 90
5
 70
0
 10
173.087625
 20
33.111015
 30
0.0
 10
164.636163
 20
33.111015
 30
0.0
 10
164.662663
 20
36.136015
 30
0.0
 10
164.689163
 20
39.161016
 30
0.0
 10
172.039164
 20
39.211016
 30
0.0
  0
SPLINE
  5
16e
100
AcDbEntity
  8
Bottom_Plate
 62
7
100
AcDbSpline
 70
8
 71
3
 72
8
 73
4
 74
0
 40
0
 40
0
 40
0
 40
0
 40
1
 40
1
 40
1
 40
1
 10
177.526855
 20
73.989360
 30
0.0
 10
173.364015
 20
74.018640
 30
0.0
 10
173.043595
 20
73.992960
 30
0.0
 10
172.840985
 20
73.614419
 30
0.0
  0
SPLINE
  5
16f
100
AcDbEntity
  8
Bottom_Plate
 62
7
100
AcDbSpline
 70
8
 71
3
 72
8
 73
4
 74
0
 40
0
 40
0
 40
0
 40
0
 40
1
 40
1
 40
1
 40
1
 10
172.840985
 20
73.614419
 30
0.0
 10
172.789085
 20
73.517489
 30
0.0
 10
172.719905
 20
67.293913
 30
0.0
 10
172.678905
 20
59.039483
 30
0.0
  0
LWPOLYLINE
  5
170
100
AcDbEntity
  8
Bottom_Plate
 62
7
100
AcDbPolyline
 90
3
 70
0
 10
181.748076
 20
73.724942
 30
0.0
 10
181.556986
 20
73.961020
 30
0.0
 10
177.526855
 20
73.989360
 30
0.0
  0
SPLINE
  5
171
100
AcDbEntity
  8
Bottom_Plate
 62
7
100
AcDbSpline
 70
8
 71
3
 72
8
 73
4
 74
0
 40
0
 40
0
 40
0
 40
0
 40
1
 40
1
 40
1
 40
1
 10
172.868755
 20
44.372365
 30
0.0
 10
173.182705
 20
44.058410
 30
0.0
 10
173.617305
 20
44.030269
 30
0.0
 10
173.953115
 20
44.302155
 30
0.0
  0
LWPOLYLINE
  5
172
100
AcDbEntity
  8
Bottom_Plate
 62
7
100
AcDbPolyline
 90
3
 70
0
 10
172.678905
 20
59.039483
 30
0.0
 10
172.607405
 20
44.633716
 30
0.0
 10
172.868755
 20
44.372365
 30
0.0
  0
SPLINE
  5
173
100
AcDbEntity
  8
Bottom_Plate
 62
7
100
AcDbSpline
 70
8
 71
3
 72
8
 73
4
 74
0
 40
0
 40
0
 40
0
 40
0
 40
1
 40
1
 40
1
 40
1
 10
180.139056
 20
41.611017
 30
0.0
 10
179.963836
 20
41.295624
 30
0.0
 10
179.755586
 20
41.093714
 30
0.0
 10
179.442866
 20
40.936017
 30
0.0
  0
LWPOLYLINE
  5
174
100
AcDbEntity
  8
Bottom_Plate
 62
7
100
AcDbPolyline
 90
9
 70
0
 10
173.953115
 20
44.302155
 30
0.0
 10
174.189195
 20
44.493293
 30
0.0
 10
174.219295
 20
58.452157
 30
0.0
 10
174.249395
 20
72.411020
 30
0.0
 10
177.345525
 20
72.411020
 30
0.0
 10
180.441656
 20
72.411020
 30
0.0
 10
180.415356
 20
57.236018
 30
0.0
 10
180.389056
 20
42.061017
 30
0.0
 10
180.139056
 20
41.611017
 30
0.0
  0
SPLINE
  5
175
100
AcDbEntity
  8
Bottom_Plate
 62
7
100
AcDbSpline
 70
8
 71
3
 72
8
 73
4
 74
0
 40
0
 40
0
 40
0
 40
0
 40
1
 40
1
 40
1
 40
1
 10
171.474374
 20
40.711017
 30
0.0
 10
166.511823
 20
40.711017
 30
0.0
 10
163.859053
 20
40.675647
 30
0.0
 10
163.678713
 20
40.607086
 30
0.0
  0
SPLINE
  5
176
100
AcDbEntity
  8
Bottom_Plate
 62
7
100
AcDbSpline
 70
8
 71
3
 72
8
 73
4
 74
0
 40
0
 40
0
 40
0
 40
0
 40
1
 40
1
 40
1
 40
1
 10
163.678713
 20
40.607086
 30
0.0
 10
163.137123
 20
40.401176
 30
0.0
 10
163.145663
 20
40.472276
 30
0.0
 10
163.142233
 20
36.136016
 30
0.0
  0
SPLINE
  5
177
100
AcDbEntity
  8
Bottom_Plate
 62
7
100
AcDbSpline
 70
8
 71
3
 72
8
 73
4
 74
0
 40
0
 40
0
 40
0
 40
0
 40
1
 40
1
 40
1
 40
1
 10
163.142233
 20
36.136016
 30
0.0
 10
163.139233
 20
32.242126
 30
0.0
 10
163.145233
 20
32.104501
 30
0.0
 10
163.339053
 20
31.911016
 30
0.0
  0
SPLINE
  5
178
100
AcDbEntity
  8
Bottom_Plate
 62
7
100
AcDbSpline
 70
8
 71
3
 72
8
 73
4
 74
0
 40
0
 40
0
 40
0
 40
0
 40
1
 40
1
 40
1
 40
1
 10
163.339053
 20
31.911016
 30
0.0
 10
163.536103
 20
31.713968
 30
0.0
 10
163.672383
 20
31.711016
 30
0.0
 10
172.573555
 20
31.711016
 30
0.0
  0
SPLINE
  5
179
100
AcDbEntity
  8
Bottom_Plate
 62
7
100
AcDbSpline
 70
8
 71
3
 72
8
 73
4
 74
0
 40
0
 40
0
 40
0
 40
0
 40
1
 40
1
 40
1
 40
1
 10
172.573555
 20
31.711016
 30
0.0
 10
181.199036
 20
31.711016
 30
0.0
 10
181.615556
 20
31.719316
 30
0.0
 10
181.773556
 20
31.893890
 30
0.0
  0
LWPOLYLINE
  5
17a
100
AcDbEntity
  8
Bottom_Plate
 62
7
100
AcDbPolyline
 90
3
 70
0
 10
179.442866
 20
40.936017
 30
0.0
 10
178.996676
 20
40.711017
 30
0.0
 10
171.474374
 20
40.711017
 30
0.0
  0
SPLINE
  5
17b
100
AcDbEntity
  8
Bottom_Plate
 62
7
100
AcDbSpline
 70
8
 71
3
 72
8
 73
4
 74
0
 40
0
 40
0
 40
0
 40
0
 40
1
 40
1
 40
1
 40
1
 10
157.639092
 20
31.911019
 30
0.0
 10
157.749092
 20
32.021019
 30
0.0
 10
157.839092
 20
32.206601
 30
0.0
 10
157.839092
 20
32.323421
 30
0.0
  0
SPLINE
  5
17c
100
AcDbEntity
  8
Bottom_Plate
 62
7
100
AcDbSpline
 70
8
 71
3
 72
8
 73
4
 74
0
 40
0
 40
0
 40
0
 40
0
 40
1
 40
1
 40
1
 40
1
 10
157.839092
 20
32.323421
 30
0.0
 10
157.839092
 20
32.555062
 30
0.0
 10
155.462301
 20
42.600969
 30
0.0
 10
150.945350
 20
61.461022
 30
0.0
  0
SPLINE
  5
17d
100
AcDbEntity
  8
Bottom_Plate
 62
7
100
AcDbSpline
 70
8
 71
3
 72
8
 73
4
 74
0
 40
0
 40
0
 40
0
 40
0
 40
1
 40
1
 40
1
 40
1
 10
150.945350
 20
61.461022
 30
0.0
 10
148.282310
 20
72.580290
 30
0.0
 10
148.026370
 20
73.579261
 30
0.0
 10
147.787680
 20
73.786024
 30
0.0
  0
LWPOLYLINE
  5
17e
100
AcDbEntity
  8
Bottom_Plate
 62
7
100
AcDbPolyline
 90
1
 70
1
 10
181.773556
 20
31.893890
 30
0.0
  0
SPLINE
  5
17f
100
AcDbEntity
  8
Bottom_Plate
 62
7
100
AcDbSpline
 70
8
 71
3
 72
8
 73
4
 74
0
 40
0
 40
0
 40
0
 40
0
 40
1
 40
1
 40
1
 40
1
 10
143.276939
 20
74.011024
 30
0.0
 10
140.570678
 20
74.011024
 30
0.0
 10
138.956488
 20
73.973854
 30
0.0
 10
138.834808
 20
73.908732
 30
0.0
  0
SPLINE
  5
180
100
AcDbEntity
  8
Bottom_Plate
 62
7
100
AcDbSpline
 70
8
 71
3
 72
8
 73
4
 74
0
 40
0
 40
0
 40
0
 40
0
 40
1
 40
1
 40
1
 40
1
 10
138.834808
 20
73.908732
 30
0.0
 10
138.729678
 20
73.852472
 30
0.0
 10
138.599818
 20
73.724509
 30
0.0
 10
138.546228
 20
73.624371
 30
0.0
  0
SPLINE
  5
181
100
AcDbEntity
  8
Bottom_Plate
 62
7
100
AcDbSpline
 70
8
 71
3
 72
8
 73
4
 74
0
 40
0
 40
0
 40
0
 40
0
 40
1
 40
1
 40
1
 40
1
 10
138.546228
 20
73.624371
 30
0.0
 10
138.351468
 20
73.260458
 30
0.0
 10
128.639086
 20
32.812290
 30
0.0
 10
128.639086
 20
32.365104
 30
0.0
  0
SPLINE
  5
182
100
AcDbEntity
  8
Bottom_Plate
 62
7
100
AcDbSpline
 70
8
 71
3
 72
8
 73
4
 74
0
 40
0
 40
0
 40
0
 40
0
 40
1
 40
1
 40
1
 40
1
 10
128.639086
 20
32.365104
 30
0.0
 10
128.639086
 20
32.249833
 30
0.0
 10
128.709186
 20
32.055507
 30
0.0
 10
128.794756
 20
31.933270
 30
0.0
  0
LWPOLYLINE
  5
183
100
AcDbEntity
  8
Bottom_Plate
 62
7
100
AcDbPolyline
 90
3
 70
0
 10
147.787680
 20
73.786024
 30
0.0
 10
147.527939
 20
74.011024
 30
0.0
 10
143.276939
 20
74.011024
 30
0.0
  0
SPLINE
  5
184
100
AcDbEntity
  8
Bottom_Plate
 62
7
100
AcDbSpline
 70
8
 71
3
 72
8
 73
4
 74
0
 40
0
 40
0
 40
0
 40
0
 40
1
 40
1
 40
1
 40
1
 10
133.179257
 20
31.711019
 30
0.0
 10
137.188997
 20
31.711019
 30
0.0
 10
137.416897
 20
31.720719
 30
0.0
 10
137.577988
 20
31.898753
 30
0.0
  0
SPLINE
  5
185
100
AcDbEntity
  8
Bottom_Plate
 62
7
100
AcDbSpline
 70
8
 71
3
 72
8
 73
4
 74
0
 40
0
 40
0
 40
0
 40
0
 40
1
 40
1
 40
1
 40
1
 10
137.577988
 20
31.898753
 30
0.0
 10
137.727458
 20
32.063915
 30
0.0
 10
138.480858
 20
35.719974
 30
0.0
 10
139.156948
 20
39.561020
 30
0.0
  0
LWPOLYLINE
  5
186
100
AcDbEntity
  8
Bottom_Plate
 62
7
100
AcDbPolyline
 90
3
 70
0
 10
128.794756
 20
31.933270
 30
0.0
 10
128.950426
 20
31.711019
 30
0.0
 10
133.179257
 20
31.711019
 30
0.0
  0
SPLINE
  5
187
100
AcDbEntity
  8
Bottom_Plate
 62
7
100
AcDbSpline
 70
8
 71
3
 72
8
 73
4
 74
0
 40
0
 40
0
 40
0
 40
0
 40
1
 40
1
 40
1
 40
1
 10
141.093428
 20
40.412130
 30
0.0
 10
142.081038
 20
40.440240
 30
0.0
 10
142.969089
 20
40.501780
 30
0.0
 10
143.066869
 20
40.548895
 30
0.0
  0
SPLINE
  5
188
100
AcDbEntity
  8
Bottom_Plate
 62
7
100
AcDbSpline
 70
8
 71
3
 72
8
 73
4
 74
0
 40
0
 40
0
 40
0
 40
0
 40
1
 40
1
 40
1
 40
1
 10
143.066869
 20
40.548895
 30
0.0
 10
143.479759
 20
40.747835
 30
0.0
 10
143.550059
 20
41.275057
 30
0.0
 10
143.214089
 20
41.652939
 30
0.0
  0
LWPOLYLINE
  5
189
100
AcDbEntity
  8
Bottom_Plate
 62
7
100
AcDbPolyline
 90
3
 70
0
 10
139.156948
 20
39.561020
 30
0.0
 10
139.297758
 20
40.361020
 30
0.0
 10
141.093428
 20
40.412130
 30
0.0
  0
SPLINE
  5
18a
100
AcDbEntity
  8
Bottom_Plate
 62
7
100
AcDbSpline
 70
8
 71
3
 72
8
 73
4
 74
0
 40
0
 40
0
 40
0
 40
0
 40
1
 40
1
 40
1
 40
1
 10
140.732488
 20
41.921877
 30
0.0
 10
138.409998
 20
41.938217
 30
0.0
 10
138.106808
 20
41.895387
 30
0.0
 10
138.001128
 20
41.536125
 30
0.0
  0
SPLINE
  5
18b
100
AcDbEntity
  8
Bottom_Plate
 62
7
100
AcDbSpline
 70
8
 71
3
 72
8
 73
4
 74
0
 40
0
 40
0
 40
0
 40
0
 40
1
 40
1
 40
1
 40
1
 10
138.001128
 20
41.536125
 30
0.0
 10
137.972828
 20
41.439815
 30
0.0
 10
137.629878
 20
39.583519
 30
0.0
 10
137.239087
 20
37.411018
 30
0.0
  0
SPLINE
  5
18c
100
AcDbEntity
  8
Bottom_Plate
 62
7
100
AcDbSpline
 70
8
 71
3
 72
8
 73
4
 74
0
 40
0
 40
0
 40
0
 40
0
 40
1
 40
1
 40
1
 40
1
 10
137.239087
 20
37.411018
 30
0.0
 10
136.848297
 20
35.238518
 30
0.0
 10
136.505397
 20
33.382268
 30
0.0
 10
136.477087
 20
33.286018
 30
0.0
  0
SPLINE
  5
18d
100
AcDbEntity
  8
Bottom_Plate
 62
7
100
AcDbSpline
 70
8
 71
3
 72
8
 73
4
 74
0
 40
0
 40
0
 40
0
 40
0
 40
1
 40
1
 40
1
 40
1
 10
136.477087
 20
33.286018
 30
0.0
 10
136.429487
 20
33.124313
 30
0.0
 10
136.194417
 20
33.111018
 30
0.0
 10
133.382347
 20
33.111018
 30
0.0
  0
SPLINE
  5
18e
100
AcDbEntity
  8
Bottom_Plate
 62
7
100
AcDbSpline
 70
8
 71
3
 72
8
 73
4
 74
0
 40
0
 40
0
 40
0
 40
0
 40
1
 40
1
 40
1
 40
1
 10
133.382347
 20
33.111018
 30
0.0
 10
131.708556
 20
33.111018
 30
0.0
 10
130.339086
 20
33.135378
 30
0.0
 10
130.339086
 20
33.165148
 30
0.0
  0
SPLINE
  5
18f
100
AcDbEntity
  8
Bottom_Plate
 62
7
100
AcDbSpline
 70
8
 71
3
 72
8
 73
4
 74
0
 40
0
 40
0
 40
0
 40
0
 40
1
 40
1
 40
1
 40
1
 10
130.339086
 20
33.165148
 30
0.0
 10
130.339086
 20
33.360137
 30
0.0
 10
139.197358
 20
70.354877
 30
0.0
 10
139.646588
 20
72.036021
 30
0.0
  0
LWPOLYLINE
  5
190
100
AcDbEntity
  8
Bottom_Plate
 62
7
100
AcDbPolyline
 90
3
 70
0
 10
143.214089
 20
41.652939
 30
0.0
 10
142.989089
 20
41.906007
 30
0.0
 10
140.732488
 20
41.921877
 30
0.0
  0
SPLINE
  5
191
100
AcDbEntity
  8
Bottom_Plate
 62
7
100
AcDbSpline
 70
8
 71
3
 72
8
 73
4
 74
0
 40
0
 40
0
 40
0
 40
0
 40
1
 40
1
 40
1
 40
1
 10
143.236209
 20
72.411021
 30
0.0
 10
146.472879
 20
72.411021
 30
0.0
 10
146.729399
 20
72.398341
 30
0.0
 10
146.777859
 20
72.236021
 30
0.0
  0
SPLINE
  5
192
100
AcDbEntity
  8
Bottom_Plate
 62
7
100
AcDbSpline
 70
8
 71
3
 72
8
 73
4
 74
0
 40
0
 40
0
 40
0
 40
0
 40
1
 40
1
 40
1
 40
1
 10
146.777859
 20
72.236021
 30
0.0
 10
146.806559
 20
72.139771
 30
0.0
 10
148.225120
 20
66.211020
 30
0.0
 10
149.930140
 20
59.061020
 30
0.0
  0
SPLINE
  5
193
100
AcDbEntity
  8
Bottom_Plate
 62
7
100
AcDbSpline
 70
8
 71
3
 72
8
 73
4
 74
0
 40
0
 40
0
 40
0
 40
0
 40
1
 40
1
 40
1
 40
1
 10
149.930140
 20
59.061020
 30
0.0
 10
151.635150
 20
51.911019
 30
0.0
 10
153.729671
 20
43.165040
 30
0.0
 10
154.584621
 20
39.625511
 30
0.0
  0
SPLINE
  5
194
100
AcDbEntity
  8
Bottom_Plate
 62
7
100
AcDbSpline
 70
8
 71
3
 72
8
 73
4
 74
0
 40
0
 40
0
 40
0
 40
0
 40
1
 40
1
 40
1
 40
1
 10
154.584621
 20
39.625511
 30
0.0
 10
155.439581
 20
36.085981
 30
0.0
 10
156.139091
 20
33.172231
 30
0.0
 10
156.139091
 20
33.150510
 30
0.0
  0
SPLINE
  5
195
100
AcDbEntity
  8
Bottom_Plate
 62
7
100
AcDbSpline
 70
8
 71
3
 72
8
 73
4
 74
0
 40
0
 40
0
 40
0
 40
0
 40
1
 40
1
 40
1
 40
1
 10
156.139091
 20
33.150510
 30
0.0
 10
156.139091
 20
33.128790
 30
0.0
 10
154.744091
 20
33.111020
 30
0.0
 10
153.039091
 20
33.111020
 30
0.0
  0
SPLINE
  5
196
100
AcDbEntity
  8
Bottom_Plate
 62
7
100
AcDbSpline
 70
8
 71
3
 72
8
 73
4
 74
0
 40
0
 40
0
 40
0
 40
0
 40
1
 40
1
 40
1
 40
1
 10
153.039091
 20
33.111020
 30
0.0
 10
151.334090
 20
33.111020
 30
0.0
 10
149.939090
 20
33.135360
 30
0.0
 10
149.939090
 20
33.165120
 30
0.0
  0
SPLINE
  5
197
100
AcDbEntity
  8
Bottom_Plate
 62
7
100
AcDbSpline
 70
8
 71
3
 72
8
 73
4
 74
0
 40
0
 40
0
 40
0
 40
0
 40
1
 40
1
 40
1
 40
1
 10
149.939090
 20
33.165120
 30
0.0
 10
149.939090
 20
33.503520
 30
0.0
 10
147.680580
 20
45.521958
 30
0.0
 10
147.531949
 20
45.974491
 30
0.0
  0
SPLINE
  5
198
100
AcDbEntity
  8
Bottom_Plate
 62
7
100
AcDbSpline
 70
8
 71
3
 72
8
 73
4
 74
0
 40
0
 40
0
 40
0
 40
0
 40
1
 40
1
 40
1
 40
1
 10
147.531949
 20
45.974491
 30
0.0
 10
147.313419
 20
46.639848
 30
0.0
 10
146.841649
 20
47.372906
 30
0.0
 10
146.417039
 20
47.706907
 30
0.0
  0
SPLINE
  5
199
100
AcDbEntity
  8
Bottom_Plate
 62
7
100
AcDbSpline
 70
8
 71
3
 72
8
 73
4
 74
0
 40
0
 40
0
 40
0
 40
0
 40
1
 40
1
 40
1
 40
1
 10
146.417039
 20
47.706907
 30
0.0
 10
145.577829
 20
48.367028
 30
0.0
 10
144.474889
 20
48.602876
 30
0.0
 10
142.203388
 20
48.607937
 30
0.0
  0
SPLINE
  5
19a
100
AcDbEntity
  8
Bottom_Plate
 62
7
100
AcDbSpline
 70
8
 71
3
 72
8
 73
4
 74
0
 40
0
 40
0
 40
0
 40
0
 40
1
 40
1
 40
1
 40
1
 10
142.203388
 20
48.607937
 30
0.0
 10
141.138708
 20
48.610337
 30
0.0
 10
140.828038
 20
48.639987
 30
0.0
 10
140.862348
 20
48.736025
 30
0.0
  0
SPLINE
  5
19b
100
AcDbEntity
  8
Bottom_Plate
 62
7
100
AcDbSpline
 70
8
 71
3
 72
8
 73
4
 74
0
 40
0
 40
0
 40
0
 40
0
 40
1
 40
1
 40
1
 40
1
 10
140.862348
 20
48.736025
 30
0.0
 10
140.886948
 20
48.804775
 30
0.0
 10
141.419368
 20
51.617275
 30
0.0
 10
142.045598
 20
54.986025
 30
0.0
  0
SPLINE
  5
19c
100
AcDbEntity
  8
Bottom_Plate
 62
7
100
AcDbSpline
 70
8
 71
3
 72
8
 73
4
 74
0
 40
0
 40
0
 40
0
 40
0
 40
1
 40
1
 40
1
 40
1
 10
142.045598
 20
54.986025
 30
0.0
 10
142.671829
 20
58.354776
 30
0.0
 10
143.210179
 20
61.111026
 30
0.0
 10
143.241929
 20
61.111026
 30
0.0
  0
SPLINE
  5
19d
100
AcDbEntity
  8
Bottom_Plate
 62
7
100
AcDbSpline
 70
8
 71
3
 72
8
 73
4
 74
0
 40
0
 40
0
 40
0
 40
0
 40
1
 40
1
 40
1
 40
1
 10
143.241929
 20
61.111026
 30
0.0
 10
143.273729
 20
61.111026
 30
0.0
 10
143.657289
 20
59.119776
 30
0.0
 10
144.094379
 20
56.686025
 30
0.0
  0
SPLINE
  5
19e
100
AcDbEntity
  8
Bottom_Plate
 62
7
100
AcDbSpline
 70
8
 71
3
 72
8
 73
4
 74
0
 40
0
 40
0
 40
0
 40
0
 40
1
 40
1
 40
1
 40
1
 10
144.094379
 20
56.686025
 30
0.0
 10
144.957159
 20
51.882019
 30
0.0
 10
144.980099
 20
51.808242
 30
0.0
 10
145.609539
 20
51.813249
 30
0.0
  0
SPLINE
  5
19f
100
AcDbEntity
  8
Bottom_Plate
 62
7
100
AcDbSpline
 70
8
 71
3
 72
8
 73
4
 74
0
 40
0
 40
0
 40
0
 40
0
 40
1
 40
1
 40
1
 40
1
 10
145.609539
 20
51.813249
 30
0.0
 10
145.915219
 20
51.815649
 30
0.0
 10
146.275429
 20
52.062027
 30
0.0
 10
146.370569
 20
52.333724
 30
0.0
  0
SPLINE
  5
1a0
100
AcDbEntity
  8
Bottom_Plate
 62
7
100
AcDbSpline
 70
8
 71
3
 72
8
 73
4
 74
0
 40
0
 40
0
 40
0
 40
0
 40
1
 40
1
 40
1
 40
1
 10
146.370569
 20
52.333724
 30
0.0
 10
146.417169
 20
52.466834
 30
0.0
 10
144.616959
 20
62.513339
 30
0.0
 10
144.031139
 20
65.389385
 30
0.0
  0
SPLINE
  5
1a1
100
AcDbEntity
  8
Bottom_Plate
 62
7
100
AcDbSpline
 70
8
 71
3
 72
8
 73
4
 74
0
 40
0
 40
0
 40
0
 40
0
 40
1
 40
1
 40
1
 40
1
 10
144.031139
 20
65.389385
 30
0.0
 10
143.908969
 20
65.989141
 30
0.0
 10
143.629629
 20
66.311026
 30
0.0
 10
143.231309
 20
66.311026
 30
0.0
  0
SPLINE
  5
1a2
100
AcDbEntity
  8
Bottom_Plate
 62
7
100
AcDbSpline
 70
8
 71
3
 72
8
 73
4
 74
0
 40
0
 40
0
 40
0
 40
0
 40
1
 40
1
 40
1
 40
1
 10
143.231309
 20
66.311026
 30
0.0
 10
142.594379
 20
66.311026
 30
0.0
 10
142.610869
 20
66.365186
 30
0.0
 10
141.632998
 20
61.061026
 30
0.0
  0
SPLINE
  5
1a3
100
AcDbEntity
  8
Bottom_Plate
 62
7
100
AcDbSpline
 70
8
 71
3
 72
8
 73
4
 74
0
 40
0
 40
0
 40
0
 40
0
 40
1
 40
1
 40
1
 40
1
 10
141.632998
 20
61.061026
 30
0.0
 10
141.136148
 20
58.366026
 30
0.0
 10
140.394268
 20
54.343800
 30
0.0
 10
139.984358
 20
52.122747
 30
0.0
  0
SPLINE
  5
1a4
100
AcDbEntity
  8
Bottom_Plate
 62
7
100
AcDbSpline
 70
8
 71
3
 72
8
 73
4
 74
0
 40
0
 40
0
 40
0
 40
0
 40
1
 40
1
 40
1
 40
1
 10
139.984358
 20
52.122747
 30
0.0
 10
139.574458
 20
49.901694
 30
0.0
 10
139.239088
 20
47.939919
 30
0.0
 10
139.239088
 20
47.763246
 30
0.0
  0
SPLINE
  5
1a5
100
AcDbEntity
  8
Bottom_Plate
 62
7
100
AcDbSpline
 70
8
 71
3
 72
8
 73
4
 74
0
 40
0
 40
0
 40
0
 40
0
 40
1
 40
1
 40
1
 40
1
 10
139.239088
 20
47.763246
 30
0.0
 10
139.239088
 20
47.148286
 30
0.0
 10
139.373328
 20
47.111112
 30
0.0
 10
141.596958
 20
47.110269
 30
0.0
  0
SPLINE
  5
1a6
100
AcDbEntity
  8
Bottom_Plate
 62
7
100
AcDbSpline
 70
8
 71
3
 72
8
 73
4
 74
0
 40
0
 40
0
 40
0
 40
0
 40
1
 40
1
 40
1
 40
1
 10
141.596958
 20
47.110269
 30
0.0
 10
144.970119
 20
47.108969
 30
0.0
 10
145.639649
 20
46.884872
 30
0.0
 10
146.090869
 20
45.605992
 30
0.0
  0
SPLINE
  5
1a7
100
AcDbEntity
  8
Bottom_Plate
 62
7
100
AcDbSpline
 70
8
 71
3
 72
8
 73
4
 74
0
 40
0
 40
0
 40
0
 40
0
 40
1
 40
1
 40
1
 40
1
 10
146.090869
 20
45.605992
 30
0.0
 10
146.166769
 20
45.390974
 30
0.0
 10
146.748749
 20
42.345395
 30
0.0
 10
147.384239
 20
38.838037
 30
0.0
  0
SPLINE
  5
1a8
100
AcDbEntity
  8
Bottom_Plate
 62
7
100
AcDbSpline
 70
8
 71
3
 72
8
 73
4
 74
0
 40
0
 40
0
 40
0
 40
0
 40
1
 40
1
 40
1
 40
1
 10
147.384239
 20
38.838037
 30
0.0
 10
148.019730
 20
35.330679
 30
0.0
 10
148.562120
 20
32.362919
 30
0.0
 10
148.589540
 20
32.243016
 30
0.0
  0
SPLINE
  5
1a9
100
AcDbEntity
  8
Bottom_Plate
 62
7
100
AcDbSpline
 70
8
 71
3
 72
8
 73
4
 74
0
 40
0
 40
0
 40
0
 40
0
 40
1
 40
1
 40
1
 40
1
 10
148.589540
 20
32.243016
 30
0.0
 10
148.713990
 20
31.698801
 30
0.0
 10
148.608140
 20
31.711023
 30
0.0
 10
153.196231
 20
31.711023
 30
0.0
  0
SPLINE
  5
1aa
100
AcDbEntity
  8
Bottom_Plate
 62
7
100
AcDbSpline
 70
8
 71
3
 72
8
 73
4
 74
0
 40
0
 40
0
 40
0
 40
0
 40
1
 40
1
 40
1
 40
1
 10
153.196231
 20
31.711023
 30
0.0
 10
157.305761
 20
31.711023
 30
0.0
 10
157.445371
 20
31.717323
 30
0.0
 10
157.639092
 20
31.911023
 30
0.0
  0
LWPOLYLINE
  5
1ab
100
AcDbEntity
  8
Bottom_Plate
 62
7
100
AcDbPolyline
 90
3
 70
0
 10
139.646588
 20
72.036021
 30
0.0
 10
139.746798
 20
72.411021
 30
0.0
 10
143.236209
 20
72.411021
 30
0.0
  0
SPLINE
  5
1ac
100
AcDbEntity
  8
Bottom_Plate
 62
7
100
AcDbSpline
 70
8
 71
3
 72
8
 73
4
 74
0
 40
0
 40
0
 40
0
 40
0
 40
1
 40
1
 40
1
 40
1
 10
111.726702
 20
31.862949
 30
0.0
 10
112.609333
 20
32.109914
 30
0.0
 10
113.616293
 20
32.701766
 30
0.0
 10
114.299953
 20
33.375409
 30
0.0
  0
SPLINE
  5
1ad
100
AcDbEntity
  8
Bottom_Plate
 62
7
100
AcDbSpline
 70
8
 71
3
 72
8
 73
4
 74
0
 40
0
 40
0
 40
0
 40
0
 40
1
 40
1
 40
1
 40
1
 10
114.299953
 20
33.375409
 30
0.0
 10
115.341443
 20
34.401628
 30
0.0
 10
115.943553
 20
35.506106
 30
0.0
 10
116.454153
 20
37.326950
 30
0.0
  0
LWPOLYLINE
  5
1ae
100
AcDbEntity
  8
Bottom_Plate
 62
7
100
AcDbPolyline
 90
1
 70
1
 10
157.639092
 20
31.911023
 30
0.0
  0
SPLINE
  5
1af
100
AcDbEntity
  8
Bottom_Plate
 62
7
100
AcDbSpline
 70
8
 71
3
 72
8
 73
4
 74
0
 40
0
 40
0
 40
0
 40
0
 40
1
 40
1
 40
1
 40
1
 10
122.937155
 20
58.986020
 30
0.0
 10
122.936255
 20
50.861494
 30
0.0
 10
122.894855
 20
44.862499
 30
0.0
 10
122.833655
 20
43.962082
 30
0.0
  0
SPLINE
  5
1b0
100
AcDbEntity
  8
Bottom_Plate
 62
7
100
AcDbSpline
 70
8
 71
3
 72
8
 73
4
 74
0
 40
0
 40
0
 40
0
 40
0
 40
1
 40
1
 40
1
 40
1
 10
122.833655
 20
43.962082
 30
0.0
 10
122.479104
 20
38.749214
 30
0.0
 10
121.260104
 20
35.892689
 30
0.0
 10
118.735684
 20
34.359185
 30
0.0
  0
SPLINE
  5
1b1
100
AcDbEntity
  8
Bottom_Plate
 62
7
100
AcDbSpline
 70
8
 71
3
 72
8
 73
4
 74
0
 40
0
 40
0
 40
0
 40
0
 40
1
 40
1
 40
1
 40
1
 10
118.735684
 20
34.359185
 30
0.0
 10
118.413394
 20
34.163405
 30
0.0
 10
118.122914
 20
33.918801
 30
0.0
 10
118.090164
 20
33.815623
 30
0.0
  0
SPLINE
  5
1b2
100
AcDbEntity
  8
Bottom_Plate
 62
7
100
AcDbSpline
 70
8
 71
3
 72
8
 73
4
 74
0
 40
0
 40
0
 40
0
 40
0
 40
1
 40
1
 40
1
 40
1
 10
118.090164
 20
33.815623
 30
0.0
 10
117.937184
 20
33.333611
 30
0.0
 10
118.327544
 20
32.811017
 30
0.0
 10
118.840584
 20
32.811017
 30
0.0
  0
SPLINE
  5
1b3
100
AcDbEntity
  8
Bottom_Plate
 62
7
100
AcDbSpline
 70
8
 71
3
 72
8
 73
4
 74
0
 40
0
 40
0
 40
0
 40
0
 40
1
 40
1
 40
1
 40
1
 10
118.840584
 20
32.811017
 30
0.0
 10
119.239134
 20
32.811017
 30
0.0
 10
120.541364
 20
33.727786
 30
0.0
 10
121.302034
 20
34.543878
 30
0.0
  0
SPLINE
  5
1b4
100
AcDbEntity
  8
Bottom_Plate
 62
7
100
AcDbSpline
 70
8
 71
3
 72
8
 73
4
 74
0
 40
0
 40
0
 40
0
 40
0
 40
1
 40
1
 40
1
 40
1
 10
121.302034
 20
34.543878
 30
0.0
 10
122.901245
 20
36.259619
 30
0.0
 10
123.778515
 20
38.634637
 30
0.0
 10
124.207955
 20
42.411018
 30
0.0
  0
SPLINE
  5
1b5
100
AcDbEntity
  8
Bottom_Plate
 62
7
100
AcDbSpline
 70
8
 71
3
 72
8
 73
4
 74
0
 40
0
 40
0
 40
0
 40
0
 40
1
 40
1
 40
1
 40
1
 10
124.207955
 20
42.411018
 30
0.0
 10
124.368405
 20
43.821959
 30
0.0
 10
124.384415
 20
45.286308
 30
0.0
 10
124.386465
 20
58.733178
 30
0.0
  0
LWPOLYLINE
  5
1b6
100
AcDbEntity
  8
Bottom_Plate
 62
7
100
AcDbPolyline
 90
7
 70
0
 10
116.454153
 20
37.326950
 30
0.0
 10
116.688033
 20
38.161018
 30
0.0
 10
116.715533
 20
55.336019
 30
0.0
 10
116.743033
 20
72.511021
 30
0.0
 10
119.841094
 20
72.511021
 30
0.0
 10
122.939155
 20
72.511021
 30
0.0
 10
122.937155
 20
58.986020
 30
0.0
  0
SPLINE
  5
1b7
100
AcDbEntity
  8
Bottom_Plate
 62
7
100
AcDbSpline
 70
8
 71
3
 72
8
 73
4
 74
0
 40
0
 40
0
 40
0
 40
0
 40
1
 40
1
 40
1
 40
1
 10
119.839254
 20
73.961022
 30
0.0
 10
116.042953
 20
73.961022
 30
0.0
 10
115.732633
 20
73.948052
 30
0.0
 10
115.567033
 20
73.782481
 30
0.0
  0
SPLINE
  5
1b8
100
AcDbEntity
  8
Bottom_Plate
 62
7
100
AcDbSpline
 70
8
 71
3
 72
8
 73
4
 74
0
 40
0
 40
0
 40
0
 40
0
 40
1
 40
1
 40
1
 40
1
 10
115.567033
 20
73.782481
 30
0.0
 10
115.397403
 20
73.612879
 30
0.0
 10
115.385673
 20
72.731647
 30
0.0
 10
115.332813
 20
56.182478
 30
0.0
  0
SPLINE
  5
1b9
100
AcDbEntity
  8
Bottom_Plate
 62
7
100
AcDbSpline
 70
8
 71
3
 72
8
 73
4
 74
0
 40
0
 40
0
 40
0
 40
0
 40
1
 40
1
 40
1
 40
1
 10
115.332813
 20
56.182478
 30
0.0
 10
115.280913
 20
39.943739
 30
0.0
 10
115.265113
 20
38.710101
 30
0.0
 10
115.099223
 20
38.011018
 30
0.0
  0
SPLINE
  5
1ba
100
AcDbEntity
  8
Bottom_Plate
 62
7
100
AcDbSpline
 70
8
 71
3
 72
8
 73
4
 74
0
 40
0
 40
0
 40
0
 40
0
 40
1
 40
1
 40
1
 40
1
 10
115.099223
 20
38.011018
 30
0.0
 10
114.262293
 20
34.483388
 30
0.0
 10
112.239382
 20
32.853504
 30
0.0
 10
109.118872
 20
33.192594
 30
0.0
  0
SPLINE
  5
1bb
100
AcDbEntity
  8
Bottom_Plate
 62
7
100
AcDbSpline
 70
8
 71
3
 72
8
 73
4
 74
0
 40
0
 40
0
 40
0
 40
0
 40
1
 40
1
 40
1
 40
1
 10
109.118872
 20
33.192594
 30
0.0
 10
105.225761
 20
33.615639
 30
0.0
 10
103.710331
 20
35.954447
 30
0.0
 10
103.243011
 20
42.261018
 30
0.0
  0
SPLINE
  5
1bc
100
AcDbEntity
  8
Bottom_Plate
 62
7
100
AcDbSpline
 70
8
 71
3
 72
8
 73
4
 74
0
 40
0
 40
0
 40
0
 40
0
 40
1
 40
1
 40
1
 40
1
 10
103.243011
 20
42.261018
 30
0.0
 10
103.178311
 20
43.133816
 30
0.0
 10
103.139121
 20
49.093086
 30
0.0
 10
103.138871
 20
58.086020
 30
0.0
  0
LWPOLYLINE
  5
1bd
100
AcDbEntity
  8
Bottom_Plate
 62
7
100
AcDbPolyline
 90
5
 70
0
 10
124.386465
 20
58.733178
 30
0.0
 10
124.388465
 20
73.505337
 30
0.0
 10
124.160685
 20
73.733180
 30
0.0
 10
123.932905
 20
73.961022
 30
0.0
 10
119.839254
 20
73.961022
 30
0.0
  0
SPLINE
  5
1be
100
AcDbEntity
  8
Bottom_Plate
 62
7
100
AcDbSpline
 70
8
 71
3
 72
8
 73
4
 74
0
 40
0
 40
0
 40
0
 40
0
 40
1
 40
1
 40
1
 40
1
 10
109.139872
 20
59.086018
 30
0.0
 10
109.140872
 20
51.068413
 30
0.0
 10
109.181372
 20
45.098029
 30
0.0
 10
109.241522
 20
44.263283
 30
0.0
  0
SPLINE
  5
1bf
100
AcDbEntity
  8
Bottom_Plate
 62
7
100
AcDbSpline
 70
8
 71
3
 72
8
 73
4
 74
0
 40
0
 40
0
 40
0
 40
0
 40
1
 40
1
 40
1
 40
1
 10
109.241522
 20
44.263283
 30
0.0
 10
109.402122
 20
42.035723
 30
0.0
 10
109.828092
 20
40.615188
 30
0.0
 10
110.569132
 20
39.836016
 30
0.0
  0
SPLINE
  5
1c0
100
AcDbEntity
  8
Bottom_Plate
 62
7
100
AcDbSpline
 70
8
 71
3
 72
8
 73
4
 74
0
 40
0
 40
0
 40
0
 40
0
 40
1
 40
1
 40
1
 40
1
 10
110.569132
 20
39.836016
 30
0.0
 10
110.938092
 20
39.448064
 30
0.0
 10
111.424112
 20
39.396133
 30
0.0
 10
111.738992
 20
39.711016
 30
0.0
  0
SPLINE
  5
1c1
100
AcDbEntity
  8
Bottom_Plate
 62
7
100
AcDbSpline
 70
8
 71
3
 72
8
 73
4
 74
0
 40
0
 40
0
 40
0
 40
0
 40
1
 40
1
 40
1
 40
1
 10
111.738992
 20
39.711016
 30
0.0
 10
111.997462
 20
39.969481
 30
0.0
 10
112.003452
 20
40.521685
 30
0.0
 10
111.750292
 20
40.750805
 30
0.0
  0
SPLINE
  5
1c2
100
AcDbEntity
  8
Bottom_Plate
 62
7
100
AcDbSpline
 70
8
 71
3
 72
8
 73
4
 74
0
 40
0
 40
0
 40
0
 40
0
 40
1
 40
1
 40
1
 40
1
 10
111.750292
 20
40.750805
 30
0.0
 10
111.431252
 20
41.039534
 30
0.0
 10
111.043942
 20
42.046470
 30
0.0
 10
110.874782
 20
43.026958
 30
0.0
  0
SPLINE
  5
1c3
100
AcDbEntity
  8
Bottom_Plate
 62
7
100
AcDbSpline
 70
8
 71
3
 72
8
 73
4
 74
0
 40
0
 40
0
 40
0
 40
0
 40
1
 40
1
 40
1
 40
1
 10
110.874782
 20
43.026958
 30
0.0
 10
110.732982
 20
43.848849
 30
0.0
 10
110.708282
 20
45.740207
 30
0.0
 10
110.669112
 20
58.777047
 30
0.0
  0
SPLINE
  5
1c4
100
AcDbEntity
  8
Bottom_Plate
 62
7
100
AcDbSpline
 70
8
 71
3
 72
8
 73
4
 74
0
 40
0
 40
0
 40
0
 40
0
 40
1
 40
1
 40
1
 40
1
 10
110.669112
 20
58.777047
 30
0.0
 10
110.624812
 20
73.517677
 30
0.0
 10
110.623512
 20
73.594013
 30
0.0
 10
110.421302
 20
73.777049
 30
0.0
  0
SPLINE
  5
1c5
100
AcDbEntity
  8
Bottom_Plate
 62
7
100
AcDbSpline
 70
8
 71
3
 72
8
 73
4
 74
0
 40
0
 40
0
 40
0
 40
0
 40
1
 40
1
 40
1
 40
1
 10
110.421302
 20
73.777049
 30
0.0
 10
110.230882
 20
73.949377
 30
0.0
 10
109.958662
 20
73.961020
 30
0.0
 10
106.119851
 20
73.961020
 30
0.0
  0
LWPOLYLINE
  5
1c6
100
AcDbEntity
  8
Bottom_Plate
 62
7
100
AcDbPolyline
 90
5
 70
0
 10
103.138871
 20
58.086020
 30
0.0
 10
103.138871
 20
72.511019
 30
0.0
 10
106.138871
 20
72.511019
 30
0.0
 10
109.138872
 20
72.511019
 30
0.0
 10
109.139872
 20
59.086018
 30
0.0
  0
SPLINE
  5
1c7
100
AcDbEntity
  8
Bottom_Plate
 62
7
100
AcDbSpline
 70
8
 71
3
 72
8
 73
4
 74
0
 40
0
 40
0
 40
0
 40
0
 40
1
 40
1
 40
1
 40
1
 10
101.569960
 20
57.824137
 30
0.0
 10
101.598960
 20
47.008030
 30
0.0
 10
101.646760
 20
41.955999
 30
0.0
 10
101.726600
 20
41.261016
 30
0.0
  0
SPLINE
  5
1c8
100
AcDbEntity
  8
Bottom_Plate
 62
7
100
AcDbSpline
 70
8
 71
3
 72
8
 73
4
 74
0
 40
0
 40
0
 40
0
 40
0
 40
1
 40
1
 40
1
 40
1
 10
101.726600
 20
41.261016
 30
0.0
 10
102.301990
 20
36.252529
 30
0.0
 10
103.543581
 20
33.763417
 30
0.0
 10
106.089041
 20
32.515356
 30
0.0
  0
SPLINE
  5
1c9
100
AcDbEntity
  8
Bottom_Plate
 62
7
100
AcDbSpline
 70
8
 71
3
 72
8
 73
4
 74
0
 40
0
 40
0
 40
0
 40
0
 40
1
 40
1
 40
1
 40
1
 10
106.089041
 20
32.515356
 30
0.0
 10
107.303701
 20
31.919796
 30
0.0
 10
107.876012
 20
31.796719
 30
0.0
 10
109.639042
 20
31.751910
 30
0.0
  0
SPLINE
  5
1ca
100
AcDbEntity
  8
Bottom_Plate
 62
7
100
AcDbSpline
 70
8
 71
3
 72
8
 73
4
 74
0
 40
0
 40
0
 40
0
 40
0
 40
1
 40
1
 40
1
 40
1
 10
109.639042
 20
31.751910
 30
0.0
 10
110.812462
 20
31.722090
 30
0.0
 10
111.319662
 20
31.749010
 30
0.0
 10
111.726662
 20
31.862947
 30
0.0
  0
LWPOLYLINE
  5
1cb
100
AcDbEntity
  8
Bottom_Plate
 62
7
100
AcDbPolyline
 90
5
 70
0
 10
106.119851
 20
73.961020
 30
0.0
 10
102.021690
 20
73.961020
 30
0.0
 10
101.774930
 20
73.674139
 30
0.0
 10
101.528160
 20
73.387259
 30
0.0
 10
101.569960
 20
57.824137
 30
0.0
  0
SPLINE
  5
1cc
100
AcDbEntity
  8
Bottom_Plate
 62
7
100
AcDbSpline
 70
8
 71
3
 72
8
 73
4
 74
0
 40
0
 40
0
 40
0
 40
0
 40
1
 40
1
 40
1
 40
1
 10
96.039079
 20
31.911019
 30
0.0
 10
96.306139
 20
32.178083
 30
0.0
 10
96.294729
 20
32.623912
 30
0.0
 10
96.014079
 20
32.887391
 30
0.0
  0
SPLINE
  5
1cd
100
AcDbEntity
  8
Bottom_Plate
 62
7
100
AcDbSpline
 70
8
 71
3
 72
8
 73
4
 74
0
 40
0
 40
0
 40
0
 40
0
 40
1
 40
1
 40
1
 40
1
 10
96.014079
 20
32.887391
 30
0.0
 10
95.791089
 20
33.096736
 30
0.0
 10
95.733579
 20
33.098992
 30
0.0
 10
89.589078
 20
33.139422
 30
0.0
  0
SPLINE
  5
1ce
100
AcDbEntity
  8
Bottom_Plate
 62
7
100
AcDbSpline
 70
8
 71
3
 72
8
 73
4
 74
0
 40
0
 40
0
 40
0
 40
0
 40
1
 40
1
 40
1
 40
1
 10
89.589078
 20
33.139422
 30
0.0
 10
84.308227
 20
33.174172
 30
0.0
 10
83.278317
 20
33.204622
 30
0.0
 10
82.641937
 20
33.344834
 30
0.0
  0
SPLINE
  5
1cf
100
AcDbEntity
  8
Bottom_Plate
 62
7
100
AcDbSpline
 70
8
 71
3
 72
8
 73
4
 74
0
 40
0
 40
0
 40
0
 40
0
 40
1
 40
1
 40
1
 40
1
 10
82.641937
 20
33.344834
 30
0.0
 10
80.233386
 20
33.875506
 30
0.0
 10
78.435116
 20
34.884169
 30
0.0
 10
77.132525
 20
36.435119
 30
0.0
  0
SPLINE
  5
1d0
100
AcDbEntity
  8
Bottom_Plate
 62
7
100
AcDbSpline
 70
8
 71
3
 72
8
 73
4
 74
0
 40
0
 40
0
 40
0
 40
0
 40
1
 40
1
 40
1
 40
1
 10
77.132525
 20
36.435119
 30
0.0
 10
73.894595
 20
40.290393
 30
0.0
 10
72.358434
 20
46.314280
 30
0.0
 10
72.573985
 20
54.311021
 30
0.0
  0
SPLINE
  5
1d1
100
AcDbEntity
  8
Bottom_Plate
 62
7
100
AcDbSpline
 70
8
 71
3
 72
8
 73
4
 74
0
 40
0
 40
0
 40
0
 40
0
 40
1
 40
1
 40
1
 40
1
 10
72.573985
 20
54.311021
 30
0.0
 10
72.709965
 20
59.356013
 30
0.0
 10
73.475975
 20
63.099291
 30
0.0
 10
74.989255
 20
66.113717
 30
0.0
  0
SPLINE
  5
1d2
100
AcDbEntity
  8
Bottom_Plate
 62
7
100
AcDbSpline
 70
8
 71
3
 72
8
 73
4
 74
0
 40
0
 40
0
 40
0
 40
0
 40
1
 40
1
 40
1
 40
1
 10
74.989255
 20
66.113717
 30
0.0
 10
76.222115
 20
68.569565
 30
0.0
 10
78.169956
 20
70.477635
 30
0.0
 10
80.394486
 20
71.408576
 30
0.0
  0
SPLINE
  5
1d3
100
AcDbEntity
  8
Bottom_Plate
 62
7
100
AcDbSpline
 70
8
 71
3
 72
8
 73
4
 74
0
 40
0
 40
0
 40
0
 40
0
 40
1
 40
1
 40
1
 40
1
 10
80.394486
 20
71.408576
 30
0.0
 10
82.451536
 20
72.269428
 30
0.0
 10
83.803147
 20
72.411023
 30
0.0
 10
89.963468
 20
72.411023
 30
0.0
  0
LWPOLYLINE
  5
1d4
100
AcDbEntity
  8
Bottom_Plate
 62
7
100
AcDbPolyline
 90
1
 70
1
 10
111.726662
 20
31.862947
 30
0.0
  0
SPLINE
  5
1d5
100
AcDbEntity
  8
Bottom_Plate
 62
7
100
AcDbSpline
 70
8
 71
3
 72
8
 73
4
 74
0
 40
0
 40
0
 40
0
 40
0
 40
1
 40
1
 40
1
 40
1
 10
94.739079
 20
57.279171
 30
0.0
 10
94.739079
 20
40.737702
 30
0.0
 10
94.764029
 20
41.451709
 30
0.0
 10
94.166429
 20
40.894200
 30
0.0
  0
SPLINE
  5
1d6
100
AcDbEntity
  8
Bottom_Plate
 62
7
100
AcDbSpline
 70
8
 71
3
 72
8
 73
4
 74
0
 40
0
 40
0
 40
0
 40
0
 40
1
 40
1
 40
1
 40
1
 10
94.166429
 20
40.894200
 30
0.0
 10
93.586189
 20
40.352886
 30
0.0
 10
93.674029
 20
40.363272
 30
0.0
 10
89.389078
 20
40.329414
 30
0.0
  0
SPLINE
  5
1d7
100
AcDbEntity
  8
Bottom_Plate
 62
7
100
AcDbSpline
 70
8
 71
3
 72
8
 73
4
 74
0
 40
0
 40
0
 40
0
 40
0
 40
1
 40
1
 40
1
 40
1
 10
89.389078
 20
40.329414
 30
0.0
 10
85.024287
 20
40.294924
 30
0.0
 10
84.128707
 20
40.360884
 30
0.0
 10
83.306827
 20
40.777360
 30
0.0
  0
SPLINE
  5
1d8
100
AcDbEntity
  8
Bottom_Plate
 62
7
100
AcDbSpline
 70
8
 71
3
 72
8
 73
4
 74
0
 40
0
 40
0
 40
0
 40
0
 40
1
 40
1
 40
1
 40
1
 10
83.306827
 20
40.777360
 30
0.0
 10
82.026596
 20
41.426105
 30
0.0
 10
81.576226
 20
42.592974
 30
0.0
 10
81.171026
 20
46.311020
 30
0.0
  0
SPLINE
  5
1d9
100
AcDbEntity
  8
Bottom_Plate
 62
7
100
AcDbSpline
 70
8
 71
3
 72
8
 73
4
 74
0
 40
0
 40
0
 40
0
 40
0
 40
1
 40
1
 40
1
 40
1
 10
81.171026
 20
46.311020
 30
0.0
 10
80.943226
 20
48.401269
 30
0.0
 10
80.908526
 20
56.585242
 30
0.0
 10
81.118866
 20
58.611022
 30
0.0
  0
SPLINE
  5
1da
100
AcDbEntity
  8
Bottom_Plate
 62
7
100
AcDbSpline
 70
8
 71
3
 72
8
 73
4
 74
0
 40
0
 40
0
 40
0
 40
0
 40
1
 40
1
 40
1
 40
1
 10
81.118866
 20
58.611022
 30
0.0
 10
81.521676
 20
62.490398
 30
0.0
 10
82.195726
 20
64.317805
 30
0.0
 10
83.470277
 20
64.985869
 30
0.0
  0
SPLINE
  5
1db
100
AcDbEntity
  8
Bottom_Plate
 62
7
100
AcDbSpline
 70
8
 71
3
 72
8
 73
4
 74
0
 40
0
 40
0
 40
0
 40
0
 40
1
 40
1
 40
1
 40
1
 10
83.470277
 20
64.985869
 30
0.0
 10
83.959417
 20
65.242257
 30
0.0
 10
84.079107
 20
65.259824
 30
0.0
 10
85.564077
 20
65.293197
 30
0.0
  0
LWPOLYLINE
  5
1dc
100
AcDbEntity
  8
Bottom_Plate
 62
7
100
AcDbPolyline
 90
3
 70
0
 10
89.963468
 20
72.411023
 30
0.0
 10
94.739079
 20
72.411023
 30
0.0
 10
94.739079
 20
57.279171
 30
0.0
  0
SPLINE
  5
1dd
100
AcDbEntity
  8
Bottom_Plate
 62
7
100
AcDbSpline
 70
8
 71
3
 72
8
 73
4
 74
0
 40
0
 40
0
 40
0
 40
0
 40
1
 40
1
 40
1
 40
1
 10
87.370527
 20
43.928454
 30
0.0
 10
87.673738
 20
43.643597
 30
0.0
 10
87.990358
 20
43.653209
 30
0.0
 10
88.293628
 20
43.956474
 30
0.0
  0
LWPOLYLINE
  5
1de
100
AcDbEntity
  8
Bottom_Plate
 62
7
100
AcDbPolyline
 90
5
 70
0
 10
85.564077
 20
65.293197
 30
0.0
 10
87.139077
 20
65.328597
 30
0.0
 10
87.139077
 20
54.737241
 30
0.0
 10
87.139077
 20
44.145886
 30
0.0
 10
87.370527
 20
43.928454
 30
0.0
  0
SPLINE
  5
1df
100
AcDbEntity
  8
Bottom_Plate
 62
7
100
AcDbSpline
 70
8
 71
3
 72
8
 73
4
 74
0
 40
0
 40
0
 40
0
 40
0
 40
1
 40
1
 40
1
 40
1
 10
88.539078
 20
55.248293
 30
0.0
 10
88.539078
 20
61.323795
 30
0.0
 10
88.511128
 20
66.367505
 30
0.0
 10
88.476958
 20
66.456538
 30
0.0
  0
SPLINE
  5
1e0
100
AcDbEntity
  8
Bottom_Plate
 62
7
100
AcDbSpline
 70
8
 71
3
 72
8
 73
4
 74
0
 40
0
 40
0
 40
0
 40
0
 40
1
 40
1
 40
1
 40
1
 10
88.476958
 20
66.456538
 30
0.0
 10
88.340358
 20
66.812522
 30
0.0
 10
87.901698
 20
66.911136
 30
0.0
 10
86.469047
 20
66.907930
 30
0.0
  0
SPLINE
  5
1e1
100
AcDbEntity
  8
Bottom_Plate
 62
7
100
AcDbSpline
 70
8
 71
3
 72
8
 73
4
 74
0
 40
0
 40
0
 40
0
 40
0
 40
1
 40
1
 40
1
 40
1
 10
86.469047
 20
66.907930
 30
0.0
 10
85.710057
 20
66.906230
 30
0.0
 10
84.770327
 20
66.863410
 30
0.0
 10
84.380757
 20
66.812770
 30
0.0
  0
SPLINE
  5
1e2
100
AcDbEntity
  8
Bottom_Plate
 62
7
100
AcDbSpline
 70
8
 71
3
 72
8
 73
4
 74
0
 40
0
 40
0
 40
0
 40
0
 40
1
 40
1
 40
1
 40
1
 10
84.380757
 20
66.812770
 30
0.0
 10
82.031506
 20
66.507386
 30
0.0
 10
80.923886
 20
65.294611
 30
0.0
 10
80.137706
 20
62.166899
 30
0.0
  0
SPLINE
  5
1e3
100
AcDbEntity
  8
Bottom_Plate
 62
7
100
AcDbSpline
 70
8
 71
3
 72
8
 73
4
 74
0
 40
0
 40
0
 40
0
 40
0
 40
1
 40
1
 40
1
 40
1
 10
80.137706
 20
62.166899
 30
0.0
 10
79.101126
 20
58.042986
 30
0.0
 10
79.157976
 20
47.189329
 30
0.0
 10
80.240026
 20
42.633339
 30
0.0
  0
SPLINE
  5
1e4
100
AcDbEntity
  8
Bottom_Plate
 62
7
100
AcDbSpline
 70
8
 71
3
 72
8
 73
4
 74
0
 40
0
 40
0
 40
0
 40
0
 40
1
 40
1
 40
1
 40
1
 10
80.240026
 20
42.633339
 30
0.0
 10
80.740006
 20
40.528137
 30
0.0
 10
82.038916
 20
39.318112
 30
0.0
 10
84.198887
 20
38.945368
 30
0.0
  0
SPLINE
  5
1e5
100
AcDbEntity
  8
Bottom_Plate
 62
7
100
AcDbSpline
 70
8
 71
3
 72
8
 73
4
 74
0
 40
0
 40
0
 40
0
 40
0
 40
1
 40
1
 40
1
 40
1
 10
84.198887
 20
38.945368
 30
0.0
 10
84.899437
 20
38.824474
 30
0.0
 10
85.874977
 20
38.802880
 30
0.0
 10
89.326558
 20
38.831861
 30
0.0
  0
SPLINE
  5
1e6
100
AcDbEntity
  8
Bottom_Plate
 62
7
100
AcDbSpline
 70
8
 71
3
 72
8
 73
4
 74
0
 40
0
 40
0
 40
0
 40
0
 40
1
 40
1
 40
1
 40
1
 10
89.326558
 20
38.831861
 30
0.0
 10
93.438719
 20
38.866391
 30
0.0
 10
93.608479
 20
38.875401
 30
0.0
 10
94.139079
 20
39.087306
 30
0.0
  0
SPLINE
  5
1e7
100
AcDbEntity
  8
Bottom_Plate
 62
7
100
AcDbSpline
 70
8
 71
3
 72
8
 73
4
 74
0
 40
0
 40
0
 40
0
 40
0
 40
1
 40
1
 40
1
 40
1
 10
94.139079
 20
39.087306
 30
0.0
 10
94.441579
 20
39.208115
 30
0.0
 10
94.855799
 20
39.444475
 30
0.0
 10
95.059569
 20
39.612549
 30
0.0
  0
SPLINE
  5
1e8
100
AcDbEntity
  8
Bottom_Plate
 62
7
100
AcDbSpline
 70
8
 71
3
 72
8
 73
4
 74
0
 40
0
 40
0
 40
0
 40
0
 40
1
 40
1
 40
1
 40
1
 10
95.059569
 20
39.612549
 30
0.0
 10
95.529519
 20
40.000181
 30
0.0
 10
96.003309
 20
40.968226
 30
0.0
 10
96.135569
 20
41.811020
 30
0.0
  0
SPLINE
  5
1e9
100
AcDbEntity
  8
Bottom_Plate
 62
7
100
AcDbSpline
 70
8
 71
3
 72
8
 73
4
 74
0
 40
0
 40
0
 40
0
 40
0
 40
1
 40
1
 40
1
 40
1
 10
96.135569
 20
41.811020
 30
0.0
 10
96.246799
 20
42.519855
 30
0.0
 10
96.286899
 20
73.270050
 30
0.0
 10
96.176959
 20
73.556544
 30
0.0
  0
SPLINE
  5
1ea
100
AcDbEntity
  8
Bottom_Plate
 62
7
100
AcDbSpline
 70
8
 71
3
 72
8
 73
4
 74
0
 40
0
 40
0
 40
0
 40
0
 40
1
 40
1
 40
1
 40
1
 10
96.176959
 20
73.556544
 30
0.0
 10
96.011759
 20
73.987066
 30
0.0
 10
95.759839
 20
74.011201
 30
0.0
 10
91.469048
 20
74.007602
 30
0.0
  0
SPLINE
  5
1eb
100
AcDbEntity
  8
Bottom_Plate
 62
7
100
AcDbSpline
 70
8
 71
3
 72
8
 73
4
 74
0
 40
0
 40
0
 40
0
 40
0
 40
1
 40
1
 40
1
 40
1
 10
91.469048
 20
74.007602
 30
0.0
 10
84.808807
 20
74.002002
 30
0.0
 10
82.847377
 20
73.845373
 30
0.0
 10
80.751756
 20
73.151697
 30
0.0
  0
SPLINE
  5
1ec
100
AcDbEntity
  8
Bottom_Plate
 62
7
100
AcDbSpline
 70
8
 71
3
 72
8
 73
4
 74
0
 40
0
 40
0
 40
0
 40
0
 40
1
 40
1
 40
1
 40
1
 10
80.751756
 20
73.151697
 30
0.0
 10
76.416565
 20
71.716693
 30
0.0
 10
73.733375
 20
68.488684
 30
0.0
 10
72.187594
 20
62.848595
 30
0.0
  0
SPLINE
  5
1ed
100
AcDbEntity
  8
Bottom_Plate
 62
7
100
AcDbSpline
 70
8
 71
3
 72
8
 73
4
 74
0
 40
0
 40
0
 40
0
 40
0
 40
1
 40
1
 40
1
 40
1
 10
72.187594
 20
62.848595
 30
0.0
 10
71.427054
 20
60.073597
 30
0.0
 10
71.101504
 20
57.168604
 30
0.0
 10
71.101944
 20
53.161022
 30
0.0
  0
SPLINE
  5
1ee
100
AcDbEntity
  8
Bottom_Plate
 62
7
100
AcDbSpline
 70
8
 71
3
 72
8
 73
4
 74
0
 40
0
 40
0
 40
0
 40
0
 40
1
 40
1
 40
1
 40
1
 10
71.101944
 20
53.161022
 30
0.0
 10
71.102944
 20
47.061045
 30
0.0
 10
71.916854
 20
42.665686
 30
0.0
 10
73.732475
 20
38.961020
 30
0.0
  0
SPLINE
  5
1ef
100
AcDbEntity
  8
Bottom_Plate
 62
7
100
AcDbSpline
 70
8
 71
3
 72
8
 73
4
 74
0
 40
0
 40
0
 40
0
 40
0
 40
1
 40
1
 40
1
 40
1
 10
73.732475
 20
38.961020
 30
0.0
 10
75.828835
 20
34.683538
 30
0.0
 10
78.633236
 20
32.480397
 30
0.0
 10
82.762137
 20
31.867316
 30
0.0
  0
SPLINE
  5
1f0
100
AcDbEntity
  8
Bottom_Plate
 62
7
100
AcDbSpline
 70
8
 71
3
 72
8
 73
4
 74
0
 40
0
 40
0
 40
0
 40
0
 40
1
 40
1
 40
1
 40
1
 10
82.762137
 20
31.867316
 30
0.0
 10
83.626357
 20
31.738992
 30
0.0
 10
84.890757
 20
31.711019
 30
0.0
 10
89.826908
 20
31.711019
 30
0.0
  0
SPLINE
  5
1f1
100
AcDbEntity
  8
Bottom_Plate
 62
7
100
AcDbSpline
 70
8
 71
3
 72
8
 73
4
 74
0
 40
0
 40
0
 40
0
 40
0
 40
1
 40
1
 40
1
 40
1
 10
89.826908
 20
31.711019
 30
0.0
 10
95.705749
 20
31.711019
 30
0.0
 10
95.843519
 20
31.715419
 30
0.0
 10
96.039079
 20
31.911019
 30
0.0
  0
LWPOLYLINE
  5
1f2
100
AcDbEntity
  8
Bottom_Plate
 62
7
100
AcDbPolyline
 90
3
 70
0
 10
88.293628
 20
43.956474
 30
0.0
 10
88.539078
 20
44.201928
 30
0.0
 10
88.539078
 20
55.248293
 30
0.0
  0
SPLINE
  5
1f3
100
AcDbEntity
  8
Bottom_Plate
 62
7
100
AcDbSpline
 70
8
 71
3
 72
8
 73
4
 74
0
 40
0
 40
0
 40
0
 40
0
 40
1
 40
1
 40
1
 40
1
 10
65.575473
 20
31.895989
 30
0.0
 10
65.730693
 20
32.067505
 30
0.0
 10
65.740903
 20
33.178322
 30
0.0
 10
65.715963
 20
47.170990
 30
0.0
  0
LWPOLYLINE
  5
1f4
100
AcDbEntity
  8
Bottom_Plate
 62
7
100
AcDbPolyline
 90
1
 70
1
 10
96.039079
 20
31.911019
 30
0.0
  0
SPLINE
  5
1f5
100
AcDbEntity
  8
Bottom_Plate
 62
7
100
AcDbSpline
 70
8
 71
3
 72
8
 73
4
 74
0
 40
0
 40
0
 40
0
 40
0
 40
1
 40
1
 40
1
 40
1
 10
65.455683
 20
62.839250
 30
0.0
 10
64.817913
 20
64.419310
 30
0.0
 10
63.793063
 20
65.011018
 30
0.0
 10
61.694132
 20
65.011018
 30
0.0
  0
SPLINE
  5
1f6
100
AcDbEntity
  8
Bottom_Plate
 62
7
100
AcDbSpline
 70
8
 71
3
 72
8
 73
4
 74
0
 40
0
 40
0
 40
0
 40
0
 40
1
 40
1
 40
1
 40
1
 10
61.694132
 20
65.011018
 30
0.0
 10
60.697622
 20
65.011018
 30
0.0
 10
60.614382
 20
64.995418
 30
0.0
 10
60.384522
 20
64.765563
 30
0.0
  0
SPLINE
  5
1f7
100
AcDbEntity
  8
Bottom_Plate
 62
7
100
AcDbSpline
 70
8
 71
3
 72
8
 73
4
 74
0
 40
0
 40
0
 40
0
 40
0
 40
1
 40
1
 40
1
 40
1
 10
60.384522
 20
64.765563
 30
0.0
 10
60.078282
 20
64.459317
 30
0.0
 10
60.062732
 20
64.011178
 30
0.0
 10
60.349342
 20
63.751518
 30
0.0
  0
SPLINE
  5
1f8
100
AcDbEntity
  8
Bottom_Plate
 62
7
100
AcDbSpline
 70
8
 71
3
 72
8
 73
4
 74
0
 40
0
 40
0
 40
0
 40
0
 40
1
 40
1
 40
1
 40
1
 10
60.349342
 20
63.751518
 30
0.0
 10
60.522892
 20
63.594289
 30
0.0
 10
60.773872
 20
63.550737
 30
0.0
 10
61.786442
 20
63.502148
 30
0.0
  0
SPLINE
  5
1f9
100
AcDbEntity
  8
Bottom_Plate
 62
7
100
AcDbSpline
 70
8
 71
3
 72
8
 73
4
 74
0
 40
0
 40
0
 40
0
 40
0
 40
1
 40
1
 40
1
 40
1
 10
61.786442
 20
63.502148
 30
0.0
 10
62.822173
 20
63.452448
 30
0.0
 10
63.070283
 20
63.408038
 30
0.0
 10
63.379283
 20
63.217071
 30
0.0
  0
SPLINE
  5
1fa
100
AcDbEntity
  8
Bottom_Plate
 62
7
100
AcDbSpline
 70
8
 71
3
 72
8
 73
4
 74
0
 40
0
 40
0
 40
0
 40
0
 40
1
 40
1
 40
1
 40
1
 10
63.379283
 20
63.217071
 30
0.0
 10
63.906233
 20
62.891394
 30
0.0
 10
64.138813
 20
62.358905
 30
0.0
 10
64.249943
 20
61.223702
 30
0.0
  0
SPLINE
  5
1fb
100
AcDbEntity
  8
Bottom_Plate
 62
7
100
AcDbSpline
 70
8
 71
3
 72
8
 73
4
 74
0
 40
0
 40
0
 40
0
 40
0
 40
1
 40
1
 40
1
 40
1
 10
64.249943
 20
61.223702
 30
0.0
 10
64.305313
 20
60.657991
 30
0.0
 10
64.332813
 20
54.673534
 30
0.0
 10
64.316623
 20
46.711016
 30
0.0
  0
LWPOLYLINE
  5
1fc
100
AcDbEntity
  8
Bottom_Plate
 62
7
100
AcDbPolyline
 90
3
 70
0
 10
65.715963
 20
47.170990
 30
0.0
 10
65.689073
 20
62.261018
 30
0.0
 10
65.455683
 20
62.839250
 30
0.0
  0
SPLINE
  5
1fd
100
AcDbEntity
  8
Bottom_Plate
 62
7
100
AcDbSpline
 70
8
 71
3
 72
8
 73
4
 74
0
 40
0
 40
0
 40
0
 40
0
 40
1
 40
1
 40
1
 40
1
 10
64.339073
 20
70.326518
 30
0.0
 10
64.339073
 20
68.364561
 30
0.0
 10
64.350903
 20
68.231307
 30
0.0
 10
64.540363
 20
68.059851
 30
0.0
  0
SPLINE
  5
1fe
100
AcDbEntity
  8
Bottom_Plate
 62
7
100
AcDbSpline
 70
8
 71
3
 72
8
 73
4
 74
0
 40
0
 40
0
 40
0
 40
0
 40
1
 40
1
 40
1
 40
1
 10
64.540363
 20
68.059851
 30
0.0
 10
64.798443
 20
67.826295
 30
0.0
 10
65.279703
 20
67.826295
 30
0.0
 10
65.537783
 20
68.059851
 30
0.0
  0
SPLINE
  5
1ff
100
AcDbEntity
  8
Bottom_Plate
 62
7
100
AcDbSpline
 70
8
 71
3
 72
8
 73
4
 74
0
 40
0
 40
0
 40
0
 40
0
 40
1
 40
1
 40
1
 40
1
 10
65.537783
 20
68.059851
 30
0.0
 10
65.729763
 20
68.233587
 30
0.0
 10
65.739073
 20
68.363409
 30
0.0
 10
65.739073
 20
70.865439
 30
0.0
  0
SPLINE
  5
200
100
AcDbEntity
  8
Bottom_Plate
 62
7
100
AcDbSpline
 70
8
 71
3
 72
8
 73
4
 74
0
 40
0
 40
0
 40
0
 40
0
 40
1
 40
1
 40
1
 40
1
 10
65.739073
 20
70.865439
 30
0.0
 10
65.739073
 20
73.299450
 30
0.0
 10
65.725273
 20
73.505908
 30
0.0
 10
65.547913
 20
73.724942
 30
0.0
  0
LWPOLYLINE
  5
201
100
AcDbEntity
  8
Bottom_Plate
 62
7
100
AcDbPolyline
 90
9
 70
0
 10
64.316623
 20
46.711016
 30
0.0
 10
64.289073
 20
33.161015
 30
0.0
 10
61.214072
 20
33.134565
 30
0.0
 10
58.139072
 20
33.108125
 30
0.0
 10
58.139072
 20
52.759573
 30
0.0
 10
58.139072
 20
72.411019
 30
0.0
 10
61.239072
 20
72.411019
 30
0.0
 10
64.339073
 20
72.411019
 30
0.0
 10
64.339073
 20
70.326518
 30
0.0
  0
SPLINE
  5
202
100
AcDbEntity
  8
Bottom_Plate
 62
7
100
AcDbSpline
 70
8
 71
3
 72
8
 73
4
 74
0
 40
0
 40
0
 40
0
 40
0
 40
1
 40
1
 40
1
 40
1
 10
61.230832
 20
31.711015
 30
0.0
 10
65.167913
 20
31.711015
 30
0.0
 10
65.417703
 20
31.721645
 30
0.0
 10
65.575473
 20
31.895982
 30
0.0
  0
LWPOLYLINE
  5
203
100
AcDbEntity
  8
Bottom_Plate
 62
7
100
AcDbPolyline
 90
11
 70
0
 10
65.547913
 20
73.724942
 30
0.0
 10
65.356743
 20
73.961020
 30
0.0
 10
61.250682
 20
73.961020
 30
0.0
 10
57.144631
 20
73.961020
 30
0.0
 10
56.916851
 20
73.733247
 30
0.0
 10
56.689071
 20
73.505474
 30
0.0
 10
56.663361
 20
52.872628
 30
0.0
 10
56.637661
 20
32.239782
 30
0.0
 10
56.845621
 20
31.975398
 30
0.0
 10
57.053591
 20
31.711015
 30
0.0
 10
61.230832
 20
31.711015
 30
0.0
  0
SPLINE
  5
204
100
AcDbEntity
  8
Bottom_Plate
 62
7
100
AcDbSpline
 70
8
 71
3
 72
8
 73
4
 74
0
 40
0
 40
0
 40
0
 40
0
 40
1
 40
1
 40
1
 40
1
 10
51.190240
 20
31.912309
 30
0.0
 10
51.290430
 20
32.023018
 30
0.0
 10
51.370040
 20
32.236768
 30
0.0
 10
51.367150
 20
32.387308
 30
0.0
  0
SPLINE
  5
205
100
AcDbEntity
  8
Bottom_Plate
 62
7
100
AcDbSpline
 70
8
 71
3
 72
8
 73
4
 74
0
 40
0
 40
0
 40
0
 40
0
 40
1
 40
1
 40
1
 40
1
 10
51.367150
 20
32.387308
 30
0.0
 10
51.358650
 20
32.831550
 30
0.0
 10
41.709098
 20
73.224811
 30
0.0
 10
41.527848
 20
73.574977
 30
0.0
  0
SPLINE
  5
206
100
AcDbEntity
  8
Bottom_Plate
 62
7
100
AcDbSpline
 70
8
 71
3
 72
8
 73
4
 74
0
 40
0
 40
0
 40
0
 40
0
 40
1
 40
1
 40
1
 40
1
 10
41.527848
 20
73.574977
 30
0.0
 10
41.311458
 20
73.993015
 30
0.0
 10
41.113728
 20
74.011023
 30
0.0
 10
36.739937
 20
74.011023
 30
0.0
  0
LWPOLYLINE
  5
207
100
AcDbEntity
  8
Bottom_Plate
 62
7
100
AcDbPolyline
 90
1
 70
1
 10
65.575473
 20
31.895982
 30
0.0
  0
SPLINE
  5
208
100
AcDbEntity
  8
Bottom_Plate
 62
7
100
AcDbSpline
 70
8
 71
3
 72
8
 73
4
 74
0
 40
0
 40
0
 40
0
 40
0
 40
1
 40
1
 40
1
 40
1
 10
32.282416
 20
73.780665
 30
0.0
 10
32.033356
 20
73.566435
 30
0.0
 10
31.812476
 20
72.714060
 30
0.0
 10
29.127536
 20
61.605663
 30
0.0
  0
SPLINE
  5
209
100
AcDbEntity
  8
Bottom_Plate
 62
7
100
AcDbSpline
 70
8
 71
3
 72
8
 73
4
 74
0
 40
0
 40
0
 40
0
 40
0
 40
1
 40
1
 40
1
 40
1
 10
29.127536
 20
61.605663
 30
0.0
 10
24.315005
 20
41.694806
 30
0.0
 10
22.143404
 20
32.467228
 30
0.0
 10
22.208194
 20
32.203896
 30
0.0
  0
SPLINE
  5
20a
100
AcDbEntity
  8
Bottom_Plate
 62
7
100
AcDbSpline
 70
8
 71
3
 72
8
 73
4
 74
0
 40
0
 40
0
 40
0
 40
0
 40
1
 40
1
 40
1
 40
1
 10
22.208194
 20
32.203896
 30
0.0
 10
22.333444
 20
31.694840
 30
0.0
 10
22.184394
 20
31.711018
 30
0.0
 10
26.749005
 20
31.711018
 30
0.0
  0
LWPOLYLINE
  5
20b
100
AcDbEntity
  8
Bottom_Plate
 62
7
100
AcDbPolyline
 90
3
 70
0
 10
36.739937
 20
74.011023
 30
0.0
 10
32.550217
 20
74.011023
 30
0.0
 10
32.282416
 20
73.780665
 30
0.0
  0
SPLINE
  5
20c
100
AcDbEntity
  8
Bottom_Plate
 62
7
100
AcDbSpline
 70
8
 71
3
 72
8
 73
4
 74
0
 40
0
 40
0
 40
0
 40
0
 40
1
 40
1
 40
1
 40
1
 10
31.175706
 20
31.936018
 30
0.0
 10
31.253386
 20
32.059768
 30
0.0
 10
31.386386
 20
32.543518
 30
0.0
 10
31.471246
 20
33.011018
 30
0.0
  0
SPLINE
  5
20d
100
AcDbEntity
  8
Bottom_Plate
 62
7
100
AcDbSpline
 70
8
 71
3
 72
8
 73
4
 74
0
 40
0
 40
0
 40
0
 40
0
 40
1
 40
1
 40
1
 40
1
 10
31.471246
 20
33.011018
 30
0.0
 10
31.639416
 20
33.937414
 30
0.0
 10
32.712937
 20
39.690581
 30
0.0
 10
32.800747
 20
40.136019
 30
0.0
  0
LWPOLYLINE
  5
20e
100
AcDbEntity
  8
Bottom_Plate
 62
7
100
AcDbPolyline
 90
3
 70
0
 10
26.749005
 20
31.711018
 30
0.0
 10
31.034456
 20
31.711018
 30
0.0
 10
31.175706
 20
31.936018
 30
0.0
  0
SPLINE
  5
20f
100
AcDbEntity
  8
Bottom_Plate
 62
7
100
AcDbSpline
 70
8
 71
3
 72
8
 73
4
 74
0
 40
0
 40
0
 40
0
 40
0
 40
1
 40
1
 40
1
 40
1
 10
34.633527
 20
40.411019
 30
0.0
 10
36.281437
 20
40.411019
 30
0.0
 10
36.431447
 20
40.426249
 30
0.0
 10
36.675577
 20
40.618277
 30
0.0
  0
SPLINE
  5
210
100
AcDbEntity
  8
Bottom_Plate
 62
7
100
AcDbSpline
 70
8
 71
3
 72
8
 73
4
 74
0
 40
0
 40
0
 40
0
 40
0
 40
1
 40
1
 40
1
 40
1
 10
36.675577
 20
40.618277
 30
0.0
 10
37.015967
 20
40.886026
 30
0.0
 10
37.037507
 20
41.411516
 30
0.0
 10
36.720207
 20
41.707123
 30
0.0
  0
SPLINE
  5
211
100
AcDbEntity
  8
Bottom_Plate
 62
7
100
AcDbSpline
 70
8
 71
3
 72
8
 73
4
 74
0
 40
0
 40
0
 40
0
 40
0
 40
1
 40
1
 40
1
 40
1
 10
36.720207
 20
41.707123
 30
0.0
 10
36.515567
 20
41.897779
 30
0.0
 10
36.364587
 20
41.912048
 30
0.0
 10
34.395207
 20
41.926863
 30
0.0
  0
SPLINE
  5
212
100
AcDbEntity
  8
Bottom_Plate
 62
7
100
AcDbSpline
 70
8
 71
3
 72
8
 73
4
 74
0
 40
0
 40
0
 40
0
 40
0
 40
1
 40
1
 40
1
 40
1
 10
34.395207
 20
41.926863
 30
0.0
 10
33.236827
 20
41.935563
 30
0.0
 10
32.199066
 20
41.934163
 30
0.0
 10
32.089066
 20
41.923763
 30
0.0
  0
SPLINE
  5
213
100
AcDbEntity
  8
Bottom_Plate
 62
7
100
AcDbSpline
 70
8
 71
3
 72
8
 73
4
 74
0
 40
0
 40
0
 40
0
 40
0
 40
1
 40
1
 40
1
 40
1
 10
32.089066
 20
41.923763
 30
0.0
 10
31.603806
 20
41.877823
 30
0.0
 10
31.555686
 20
41.711068
 30
0.0
 10
30.762286
 20
37.326185
 30
0.0
  0
LWPOLYLINE
  5
214
100
AcDbEntity
  8
Bottom_Plate
 62
7
100
AcDbPolyline
 90
3
 70
0
 10
32.800747
 20
40.136019
 30
0.0
 10
32.854957
 20
40.411019
 30
0.0
 10
34.633527
 20
40.411019
 30
0.0
  0
SPLINE
  5
215
100
AcDbEntity
  8
Bottom_Plate
 62
7
100
AcDbSpline
 70
8
 71
3
 72
8
 73
4
 74
0
 40
0
 40
0
 40
0
 40
0
 40
1
 40
1
 40
1
 40
1
 10
26.912595
 20
33.111007
 30
0.0
 10
24.018105
 20
33.111007
 30
0.0
 10
23.829045
 20
33.121917
 30
0.0
 10
23.881095
 20
33.286007
 30
0.0
  0
SPLINE
  5
216
100
AcDbEntity
  8
Bottom_Plate
 62
7
100
AcDbSpline
 70
8
 71
3
 72
8
 73
4
 74
0
 40
0
 40
0
 40
0
 40
0
 40
1
 40
1
 40
1
 40
1
 10
23.881095
 20
33.286007
 30
0.0
 10
23.911615
 20
33.382257
 30
0.0
 10
24.698995
 20
36.678507
 30
0.0
 10
25.630825
 20
40.611008
 30
0.0
  0
SPLINE
  5
217
100
AcDbEntity
  8
Bottom_Plate
 62
7
100
AcDbSpline
 70
8
 71
3
 72
8
 73
4
 74
0
 40
0
 40
0
 40
0
 40
0
 40
1
 40
1
 40
1
 40
1
 10
25.630825
 20
40.611008
 30
0.0
 10
26.562655
 20
44.543508
 30
0.0
 10
28.655706
 20
53.278942
 30
0.0
 10
30.282056
 20
60.023082
 30
0.0
  0
SPLINE
  5
218
100
AcDbEntity
  8
Bottom_Plate
 62
7
100
AcDbSpline
 70
8
 71
3
 72
8
 73
4
 74
0
 40
0
 40
0
 40
0
 40
0
 40
1
 40
1
 40
1
 40
1
 10
30.282056
 20
60.023082
 30
0.0
 10
31.908416
 20
66.767222
 30
0.0
 10
33.239067
 20
72.313473
 30
0.0
 10
33.239067
 20
72.348084
 30
0.0
  0
SPLINE
  5
219
100
AcDbEntity
  8
Bottom_Plate
 62
7
100
AcDbSpline
 70
8
 71
3
 72
8
 73
4
 74
0
 40
0
 40
0
 40
0
 40
0
 40
1
 40
1
 40
1
 40
1
 10
33.239067
 20
72.348084
 30
0.0
 10
33.239067
 20
72.382694
 30
0.0
 10
34.825317
 20
72.410614
 30
0.0
 10
36.764067
 20
72.410134
 30
0.0
  0
LWPOLYLINE
  5
21a
100
AcDbEntity
  8
Bottom_Plate
 62
7
100
AcDbPolyline
 90
3
 70
0
 10
30.762286
 20
37.326185
 30
0.0
 10
29.999596
 20
33.111007
 30
0.0
 10
26.912595
 20
33.111007
 30
0.0
  0
SPLINE
  5
21b
100
AcDbEntity
  8
Bottom_Plate
 62
7
100
AcDbSpline
 70
8
 71
3
 72
8
 73
4
 74
0
 40
0
 40
0
 40
0
 40
0
 40
1
 40
1
 40
1
 40
1
 10
43.081629
 20
60.685111
 30
0.0
 10
44.617539
 20
54.236866
 30
0.0
 10
46.721109
 20
45.451010
 30
0.0
 10
47.756230
 20
41.161010
 30
0.0
  0
SPLINE
  5
21c
100
AcDbEntity
  8
Bottom_Plate
 62
7
100
AcDbSpline
 70
8
 71
3
 72
8
 73
4
 74
0
 40
0
 40
0
 40
0
 40
0
 40
1
 40
1
 40
1
 40
1
 10
47.756230
 20
41.161010
 30
0.0
 10
48.791350
 20
36.871009
 30
0.0
 10
49.638450
 20
33.304109
 30
0.0
 10
49.638670
 20
33.234564
 30
0.0
  0
SPLINE
  5
21d
100
AcDbEntity
  8
Bottom_Plate
 62
7
100
AcDbSpline
 70
8
 71
3
 72
8
 73
4
 74
0
 40
0
 40
0
 40
0
 40
0
 40
1
 40
1
 40
1
 40
1
 10
49.638670
 20
33.234564
 30
0.0
 10
49.638670
 20
33.134804
 30
0.0
 10
48.990610
 20
33.113699
 30
0.0
 10
46.565899
 20
33.134564
 30
0.0
  0
LWPOLYLINE
  5
21e
100
AcDbEntity
  8
Bottom_Plate
 62
7
100
AcDbPolyline
 90
3
 70
0
 10
36.764067
 20
72.410134
 30
0.0
 10
40.289068
 20
72.409234
 30
0.0
 10
43.081629
 20
60.685111
 30
0.0
  0
SPLINE
  5
21f
100
AcDbEntity
  8
Bottom_Plate
 62
7
100
AcDbSpline
 70
8
 71
3
 72
8
 73
4
 74
0
 40
0
 40
0
 40
0
 40
0
 40
1
 40
1
 40
1
 40
1
 10
42.363988
 20
39.337360
 30
0.0
 10
41.743188
 20
42.734351
 30
0.0
 10
41.143088
 20
45.760043
 30
0.0
 10
41.030438
 20
46.061123
 30
0.0
  0
SPLINE
  5
220
100
AcDbEntity
  8
Bottom_Plate
 62
7
100
AcDbSpline
 70
8
 71
3
 72
8
 73
4
 74
0
 40
0
 40
0
 40
0
 40
0
 40
1
 40
1
 40
1
 40
1
 10
41.030438
 20
46.061123
 30
0.0
 10
40.730598
 20
46.862519
 30
0.0
 10
40.254478
 20
47.517300
 30
0.0
 10
39.704158
 20
47.885084
 30
0.0
  0
SPLINE
  5
221
100
AcDbEntity
  8
Bottom_Plate
 62
7
100
AcDbSpline
 70
8
 71
3
 72
8
 73
4
 74
0
 40
0
 40
0
 40
0
 40
0
 40
1
 40
1
 40
1
 40
1
 10
39.704158
 20
47.885084
 30
0.0
 10
38.901028
 20
48.421828
 30
0.0
 10
38.395508
 20
48.526135
 30
0.0
 10
36.314067
 20
48.584588
 30
0.0
  0
SPLINE
  5
222
100
AcDbEntity
  8
Bottom_Plate
 62
7
100
AcDbSpline
 70
8
 71
3
 72
8
 73
4
 74
0
 40
0
 40
0
 40
0
 40
0
 40
1
 40
1
 40
1
 40
1
 10
36.314067
 20
48.584588
 30
0.0
 10
35.029557
 20
48.620658
 30
0.0
 10
34.438977
 20
48.672478
 30
0.0
 10
34.438797
 20
48.749129
 30
0.0
  0
SPLINE
  5
223
100
AcDbEntity
  8
Bottom_Plate
 62
7
100
AcDbSpline
 70
8
 71
3
 72
8
 73
4
 74
0
 40
0
 40
0
 40
0
 40
0
 40
1
 40
1
 40
1
 40
1
 10
34.438797
 20
48.749129
 30
0.0
 10
34.438797
 20
48.889343
 30
0.0
 10
36.744917
 20
61.250196
 30
0.0
 10
36.777497
 20
61.282777
 30
0.0
  0
SPLINE
  5
224
100
AcDbEntity
  8
Bottom_Plate
 62
7
100
AcDbSpline
 70
8
 71
3
 72
8
 73
4
 74
0
 40
0
 40
0
 40
0
 40
0
 40
1
 40
1
 40
1
 40
1
 10
36.777497
 20
61.282777
 30
0.0
 10
36.790607
 20
61.295897
 30
0.0
 10
37.154257
 20
59.338864
 30
0.0
 10
37.585588
 20
56.933821
 30
0.0
  0
SPLINE
  5
225
100
AcDbEntity
  8
Bottom_Plate
 62
7
100
AcDbSpline
 70
8
 71
3
 72
8
 73
4
 74
0
 40
0
 40
0
 40
0
 40
0
 40
1
 40
1
 40
1
 40
1
 10
37.585588
 20
56.933821
 30
0.0
 10
38.016928
 20
54.528778
 30
0.0
 10
38.427448
 20
52.416368
 30
0.0
 10
38.497868
 20
52.239575
 30
0.0
  0
SPLINE
  5
226
100
AcDbEntity
  8
Bottom_Plate
 62
7
100
AcDbSpline
 70
8
 71
3
 72
8
 73
4
 74
0
 40
0
 40
0
 40
0
 40
0
 40
1
 40
1
 40
1
 40
1
 10
38.497868
 20
52.239575
 30
0.0
 10
38.718598
 20
51.685374
 30
0.0
 10
39.520788
 20
51.674869
 30
0.0
 10
39.827978
 20
52.222155
 30
0.0
  0
SPLINE
  5
227
100
AcDbEntity
  8
Bottom_Plate
 62
7
100
AcDbSpline
 70
8
 71
3
 72
8
 73
4
 74
0
 40
0
 40
0
 40
0
 40
0
 40
1
 40
1
 40
1
 40
1
 10
39.827978
 20
52.222155
 30
0.0
 10
39.961178
 20
52.459468
 30
0.0
 10
39.871448
 20
53.028998
 30
0.0
 10
38.733228
 20
59.170835
 30
0.0
  0
SPLINE
  5
228
100
AcDbEntity
  8
Bottom_Plate
 62
7
100
AcDbSpline
 70
8
 71
3
 72
8
 73
4
 74
0
 40
0
 40
0
 40
0
 40
0
 40
1
 40
1
 40
1
 40
1
 10
38.733228
 20
59.170835
 30
0.0
 10
37.652218
 20
65.003976
 30
0.0
 10
37.464867
 20
65.889837
 30
0.0
 10
37.270777
 20
66.086014
 30
0.0
  0
SPLINE
  5
229
100
AcDbEntity
  8
Bottom_Plate
 62
7
100
AcDbSpline
 70
8
 71
3
 72
8
 73
4
 74
0
 40
0
 40
0
 40
0
 40
0
 40
1
 40
1
 40
1
 40
1
 10
37.270777
 20
66.086014
 30
0.0
 10
36.987067
 20
66.372762
 30
0.0
 10
36.618827
 20
66.372762
 30
0.0
 10
36.300207
 20
66.086014
 30
0.0
  0
SPLINE
  5
22a
100
AcDbEntity
  8
Bottom_Plate
 62
7
100
AcDbSpline
 70
8
 71
3
 72
8
 73
4
 74
0
 40
0
 40
0
 40
0
 40
0
 40
1
 40
1
 40
1
 40
1
 10
36.300207
 20
66.086014
 30
0.0
 10
36.065677
 20
65.874944
 30
0.0
 10
35.947677
 20
65.303808
 30
0.0
 10
34.394207
 20
56.861013
 30
0.0
  0
SPLINE
  5
22b
100
AcDbEntity
  8
Bottom_Plate
 62
7
100
AcDbSpline
 70
8
 71
3
 72
8
 73
4
 74
0
 40
0
 40
0
 40
0
 40
0
 40
1
 40
1
 40
1
 40
1
 10
34.394207
 20
56.861013
 30
0.0
 10
33.483407
 20
51.911013
 30
0.0
 10
32.738407
 20
47.782263
 30
0.0
 10
32.738637
 20
47.686013
 30
0.0
  0
SPLINE
  5
22c
100
AcDbEntity
  8
Bottom_Plate
 62
7
100
AcDbSpline
 70
8
 71
3
 72
8
 73
4
 74
0
 40
0
 40
0
 40
0
 40
0
 40
1
 40
1
 40
1
 40
1
 10
32.738637
 20
47.686013
 30
0.0
 10
32.738637
 20
47.589763
 30
0.0
 10
32.829067
 20
47.421012
 30
0.0
 10
32.939067
 20
47.311012
 30
0.0
  0
SPLINE
  5
22d
100
AcDbEntity
  8
Bottom_Plate
 62
7
100
AcDbSpline
 70
8
 71
3
 72
8
 73
4
 74
0
 40
0
 40
0
 40
0
 40
0
 40
1
 40
1
 40
1
 40
1
 10
32.939067
 20
47.311012
 30
0.0
 10
33.125847
 20
47.124235
 30
0.0
 10
33.272957
 20
47.110962
 30
0.0
 10
35.164067
 20
47.110257
 30
0.0
  0
SPLINE
  5
22e
100
AcDbEntity
  8
Bottom_Plate
 62
7
100
AcDbSpline
 70
8
 71
3
 72
8
 73
4
 74
0
 40
0
 40
0
 40
0
 40
0
 40
1
 40
1
 40
1
 40
1
 10
35.164067
 20
47.110257
 30
0.0
 10
37.256867
 20
47.109457
 30
0.0
 10
38.257328
 20
47.010130
 30
0.0
 10
38.752838
 20
46.753891
 30
0.0
  0
SPLINE
  5
22f
100
AcDbEntity
  8
Bottom_Plate
 62
7
100
AcDbSpline
 70
8
 71
3
 72
8
 73
4
 74
0
 40
0
 40
0
 40
0
 40
0
 40
1
 40
1
 40
1
 40
1
 10
38.752838
 20
46.753891
 30
0.0
 10
39.107418
 20
46.570531
 30
0.0
 10
39.507728
 20
45.980171
 30
0.0
 10
39.691468
 20
45.369649
 30
0.0
  0
SPLINE
  5
230
100
AcDbEntity
  8
Bottom_Plate
 62
7
100
AcDbSpline
 70
8
 71
3
 72
8
 73
4
 74
0
 40
0
 40
0
 40
0
 40
0
 40
1
 40
1
 40
1
 40
1
 10
39.691468
 20
45.369649
 30
0.0
 10
39.767738
 20
45.116223
 30
0.0
 10
40.354798
 20
42.018106
 30
0.0
 10
40.996028
 20
38.484943
 30
0.0
  0
SPLINE
  5
231
100
AcDbEntity
  8
Bottom_Plate
 62
7
100
AcDbSpline
 70
8
 71
3
 72
8
 73
4
 74
0
 40
0
 40
0
 40
0
 40
0
 40
1
 40
1
 40
1
 40
1
 10
40.996028
 20
38.484943
 30
0.0
 10
41.767188
 20
34.235928
 30
0.0
 10
42.214088
 20
32.001762
 30
0.0
 10
42.315988
 20
31.886011
 30
0.0
  0
SPLINE
  5
232
100
AcDbEntity
  8
Bottom_Plate
 62
7
100
AcDbSpline
 70
8
 71
3
 72
8
 73
4
 74
0
 40
0
 40
0
 40
0
 40
0
 40
1
 40
1
 40
1
 40
1
 10
42.315988
 20
31.886011
 30
0.0
 10
42.458208
 20
31.724483
 30
0.0
 10
42.798709
 20
31.711011
 30
0.0
 10
46.739069
 20
31.711011
 30
0.0
  0
SPLINE
  5
233
100
AcDbEntity
  8
Bottom_Plate
 62
7
100
AcDbSpline
 70
8
 71
3
 72
8
 73
4
 74
0
 40
0
 40
0
 40
0
 40
0
 40
1
 40
1
 40
1
 40
1
 10
46.739069
 20
31.711011
 30
0.0
 10
50.890200
 20
31.711011
 30
0.0
 10
51.013100
 20
31.716611
 30
0.0
 10
51.190240
 20
31.912302
 30
0.0
  0
LWPOLYLINE
  5
234
100
AcDbEntity
  8
Bottom_Plate
 62
7
100
AcDbPolyline
 90
3
 70
0
 10
46.565899
 20
33.134564
 30
0.0
 10
43.492729
 20
33.161014
 30
0.0
 10
42.363988
 20
39.337360
 30
0.0
  0
LWPOLYLINE
  5
235
100
AcDbEntity
  8
Bottom_Plate
 62
7
100
AcDbPolyline
 90
1
 70
1
 10
51.190240
 20
31.912302
 30
0.0
  0
ENDSEC
  0
SECTION
  2
OBJECTS
  0
DICTIONARY
  5
C
330
0
100
AcDbDictionary
  3
ACAD_GROUP
350
D
  3
ACAD_MLINESTYLE
350
17
  0
DICTIONARY
  5
D
330
C
100
AcDbDictionary
  0
DICTIONARY
  5
1A
330
C
100
AcDbDictionary
  0
DICTIONARY
  5
17
330
C
100
AcDbDictionary
  3
STANDARD
350
18
  0
DICTIONARY
  5
19
330
C
100
AcDbDictionary
  0
ENDSEC
  0
EOF
