  0
SECTION
  2
HEADER
  9
$ACADVER
  1
AC1014
  9
$HANDSEED
  5
FFFF
  9
$MEASUREMENT
 70
     1
  0
ENDSEC
  0
SECTION
  2
TABLES
  0
TABLE
  2
VPORT
  5
8
330
0
100
AcDbSymbolTable
 70
     4
  0
VPORT
  5
2E
330
8
100
AcDbSymbolTableRecord
100
AcDbViewportTableRecord
  2
*ACTIVE
 70
     0
 10
0.0
 20
0.0
 11
1.0
 21
1.0
 12
210.0
 22
148.5
 13
0.0
 23
0.0
 14
10.0
 24
10.0
 15
10.0
 25
10.0
 16
0.0
 26
0.0
 36
1.0
 17
0.0
 27
0.0
 37
0.0
 40
341.0
 41
1.24
 42
50.0
 43
0.0
 44
0.0
 50
0.0
 51
0.0
 71
     0
 72
   100
 73
     1
 74
     3
 75
     0
 76
     0
 77
     0
 78
     0
  0
ENDTAB
  0
TABLE
  2
LTYPE
  5
5
330
0
100
AcDbSymbolTable
 70
     1
  0
LTYPE
  5
14
330
5
100
AcDbSymbolTableRecord
100
AcDbLinetypeTableRecord
  2
BYBLOCK
 70
     0
  3

 72
    65
 73
     0
 40
0.0
  0
LTYPE
  5
15
330
5
100
AcDbSymbolTableRecord
100
AcDbLinetypeTableRecord
  2
BYLAYER
 70
     0
  3

 72
    65
 73
     0
 40
0.0
  0
LTYPE
  5
16
330
5
100
AcDbSymbolTableRecord
100
AcDbLinetypeTableRecord
  2
CONTINUOUS
 70
     0
  3
Solid line
 72
    65
 73
     0
 40
0.0
  0
ENDTAB
  0
TABLE
  2
LAYER
  5
2
100
AcDbSymbolTable
 70
2
  0
LAYER
  5
50
100
AcDbSymbolTableRecord
100
AcDbLayerTableRecord
  2
0
 70
0
  6
CONTINUOUS
  0
LAYER
  5
51
100
AcDbSymbolTableRecord
100
AcDbLayerTableRecord
  2
Plate_Outlines_alt_left
 70
0
  6
CONTINUOUS
  0
ENDTAB
  0
TABLE
  2
STYLE
  5
3
330
0
100
AcDbSymbolTable
 70
     1
  0
STYLE
  5
11
330
3
100
AcDbSymbolTableRecord
100
AcDbTextStyleTableRecord
  2
STANDARD
 70
     0
 40
0.0
 41
1.0
 50
0.0
 71
     0
 42
2.5
  3
txt
  4

  0
ENDTAB
  0
TABLE
  2
VIEW
  5
6
330
0
100
AcDbSymbolTable
 70
     0
  0
ENDTAB
  0
TABLE
  2
UCS
  5
7
330
0
100
AcDbSymbolTable
 70
     0
  0
ENDTAB
  0
TABLE
  2
APPID
  5
9
330
0
100
AcDbSymbolTable
 70
     2
  0
APPID
  5
12
330
9
100
AcDbSymbolTableRecord
100
AcDbRegAppTableRecord
  2
ACAD
 70
     0
  0
ENDTAB
  0
TABLE
  2
DIMSTYLE
  5
A
330
0
100
AcDbSymbolTable
 70
     1
  0
DIMSTYLE
105
27
330
A
100
AcDbSymbolTableRecord
100
AcDbDimStyleTableRecord
  2
ISO-25
 70
     0
  3

  4

  5

  6

  7

 40
1.0
 41
2.5
 42
0.625
 43
3.75
 44
1.25
 45
0.0
 46
0.0
 47
0.0
 48
0.0
140
2.5
141
2.5
142
0.0
143
0.03937007874016
144
1.0
145
0.0
146
1.0
147
0.625
 71
     0
 72
     0
 73
     0
 74
     0
 75
     0
 76
     0
 77
     1
 78
     8
170
     0
171
     3
172
     1
173
     0
174
     0
175
     0
176
     0
177
     0
178
     0
270
     2
271
     2
272
     2
273
     2
274
     3
340
11
275
     0
280
     0
281
     0
282
     0
283
     0
284
     8
285
     0
286
     0
287
     3
288
     0
  0
ENDTAB
  0
TABLE
  2
BLOCK_RECORD
  5
1
330
0
100
AcDbSymbolTable
 70
     1
  0
BLOCK_RECORD
  5
1F
330
1
100
AcDbSymbolTableRecord
100
AcDbBlockTableRecord
  2
*MODEL_SPACE
  0
BLOCK_RECORD
  5
1B
330
1
100
AcDbSymbolTableRecord
100
AcDbBlockTableRecord
  2
*PAPER_SPACE
  0
ENDTAB
  0
ENDSEC
  0
SECTION
  2
BLOCKS
  0
BLOCK
  5
20
330
1F
100
AcDbEntity
  8
0
100
AcDbBlockBegin
  2
*MODEL_SPACE
 70
     0
 10
0.0
 20
0.0
 30
0.0
  3
*MODEL_SPACE
  1

  0
ENDBLK
  5
21
330
1F
100
AcDbEntity
  8
0
100
AcDbBlockEnd
  0
BLOCK
  5
1C
330
1B
100
AcDbEntity
 67
     1
  8
0
100
AcDbBlockBegin
  2
*PAPER_SPACE
  1

  0
ENDBLK
  5
1D
330
1B
100
AcDbEntity
 67
     1
  8
0
100
AcDbBlockEnd
  0
ENDSEC
  0
SECTION
  2
ENTITIES
  0
LWPOLYLINE
  5
100
100
AcDbEntity
  8
Plate_Outlines_alt_left
 62
4
100
AcDbPolyline
 90
33
 70
0
 10
60.727987
 20
2.245611
 30
0.0
 10
58.365787
 20
2.507231
 30
0.0
 10
56.194087
 20
2.748531
 30
0.0
 10
54.205267
 20
2.966971
 30
0.0
 10
52.389166
 20
3.167631
 30
0.0
 10
50.738166
 20
3.350511
 30
0.0
 10
49.242106
 20
3.515611
 30
0.0
 10
47.893366
 20
3.665471
 30
0.0
 10
46.679246
 20
3.805171
 30
0.0
 10
45.594666
 20
3.932171
 30
0.0
 10
44.629466
 20
4.049011
 30
0.0
 10
43.773486
 20
4.158231
 30
0.0
 10
43.016566
 20
4.259831
 30
0.0
 10
42.353626
 20
4.356351
 30
0.0
 10
41.769426
 20
4.450331
 30
0.0
 10
41.261426
 20
4.541771
 30
0.0
 10
40.814386
 20
4.633211
 30
0.0
 10
40.425766
 20
4.727191
 30
0.0
 10
40.080326
 20
4.823711
 30
0.0
 10
39.770446
 20
4.925311
 30
0.0
 10
39.488506
 20
5.031991
 30
0.0
 10
39.224346
 20
5.146291
 30
0.0
 10
38.970346
 20
5.270751
 30
0.0
 10
38.713806
 20
5.405371
 30
0.0
 10
38.449646
 20
5.555231
 30
0.0
 10
38.167706
 20
5.715251
 30
0.0
 10
37.857826
 20
5.895591
 30
0.0
 10
37.509846
 20
6.088631
 30
0.0
 10
37.116146
 20
6.304531
 30
0.0
 10
36.666566
 20
6.540751
 30
0.0
 10
36.156026
 20
6.797291
 30
0.0
 10
35.569286
 20
7.079231
 30
0.0
 10
34.901266
 20
7.386571
 30
0.0
  0
LWPOLYLINE
  5
101
100
AcDbEntity
  8
Plate_Outlines_alt_left
 62
4
100
AcDbPolyline
 90
4
 70
0
 10
94.601427
 20
0.132211
 30
0.0
 10
92.348447
 20
0.210951
 30
0.0
 10
89.887187
 20
0.294771
 30
0.0
 10
87.202407
 20
0.386211
 30
0.0
  0
LWPOLYLINE
  5
102
100
AcDbEntity
  8
Plate_Outlines_alt_left
 62
4
100
AcDbPolyline
 90
27
 70
0
 10
7.982345
 20
87.635212
 30
0.0
 10
8.129665
 20
87.800312
 30
0.0
 10
8.350645
 20
87.965412
 30
0.0
 10
8.543685
 20
88.021292
 30
0.0
 10
8.815465
 20
88.039072
 30
0.0
 10
9.196466
 20
88.021292
 30
0.0
 10
9.440306
 20
87.998432
 30
0.0
 10
9.724786
 20
87.967952
 30
0.0
 10
10.052446
 20
87.929852
 30
0.0
 10
10.428366
 20
87.884132
 30
0.0
 10
10.860166
 20
87.830792
 30
0.0
 10
11.345306
 20
87.769832
 30
0.0
 10
11.893946
 20
87.701252
 30
0.0
 10
12.508626
 20
87.627592
 30
0.0
 10
13.194426
 20
87.546312
 30
0.0
 10
13.951346
 20
87.459952
 30
0.0
 10
14.789546
 20
87.365972
 30
0.0
 10
15.709026
 20
87.269452
 30
0.0
 10
16.714866
 20
87.165312
 30
0.0
 10
17.809606
 20
87.056092
 30
0.0
 10
19.003406
 20
86.944332
 30
0.0
 10
20.293726
 20
86.827492
 30
0.0
 10
21.688186
 20
86.705572
 30
0.0
 10
23.191866
 20
86.581112
 30
0.0
 10
24.807306
 20
86.451572
 30
0.0
 10
26.537046
 20
86.319492
 30
0.0
 10
28.391246
 20
86.184872
 30
0.0
  0
LWPOLYLINE
  5
103
100
AcDbEntity
  8
Plate_Outlines_alt_left
 62
4
100
AcDbPolyline
 90
2
 70
0
 10
0.131205
 20
26.746331
 30
0.0
 10
7.982345
 20
87.635212
 30
0.0
  0
LWPOLYLINE
  5
104
100
AcDbEntity
  8
Plate_Outlines_alt_left
 62
4
100
AcDbPolyline
 90
33
 70
0
 10
87.202407
 20
0.386212
 30
0.0
 10
86.427707
 20
0.411612
 30
0.0
 10
85.746987
 20
0.434472
 30
0.0
 10
85.150087
 20
0.454792
 30
0.0
 10
84.626847
 20
0.472572
 30
0.0
 10
84.167107
 20
0.490352
 30
0.0
 10
83.763247
 20
0.505592
 30
0.0
 10
83.402567
 20
0.520832
 30
0.0
 10
83.079987
 20
0.536072
 30
0.0
 10
82.780267
 20
0.553852
 30
0.0
 10
82.498327
 20
0.571632
 30
0.0
 10
82.221467
 20
0.589412
 30
0.0
 10
81.942067
 20
0.612272
 30
0.0
 10
81.649967
 20
0.635132
 30
0.0
 10
81.335007
 20
0.663072
 30
0.0
 10
80.987027
 20
0.693552
 30
0.0
 10
80.595867
 20
0.726572
 30
0.0
 10
80.153907
 20
0.767212
 30
0.0
 10
79.650987
 20
0.810392
 30
0.0
 10
79.076947
 20
0.861192
 30
0.0
 10
78.421627
 20
0.917072
 30
0.0
 10
77.674867
 20
0.978032
 30
0.0
 10
76.829047
 20
1.049152
 30
0.0
 10
75.871467
 20
1.125352
 30
0.0
 10
74.797047
 20
1.211712
 30
0.0
 10
73.593087
 20
1.305692
 30
0.0
 10
72.249427
 20
1.407292
 30
0.0
 10
70.755907
 20
1.521592
 30
0.0
 10
69.107447
 20
1.643512
 30
0.0
 10
67.288807
 20
1.775592
 30
0.0
 10
65.292367
 20
1.920372
 30
0.0
 10
63.107967
 20
2.077852
 30
0.0
 10
60.727987
 20
2.245492
 30
0.0
  0
LWPOLYLINE
  5
105
100
AcDbEntity
  8
Plate_Outlines_alt_left
 62
4
100
AcDbPolyline
 90
33
 70
0
 10
34.901266
 20
7.386451
 30
0.0
 10
31.853266
 20
9.141591
 30
0.0
 10
28.995766
 20
10.764651
 30
0.0
 10
26.323686
 20
12.260711
 30
0.0
 10
23.829406
 20
13.634851
 30
0.0
 10
21.507846
 20
14.892151
 30
0.0
 10
19.348846
 20
16.042771
 30
0.0
 10
17.349866
 20
17.089251
 30
0.0
 10
15.500746
 20
18.036671
 30
0.0
 10
13.798946
 20
18.892651
 30
0.0
 10
12.236846
 20
19.662271
 30
0.0
 10
10.806826
 20
20.353151
 30
0.0
 10
9.503806
 20
20.967831
 30
0.0
 10
8.320165
 20
21.513931
 30
0.0
 10
7.250825
 20
21.999071
 30
0.0
 10
6.288165
 20
22.428331
 30
0.0
 10
5.427105
 20
22.804251
 30
0.0
 10
4.660025
 20
23.136991
 30
0.0
 10
3.981845
 20
23.431631
 30
0.0
 10
3.382405
 20
23.690711
 30
0.0
 10
2.861705
 20
23.924391
 30
0.0
 10
2.407045
 20
24.135211
 30
0.0
 10
2.015885
 20
24.333331
 30
0.0
 10
1.680605
 20
24.521291
 30
0.0
 10
1.396125
 20
24.704171
 30
0.0
 10
1.154825
 20
24.889591
 30
0.0
 10
0.949085
 20
25.082631
 30
0.0
 10
0.773825
 20
25.290911
 30
0.0
 10
0.621425
 20
25.516971
 30
0.0
 10
0.489345
 20
25.770971
 30
0.0
 10
0.367425
 20
26.055451
 30
0.0
 10
0.248045
 20
26.378031
 30
0.0
 10
0.131205
 20
26.746331
 30
0.0
  0
LWPOLYLINE
  5
106
100
AcDbEntity
  8
Plate_Outlines_alt_left
 62
4
100
AcDbPolyline
 90
58
 70
0
 10
28.391246
 20
86.184872
 30
0.0
 10
28.944966
 20
86.156932
 30
0.0
 10
29.498686
 20
86.144232
 30
0.0
 10
30.052406
 20
86.146772
 30
0.0
 10
30.606126
 20
86.167092
 30
0.0
 10
31.157306
 20
86.200112
 30
0.0
 10
31.708486
 20
86.248372
 30
0.0
 10
32.259666
 20
86.309332
 30
0.0
 10
32.808306
 20
86.380452
 30
0.0
 10
33.359486
 20
86.461732
 30
0.0
 10
33.908126
 20
86.555712
 30
0.0
 10
34.456766
 20
86.654772
 30
0.0
 10
35.005406
 20
86.761452
 30
0.0
 10
35.554046
 20
86.875752
 30
0.0
 10
36.102686
 20
86.995132
 30
0.0
 10
36.651326
 20
87.119592
 30
0.0
 10
37.197426
 20
87.246592
 30
0.0
 10
37.746066
 20
87.373592
 30
0.0
 10
38.294706
 20
87.505672
 30
0.0
 10
38.843346
 20
87.635212
 30
0.0
 10
39.391986
 20
87.764752
 30
0.0
 10
39.940626
 20
87.894292
 30
0.0
 10
40.489266
 20
88.018752
 30
0.0
 10
41.037906
 20
88.140672
 30
0.0
 10
41.589086
 20
88.254972
 30
0.0
 10
42.137726
 20
88.366732
 30
0.0
 10
42.688906
 20
88.470872
 30
0.0
 10
43.240086
 20
88.564852
 30
0.0
 10
43.793806
 20
88.651212
 30
0.0
 10
44.344986
 20
88.727412
 30
0.0
 10
44.898706
 20
88.793452
 30
0.0
 10
45.454966
 20
88.846792
 30
0.0
 10
46.011226
 20
88.884892
 30
0.0
 10
47.949246
 20
88.989032
 30
0.0
 10
49.889806
 20
89.070312
 30
0.0
 10
51.830366
 20
89.128732
 30
0.0
 10
53.768387
 20
89.166832
 30
0.0
 10
55.708947
 20
89.184612
 30
0.0
 10
57.649507
 20
89.184612
 30
0.0
 10
59.590067
 20
89.166832
 30
0.0
 10
61.533167
 20
89.133812
 30
0.0
 10
63.473727
 20
89.085552
 30
0.0
 10
65.414287
 20
89.024592
 30
0.0
 10
67.354847
 20
88.953472
 30
0.0
 10
69.297947
 20
88.869652
 30
0.0
 10
71.238507
 20
88.775672
 30
0.0
 10
73.181607
 20
88.674072
 30
0.0
 10
75.122167
 20
88.564852
 30
0.0
 10
77.065267
 20
88.450552
 30
0.0
 10
79.008367
 20
88.331172
 30
0.0
 10
80.948927
 20
88.209252
 30
0.0
 10
82.892027
 20
88.084792
 30
0.0
 10
84.835127
 20
87.957792
 30
0.0
 10
86.778227
 20
87.833332
 30
0.0
 10
88.718787
 20
87.708872
 30
0.0
 10
90.661887
 20
87.589492
 30
0.0
 10
92.604987
 20
87.472652
 30
0.0
 10
103.433998
 20
73.809903
 30
0.0
  0
LWPOLYLINE
  5
107
100
AcDbEntity
  8
Plate_Outlines_alt_left
 62
4
100
AcDbPolyline
 90
4
 70
1
 10
10.377566
 20
80.548613
 30
0.0
 10
24.273906
 20
78.841733
 30
0.0
 10
22.567026
 20
64.945393
 30
0.0
 10
8.670685
 20
66.652273
 30
0.0
  0
LWPOLYLINE
  5
108
100
AcDbEntity
  8
Plate_Outlines_alt_left
 62
4
100
AcDbPolyline
 90
4
 70
1
 10
29.864446
 20
82.953993
 30
0.0
 10
43.760786
 20
81.247113
 30
0.0
 10
42.053906
 20
67.350773
 30
0.0
 10
28.157566
 20
69.057653
 30
0.0
  0
LWPOLYLINE
  5
109
100
AcDbEntity
  8
Plate_Outlines_alt_left
 62
4
100
AcDbPolyline
 90
4
 70
1
 10
49.356406
 20
85.359374
 30
0.0
 10
63.252747
 20
83.652494
 30
0.0
 10
61.545867
 20
69.756153
 30
0.0
 10
47.649526
 20
71.463033
 30
0.0
  0
LWPOLYLINE
  5
10a
100
AcDbEntity
  8
Plate_Outlines_alt_left
 62
4
100
AcDbPolyline
 90
4
 70
1
 10
67.682507
 20
78.310873
 30
0.0
 10
81.578847
 20
76.603993
 30
0.0
 10
79.871967
 20
62.707653
 30
0.0
 10
65.975627
 20
64.414533
 30
0.0
  0
LWPOLYLINE
  5
10b
100
AcDbEntity
  8
Plate_Outlines_alt_left
 62
4
100
AcDbPolyline
 90
4
 70
1
 10
86.590267
 20
75.989313
 30
0.0
 10
100.486608
 20
74.282433
 30
0.0
 10
98.779728
 20
60.386093
 30
0.0
 10
84.883387
 20
62.092973
 30
0.0
  0
LWPOLYLINE
  5
10c
100
AcDbEntity
  8
Plate_Outlines_alt_left
 62
4
100
AcDbPolyline
 90
4
 70
1
 10
84.268707
 20
57.081553
 30
0.0
 10
98.165047
 20
55.374673
 30
0.0
 10
96.458167
 20
41.478332
 30
0.0
 10
82.561827
 20
43.185212
 30
0.0
  0
LWPOLYLINE
  5
10d
100
AcDbEntity
  8
Plate_Outlines_alt_left
 62
4
100
AcDbPolyline
 90
4
 70
1
 10
65.360947
 20
59.403113
 30
0.0
 10
79.257287
 20
57.696233
 30
0.0
 10
77.550407
 20
43.799892
 30
0.0
 10
63.654067
 20
45.506773
 30
0.0
  0
LWPOLYLINE
  5
10e
100
AcDbEntity
  8
Plate_Outlines_alt_left
 62
4
100
AcDbPolyline
 90
4
 70
1
 10
47.032306
 20
66.451613
 30
0.0
 10
60.928647
 20
64.744733
 30
0.0
 10
59.221767
 20
50.848393
 30
0.0
 10
45.325426
 20
52.555273
 30
0.0
  0
LWPOLYLINE
  5
10f
100
AcDbEntity
  8
Plate_Outlines_alt_left
 62
4
100
AcDbPolyline
 90
4
 70
1
 10
27.545426
 20
64.046233
 30
0.0
 10
41.441766
 20
62.339353
 30
0.0
 10
39.734886
 20
48.443013
 30
0.0
 10
25.838546
 20
50.149893
 30
0.0
  0
LWPOLYLINE
  5
110
100
AcDbEntity
  8
Plate_Outlines_alt_left
 62
4
100
AcDbPolyline
 90
4
 70
1
 10
8.056005
 20
61.640853
 30
0.0
 10
21.952346
 20
59.933973
 30
0.0
 10
20.245466
 20
46.037633
 30
0.0
 10
6.349125
 20
47.744513
 30
0.0
  0
LWPOLYLINE
  5
111
100
AcDbEntity
  8
Plate_Outlines_alt_left
 62
4
100
AcDbPolyline
 90
4
 70
1
 10
5.734445
 20
42.733092
 30
0.0
 10
19.630786
 20
41.026212
 30
0.0
 10
17.923906
 20
27.129872
 30
0.0
 10
4.027565
 20
28.836752
 30
0.0
  0
LWPOLYLINE
  5
112
100
AcDbEntity
  8
Plate_Outlines_alt_left
 62
4
100
AcDbPolyline
 90
4
 70
1
 10
25.221326
 20
45.138473
 30
0.0
 10
39.117666
 20
43.431592
 30
0.0
 10
37.410786
 20
29.535252
 30
0.0
 10
23.514446
 20
31.242132
 30
0.0
  0
LWPOLYLINE
  5
113
100
AcDbEntity
  8
Plate_Outlines_alt_left
 62
4
100
AcDbPolyline
 90
4
 70
1
 10
44.713286
 20
47.543853
 30
0.0
 10
58.609627
 20
45.836973
 30
0.0
 10
56.902747
 20
31.940632
 30
0.0
 10
43.006406
 20
33.647512
 30
0.0
  0
LWPOLYLINE
  5
114
100
AcDbEntity
  8
Plate_Outlines_alt_left
 62
4
100
AcDbPolyline
 90
4
 70
1
 10
39.445326
 20
24.198712
 30
0.0
 10
53.341666
 20
22.491832
 30
0.0
 10
51.634786
 20
8.595492
 30
0.0
 10
37.738446
 20
10.302372
 30
0.0
  0
LWPOLYLINE
  5
115
100
AcDbEntity
  8
Plate_Outlines_alt_left
 62
4
100
AcDbPolyline
 90
4
 70
1
 10
63.039387
 20
40.495352
 30
0.0
 10
76.935727
 20
38.788472
 30
0.0
 10
75.228847
 20
24.892132
 30
0.0
 10
61.332507
 20
26.599012
 30
0.0
  0
LWPOLYLINE
  5
116
100
AcDbEntity
  8
Plate_Outlines_alt_left
 62
4
100
AcDbPolyline
 90
4
 70
1
 10
81.947147
 20
38.173792
 30
0.0
 10
95.843487
 20
36.466912
 30
0.0
 10
94.136607
 20
22.570572
 30
0.0
 10
80.240267
 20
24.277452
 30
0.0
  0
LWPOLYLINE
  5
117
100
AcDbEntity
  8
Plate_Outlines_alt_left
 62
4
100
AcDbPolyline
 90
4
 70
1
 10
70.171707
 20
20.426812
 30
0.0
 10
84.068047
 20
18.719932
 30
0.0
 10
82.361167
 20
4.823592
 30
0.0
 10
68.464827
 20
6.530472
 30
0.0
  0
LWPOLYLINE
  5
118
100
AcDbEntity
  8
Plate_Outlines_alt_left
 62
4
100
AcDbPolyline
 90
2
 70
0
 10
103.433998
 20
73.809903
 30
0.0
 10
94.601425
 20
0.132211
 30
0.0
  0
ENDSEC
  0
SECTION
  2
OBJECTS
  0
DICTIONARY
  5
C
330
0
100
AcDbDictionary
  3
ACAD_GROUP
350
D
  3
ACAD_MLINESTYLE
350
17
  0
DICTIONARY
  5
D
330
C
100
AcDbDictionary
  0
DICTIONARY
  5
1A
330
C
100
AcDbDictionary
  0
DICTIONARY
  5
17
330
C
100
AcDbDictionary
  3
STANDARD
350
18
  0
DICTIONARY
  5
19
330
C
100
AcDbDictionary
  0
ENDSEC
  0
EOF
