  0
SECTION
  2
HEADER
  9
$ACADVER
  1
AC1014
  9
$HANDSEED
  5
FFFF
  9
$MEASUREMENT
 70
     1
  0
ENDSEC
  0
SECTION
  2
TABLES
  0
TABLE
  2
VPORT
  5
8
330
0
100
AcDbSymbolTable
 70
     4
  0
VPORT
  5
2E
330
8
100
AcDbSymbolTableRecord
100
AcDbViewportTableRecord
  2
*ACTIVE
 70
     0
 10
0.0
 20
0.0
 11
1.0
 21
1.0
 12
210.0
 22
148.5
 13
0.0
 23
0.0
 14
10.0
 24
10.0
 15
10.0
 25
10.0
 16
0.0
 26
0.0
 36
1.0
 17
0.0
 27
0.0
 37
0.0
 40
341.0
 41
1.24
 42
50.0
 43
0.0
 44
0.0
 50
0.0
 51
0.0
 71
     0
 72
   100
 73
     1
 74
     3
 75
     0
 76
     0
 77
     0
 78
     0
  0
ENDTAB
  0
TABLE
  2
LTYPE
  5
5
330
0
100
AcDbSymbolTable
 70
     1
  0
LTYPE
  5
14
330
5
100
AcDbSymbolTableRecord
100
AcDbLinetypeTableRecord
  2
BYBLOCK
 70
     0
  3

 72
    65
 73
     0
 40
0.0
  0
LTYPE
  5
15
330
5
100
AcDbSymbolTableRecord
100
AcDbLinetypeTableRecord
  2
BYLAYER
 70
     0
  3

 72
    65
 73
     0
 40
0.0
  0
LTYPE
  5
16
330
5
100
AcDbSymbolTableRecord
100
AcDbLinetypeTableRecord
  2
CONTINUOUS
 70
     0
  3
Solid line
 72
    65
 73
     0
 40
0.0
  0
ENDTAB
  0
TABLE
  2
LAYER
  5
2
100
AcDbSymbolTable
 70
2
  0
LAYER
  5
50
100
AcDbSymbolTableRecord
100
AcDbLayerTableRecord
  2
0
 70
0
  6
CONTINUOUS
  0
LAYER
  5
51
100
AcDbSymbolTableRecord
100
AcDbLayerTableRecord
  2
Plate_Outlines
 70
0
  6
CONTINUOUS
  0
ENDTAB
  0
TABLE
  2
STYLE
  5
3
330
0
100
AcDbSymbolTable
 70
     1
  0
STYLE
  5
11
330
3
100
AcDbSymbolTableRecord
100
AcDbTextStyleTableRecord
  2
STANDARD
 70
     0
 40
0.0
 41
1.0
 50
0.0
 71
     0
 42
2.5
  3
txt
  4

  0
ENDTAB
  0
TABLE
  2
VIEW
  5
6
330
0
100
AcDbSymbolTable
 70
     0
  0
ENDTAB
  0
TABLE
  2
UCS
  5
7
330
0
100
AcDbSymbolTable
 70
     0
  0
ENDTAB
  0
TABLE
  2
APPID
  5
9
330
0
100
AcDbSymbolTable
 70
     2
  0
APPID
  5
12
330
9
100
AcDbSymbolTableRecord
100
AcDbRegAppTableRecord
  2
ACAD
 70
     0
  0
ENDTAB
  0
TABLE
  2
DIMSTYLE
  5
A
330
0
100
AcDbSymbolTable
 70
     1
  0
DIMSTYLE
105
27
330
A
100
AcDbSymbolTableRecord
100
AcDbDimStyleTableRecord
  2
ISO-25
 70
     0
  3

  4

  5

  6

  7

 40
1.0
 41
2.5
 42
0.625
 43
3.75
 44
1.25
 45
0.0
 46
0.0
 47
0.0
 48
0.0
140
2.5
141
2.5
142
0.0
143
0.03937007874016
144
1.0
145
0.0
146
1.0
147
0.625
 71
     0
 72
     0
 73
     0
 74
     0
 75
     0
 76
     0
 77
     1
 78
     8
170
     0
171
     3
172
     1
173
     0
174
     0
175
     0
176
     0
177
     0
178
     0
270
     2
271
     2
272
     2
273
     2
274
     3
340
11
275
     0
280
     0
281
     0
282
     0
283
     0
284
     8
285
     0
286
     0
287
     3
288
     0
  0
ENDTAB
  0
TABLE
  2
BLOCK_RECORD
  5
1
330
0
100
AcDbSymbolTable
 70
     1
  0
BLOCK_RECORD
  5
1F
330
1
100
AcDbSymbolTableRecord
100
AcDbBlockTableRecord
  2
*MODEL_SPACE
  0
BLOCK_RECORD
  5
1B
330
1
100
AcDbSymbolTableRecord
100
AcDbBlockTableRecord
  2
*PAPER_SPACE
  0
ENDTAB
  0
ENDSEC
  0
SECTION
  2
BLOCKS
  0
BLOCK
  5
20
330
1F
100
AcDbEntity
  8
0
100
AcDbBlockBegin
  2
*MODEL_SPACE
 70
     0
 10
0.0
 20
0.0
 30
0.0
  3
*MODEL_SPACE
  1

  0
ENDBLK
  5
21
330
1F
100
AcDbEntity
  8
0
100
AcDbBlockEnd
  0
BLOCK
  5
1C
330
1B
100
AcDbEntity
 67
     1
  8
0
100
AcDbBlockBegin
  2
*PAPER_SPACE
  1

  0
ENDBLK
  5
1D
330
1B
100
AcDbEntity
 67
     1
  8
0
100
AcDbBlockEnd
  0
ENDSEC
  0
SECTION
  2
ENTITIES
  0
LWPOLYLINE
  5
100
100
AcDbEntity
  8
Plate_Outlines
 62
3
100
AcDbPolyline
 90
33
 70
0
 10
60.722354
 20
2.952962
 30
0.0
 10
58.360153
 20
3.214582
 30
0.0
 10
56.188452
 20
3.455882
 30
0.0
 10
54.199632
 20
3.674322
 30
0.0
 10
52.383531
 20
3.874982
 30
0.0
 10
50.732531
 20
4.057862
 30
0.0
 10
49.236471
 20
4.222962
 30
0.0
 10
47.887730
 20
4.372822
 30
0.0
 10
46.673610
 20
4.512522
 30
0.0
 10
45.589030
 20
4.639522
 30
0.0
 10
44.623829
 20
4.756362
 30
0.0
 10
43.767849
 20
4.865582
 30
0.0
 10
43.010929
 20
4.967182
 30
0.0
 10
42.347989
 20
5.063702
 30
0.0
 10
41.763789
 20
5.157682
 30
0.0
 10
41.255788
 20
5.249122
 30
0.0
 10
40.808748
 20
5.340562
 30
0.0
 10
40.420128
 20
5.434542
 30
0.0
 10
40.074688
 20
5.531062
 30
0.0
 10
39.764808
 20
5.632662
 30
0.0
 10
39.482868
 20
5.739342
 30
0.0
 10
39.218708
 20
5.853642
 30
0.0
 10
38.964708
 20
5.978102
 30
0.0
 10
38.708168
 20
6.112722
 30
0.0
 10
38.444008
 20
6.262582
 30
0.0
 10
38.162068
 20
6.422602
 30
0.0
 10
37.852187
 20
6.602943
 30
0.0
 10
37.504207
 20
6.795983
 30
0.0
 10
37.110507
 20
7.011883
 30
0.0
 10
36.660927
 20
7.248103
 30
0.0
 10
36.150387
 20
7.504643
 30
0.0
 10
35.563647
 20
7.786583
 30
0.0
 10
34.895627
 20
8.093923
 30
0.0
  0
LWPOLYLINE
  5
101
100
AcDbEntity
  8
Plate_Outlines
 62
3
100
AcDbPolyline
 90
33
 70
0
 10
117.064649
 20
0.100541
 30
0.0
 10
116.188348
 20
0.100541
 30
0.0
 10
115.416188
 20
0.100541
 30
0.0
 10
114.738008
 20
0.100541
 30
0.0
 10
114.146188
 20
0.103041
 30
0.0
 10
113.625488
 20
0.103041
 30
0.0
 10
113.168288
 20
0.105541
 30
0.0
 10
112.761887
 20
0.110641
 30
0.0
 10
112.393587
 20
0.115701
 30
0.0
 10
112.055767
 20
0.120761
 30
0.0
 10
111.738267
 20
0.130901
 30
0.0
 10
111.425847
 20
0.141061
 30
0.0
 10
111.110887
 20
0.151221
 30
0.0
 10
110.780687
 20
0.166461
 30
0.0
 10
110.425087
 20
0.181701
 30
0.0
 10
110.033927
 20
0.202021
 30
0.0
 10
109.594507
 20
0.224881
 30
0.0
 10
109.096666
 20
0.247741
 30
0.0
 10
108.530246
 20
0.275681
 30
0.0
 10
107.882546
 20
0.308701
 30
0.0
 10
107.145946
 20
0.341721
 30
0.0
 10
106.305206
 20
0.379821
 30
0.0
 10
105.352705
 20
0.423001
 30
0.0
 10
104.275745
 20
0.468721
 30
0.0
 10
103.061625
 20
0.519521
 30
0.0
 10
101.705265
 20
0.572861
 30
0.0
 10
100.188884
 20
0.631281
 30
0.0
 10
98.507404
 20
0.694781
 30
0.0
 10
96.645583
 20
0.765901
 30
0.0
 10
94.595803
 20
0.839561
 30
0.0
 10
92.342822
 20
0.918301
 30
0.0
 10
89.881561
 20
1.002121
 30
0.0
 10
87.196781
 20
1.093561
 30
0.0
  0
LWPOLYLINE
  5
102
100
AcDbEntity
  8
Plate_Outlines
 62
3
100
AcDbPolyline
 90
27
 70
0
 10
7.976700
 20
88.342584
 30
0.0
 10
8.124020
 20
88.507684
 30
0.0
 10
8.345000
 20
88.672784
 30
0.0
 10
8.538040
 20
88.728664
 30
0.0
 10
8.809820
 20
88.746444
 30
0.0
 10
9.190820
 20
88.728664
 30
0.0
 10
9.434660
 20
88.705804
 30
0.0
 10
9.719140
 20
88.675324
 30
0.0
 10
10.046800
 20
88.637224
 30
0.0
 10
10.422720
 20
88.591504
 30
0.0
 10
10.854520
 20
88.538164
 30
0.0
 10
11.339660
 20
88.477204
 30
0.0
 10
11.888301
 20
88.408624
 30
0.0
 10
12.502981
 20
88.334964
 30
0.0
 10
13.188781
 20
88.253684
 30
0.0
 10
13.945701
 20
88.167324
 30
0.0
 10
14.783901
 20
88.073344
 30
0.0
 10
15.703382
 20
87.976824
 30
0.0
 10
16.709222
 20
87.872684
 30
0.0
 10
17.803962
 20
87.763464
 30
0.0
 10
18.997762
 20
87.651704
 30
0.0
 10
20.288083
 20
87.534864
 30
0.0
 10
21.682543
 20
87.412944
 30
0.0
 10
23.186224
 20
87.288484
 30
0.0
 10
24.801664
 20
87.158944
 30
0.0
 10
26.531404
 20
87.026864
 30
0.0
 10
28.385605
 20
86.892244
 30
0.0
  0
LWPOLYLINE
  5
103
100
AcDbEntity
  8
Plate_Outlines
 62
3
100
AcDbPolyline
 90
28
 70
0
 10
205.464292
 20
86.783024
 30
0.0
 10
207.343893
 20
86.927804
 30
0.0
 10
209.099033
 20
87.070044
 30
0.0
 10
210.734794
 20
87.207204
 30
0.0
 10
212.258794
 20
87.339284
 30
0.0
 10
213.673574
 20
87.468824
 30
0.0
 10
214.981675
 20
87.593284
 30
0.0
 10
216.190715
 20
87.712664
 30
0.0
 10
217.303235
 20
87.826964
 30
0.0
 10
218.324316
 20
87.936184
 30
0.0
 10
219.253956
 20
88.037784
 30
0.0
 10
220.102316
 20
88.136844
 30
0.0
 10
220.871936
 20
88.225744
 30
0.0
 10
221.565356
 20
88.312104
 30
0.0
 10
222.187657
 20
88.388304
 30
0.0
 10
222.743917
 20
88.459424
 30
0.0
 10
223.239217
 20
88.522924
 30
0.0
 10
223.676097
 20
88.581344
 30
0.0
 10
224.057097
 20
88.629604
 30
0.0
 10
224.389837
 20
88.667704
 30
0.0
 10
224.676857
 20
88.700724
 30
0.0
 10
224.923237
 20
88.723584
 30
0.0
 10
225.134057
 20
88.738824
 30
0.0
 10
225.461718
 20
88.741364
 30
0.0
 10
225.692858
 20
88.705804
 30
0.0
 10
225.936698
 20
88.573724
 30
0.0
 10
226.078938
 20
88.431484
 30
0.0
 10
226.155138
 20
88.342584
 30
0.0
  0
LWPOLYLINE
  5
104
100
AcDbEntity
  8
Plate_Outlines
 62
3
100
AcDbPolyline
 90
2
 70
0
 10
0.125557
 20
27.453688
 30
0.0
 10
7.976700
 20
88.342584
 30
0.0
  0
LWPOLYLINE
  5
105
100
AcDbEntity
  8
Plate_Outlines
 62
3
100
AcDbPolyline
 90
2
 70
0
 10
226.155138
 20
88.342585
 30
0.0
 10
234.003740
 20
27.354629
 30
0.0
  0
LWPOLYLINE
  5
106
100
AcDbEntity
  8
Plate_Outlines
 62
3
100
AcDbPolyline
 90
31
 70
0
 10
130.253032
 20
74.517244
 30
0.0
 10
131.748393
 20
87.702505
 30
0.0
 10
133.691493
 20
87.781245
 30
0.0
 10
135.634594
 20
87.870145
 30
0.0
 10
137.575154
 20
87.969205
 30
0.0
 10
139.518255
 20
88.078425
 30
0.0
 10
141.461355
 20
88.190185
 30
0.0
 10
143.404456
 20
88.309565
 30
0.0
 10
145.347556
 20
88.434025
 30
0.0
 10
147.290657
 20
88.558485
 30
0.0
 10
149.231217
 20
88.688025
 30
0.0
 10
151.174318
 20
88.815025
 30
0.0
 10
153.117418
 20
88.942025
 30
0.0
 10
155.060519
 20
89.066486
 30
0.0
 10
157.001079
 20
89.188406
 30
0.0
 10
158.944180
 20
89.305246
 30
0.0
 10
160.884740
 20
89.414466
 30
0.0
 10
162.827841
 20
89.518606
 30
0.0
 10
164.768401
 20
89.612586
 30
0.0
 10
166.711502
 20
89.696406
 30
0.0
 10
168.652062
 20
89.770066
 30
0.0
 10
170.592623
 20
89.828486
 30
0.0
 10
172.535723
 20
89.876746
 30
0.0
 10
174.476284
 20
89.907226
 30
0.0
 10
176.416844
 20
89.922466
 30
0.0
 10
178.357405
 20
89.917386
 30
0.0
 10
180.295425
 20
89.897066
 30
0.0
 10
182.235986
 20
89.853886
 30
0.0
 10
184.176547
 20
89.790386
 30
0.0
 10
186.114567
 20
89.704026
 30
0.0
 10
188.055128
 20
89.592266
 30
0.0
  0
LWPOLYLINE
  5
107
100
AcDbEntity
  8
Plate_Outlines
 62
3
100
AcDbPolyline
 90
33
 70
0
 10
87.196781
 20
1.093562
 30
0.0
 10
86.422080
 20
1.118962
 30
0.0
 10
85.741360
 20
1.141822
 30
0.0
 10
85.144460
 20
1.162142
 30
0.0
 10
84.621220
 20
1.179922
 30
0.0
 10
84.161480
 20
1.197702
 30
0.0
 10
83.757620
 20
1.212942
 30
0.0
 10
83.396940
 20
1.228182
 30
0.0
 10
83.074360
 20
1.243422
 30
0.0
 10
82.774639
 20
1.261202
 30
0.0
 10
82.492699
 20
1.278982
 30
0.0
 10
82.215839
 20
1.296762
 30
0.0
 10
81.936439
 20
1.319622
 30
0.0
 10
81.644339
 20
1.342482
 30
0.0
 10
81.329379
 20
1.370422
 30
0.0
 10
80.981399
 20
1.400902
 30
0.0
 10
80.590239
 20
1.433922
 30
0.0
 10
80.148279
 20
1.474562
 30
0.0
 10
79.645359
 20
1.517742
 30
0.0
 10
79.071318
 20
1.568542
 30
0.0
 10
78.415998
 20
1.624422
 30
0.0
 10
77.669238
 20
1.685382
 30
0.0
 10
76.823418
 20
1.756502
 30
0.0
 10
75.865838
 20
1.832702
 30
0.0
 10
74.791417
 20
1.919062
 30
0.0
 10
73.587457
 20
2.013042
 30
0.0
 10
72.243797
 20
2.114642
 30
0.0
 10
70.750276
 20
2.228942
 30
0.0
 10
69.101816
 20
2.350862
 30
0.0
 10
67.283175
 20
2.482942
 30
0.0
 10
65.286735
 20
2.627722
 30
0.0
 10
63.102334
 20
2.785203
 30
0.0
 10
60.722354
 20
2.952843
 30
0.0
  0
LWPOLYLINE
  5
108
100
AcDbEntity
  8
Plate_Outlines
 62
3
100
AcDbPolyline
 90
33
 70
0
 10
34.895627
 20
8.093803
 30
0.0
 10
31.847626
 20
9.848943
 30
0.0
 10
28.990125
 20
11.472004
 30
0.0
 10
26.318044
 20
12.968064
 30
0.0
 10
23.823764
 20
14.342205
 30
0.0
 10
21.502203
 20
15.599505
 30
0.0
 10
19.343203
 20
16.750125
 30
0.0
 10
17.344222
 20
17.796606
 30
0.0
 10
15.495102
 20
18.744026
 30
0.0
 10
13.793301
 20
19.600006
 30
0.0
 10
12.231201
 20
20.369626
 30
0.0
 10
10.801180
 20
21.060506
 30
0.0
 10
9.498160
 20
21.675187
 30
0.0
 10
8.314520
 20
22.221287
 30
0.0
 10
7.245179
 20
22.706427
 30
0.0
 10
6.282519
 20
23.135687
 30
0.0
 10
5.421459
 20
23.511607
 30
0.0
 10
4.654379
 20
23.844347
 30
0.0
 10
3.976198
 20
24.138987
 30
0.0
 10
3.376758
 20
24.398067
 30
0.0
 10
2.856058
 20
24.631747
 30
0.0
 10
2.401398
 20
24.842567
 30
0.0
 10
2.010238
 20
25.040687
 30
0.0
 10
1.674958
 20
25.228647
 30
0.0
 10
1.390478
 20
25.411528
 30
0.0
 10
1.149178
 20
25.596948
 30
0.0
 10
0.943438
 20
25.789988
 30
0.0
 10
0.768178
 20
25.998268
 30
0.0
 10
0.615778
 20
26.224328
 30
0.0
 10
0.483698
 20
26.478328
 30
0.0
 10
0.361777
 20
26.762808
 30
0.0
 10
0.242397
 20
27.085388
 30
0.0
 10
0.125557
 20
27.453688
 30
0.0
  0
LWPOLYLINE
  5
109
100
AcDbEntity
  8
Plate_Outlines
 62
3
100
AcDbPolyline
 90
33
 70
0
 10
173.424724
 20
2.957802
 30
0.0
 10
171.049823
 20
2.800322
 30
0.0
 10
168.873042
 20
2.653001
 30
0.0
 10
166.879142
 20
2.515841
 30
0.0
 10
165.065581
 20
2.391381
 30
0.0
 10
163.417121
 20
2.274541
 30
0.0
 10
161.926141
 20
2.165321
 30
0.0
 10
160.585020
 20
2.066261
 30
0.0
 10
159.381060
 20
1.974821
 30
0.0
 10
158.306640
 20
1.891001
 30
0.0
 10
157.349059
 20
1.814801
 30
0.0
 10
156.503239
 20
1.743681
 30
0.0
 10
155.756479
 20
1.682721
 30
0.0
 10
155.101159
 20
1.624301
 30
0.0
 10
154.524579
 20
1.573501
 30
0.0
 10
154.019118
 20
1.525241
 30
0.0
 10
153.574618
 20
1.484601
 30
0.0
 10
153.183458
 20
1.446501
 30
0.0
 10
152.832938
 20
1.410941
 30
0.0
 10
152.515438
 20
1.380461
 30
0.0
 10
152.218258
 20
1.352521
 30
0.0
 10
151.936318
 20
1.327121
 30
0.0
 10
151.656918
 20
1.304261
 30
0.0
 10
151.372438
 20
1.283941
 30
0.0
 10
151.072718
 20
1.263621
 30
0.0
 10
150.745058
 20
1.243301
 30
0.0
 10
150.384377
 20
1.222981
 30
0.0
 10
149.977977
 20
1.205201
 30
0.0
 10
149.515697
 20
1.184881
 30
0.0
 10
148.992457
 20
1.164561
 30
0.0
 10
148.393017
 20
1.141701
 30
0.0
 10
147.712297
 20
1.118841
 30
0.0
 10
146.937597
 20
1.093441
 30
0.0
  0
LWPOLYLINE
  5
10a
100
AcDbEntity
  8
Plate_Outlines
 62
3
100
AcDbPolyline
 90
33
 70
0
 10
199.274311
 20
8.093683
 30
0.0
 10
198.606290
 20
7.786343
 30
0.0
 10
198.017010
 20
7.506943
 30
0.0
 10
197.503930
 20
7.250403
 30
0.0
 10
197.054350
 20
7.016723
 30
0.0
 10
196.660650
 20
6.800823
 30
0.0
 10
196.312670
 20
6.607783
 30
0.0
 10
196.002790
 20
6.429982
 30
0.0
 10
195.718310
 20
6.267422
 30
0.0
 10
195.454150
 20
6.120102
 30
0.0
 10
195.200149
 20
5.982942
 30
0.0
 10
194.943609
 20
5.861022
 30
0.0
 10
194.681989
 20
5.744182
 30
0.0
 10
194.400049
 20
5.637502
 30
0.0
 10
194.090169
 20
5.535902
 30
0.0
 10
193.744729
 20
5.439382
 30
0.0
 10
193.353569
 20
5.347942
 30
0.0
 10
192.909069
 20
5.253962
 30
0.0
 10
192.398529
 20
5.162522
 30
0.0
 10
191.816869
 20
5.068542
 30
0.0
 10
191.151388
 20
4.972022
 30
0.0
 10
190.397008
 20
4.867882
 30
0.0
 10
189.538488
 20
4.758662
 30
0.0
 10
188.573288
 20
4.641822
 30
0.0
 10
187.488707
 20
4.514822
 30
0.0
 10
186.274587
 20
4.377662
 30
0.0
 10
184.923307
 20
4.225262
 30
0.0
 10
183.427246
 20
4.060162
 30
0.0
 10
181.773706
 20
3.877282
 30
0.0
 10
179.957605
 20
3.679162
 30
0.0
 10
177.966245
 20
3.458182
 30
0.0
 10
175.792004
 20
3.219422
 30
0.0
 10
173.424724
 20
2.957802
 30
0.0
  0
LWPOLYLINE
  5
10b
100
AcDbEntity
  8
Plate_Outlines
 62
3
100
AcDbPolyline
 90
33
 70
0
 10
146.937597
 20
1.093441
 30
0.0
 10
144.250276
 20
1.002001
 30
0.0
 10
141.789015
 20
0.918181
 30
0.0
 10
139.536035
 20
0.839441
 30
0.0
 10
137.486254
 20
0.765781
 30
0.0
 10
135.624434
 20
0.694661
 30
0.0
 10
133.942953
 20
0.631161
 30
0.0
 10
132.426573
 20
0.572741
 30
0.0
 10
131.070212
 20
0.519401
 30
0.0
 10
129.856092
 20
0.468601
 30
0.0
 10
128.779132
 20
0.422881
 30
0.0
 10
127.826631
 20
0.379701
 30
0.0
 10
126.985891
 20
0.341601
 30
0.0
 10
126.249291
 20
0.308581
 30
0.0
 10
125.601591
 20
0.275561
 30
0.0
 10
125.035171
 20
0.247621
 30
0.0
 10
124.537331
 20
0.224761
 30
0.0
 10
124.097910
 20
0.201901
 30
0.0
 10
123.706750
 20
0.181581
 30
0.0
 10
123.351150
 20
0.166341
 30
0.0
 10
123.020950
 20
0.151101
 30
0.0
 10
122.705990
 20
0.140941
 30
0.0
 10
122.393570
 20
0.130781
 30
0.0
 10
122.076070
 20
0.120621
 30
0.0
 10
121.738250
 20
0.115541
 30
0.0
 10
121.369950
 20
0.110481
 30
0.0
 10
120.963550
 20
0.105421
 30
0.0
 10
120.506350
 20
0.102921
 30
0.0
 10
119.985649
 20
0.102921
 30
0.0
 10
119.393829
 20
0.100421
 30
0.0
 10
118.715649
 20
0.100421
 30
0.0
 10
117.943489
 20
0.100421
 30
0.0
 10
117.064649
 20
0.100421
 30
0.0
  0
LWPOLYLINE
  5
10c
100
AcDbEntity
  8
Plate_Outlines
 62
3
100
AcDbPolyline
 90
33
 70
0
 10
234.003680
 20
27.354628
 30
0.0
 10
233.973180
 20
26.988868
 30
0.0
 10
233.935080
 20
26.671368
 30
0.0
 10
233.879180
 20
26.389428
 30
0.0
 10
233.805540
 20
26.137968
 30
0.0
 10
233.706520
 20
25.914448
 30
0.0
 10
233.574480
 20
25.711248
 30
0.0
 10
233.404300
 20
25.520748
 30
0.0
 10
233.188400
 20
25.337868
 30
0.0
 10
232.924239
 20
25.160067
 30
0.0
 10
232.604199
 20
24.977187
 30
0.0
 10
232.220659
 20
24.784147
 30
0.0
 10
231.768539
 20
24.575867
 30
0.0
 10
231.245299
 20
24.347267
 30
0.0
 10
230.640779
 20
24.090727
 30
0.0
 10
229.949899
 20
23.801167
 30
0.0
 10
229.167578
 20
23.473507
 30
0.0
 10
228.286198
 20
23.100127
 30
0.0
 10
227.303218
 20
22.675947
 30
0.0
 10
226.208478
 20
22.193347
 30
0.0
 10
224.999437
 20
21.649787
 30
0.0
 10
223.665937
 20
21.037646
 30
0.0
 10
222.207977
 20
20.351846
 30
0.0
 10
220.615396
 20
19.584766
 30
0.0
 10
218.883116
 20
18.731326
 30
0.0
 10
217.003515
 20
17.786446
 30
0.0
 10
214.974055
 20
16.742505
 30
0.0
 10
212.787114
 20
15.596965
 30
0.0
 10
210.435074
 20
14.339665
 30
0.0
 10
207.915393
 20
12.965524
 30
0.0
 10
205.217912
 20
11.472004
 30
0.0
 10
202.340091
 20
9.848943
 30
0.0
 10
199.274311
 20
8.093803
 30
0.0
  0
LWPOLYLINE
  5
10d
100
AcDbEntity
  8
Plate_Outlines
 62
3
100
AcDbPolyline
 90
63
 70
0
 10
28.385605
 20
86.892244
 30
0.0
 10
28.939325
 20
86.864304
 30
0.0
 10
29.493045
 20
86.851604
 30
0.0
 10
30.046765
 20
86.854144
 30
0.0
 10
30.600486
 20
86.874464
 30
0.0
 10
31.151666
 20
86.907484
 30
0.0
 10
31.702846
 20
86.955744
 30
0.0
 10
32.254026
 20
87.016704
 30
0.0
 10
32.802666
 20
87.087824
 30
0.0
 10
33.353846
 20
87.169104
 30
0.0
 10
33.902486
 20
87.263084
 30
0.0
 10
34.451127
 20
87.362144
 30
0.0
 10
34.999767
 20
87.468824
 30
0.0
 10
35.548407
 20
87.583124
 30
0.0
 10
36.097047
 20
87.702504
 30
0.0
 10
36.645687
 20
87.826964
 30
0.0
 10
37.191787
 20
87.953964
 30
0.0
 10
37.740427
 20
88.080964
 30
0.0
 10
38.289068
 20
88.213044
 30
0.0
 10
38.837708
 20
88.342584
 30
0.0
 10
39.386348
 20
88.472124
 30
0.0
 10
39.934988
 20
88.601664
 30
0.0
 10
40.483628
 20
88.726124
 30
0.0
 10
41.032268
 20
88.848044
 30
0.0
 10
41.583448
 20
88.962344
 30
0.0
 10
42.132089
 20
89.074105
 30
0.0
 10
42.683269
 20
89.178245
 30
0.0
 10
43.234449
 20
89.272225
 30
0.0
 10
43.788169
 20
89.358585
 30
0.0
 10
44.339349
 20
89.434785
 30
0.0
 10
44.893069
 20
89.500825
 30
0.0
 10
45.449330
 20
89.554165
 30
0.0
 10
46.005590
 20
89.592265
 30
0.0
 10
47.943610
 20
89.696405
 30
0.0
 10
49.884171
 20
89.777685
 30
0.0
 10
51.824731
 20
89.836105
 30
0.0
 10
53.762752
 20
89.874205
 30
0.0
 10
55.703312
 20
89.891985
 30
0.0
 10
57.643873
 20
89.891985
 30
0.0
 10
59.584433
 20
89.874205
 30
0.0
 10
61.527534
 20
89.841185
 30
0.0
 10
63.468094
 20
89.792925
 30
0.0
 10
65.408655
 20
89.731965
 30
0.0
 10
67.349215
 20
89.660845
 30
0.0
 10
69.292316
 20
89.577025
 30
0.0
 10
71.232876
 20
89.483045
 30
0.0
 10
73.175977
 20
89.381445
 30
0.0
 10
75.116537
 20
89.272225
 30
0.0
 10
77.059638
 20
89.157925
 30
0.0
 10
79.002738
 20
89.038545
 30
0.0
 10
80.943299
 20
88.916624
 30
0.0
 10
82.886399
 20
88.792164
 30
0.0
 10
84.829500
 20
88.665164
 30
0.0
 10
86.772601
 20
88.540704
 30
0.0
 10
88.713161
 20
88.416244
 30
0.0
 10
90.656262
 20
88.296864
 30
0.0
 10
92.599362
 20
88.180024
 30
0.0
 10
94.542463
 20
88.068264
 30
0.0
 10
96.485563
 20
87.964124
 30
0.0
 10
98.426124
 20
87.865064
 30
0.0
 10
100.369224
 20
87.778704
 30
0.0
 10
102.312325
 20
87.699964
 30
0.0
 10
103.428025
 20
74.517244
 30
0.0
  0
LWPOLYLINE
  5
10e
100
AcDbEntity
  8
Plate_Outlines
 62
3
100
AcDbPolyline
 90
33
 70
0
 10
188.055128
 20
89.592265
 30
0.0
 10
188.603768
 20
89.551625
 30
0.0
 10
189.152408
 20
89.495745
 30
0.0
 10
189.698508
 20
89.427165
 30
0.0
 10
190.247148
 20
89.348425
 30
0.0
 10
190.790708
 20
89.256985
 30
0.0
 10
191.336808
 20
89.157925
 30
0.0
 10
191.880369
 20
89.051245
 30
0.0
 10
192.426469
 20
88.934404
 30
0.0
 10
192.967489
 20
88.815024
 30
0.0
 10
193.511049
 20
88.688024
 30
0.0
 10
194.054609
 20
88.558484
 30
0.0
 10
194.595629
 20
88.423864
 30
0.0
 10
195.136649
 20
88.289244
 30
0.0
 10
195.677670
 20
88.152084
 30
0.0
 10
196.221230
 20
88.017464
 30
0.0
 10
196.762250
 20
87.882844
 30
0.0
 10
197.303270
 20
87.750764
 30
0.0
 10
197.844290
 20
87.623764
 30
0.0
 10
198.385310
 20
87.499304
 30
0.0
 10
198.926330
 20
87.379924
 30
0.0
 10
199.469891
 20
87.268164
 30
0.0
 10
200.010911
 20
87.164024
 30
0.0
 10
200.554471
 20
87.070044
 30
0.0
 10
201.098031
 20
86.983684
 30
0.0
 10
201.641591
 20
86.910024
 30
0.0
 10
202.185151
 20
86.846524
 30
0.0
 10
202.728711
 20
86.798264
 30
0.0
 10
203.274812
 20
86.762704
 30
0.0
 10
203.820912
 20
86.742384
 30
0.0
 10
204.369552
 20
86.739844
 30
0.0
 10
204.915652
 20
86.752544
 30
0.0
 10
205.464292
 20
86.783024
 30
0.0
  0
LWPOLYLINE
  5
10f
100
AcDbEntity
  8
Plate_Outlines
 62
3
100
AcDbPolyline
 90
4
 70
1
 10
10.371920
 20
81.255983
 30
0.0
 10
24.268264
 20
79.549103
 30
0.0
 10
22.561383
 20
65.652759
 30
0.0
 10
8.665040
 20
67.359640
 30
0.0
  0
LWPOLYLINE
  5
110
100
AcDbEntity
  8
Plate_Outlines
 62
3
100
AcDbPolyline
 90
4
 70
1
 10
29.858805
 20
83.661364
 30
0.0
 10
43.755149
 20
81.954484
 30
0.0
 10
42.048269
 20
68.058140
 30
0.0
 10
28.151925
 20
69.765020
 30
0.0
  0
LWPOLYLINE
  5
111
100
AcDbEntity
  8
Plate_Outlines
 62
3
100
AcDbPolyline
 90
4
 70
1
 10
49.350771
 20
86.066745
 30
0.0
 10
63.247114
 20
84.359864
 30
0.0
 10
61.540234
 20
70.463521
 30
0.0
 10
47.643890
 20
72.170401
 30
0.0
  0
LWPOLYLINE
  5
112
100
AcDbEntity
  8
Plate_Outlines
 62
3
100
AcDbPolyline
 90
4
 70
1
 10
67.676875
 20
79.018243
 30
0.0
 10
81.573219
 20
77.311362
 30
0.0
 10
79.866339
 20
63.415019
 30
0.0
 10
65.969995
 20
65.121899
 30
0.0
  0
LWPOLYLINE
  5
113
100
AcDbEntity
  8
Plate_Outlines
 62
3
100
AcDbPolyline
 90
4
 70
1
 10
86.584640
 20
76.696682
 30
0.0
 10
100.480984
 20
74.989802
 30
0.0
 10
98.774104
 20
61.093458
 30
0.0
 10
84.877760
 20
62.800339
 30
0.0
  0
LWPOLYLINE
  5
114
100
AcDbEntity
  8
Plate_Outlines
 62
3
100
AcDbPolyline
 90
4
 70
1
 10
84.263080
 20
57.788917
 30
0.0
 10
98.159424
 20
56.082037
 30
0.0
 10
96.452543
 20
42.185693
 30
0.0
 10
82.556199
 20
43.892573
 30
0.0
  0
LWPOLYLINE
  5
115
100
AcDbEntity
  8
Plate_Outlines
 62
3
100
AcDbPolyline
 90
4
 70
1
 10
65.355315
 20
60.110478
 30
0.0
 10
79.251659
 20
58.403597
 30
0.0
 10
77.544778
 20
44.507254
 30
0.0
 10
63.648434
 20
46.214134
 30
0.0
  0
LWPOLYLINE
  5
116
100
AcDbEntity
  8
Plate_Outlines
 62
3
100
AcDbPolyline
 90
4
 70
1
 10
47.026670
 20
67.158980
 30
0.0
 10
60.923014
 20
65.452099
 30
0.0
 10
59.216133
 20
51.555756
 30
0.0
 10
45.319789
 20
53.262636
 30
0.0
  0
LWPOLYLINE
  5
117
100
AcDbEntity
  8
Plate_Outlines
 62
3
100
AcDbPolyline
 90
4
 70
1
 10
27.539785
 20
64.753599
 30
0.0
 10
41.436128
 20
63.046719
 30
0.0
 10
39.729248
 20
49.150375
 30
0.0
 10
25.832904
 20
50.857255
 30
0.0
  0
LWPOLYLINE
  5
118
100
AcDbEntity
  8
Plate_Outlines
 62
3
100
AcDbPolyline
 90
4
 70
1
 10
8.050360
 20
62.348218
 30
0.0
 10
21.946703
 20
60.641338
 30
0.0
 10
20.239823
 20
46.744994
 30
0.0
 10
6.343479
 20
48.451875
 30
0.0
  0
LWPOLYLINE
  5
119
100
AcDbEntity
  8
Plate_Outlines
 62
3
100
AcDbPolyline
 90
4
 70
1
 10
5.728799
 20
43.440453
 30
0.0
 10
19.625143
 20
41.733573
 30
0.0
 10
17.918262
 20
27.837229
 30
0.0
 10
4.021918
 20
29.544110
 30
0.0
  0
LWPOLYLINE
  5
11a
100
AcDbEntity
  8
Plate_Outlines
 62
3
100
AcDbPolyline
 90
4
 70
1
 10
25.215684
 20
45.845834
 30
0.0
 10
39.112028
 20
44.138954
 30
0.0
 10
37.405147
 20
30.242610
 30
0.0
 10
23.508804
 20
31.949490
 30
0.0
  0
LWPOLYLINE
  5
11b
100
AcDbEntity
  8
Plate_Outlines
 62
3
100
AcDbPolyline
 90
4
 70
1
 10
44.707649
 20
48.251215
 30
0.0
 10
58.603993
 20
46.544334
 30
0.0
 10
56.897113
 20
32.647990
 30
0.0
 10
43.000769
 20
34.354871
 30
0.0
  0
LWPOLYLINE
  5
11c
100
AcDbEntity
  8
Plate_Outlines
 62
3
100
AcDbPolyline
 90
4
 70
1
 10
39.439688
 20
24.906068
 30
0.0
 10
53.336032
 20
23.199188
 30
0.0
 10
51.629151
 20
9.302844
 30
0.0
 10
37.732807
 20
11.009725
 30
0.0
  0
LWPOLYLINE
  5
11d
100
AcDbEntity
  8
Plate_Outlines
 62
3
100
AcDbPolyline
 90
4
 70
1
 10
63.033754
 20
41.202713
 30
0.0
 10
76.930098
 20
39.495832
 30
0.0
 10
75.223217
 20
25.599489
 30
0.0
 10
61.326874
 20
27.306369
 30
0.0
  0
LWPOLYLINE
  5
11e
100
AcDbEntity
  8
Plate_Outlines
 62
3
100
AcDbPolyline
 90
4
 70
1
 10
81.941519
 20
38.881152
 30
0.0
 10
95.837863
 20
37.174272
 30
0.0
 10
94.130982
 20
23.277928
 30
0.0
 10
80.234639
 20
24.984808
 30
0.0
  0
LWPOLYLINE
  5
11f
100
AcDbEntity
  8
Plate_Outlines
 62
3
100
AcDbPolyline
 90
4
 70
1
 10
70.166076
 20
21.134167
 30
0.0
 10
84.062420
 20
19.427287
 30
0.0
 10
82.355539
 20
5.530943
 30
0.0
 10
68.459196
 20
7.237824
 30
0.0
  0
LWPOLYLINE
  5
120
100
AcDbEntity
  8
Plate_Outlines
 62
3
100
AcDbPolyline
 90
4
 70
1
 10
149.990677
 20
19.427289
 30
0.0
 10
163.887021
 20
21.131629
 30
0.0
 10
165.591362
 20
7.237826
 30
0.0
 10
151.697558
 20
5.530945
 30
0.0
  0
LWPOLYLINE
  5
121
100
AcDbEntity
  8
Plate_Outlines
 62
3
100
AcDbPolyline
 90
4
 70
1
 10
180.717066
 20
23.199188
 30
0.0
 10
194.613409
 20
24.903528
 30
0.0
 10
196.317750
 20
11.009725
 30
0.0
 10
182.423946
 20
9.302844
 30
0.0
  0
LWPOLYLINE
  5
122
100
AcDbEntity
  8
Plate_Outlines
 62
3
100
AcDbPolyline
 90
4
 70
1
 10
194.938529
 20
44.141494
 30
0.0
 10
208.834873
 20
45.845834
 30
0.0
 10
210.539214
 20
31.952030
 30
0.0
 10
196.645410
 20
30.245150
 30
0.0
  0
LWPOLYLINE
  5
123
100
AcDbEntity
  8
Plate_Outlines
 62
3
100
AcDbPolyline
 90
4
 70
1
 10
175.451644
 20
46.544334
 30
0.0
 10
189.347988
 20
48.248675
 30
0.0
 10
191.052328
 20
34.354871
 30
0.0
 10
177.158525
 20
32.647990
 30
0.0
  0
LWPOLYLINE
  5
124
100
AcDbEntity
  8
Plate_Outlines
 62
3
100
AcDbPolyline
 90
4
 70
1
 10
157.125539
 20
39.495832
 30
0.0
 10
171.021883
 20
41.200173
 30
0.0
 10
172.726223
 20
27.306369
 30
0.0
 10
158.832420
 20
25.599489
 30
0.0
  0
LWPOLYLINE
  5
125
100
AcDbEntity
  8
Plate_Outlines
 62
3
100
AcDbPolyline
 90
4
 70
1
 10
138.215234
 20
37.174272
 30
0.0
 10
152.111578
 20
38.878612
 30
0.0
 10
153.815918
 20
24.984808
 30
0.0
 10
139.922115
 20
23.277928
 30
0.0
  0
LWPOLYLINE
  5
126
100
AcDbEntity
  8
Plate_Outlines
 62
3
100
AcDbPolyline
 90
4
 70
1
 10
214.427955
 20
41.736113
 30
0.0
 10
228.324298
 20
43.440453
 30
0.0
 10
230.028639
 20
29.546653
 30
0.0
 10
216.134835
 20
27.839772
 30
0.0
  0
LWPOLYLINE
  5
127
100
AcDbEntity
  8
Plate_Outlines
 62
3
100
AcDbPolyline
 90
4
 70
1
 10
212.106394
 20
60.641338
 30
0.0
 10
226.002738
 20
62.345678
 30
0.0
 10
227.707078
 20
48.451875
 30
0.0
 10
213.813274
 20
46.744994
 30
0.0
  0
LWPOLYLINE
  5
128
100
AcDbEntity
  8
Plate_Outlines
 62
3
100
AcDbPolyline
 90
4
 70
1
 10
192.616969
 20
63.046719
 30
0.0
 10
206.513312
 20
64.751059
 30
0.0
 10
208.217653
 20
50.857255
 30
0.0
 10
194.323849
 20
49.150375
 30
0.0
  0
LWPOLYLINE
  5
129
100
AcDbEntity
  8
Plate_Outlines
 62
3
100
AcDbPolyline
 90
4
 70
1
 10
173.130084
 20
65.452099
 30
0.0
 10
187.026427
 20
67.156440
 30
0.0
 10
188.730768
 20
53.262636
 30
0.0
 10
174.836964
 20
51.555756
 30
0.0
  0
LWPOLYLINE
  5
12a
100
AcDbEntity
  8
Plate_Outlines
 62
3
100
AcDbPolyline
 90
4
 70
1
 10
154.801439
 20
58.403597
 30
0.0
 10
168.697782
 20
60.107938
 30
0.0
 10
170.402123
 20
46.214134
 30
0.0
 10
156.508319
 20
44.507254
 30
0.0
  0
LWPOLYLINE
  5
12b
100
AcDbEntity
  8
Plate_Outlines
 62
3
100
AcDbPolyline
 90
4
 70
1
 10
135.893674
 20
56.082037
 30
0.0
 10
149.790017
 20
57.786377
 30
0.0
 10
151.494358
 20
43.892573
 30
0.0
 10
137.600554
 20
42.185693
 30
0.0
  0
LWPOLYLINE
  5
12c
100
AcDbEntity
  8
Plate_Outlines
 62
3
100
AcDbPolyline
 90
4
 70
1
 10
133.572113
 20
74.992342
 30
0.0
 10
147.468457
 20
76.696682
 30
0.0
 10
149.172797
 20
62.802879
 30
0.0
 10
135.278993
 20
61.095998
 30
0.0
  0
LWPOLYLINE
  5
12d
100
AcDbEntity
  8
Plate_Outlines
 62
3
100
AcDbPolyline
 90
4
 70
1
 10
152.479878
 20
77.313902
 30
0.0
 10
166.376222
 20
79.018243
 30
0.0
 10
168.080562
 20
65.124439
 30
0.0
 10
154.186759
 20
63.417559
 30
0.0
  0
LWPOLYLINE
  5
12e
100
AcDbEntity
  8
Plate_Outlines
 62
3
100
AcDbPolyline
 90
4
 70
1
 10
170.808523
 20
84.359864
 30
0.0
 10
184.704867
 20
86.064205
 30
0.0
 10
186.409207
 20
72.170401
 30
0.0
 10
172.515403
 20
70.463521
 30
0.0
  0
LWPOLYLINE
  5
12f
100
AcDbEntity
  8
Plate_Outlines
 62
3
100
AcDbPolyline
 90
4
 70
1
 10
190.297948
 20
81.954484
 30
0.0
 10
204.194292
 20
83.658824
 30
0.0
 10
205.898632
 20
69.765020
 30
0.0
 10
192.004829
 20
68.058140
 30
0.0
  0
LWPOLYLINE
  5
130
100
AcDbEntity
  8
Plate_Outlines
 62
3
100
AcDbPolyline
 90
4
 70
1
 10
209.784833
 20
79.549103
 30
0.0
 10
223.681177
 20
81.253443
 30
0.0
 10
225.385517
 20
67.359640
 30
0.0
 10
211.491714
 20
65.652759
 30
0.0
  0
LWPOLYLINE
  5
131
100
AcDbEntity
  8
Plate_Outlines
 62
3
100
AcDbPolyline
 90
4
 70
0
 10
103.428025
 20
74.517244
 30
0.0
 10
100.428024
 20
53.692238
 30
0.0
 10
133.253033
 20
53.692238
 30
0.0
 10
130.253032
 20
74.517244
 30
0.0
  0
ENDSEC
  0
SECTION
  2
OBJECTS
  0
DICTIONARY
  5
C
330
0
100
AcDbDictionary
  3
ACAD_GROUP
350
D
  3
ACAD_MLINESTYLE
350
17
  0
DICTIONARY
  5
D
330
C
100
AcDbDictionary
  0
DICTIONARY
  5
1A
330
C
100
AcDbDictionary
  0
DICTIONARY
  5
17
330
C
100
AcDbDictionary
  3
STANDARD
350
18
  0
DICTIONARY
  5
19
330
C
100
AcDbDictionary
  0
ENDSEC
  0
EOF
