M48
; DRILL file {KiCad (5.1.9)-1} date 09/30/21 23:41:36
; FORMAT={-:-/ absolute / metric / decimal}
; #@! TF.CreationDate,2021-09-30T23:41:36-07:00
; #@! TF.GenerationSoftware,Kicad,Pcbnew,(5.1.9)-1
FMAT,2
METRIC
T1C0.400
T2C1.092
T3C1.250
T4C1.470
T5C1.750
T6C2.200
T7C3.048
T8C3.988
%
G90
G05
T1
X116.053Y-70.917
X117.45Y-117.704
X118.643Y-75.844
X119.558Y-103.683
X119.863Y-76.784
X120.421Y-107.493
X121.818Y-66.116
X122.199Y-67.437
X125.552Y-74.092
X135.382Y-112.687
X136.207Y-80.518
X138.1Y-92.431
X139.725Y-96.52
X139.793Y-80.518
X140.741Y-112.687
X155.6Y-107.467
X157.226Y-90.932
T2
X130.404Y-37.821
X130.404Y-40.361
X130.404Y-42.901
X130.404Y-45.441
X130.404Y-47.981
X130.404Y-50.521
X130.404Y-53.061
X130.404Y-55.601
X130.404Y-58.141
X130.404Y-60.681
X130.404Y-63.221
X130.404Y-65.761
X145.644Y-37.821
X145.644Y-40.361
X145.644Y-42.901
X145.644Y-45.441
X145.644Y-47.981
X145.644Y-50.521
X145.644Y-53.061
X145.644Y-55.601
X145.644Y-58.141
X145.644Y-60.681
X145.644Y-63.221
X145.644Y-65.761
T3
X29.391Y-85.26
X31.712Y-66.352
X34.034Y-47.444
X36.003Y-83.512
X38.324Y-64.604
X40.646Y-45.696
X48.879Y-82.854
X51.201Y-63.946
X53.522Y-45.038
X55.491Y-81.107
X57.813Y-62.199
X60.134Y-43.291
X63.102Y-103.794
X68.367Y-80.449
X69.714Y-102.046
X70.689Y-61.541
X73.011Y-42.633
X74.98Y-78.702
X77.301Y-59.794
X79.623Y-40.886
X86.695Y-87.497
X89.017Y-68.589
X91.338Y-49.681
X93.307Y-85.75
X95.629Y-66.842
X97.95Y-47.934
X105.603Y-89.819
X107.925Y-70.911
X110.246Y-52.003
X112.215Y-88.072
X114.537Y-69.164
X116.858Y-50.256
X158.321Y-52.932
X160.642Y-71.84
X162.964Y-90.748
X164.314Y-49.637
X166.635Y-68.545
X168.957Y-87.453
X177.229Y-50.61
X179.55Y-69.518
X181.872Y-88.426
X183.222Y-47.315
X185.543Y-66.223
X187.865Y-85.131
X195.556Y-43.561
X197.878Y-62.47
X200.199Y-81.378
X201.549Y-40.267
X203.871Y-59.175
X205.465Y-104.722
X206.193Y-78.083
X211.458Y-101.427
X215.045Y-45.967
X217.366Y-64.875
X219.688Y-83.783
X221.038Y-42.672
X223.359Y-61.58
X225.681Y-80.488
X234.533Y-48.372
X236.855Y-67.28
X239.176Y-86.188
X240.526Y-45.077
X242.848Y-63.985
X245.169Y-82.893
T4
X93.827Y-107.566
X100.44Y-105.819
X174.739Y-108.495
X180.733Y-105.2
T5
X27.82Y-87.626
X30.142Y-68.718
X32.464Y-49.81
X37.905Y-88.864
X40.226Y-69.956
X42.548Y-51.048
X47.309Y-85.221
X49.63Y-66.313
X51.952Y-47.405
X57.393Y-86.459
X59.715Y-67.551
X61.532Y-106.16
X62.036Y-48.643
X66.797Y-82.815
X69.119Y-63.907
X71.44Y-44.999
X71.616Y-107.398
X76.882Y-84.053
X79.203Y-65.145
X81.525Y-46.237
X85.125Y-89.864
X87.446Y-70.956
X89.768Y-52.048
X92.257Y-109.933
X95.209Y-91.102
X97.531Y-72.194
X99.852Y-53.286
X102.342Y-111.171
X104.033Y-92.185
X106.354Y-73.277
X108.676Y-54.369
X114.117Y-93.424
X116.439Y-74.516
X118.76Y-55.608
X157.37Y-55.608
X159.691Y-74.516
X162.013Y-93.424
X167.454Y-54.369
X169.776Y-73.277
X172.097Y-92.185
X173.788Y-111.171
X176.278Y-53.286
X178.599Y-72.194
X180.921Y-91.102
X183.873Y-109.933
X186.362Y-52.048
X188.684Y-70.956
X191.005Y-89.864
X194.605Y-46.237
X196.927Y-65.145
X199.248Y-84.053
X204.514Y-107.398
X204.69Y-44.999
X207.011Y-63.907
X209.333Y-82.815
X214.094Y-48.643
X214.598Y-106.16
X216.415Y-67.551
X218.737Y-86.459
X224.178Y-47.405
X226.5Y-66.313
X228.821Y-85.221
X233.582Y-51.048
X235.904Y-69.956
X238.225Y-88.864
X243.666Y-49.81
X245.988Y-68.718
X248.31Y-87.626
T6
X43.547Y-39.25
X49.63Y-104.5
X115.0Y-41.631
X161.047Y-41.631
X226.5Y-104.5
X232.5Y-39.25
T7
X84.631Y-116.034
X108.266Y-118.936
X167.864Y-118.936
X191.499Y-116.034
T8
X32.863Y-88.245
X35.184Y-69.337
X37.506Y-50.429
X52.351Y-85.84
X54.673Y-66.932
X56.994Y-48.024
X66.574Y-106.779
X71.839Y-83.434
X74.161Y-64.526
X76.483Y-45.618
X86.488Y-100.907
X90.167Y-90.483
X92.489Y-71.575
X94.81Y-52.667
X97.299Y-110.552
X109.075Y-92.804
X110.123Y-103.809
X111.397Y-73.896
X113.718Y-54.988
X162.412Y-54.988
X164.733Y-73.896
X166.007Y-103.809
X167.055Y-92.804
X178.831Y-110.552
X181.32Y-52.667
X183.641Y-71.575
X185.963Y-90.483
X189.642Y-100.907
X199.647Y-45.618
X201.969Y-64.526
X204.291Y-83.434
X209.556Y-106.779
X219.136Y-48.024
X221.457Y-66.932
X223.779Y-85.84
X238.624Y-50.429
X240.946Y-69.337
X243.267Y-88.245
T0
M30
