G04 #@! TF.GenerationSoftware,KiCad,Pcbnew,(5.1.9)-1*
G04 #@! TF.CreationDate,2021-09-30T23:41:13-07:00*
G04 #@! TF.ProjectId,Claudia,436c6175-6469-4612-9e6b-696361645f70,rev?*
G04 #@! TF.SameCoordinates,Original*
G04 #@! TF.FileFunction,Copper,L2,Bot*
G04 #@! TF.FilePolarity,Positive*
%FSLAX46Y46*%
G04 Gerber Fmt 4.6, Leading zero omitted, Abs format (unit mm)*
G04 Created by KiCad (PCBNEW (5.1.9)-1) date 2021-09-30 23:41:13*
%MOMM*%
%LPD*%
G01*
G04 APERTURE LIST*
G04 #@! TA.AperFunction,ComponentPad*
%ADD10C,1.752600*%
G04 #@! TD*
G04 #@! TA.AperFunction,ComponentPad*
%ADD11R,1.752600X1.752600*%
G04 #@! TD*
G04 #@! TA.AperFunction,ComponentPad*
%ADD12C,2.250000*%
G04 #@! TD*
G04 #@! TA.AperFunction,ViaPad*
%ADD13C,0.800000*%
G04 #@! TD*
G04 #@! TA.AperFunction,Conductor*
%ADD14C,0.200000*%
G04 #@! TD*
G04 APERTURE END LIST*
D10*
X145643600Y-37820600D03*
X130403600Y-65760600D03*
X145643600Y-40360600D03*
X145643600Y-42900600D03*
X145643600Y-45440600D03*
X145643600Y-47980600D03*
X145643600Y-50520600D03*
X145643600Y-53060600D03*
X145643600Y-55600600D03*
X145643600Y-58140600D03*
X145643600Y-60680600D03*
X145643600Y-63220600D03*
X145643600Y-65760600D03*
X130403600Y-63220600D03*
X130403600Y-60680600D03*
X130403600Y-58140600D03*
X130403600Y-55600600D03*
X130403600Y-53060600D03*
X130403600Y-50520600D03*
X130403600Y-47980600D03*
X130403600Y-45440600D03*
X130403600Y-42900600D03*
X130403600Y-40360600D03*
D11*
X130403600Y-37820600D03*
D12*
X100439551Y-105819087D03*
X93827335Y-107566284D03*
X116858386Y-50255880D03*
X110246170Y-52003077D03*
X164313748Y-49636783D03*
X158320628Y-52931721D03*
X245169389Y-82893349D03*
X239176269Y-86188287D03*
X242847778Y-63985344D03*
X236854658Y-67280282D03*
X240526167Y-45077340D03*
X234533047Y-48372278D03*
X225680982Y-80487959D03*
X219687862Y-83782897D03*
X223359371Y-61579954D03*
X217366251Y-64874892D03*
X221037760Y-42671950D03*
X215044640Y-45966888D03*
X206192575Y-78082569D03*
X200199455Y-81377507D03*
X203870964Y-59174564D03*
X197877844Y-62469502D03*
X201549353Y-40266560D03*
X195556233Y-43561498D03*
X211457842Y-101427403D03*
X205464722Y-104722341D03*
X187864974Y-85131181D03*
X181871854Y-88426119D03*
X185543363Y-66223176D03*
X179550243Y-69518114D03*
X183221752Y-47315172D03*
X177228632Y-50610110D03*
X168956969Y-87452792D03*
X162963849Y-90747730D03*
X166635359Y-68544787D03*
X160642239Y-71839725D03*
X112215165Y-88071889D03*
X105602949Y-89819086D03*
X114536775Y-69163884D03*
X107924559Y-70911081D03*
X69714292Y-102046500D03*
X63102076Y-103793697D03*
X93307160Y-85750278D03*
X86694944Y-87497475D03*
X95628771Y-66842273D03*
X89016555Y-68589470D03*
X97950382Y-47934269D03*
X91338166Y-49681466D03*
X74979559Y-78701666D03*
X68367343Y-80448863D03*
X77301170Y-59793661D03*
X70688954Y-61540858D03*
X79622781Y-40885657D03*
X73010565Y-42632854D03*
X55491152Y-81107056D03*
X48878936Y-82854253D03*
X57812763Y-62199051D03*
X51200547Y-63946248D03*
X60134374Y-43291047D03*
X53522158Y-45038244D03*
X36002745Y-83512446D03*
X29390529Y-85259643D03*
X38324356Y-64604441D03*
X31712140Y-66351638D03*
X40645967Y-45696437D03*
X34033751Y-47443634D03*
X180732583Y-105199990D03*
X174739463Y-108494928D03*
D13*
X125552200Y-74091800D03*
X138099800Y-92430600D03*
X119557800Y-103682800D03*
X119862600Y-76784200D03*
X122199400Y-67437000D03*
X117449600Y-117703600D03*
X118643400Y-75844400D03*
X121818400Y-66116200D03*
X135382000Y-112687328D03*
X120421400Y-107492800D03*
X136207178Y-80518000D03*
X116052600Y-70916800D03*
X139792822Y-80518000D03*
X139725400Y-96520000D03*
X157226000Y-90932000D03*
X140741400Y-112687328D03*
X155600400Y-107467400D03*
D14*
X166635359Y-55817074D02*
X166635359Y-68544787D01*
X164313748Y-53495463D02*
X166635359Y-55817074D01*
X164313748Y-49636783D02*
X164313748Y-53495463D01*
X168956969Y-74725077D02*
X168956969Y-87452792D01*
X166635359Y-72403467D02*
X168956969Y-74725077D01*
X166635359Y-68544787D02*
X166635359Y-72403467D01*
X179141593Y-105199990D02*
X180732583Y-105199990D01*
X169348899Y-95407296D02*
X179141593Y-105199990D01*
X169348899Y-87844722D02*
X169348899Y-95407296D01*
X168956969Y-87452792D02*
X169348899Y-87844722D01*
X159506564Y-49636783D02*
X155270200Y-53873147D01*
X164313748Y-49636783D02*
X159506564Y-49636783D01*
X155270200Y-53873147D02*
X155270200Y-58089800D01*
X147599400Y-65760600D02*
X145643600Y-65760600D01*
X155270200Y-58089800D02*
X147599400Y-65760600D01*
X125552200Y-70612000D02*
X130403600Y-65760600D01*
X125552200Y-74091800D02*
X125552200Y-70612000D01*
X138099800Y-79418902D02*
X135700089Y-77019190D01*
X138099800Y-92430600D02*
X138099800Y-79418902D01*
X135700089Y-77019190D02*
X126117390Y-77019190D01*
X124852199Y-68772001D02*
X130403600Y-63220600D01*
X124852199Y-75753999D02*
X124852199Y-68772001D01*
X126117390Y-77019190D02*
X124852199Y-75753999D01*
X97950382Y-64520662D02*
X95628771Y-66842273D01*
X97950382Y-47934269D02*
X97950382Y-64520662D01*
X95628771Y-83428667D02*
X93307160Y-85750278D01*
X95628771Y-66842273D02*
X95628771Y-83428667D01*
X119557800Y-103682800D02*
X119557800Y-77089000D01*
X119557800Y-77089000D02*
X119862600Y-76784200D01*
X119862600Y-76784200D02*
X119862600Y-76784200D01*
X123647200Y-67437000D02*
X130403600Y-60680600D01*
X122199400Y-67437000D02*
X123647200Y-67437000D01*
X60134374Y-59877440D02*
X57812763Y-62199051D01*
X60134374Y-43291047D02*
X60134374Y-59877440D01*
X57812763Y-78785445D02*
X55491152Y-81107056D01*
X57812763Y-62199051D02*
X57812763Y-78785445D01*
X40645967Y-62282830D02*
X38324356Y-64604441D01*
X40645967Y-45696437D02*
X40645967Y-62282830D01*
X38324356Y-81190835D02*
X36002745Y-83512446D01*
X38324356Y-64604441D02*
X38324356Y-81190835D01*
X201941283Y-57244883D02*
X203870964Y-59174564D01*
X201941283Y-40658490D02*
X201941283Y-57244883D01*
X201549353Y-40266560D02*
X201941283Y-40658490D01*
X203870964Y-63033244D02*
X206192575Y-65354855D01*
X206192575Y-65354855D02*
X206192575Y-78082569D01*
X203870964Y-59174564D02*
X203870964Y-63033244D01*
X207317574Y-97287135D02*
X211457842Y-101427403D01*
X207317574Y-79207568D02*
X207317574Y-97287135D01*
X206192575Y-78082569D02*
X207317574Y-79207568D01*
X146329400Y-60680600D02*
X145643600Y-60680600D01*
X166743440Y-40266560D02*
X146329400Y-60680600D01*
X201549353Y-40266560D02*
X166743440Y-40266560D01*
X79622781Y-57472050D02*
X77301170Y-59793661D01*
X79622781Y-40885657D02*
X79622781Y-57472050D01*
X77301170Y-76380055D02*
X74979559Y-78701666D01*
X77301170Y-59793661D02*
X77301170Y-76380055D01*
X74979559Y-96781233D02*
X69714292Y-102046500D01*
X74979559Y-78701666D02*
X74979559Y-96781233D01*
X117449600Y-117703600D02*
X117449600Y-77038200D01*
X117449600Y-77038200D02*
X118643400Y-75844400D01*
X118643400Y-75844400D02*
X118643400Y-75844400D01*
X122428000Y-66116200D02*
X130403600Y-58140600D01*
X121818400Y-66116200D02*
X122428000Y-66116200D01*
X185543363Y-53495463D02*
X185543363Y-66223176D01*
X183221752Y-51173852D02*
X185543363Y-53495463D01*
X183221752Y-47315172D02*
X183221752Y-51173852D01*
X187864974Y-72403467D02*
X187864974Y-85131181D01*
X185543363Y-70081856D02*
X187864974Y-72403467D01*
X185543363Y-66223176D02*
X185543363Y-70081856D01*
X145643600Y-62934049D02*
X145643600Y-63220600D01*
X161262477Y-47315172D02*
X145643600Y-62934049D01*
X183221752Y-47315172D02*
X161262477Y-47315172D01*
X241722779Y-46273952D02*
X240526167Y-45077340D01*
X241722779Y-62860345D02*
X241722779Y-46273952D01*
X242847778Y-63985344D02*
X241722779Y-62860345D01*
X244044390Y-65181956D02*
X242847778Y-63985344D01*
X244044390Y-81768350D02*
X244044390Y-65181956D01*
X245169389Y-82893349D02*
X244044390Y-81768350D01*
X116858386Y-66842273D02*
X114536775Y-69163884D01*
X116858386Y-50255880D02*
X116858386Y-66842273D01*
X114536775Y-85750279D02*
X112215165Y-88071889D01*
X114536775Y-69163884D02*
X114536775Y-85750279D01*
X112215165Y-94043473D02*
X100439551Y-105819087D01*
X112215165Y-88071889D02*
X112215165Y-94043473D01*
X222162759Y-60383342D02*
X223359371Y-61579954D01*
X222162759Y-43796949D02*
X222162759Y-60383342D01*
X221037760Y-42671950D02*
X222162759Y-43796949D01*
X224484370Y-79291347D02*
X225680982Y-80487959D01*
X224484370Y-62704953D02*
X224484370Y-79291347D01*
X223359371Y-61579954D02*
X224484370Y-62704953D01*
X135382000Y-112687328D02*
X135382000Y-110109000D01*
X135382000Y-110109000D02*
X132765800Y-107492800D01*
X132765800Y-107492800D02*
X120421400Y-107492800D01*
X120421400Y-107492800D02*
X120421400Y-107492800D01*
X120421400Y-107492800D02*
X120421400Y-107492800D01*
X136207178Y-80518000D02*
X136207178Y-78091978D01*
X136207178Y-78091978D02*
X135534400Y-77419200D01*
X135534400Y-77419200D02*
X123266200Y-77419200D01*
X123266200Y-77419200D02*
X116763800Y-70916800D01*
X116763800Y-70916800D02*
X116052600Y-70916800D01*
X116052600Y-70916800D02*
X116052600Y-70916800D01*
X139792822Y-80518000D02*
X139792822Y-78113778D01*
X139792822Y-78113778D02*
X140360400Y-77546200D01*
X154935764Y-77546200D02*
X160642239Y-71839725D01*
X140360400Y-77546200D02*
X154935764Y-77546200D01*
X139725400Y-96520000D02*
X139725400Y-94488000D01*
X139725400Y-94488000D02*
X141732000Y-92481400D01*
X141732000Y-92481400D02*
X155676600Y-92481400D01*
X155676600Y-92481400D02*
X157226000Y-90932000D01*
X157226000Y-90932000D02*
X157226000Y-90932000D01*
X140741400Y-112687328D02*
X140741400Y-110159800D01*
X140741400Y-110159800D02*
X143433800Y-107467400D01*
X143433800Y-107467400D02*
X155600400Y-107467400D01*
X155600400Y-107467400D02*
X155600400Y-107467400D01*
M02*
