G04 #@! TF.GenerationSoftware,KiCad,Pcbnew,(5.1.9)-1*
G04 #@! TF.CreationDate,2021-09-30T23:41:13-07:00*
G04 #@! TF.ProjectId,Claudia,436c6175-6469-4612-9e6b-696361645f70,rev?*
G04 #@! TF.SameCoordinates,Original*
G04 #@! TF.FileFunction,Soldermask,Bot*
G04 #@! TF.FilePolarity,Negative*
%FSLAX46Y46*%
G04 Gerber Fmt 4.6, Leading zero omitted, Abs format (unit mm)*
G04 Created by KiCad (PCBNEW (5.1.9)-1) date 2021-09-30 23:41:13*
%MOMM*%
%LPD*%
G01*
G04 APERTURE LIST*
%ADD10C,2.200000*%
%ADD11C,1.752600*%
%ADD12R,1.752600X1.752600*%
%ADD13C,2.250000*%
%ADD14C,3.987800*%
%ADD15C,1.750000*%
%ADD16C,3.048000*%
G04 APERTURE END LIST*
D10*
X43547200Y-39250000D03*
X226499534Y-104500000D03*
X49630466Y-104500000D03*
X115000000Y-41630600D03*
X161047200Y-41630600D03*
X232500000Y-39250000D03*
D11*
X145643600Y-37820600D03*
X130403600Y-65760600D03*
X145643600Y-40360600D03*
X145643600Y-42900600D03*
X145643600Y-45440600D03*
X145643600Y-47980600D03*
X145643600Y-50520600D03*
X145643600Y-53060600D03*
X145643600Y-55600600D03*
X145643600Y-58140600D03*
X145643600Y-60680600D03*
X145643600Y-63220600D03*
X145643600Y-65760600D03*
X130403600Y-63220600D03*
X130403600Y-60680600D03*
X130403600Y-58140600D03*
X130403600Y-55600600D03*
X130403600Y-53060600D03*
X130403600Y-50520600D03*
X130403600Y-47980600D03*
X130403600Y-45440600D03*
X130403600Y-42900600D03*
X130403600Y-40360600D03*
D12*
X130403600Y-37820600D03*
D13*
X100439551Y-105819087D03*
D14*
X97299388Y-110551673D03*
D13*
X93827335Y-107566284D03*
D15*
X92257254Y-109932577D03*
X102341522Y-111170769D03*
D16*
X84630628Y-116033601D03*
X108265633Y-118935615D03*
D14*
X86487917Y-100907198D03*
X110122922Y-103809211D03*
D13*
X116858386Y-50255880D03*
D14*
X113718223Y-54988466D03*
D13*
X110246170Y-52003077D03*
D15*
X108676089Y-54369370D03*
X118760357Y-55607562D03*
D13*
X164313748Y-49636783D03*
D14*
X162411777Y-54988466D03*
D13*
X158320628Y-52931721D03*
D15*
X157369643Y-55607562D03*
X167453911Y-54369370D03*
D13*
X245169389Y-82893349D03*
D14*
X243267418Y-88245032D03*
D13*
X239176269Y-86188287D03*
D15*
X238225284Y-88864128D03*
X248309552Y-87625936D03*
D13*
X242847778Y-63985344D03*
D14*
X240945807Y-69337027D03*
D13*
X236854658Y-67280282D03*
D15*
X235903673Y-69956123D03*
X245987941Y-68717931D03*
D13*
X240526167Y-45077340D03*
D14*
X238624196Y-50429023D03*
D13*
X234533047Y-48372278D03*
D15*
X233582062Y-51048119D03*
X243666330Y-49809927D03*
D13*
X225680982Y-80487959D03*
D14*
X223779011Y-85839642D03*
D13*
X219687862Y-83782897D03*
D15*
X218736877Y-86458738D03*
X228821145Y-85220546D03*
D13*
X223359371Y-61579954D03*
D14*
X221457400Y-66931637D03*
D13*
X217366251Y-64874892D03*
D15*
X216415266Y-67550733D03*
X226499534Y-66312541D03*
D13*
X221037760Y-42671950D03*
D14*
X219135789Y-48023633D03*
D13*
X215044640Y-45966888D03*
D15*
X214093655Y-48642729D03*
X224177923Y-47404537D03*
D13*
X206192575Y-78082569D03*
D14*
X204290604Y-83434252D03*
D13*
X200199455Y-81377507D03*
D15*
X199248470Y-84053348D03*
X209332738Y-82815156D03*
D13*
X203870964Y-59174564D03*
D14*
X201968993Y-64526247D03*
D13*
X197877844Y-62469502D03*
D15*
X196926859Y-65145343D03*
X207011127Y-63907151D03*
D13*
X201549353Y-40266560D03*
D14*
X199647382Y-45618243D03*
D13*
X195556233Y-43561498D03*
D15*
X194605248Y-46237339D03*
X204689516Y-44999147D03*
D13*
X211457842Y-101427403D03*
D14*
X209555871Y-106779086D03*
D13*
X205464722Y-104722341D03*
D15*
X204513737Y-107398182D03*
X214598005Y-106159990D03*
D13*
X187864974Y-85131181D03*
D14*
X185963003Y-90482864D03*
D13*
X181871854Y-88426119D03*
D15*
X180920869Y-91101960D03*
X191005137Y-89863768D03*
D13*
X185543363Y-66223176D03*
D14*
X183641392Y-71574859D03*
D13*
X179550243Y-69518114D03*
D15*
X178599258Y-72193955D03*
X188683526Y-70955763D03*
D13*
X183221752Y-47315172D03*
D14*
X181319781Y-52666855D03*
D13*
X177228632Y-50610110D03*
D15*
X176277647Y-53285951D03*
X186361915Y-52047759D03*
D13*
X168956969Y-87452792D03*
D14*
X167054998Y-92804475D03*
D13*
X162963849Y-90747730D03*
D15*
X162012864Y-93423571D03*
X172097132Y-92185379D03*
D13*
X166635359Y-68544787D03*
D14*
X164733388Y-73896470D03*
D13*
X160642239Y-71839725D03*
D15*
X159691254Y-74515566D03*
X169775522Y-73277374D03*
D13*
X112215165Y-88071889D03*
D14*
X109075002Y-92804475D03*
D13*
X105602949Y-89819086D03*
D15*
X104032868Y-92185379D03*
X114117136Y-93423571D03*
D13*
X114536775Y-69163884D03*
D14*
X111396612Y-73896470D03*
D13*
X107924559Y-70911081D03*
D15*
X106354478Y-73277374D03*
X116438746Y-74515566D03*
D13*
X69714292Y-102046500D03*
D14*
X66574129Y-106779086D03*
D13*
X63102076Y-103793697D03*
D15*
X61531995Y-106159990D03*
X71616263Y-107398182D03*
D13*
X93307160Y-85750278D03*
D14*
X90166997Y-90482864D03*
D13*
X86694944Y-87497475D03*
D15*
X85124863Y-89863768D03*
X95209131Y-91101960D03*
D13*
X95628771Y-66842273D03*
D14*
X92488608Y-71574859D03*
D13*
X89016555Y-68589470D03*
D15*
X87446474Y-70955763D03*
X97530742Y-72193955D03*
D13*
X97950382Y-47934269D03*
D14*
X94810219Y-52666855D03*
D13*
X91338166Y-49681466D03*
D15*
X89768085Y-52047759D03*
X99852353Y-53285951D03*
D13*
X74979559Y-78701666D03*
D14*
X71839396Y-83434252D03*
D13*
X68367343Y-80448863D03*
D15*
X66797262Y-82815156D03*
X76881530Y-84053348D03*
D13*
X77301170Y-59793661D03*
D14*
X74161007Y-64526247D03*
D13*
X70688954Y-61540858D03*
D15*
X69118873Y-63907151D03*
X79203141Y-65145343D03*
D13*
X79622781Y-40885657D03*
D14*
X76482618Y-45618243D03*
D13*
X73010565Y-42632854D03*
D15*
X71440484Y-44999147D03*
X81524752Y-46237339D03*
D13*
X55491152Y-81107056D03*
D14*
X52350989Y-85839642D03*
D13*
X48878936Y-82854253D03*
D15*
X47308855Y-85220546D03*
X57393123Y-86458738D03*
D13*
X57812763Y-62199051D03*
D14*
X54672600Y-66931637D03*
D13*
X51200547Y-63946248D03*
D15*
X49630466Y-66312541D03*
X59714734Y-67550733D03*
D13*
X60134374Y-43291047D03*
D14*
X56994211Y-48023633D03*
D13*
X53522158Y-45038244D03*
D15*
X51952077Y-47404537D03*
X62036345Y-48642729D03*
D13*
X36002745Y-83512446D03*
D14*
X32862582Y-88245032D03*
D13*
X29390529Y-85259643D03*
D15*
X27820448Y-87625936D03*
X37904716Y-88864128D03*
D13*
X38324356Y-64604441D03*
D14*
X35184193Y-69337027D03*
D13*
X31712140Y-66351638D03*
D15*
X30142059Y-68717931D03*
X40226327Y-69956123D03*
D13*
X40645967Y-45696437D03*
D14*
X37505804Y-50429023D03*
D13*
X34033751Y-47443634D03*
D15*
X32463670Y-49809927D03*
X42547938Y-51048119D03*
D13*
X180732583Y-105199990D03*
D14*
X178830612Y-110551673D03*
D13*
X174739463Y-108494928D03*
D15*
X173788478Y-111170769D03*
X183872746Y-109932577D03*
D16*
X167864367Y-118935615D03*
X191499372Y-116033601D03*
D14*
X166007078Y-103809211D03*
X189642083Y-100907198D03*
M02*
