G04 #@! TF.GenerationSoftware,KiCad,Pcbnew,(5.1.9)-1*
G04 #@! TF.CreationDate,2021-11-23T16:25:02-08:00*
G04 #@! TF.ProjectId,Claudia_choc,436c6175-6469-4615-9f63-686f632e6b69,rev?*
G04 #@! TF.SameCoordinates,Original*
G04 #@! TF.FileFunction,Copper,L2,Bot*
G04 #@! TF.FilePolarity,Positive*
%FSLAX46Y46*%
G04 Gerber Fmt 4.6, Leading zero omitted, Abs format (unit mm)*
G04 Created by KiCad (PCBNEW (5.1.9)-1) date 2021-11-23 16:25:02*
%MOMM*%
%LPD*%
G01*
G04 APERTURE LIST*
G04 #@! TA.AperFunction,ComponentPad*
%ADD10C,2.000000*%
G04 #@! TD*
G04 #@! TA.AperFunction,ComponentPad*
%ADD11C,1.752600*%
G04 #@! TD*
G04 #@! TA.AperFunction,ComponentPad*
%ADD12R,1.752600X1.752600*%
G04 #@! TD*
G04 #@! TA.AperFunction,ViaPad*
%ADD13C,0.800000*%
G04 #@! TD*
G04 #@! TA.AperFunction,Conductor*
%ADD14C,0.200000*%
G04 #@! TD*
G04 APERTURE END LIST*
D10*
X32079970Y-53591352D03*
X36786775Y-56285045D03*
X174330985Y-114932695D03*
X179549641Y-116407695D03*
X29758359Y-72499356D03*
X34465164Y-75193049D03*
X27436748Y-91407361D03*
X32143553Y-94101054D03*
X51568377Y-51185962D03*
X56275182Y-53879655D03*
X49246766Y-70093966D03*
X53953571Y-72787659D03*
X46925155Y-89001971D03*
X51631960Y-91695664D03*
X71056784Y-48780572D03*
X75763589Y-51474265D03*
X68735173Y-67688576D03*
X73441978Y-70382269D03*
X66413562Y-86596581D03*
X71120367Y-89290274D03*
X89384385Y-55829184D03*
X94091190Y-58522877D03*
X87062774Y-74737188D03*
X91769579Y-77430881D03*
X84741163Y-93645193D03*
X89447968Y-96338886D03*
X61148295Y-109941415D03*
X65855100Y-112635108D03*
X103649168Y-95966804D03*
X108355973Y-98660497D03*
X160233761Y-78277492D03*
X165452417Y-79752492D03*
X162555371Y-97185497D03*
X167774027Y-98660497D03*
X179141765Y-75955881D03*
X184360421Y-77430881D03*
X181463376Y-94863886D03*
X186682032Y-96338886D03*
X205056244Y-111160108D03*
X210274900Y-112635108D03*
X195147755Y-49999265D03*
X200366411Y-51474265D03*
X197469366Y-68907269D03*
X202688022Y-70382269D03*
X199790977Y-87815274D03*
X205009633Y-89290274D03*
X214636162Y-52404655D03*
X219854818Y-53879655D03*
X216957773Y-71312659D03*
X222176429Y-72787659D03*
X219279384Y-90220664D03*
X224498040Y-91695664D03*
X234124569Y-54810045D03*
X239343225Y-56285045D03*
X238767791Y-92626054D03*
X243986447Y-94101054D03*
X108292389Y-58150795D03*
X112999194Y-60844488D03*
X105970778Y-77058799D03*
X110677583Y-79752492D03*
X236446180Y-73718049D03*
X241664836Y-75193049D03*
X176820154Y-57047877D03*
X182038810Y-58522877D03*
X157912150Y-59369488D03*
X163130806Y-60844488D03*
X91873554Y-113714002D03*
X96580359Y-116407695D03*
D11*
X145643600Y-37820600D03*
X130403600Y-65760600D03*
X145643600Y-40360600D03*
X145643600Y-42900600D03*
X145643600Y-45440600D03*
X145643600Y-47980600D03*
X145643600Y-50520600D03*
X145643600Y-53060600D03*
X145643600Y-55600600D03*
X145643600Y-58140600D03*
X145643600Y-60680600D03*
X145643600Y-63220600D03*
X145643600Y-65760600D03*
X130403600Y-63220600D03*
X130403600Y-60680600D03*
X130403600Y-58140600D03*
X130403600Y-55600600D03*
X130403600Y-53060600D03*
X130403600Y-50520600D03*
X130403600Y-47980600D03*
X130403600Y-45440600D03*
X130403600Y-42900600D03*
X130403600Y-40360600D03*
D12*
X130403600Y-37820600D03*
D13*
X125552200Y-74091800D03*
X138099800Y-92430600D03*
X97950382Y-47934269D03*
X119557800Y-103682800D03*
X60134374Y-43291047D03*
X42729161Y-43613243D03*
X79622781Y-40885657D03*
X116858386Y-50255880D03*
X135382000Y-112687328D03*
X120421400Y-107492800D03*
X139792822Y-80518000D03*
X119430800Y-117703600D03*
X154935764Y-77546200D03*
X139725400Y-96520000D03*
X157226000Y-90932000D03*
X140741400Y-112687328D03*
X155600400Y-107467400D03*
D14*
X125552200Y-70612000D02*
X130403600Y-65760600D01*
X125552200Y-74091800D02*
X125552200Y-70612000D01*
X87062774Y-91323582D02*
X87062774Y-74737188D01*
X84741163Y-93645193D02*
X87062774Y-91323582D01*
X89384385Y-72415577D02*
X89384385Y-55829184D01*
X87062774Y-74737188D02*
X89384385Y-72415577D01*
X96582803Y-47934269D02*
X89384385Y-55132687D01*
X89384385Y-55132687D02*
X89384385Y-55829184D01*
X97950382Y-47934269D02*
X96582803Y-47934269D01*
X48041986Y-71298746D02*
X49246766Y-70093966D01*
X48041986Y-87885140D02*
X48041986Y-71298746D01*
X46925155Y-89001971D02*
X48041986Y-87885140D01*
X51568377Y-67772355D02*
X51568377Y-51185962D01*
X49246766Y-70093966D02*
X51568377Y-67772355D01*
X60134374Y-43291047D02*
X57857821Y-45567600D01*
X51568377Y-50489465D02*
X51568377Y-51185962D01*
X56490242Y-45567600D02*
X51568377Y-50489465D01*
X57857821Y-45567600D02*
X56490242Y-45567600D01*
X28553579Y-73704136D02*
X29758359Y-72499356D01*
X28553579Y-90290530D02*
X28553579Y-73704136D01*
X27436748Y-91407361D02*
X28553579Y-90290530D01*
X32079970Y-70177745D02*
X32079970Y-53591352D01*
X29758359Y-72499356D02*
X32079970Y-70177745D01*
X40643866Y-43613243D02*
X42729161Y-43613243D01*
X32079970Y-52177139D02*
X40643866Y-43613243D01*
X32079970Y-53591352D02*
X32079970Y-52177139D01*
X68735173Y-84274970D02*
X68735173Y-67688576D01*
X66413562Y-86596581D02*
X68735173Y-84274970D01*
X71056784Y-65366965D02*
X71056784Y-48780572D01*
X68735173Y-67688576D02*
X71056784Y-65366965D01*
X77537486Y-40885657D02*
X79622781Y-40885657D01*
X71056784Y-47366359D02*
X77537486Y-40885657D01*
X71056784Y-48780572D02*
X71056784Y-47366359D01*
X62265126Y-90745017D02*
X66413562Y-86596581D01*
X62265126Y-108824584D02*
X62265126Y-90745017D01*
X61148295Y-109941415D02*
X62265126Y-108824584D01*
X92990385Y-106625587D02*
X103649168Y-95966804D01*
X92990385Y-112597171D02*
X92990385Y-106625587D01*
X91873554Y-113714002D02*
X92990385Y-112597171D01*
X105970778Y-91481416D02*
X105970778Y-77058799D01*
X103649168Y-93803026D02*
X105970778Y-91481416D01*
X103649168Y-95966804D02*
X103649168Y-93803026D01*
X108292389Y-74737188D02*
X108292389Y-58150795D01*
X105970778Y-77058799D02*
X108292389Y-74737188D01*
X108292389Y-57454298D02*
X108292389Y-58150795D01*
X115490807Y-50255880D02*
X108292389Y-57454298D01*
X116858386Y-50255880D02*
X115490807Y-50255880D01*
X135382000Y-112687328D02*
X135382000Y-110109000D01*
X135382000Y-110109000D02*
X132765800Y-107492800D01*
X132765800Y-107492800D02*
X120421400Y-107492800D01*
X120421400Y-107492800D02*
X120421400Y-107492800D01*
X120421400Y-107492800D02*
X120421400Y-107492800D01*
X120421400Y-107492800D02*
X120421400Y-107492800D01*
X139792822Y-80518000D02*
X139792822Y-78113778D01*
X139792822Y-78113778D02*
X140360400Y-77546200D01*
X140360400Y-77546200D02*
X154935764Y-77546200D01*
X174330985Y-114932695D02*
X162509200Y-103110910D01*
X162509200Y-97231668D02*
X162555371Y-97185497D01*
X162509200Y-103110910D02*
X162509200Y-97231668D01*
X162555371Y-97185497D02*
X162745995Y-96994873D01*
X152034712Y-59369488D02*
X145643600Y-65760600D01*
X157912150Y-59369488D02*
X152034712Y-59369488D01*
X157912150Y-75955881D02*
X160233761Y-78277492D01*
X157912150Y-59369488D02*
X157912150Y-75955881D01*
X160233761Y-94863887D02*
X162555371Y-97185497D01*
X160233761Y-78277492D02*
X160233761Y-94863887D01*
X124434600Y-75336400D02*
X124434600Y-69189600D01*
X126117390Y-77019190D02*
X124434600Y-75336400D01*
X135700089Y-77019190D02*
X126117390Y-77019190D01*
X124434600Y-69189600D02*
X130403600Y-63220600D01*
X138099800Y-79418902D02*
X135700089Y-77019190D01*
X138099800Y-92430600D02*
X138099800Y-79418902D01*
X119557800Y-71526400D02*
X123799600Y-67284600D01*
X119557800Y-103682800D02*
X119557800Y-71526400D01*
X123799600Y-67284600D02*
X130403600Y-60680600D01*
X123647200Y-67437000D02*
X123799600Y-67284600D01*
X199790977Y-105894841D02*
X205056244Y-111160108D01*
X199790977Y-87815274D02*
X199790977Y-105894841D01*
X197469366Y-85493663D02*
X199790977Y-87815274D01*
X197469366Y-68907269D02*
X197469366Y-85493663D01*
X195147755Y-66585658D02*
X197469366Y-68907269D01*
X195147755Y-49999265D02*
X195147755Y-66585658D01*
X145643600Y-59881526D02*
X145643600Y-60680600D01*
X155525861Y-49999265D02*
X145643600Y-59881526D01*
X195147755Y-49999265D02*
X155525861Y-49999265D01*
X118694200Y-69850000D02*
X122783600Y-65760600D01*
X118694200Y-116967000D02*
X118694200Y-69850000D01*
X119430800Y-117703600D02*
X118694200Y-116967000D01*
X122783600Y-65760600D02*
X130403600Y-58140600D01*
X122428000Y-66116200D02*
X122783600Y-65760600D01*
X176820154Y-73634270D02*
X179141765Y-75955881D01*
X176820154Y-57047877D02*
X176820154Y-73634270D01*
X179141765Y-92542275D02*
X181463376Y-94863886D01*
X179141765Y-75955881D02*
X179141765Y-92542275D01*
X151816323Y-57047877D02*
X145643600Y-63220600D01*
X176820154Y-57047877D02*
X151816323Y-57047877D01*
X234124569Y-71396438D02*
X236446180Y-73718049D01*
X234124569Y-54810045D02*
X234124569Y-71396438D01*
X236446180Y-90304443D02*
X238767791Y-92626054D01*
X236446180Y-73718049D02*
X236446180Y-90304443D01*
X214636162Y-68991048D02*
X216957773Y-71312659D01*
X214636162Y-52404655D02*
X214636162Y-68991048D01*
X219279384Y-89171302D02*
X219279384Y-90220664D01*
X216957773Y-86849691D02*
X219279384Y-89171302D01*
X216957773Y-71312659D02*
X216957773Y-86849691D01*
X154935764Y-77546200D02*
X154935764Y-77546200D01*
X139725400Y-96520000D02*
X139725400Y-94488000D01*
X139725400Y-94488000D02*
X141732000Y-92481400D01*
X141732000Y-92481400D02*
X155676600Y-92481400D01*
X155676600Y-92481400D02*
X157226000Y-90932000D01*
X157226000Y-90932000D02*
X157226000Y-90932000D01*
X157226000Y-90932000D02*
X157226000Y-90932000D01*
X140741400Y-112687328D02*
X140741400Y-110159800D01*
X140741400Y-110159800D02*
X143433800Y-107467400D01*
X143433800Y-107467400D02*
X155600400Y-107467400D01*
X155600400Y-107467400D02*
X155600400Y-107467400D01*
X155600400Y-107467400D02*
X155600400Y-107467400D01*
M02*
