M48
; DRILL file {KiCad (5.1.9)-1} date 11/23/21 16:25:21
; FORMAT={-:-/ absolute / metric / decimal}
; #@! TF.CreationDate,2021-11-23T16:25:21-08:00
; #@! TF.GenerationSoftware,Kicad,Pcbnew,(5.1.9)-1
FMAT,2
METRIC
T1C0.400
T2C1.092
T3C1.200
T4C1.700
T5C2.200
T6C3.400
%
G90
G05
T1
X42.729Y-43.613
X60.134Y-43.291
X79.623Y-40.886
X97.95Y-47.934
X116.858Y-50.256
X119.431Y-117.704
X119.558Y-103.683
X120.421Y-107.493
X125.552Y-74.092
X135.382Y-112.687
X138.1Y-92.431
X139.725Y-96.52
X139.793Y-80.518
X140.741Y-112.687
X154.936Y-77.546
X155.6Y-107.467
X157.226Y-90.932
T2
X130.404Y-37.821
X130.404Y-40.361
X130.404Y-42.901
X130.404Y-45.441
X130.404Y-47.981
X130.404Y-50.521
X130.404Y-53.061
X130.404Y-55.601
X130.404Y-58.141
X130.404Y-60.681
X130.404Y-63.221
X130.404Y-65.761
X145.644Y-37.821
X145.644Y-40.361
X145.644Y-42.901
X145.644Y-45.441
X145.644Y-47.981
X145.644Y-50.521
X145.644Y-53.061
X145.644Y-55.601
X145.644Y-58.141
X145.644Y-60.681
X145.644Y-63.221
X145.644Y-65.761
T3
X27.437Y-91.407
X29.758Y-72.499
X32.08Y-53.591
X32.144Y-94.101
X34.465Y-75.193
X36.787Y-56.285
X46.925Y-89.002
X49.247Y-70.094
X51.568Y-51.186
X51.632Y-91.696
X53.954Y-72.788
X56.275Y-53.88
X61.148Y-109.941
X65.855Y-112.635
X66.414Y-86.597
X68.735Y-67.689
X71.057Y-48.781
X71.12Y-89.29
X73.442Y-70.382
X75.764Y-51.474
X84.741Y-93.645
X87.063Y-74.737
X89.384Y-55.829
X89.448Y-96.339
X91.77Y-77.431
X91.874Y-113.714
X94.091Y-58.523
X96.58Y-116.408
X103.649Y-95.967
X105.971Y-77.059
X108.292Y-58.151
X108.356Y-98.66
X110.678Y-79.752
X112.999Y-60.844
X157.912Y-59.369
X160.234Y-78.277
X162.555Y-97.185
X163.131Y-60.844
X165.452Y-79.752
X167.774Y-98.66
X174.331Y-114.933
X176.82Y-57.048
X179.142Y-75.956
X179.55Y-116.408
X181.463Y-94.864
X182.039Y-58.523
X184.36Y-77.431
X186.682Y-96.339
X195.148Y-49.999
X197.469Y-68.907
X199.791Y-87.815
X200.366Y-51.474
X202.688Y-70.382
X205.01Y-89.29
X205.056Y-111.16
X210.275Y-112.635
X214.636Y-52.405
X216.958Y-71.313
X219.279Y-90.221
X219.855Y-53.88
X222.176Y-72.788
X224.498Y-91.696
X234.125Y-54.81
X236.446Y-73.718
X238.768Y-92.626
X239.343Y-56.285
X241.665Y-75.193
X243.986Y-94.101
T4
X27.404Y-87.575
X29.725Y-68.667
X32.047Y-49.759
X38.322Y-88.915
X40.643Y-70.007
X42.965Y-51.099
X46.892Y-85.169
X49.214Y-66.261
X51.535Y-47.353
X57.81Y-86.51
X60.132Y-67.602
X61.115Y-106.109
X62.453Y-48.694
X66.38Y-82.764
X68.702Y-63.856
X71.024Y-44.948
X72.033Y-107.449
X77.298Y-84.105
X79.62Y-65.197
X81.942Y-46.289
X84.708Y-89.813
X87.03Y-70.905
X89.351Y-51.997
X91.84Y-109.881
X95.626Y-91.153
X97.948Y-72.245
X100.269Y-53.337
X102.758Y-111.222
X103.616Y-92.134
X105.938Y-73.226
X108.259Y-54.318
X114.534Y-93.475
X116.856Y-74.567
X119.177Y-55.659
X156.953Y-55.659
X159.274Y-74.567
X161.596Y-93.475
X167.871Y-54.318
X170.192Y-73.226
X172.514Y-92.134
X173.372Y-111.222
X175.861Y-53.337
X178.182Y-72.245
X180.504Y-91.153
X184.29Y-109.881
X186.779Y-51.997
X189.1Y-70.905
X191.422Y-89.813
X194.188Y-46.289
X196.51Y-65.197
X198.832Y-84.105
X204.097Y-107.449
X205.106Y-44.948
X207.428Y-63.856
X209.75Y-82.764
X213.677Y-48.694
X215.015Y-106.109
X215.998Y-67.602
X218.32Y-86.51
X224.595Y-47.353
X226.916Y-66.261
X229.238Y-85.169
X233.165Y-51.099
X235.487Y-70.007
X237.808Y-88.915
X244.083Y-49.759
X246.405Y-68.667
X248.726Y-87.575
T5
X43.547Y-39.25
X49.63Y-104.5
X115.0Y-41.631
X161.047Y-41.631
X226.5Y-104.5
X232.5Y-39.25
T6
X32.863Y-88.245
X35.184Y-69.337
X37.506Y-50.429
X52.351Y-85.84
X54.673Y-66.932
X56.994Y-48.024
X66.574Y-106.779
X71.839Y-83.434
X74.161Y-64.526
X76.483Y-45.618
X90.167Y-90.483
X92.489Y-71.575
X94.81Y-52.667
X97.299Y-110.552
X109.075Y-92.804
X111.397Y-73.896
X113.718Y-54.988
X162.412Y-54.988
X164.733Y-73.896
X167.055Y-92.804
X178.831Y-110.552
X181.32Y-52.667
X183.641Y-71.575
X185.963Y-90.483
X199.647Y-45.618
X201.969Y-64.526
X204.291Y-83.434
X209.556Y-106.779
X219.136Y-48.024
X221.457Y-66.932
X223.779Y-85.84
X238.624Y-50.429
X240.946Y-69.337
X243.267Y-88.245
T0
M30
