G04 #@! TF.GenerationSoftware,KiCad,Pcbnew,(5.1.9)-1*
G04 #@! TF.CreationDate,2021-11-23T16:25:02-08:00*
G04 #@! TF.ProjectId,Claudia_choc,436c6175-6469-4615-9f63-686f632e6b69,rev?*
G04 #@! TF.SameCoordinates,Original*
G04 #@! TF.FileFunction,Paste,Top*
G04 #@! TF.FilePolarity,Positive*
%FSLAX46Y46*%
G04 Gerber Fmt 4.6, Leading zero omitted, Abs format (unit mm)*
G04 Created by KiCad (PCBNEW (5.1.9)-1) date 2021-11-23 16:25:02*
%MOMM*%
%LPD*%
G01*
G04 APERTURE LIST*
%ADD10C,0.100000*%
G04 APERTURE END LIST*
D10*
G36*
X154414483Y-113368164D02*
G01*
X153024918Y-113197547D01*
X153171161Y-112006492D01*
X154560726Y-112177109D01*
X154414483Y-113368164D01*
G37*
G36*
X154828839Y-109993508D02*
G01*
X153439274Y-109822891D01*
X153585517Y-108631836D01*
X154975082Y-108802453D01*
X154828839Y-109993508D01*
G37*
G36*
X152414483Y-98368164D02*
G01*
X151024918Y-98197547D01*
X151171161Y-97006492D01*
X152560726Y-97177109D01*
X152414483Y-98368164D01*
G37*
G36*
X152828839Y-94993508D02*
G01*
X151439274Y-94822891D01*
X151585517Y-93631836D01*
X152975082Y-93802453D01*
X152828839Y-94993508D01*
G37*
G36*
X146414483Y-83368164D02*
G01*
X145024918Y-83197547D01*
X145171161Y-82006492D01*
X146560726Y-82177109D01*
X146414483Y-83368164D01*
G37*
G36*
X146828839Y-79993508D02*
G01*
X145439274Y-79822891D01*
X145585517Y-78631836D01*
X146975082Y-78802453D01*
X146828839Y-79993508D01*
G37*
G36*
X148414483Y-113368164D02*
G01*
X147024918Y-113197547D01*
X147171161Y-112006492D01*
X148560726Y-112177109D01*
X148414483Y-113368164D01*
G37*
G36*
X148828839Y-109993508D02*
G01*
X147439274Y-109822891D01*
X147585517Y-108631836D01*
X148975082Y-108802453D01*
X148828839Y-109993508D01*
G37*
G36*
X147414483Y-98368164D02*
G01*
X146024918Y-98197547D01*
X146171161Y-97006492D01*
X147560726Y-97177109D01*
X147414483Y-98368164D01*
G37*
G36*
X147828839Y-94993508D02*
G01*
X146439274Y-94822891D01*
X146585517Y-93631836D01*
X147975082Y-93802453D01*
X147828839Y-94993508D01*
G37*
G36*
X150414483Y-83368164D02*
G01*
X149024918Y-83197547D01*
X149171161Y-82006492D01*
X150560726Y-82177109D01*
X150414483Y-83368164D01*
G37*
G36*
X150828839Y-79993508D02*
G01*
X149439274Y-79822891D01*
X149585517Y-78631836D01*
X150975082Y-78802453D01*
X150828839Y-79993508D01*
G37*
G36*
X151024918Y-101802453D02*
G01*
X152414483Y-101631836D01*
X152560726Y-102822891D01*
X151171161Y-102993508D01*
X151024918Y-101802453D01*
G37*
G36*
X151439274Y-105177109D02*
G01*
X152828839Y-105006492D01*
X152975082Y-106197547D01*
X151585517Y-106368164D01*
X151439274Y-105177109D01*
G37*
G36*
X149024918Y-86802453D02*
G01*
X150414483Y-86631836D01*
X150560726Y-87822891D01*
X149171161Y-87993508D01*
X149024918Y-86802453D01*
G37*
G36*
X149439274Y-90177109D02*
G01*
X150828839Y-90006492D01*
X150975082Y-91197547D01*
X149585517Y-91368164D01*
X149439274Y-90177109D01*
G37*
G36*
X147024918Y-71802453D02*
G01*
X148414483Y-71631836D01*
X148560726Y-72822891D01*
X147171161Y-72993508D01*
X147024918Y-71802453D01*
G37*
G36*
X147439274Y-75177109D02*
G01*
X148828839Y-75006492D01*
X148975082Y-76197547D01*
X147585517Y-76368164D01*
X147439274Y-75177109D01*
G37*
G36*
X151131371Y-115878679D02*
G01*
X152121321Y-116868629D01*
X151272793Y-117717157D01*
X150282843Y-116727207D01*
X151131371Y-115878679D01*
G37*
G36*
X148727207Y-118282843D02*
G01*
X149717157Y-119272793D01*
X148868629Y-120121321D01*
X147878679Y-119131371D01*
X148727207Y-118282843D01*
G37*
G36*
X145439274Y-105177109D02*
G01*
X146828839Y-105006492D01*
X146975082Y-106197547D01*
X145585517Y-106368164D01*
X145439274Y-105177109D01*
G37*
G36*
X145024918Y-101802453D02*
G01*
X146414483Y-101631836D01*
X146560726Y-102822891D01*
X145171161Y-102993508D01*
X145024918Y-101802453D01*
G37*
G36*
X144024918Y-86802453D02*
G01*
X145414483Y-86631836D01*
X145560726Y-87822891D01*
X144171161Y-87993508D01*
X144024918Y-86802453D01*
G37*
G36*
X144439274Y-90177109D02*
G01*
X145828839Y-90006492D01*
X145975082Y-91197547D01*
X144585517Y-91368164D01*
X144439274Y-90177109D01*
G37*
G36*
X143024918Y-71802453D02*
G01*
X144414483Y-71631836D01*
X144560726Y-72822891D01*
X143171161Y-72993508D01*
X143024918Y-71802453D01*
G37*
G36*
X143439274Y-75177109D02*
G01*
X144828839Y-75006492D01*
X144975082Y-76197547D01*
X143585517Y-76368164D01*
X143439274Y-75177109D01*
G37*
G36*
X143131371Y-115878679D02*
G01*
X144121321Y-116868629D01*
X143272793Y-117717157D01*
X142282843Y-116727207D01*
X143131371Y-115878679D01*
G37*
G36*
X140727207Y-118282843D02*
G01*
X141717157Y-119272793D01*
X140868629Y-120121321D01*
X139878679Y-119131371D01*
X140727207Y-118282843D01*
G37*
G36*
X139439274Y-102177109D02*
G01*
X140828839Y-102006492D01*
X140975082Y-103197547D01*
X139585517Y-103368164D01*
X139439274Y-102177109D01*
G37*
G36*
X139024918Y-98802453D02*
G01*
X140414483Y-98631836D01*
X140560726Y-99822891D01*
X139171161Y-99993508D01*
X139024918Y-98802453D01*
G37*
G36*
X139024918Y-82802453D02*
G01*
X140414483Y-82631836D01*
X140560726Y-83822891D01*
X139171161Y-83993508D01*
X139024918Y-82802453D01*
G37*
G36*
X139439274Y-86177109D02*
G01*
X140828839Y-86006492D01*
X140975082Y-87197547D01*
X139585517Y-87368164D01*
X139439274Y-86177109D01*
G37*
G36*
X139439274Y-73177109D02*
G01*
X140828839Y-73006492D01*
X140975082Y-74197547D01*
X139585517Y-74368164D01*
X139439274Y-73177109D01*
G37*
G36*
X139024918Y-69802453D02*
G01*
X140414483Y-69631836D01*
X140560726Y-70822891D01*
X139171161Y-70993508D01*
X139024918Y-69802453D01*
G37*
G36*
X131878679Y-116868629D02*
G01*
X132868629Y-115878679D01*
X133717157Y-116727207D01*
X132727207Y-117717157D01*
X131878679Y-116868629D01*
G37*
G36*
X134282843Y-119272793D02*
G01*
X135272793Y-118282843D01*
X136121321Y-119131371D01*
X135131371Y-120121321D01*
X134282843Y-119272793D01*
G37*
G36*
X135171161Y-102006492D02*
G01*
X136560726Y-102177109D01*
X136414483Y-103368164D01*
X135024918Y-103197547D01*
X135171161Y-102006492D01*
G37*
G36*
X135585517Y-98631836D02*
G01*
X136975082Y-98802453D01*
X136828839Y-99993508D01*
X135439274Y-99822891D01*
X135585517Y-98631836D01*
G37*
G36*
X135585517Y-82631836D02*
G01*
X136975082Y-82802453D01*
X136828839Y-83993508D01*
X135439274Y-83822891D01*
X135585517Y-82631836D01*
G37*
G36*
X135171161Y-86006492D02*
G01*
X136560726Y-86177109D01*
X136414483Y-87368164D01*
X135024918Y-87197547D01*
X135171161Y-86006492D01*
G37*
G36*
X135171161Y-73006492D02*
G01*
X136560726Y-73177109D01*
X136414483Y-74368164D01*
X135024918Y-74197547D01*
X135171161Y-73006492D01*
G37*
G36*
X135585517Y-69631836D02*
G01*
X136975082Y-69802453D01*
X136828839Y-70993508D01*
X135439274Y-70822891D01*
X135585517Y-69631836D01*
G37*
G36*
X123878679Y-116868629D02*
G01*
X124868629Y-115878679D01*
X125717157Y-116727207D01*
X124727207Y-117717157D01*
X123878679Y-116868629D01*
G37*
G36*
X126282843Y-119272793D02*
G01*
X127272793Y-118282843D01*
X128121321Y-119131371D01*
X127131371Y-120121321D01*
X126282843Y-119272793D01*
G37*
G36*
X129585517Y-101631836D02*
G01*
X130975082Y-101802453D01*
X130828839Y-102993508D01*
X129439274Y-102822891D01*
X129585517Y-101631836D01*
G37*
G36*
X129171161Y-105006492D02*
G01*
X130560726Y-105177109D01*
X130414483Y-106368164D01*
X129024918Y-106197547D01*
X129171161Y-105006492D01*
G37*
G36*
X130585517Y-86631836D02*
G01*
X131975082Y-86802453D01*
X131828839Y-87993508D01*
X130439274Y-87822891D01*
X130585517Y-86631836D01*
G37*
G36*
X130171161Y-90006492D02*
G01*
X131560726Y-90177109D01*
X131414483Y-91368164D01*
X130024918Y-91197547D01*
X130171161Y-90006492D01*
G37*
G36*
X131585517Y-71631836D02*
G01*
X132975082Y-71802453D01*
X132828839Y-72993508D01*
X131439274Y-72822891D01*
X131585517Y-71631836D01*
G37*
G36*
X131171161Y-75006492D02*
G01*
X132560726Y-75177109D01*
X132414483Y-76368164D01*
X131024918Y-76197547D01*
X131171161Y-75006492D01*
G37*
G36*
X123585517Y-101631836D02*
G01*
X124975082Y-101802453D01*
X124828839Y-102993508D01*
X123439274Y-102822891D01*
X123585517Y-101631836D01*
G37*
G36*
X123171161Y-105006492D02*
G01*
X124560726Y-105177109D01*
X124414483Y-106368164D01*
X123024918Y-106197547D01*
X123171161Y-105006492D01*
G37*
G36*
X125585517Y-86631836D02*
G01*
X126975082Y-86802453D01*
X126828839Y-87993508D01*
X125439274Y-87822891D01*
X125585517Y-86631836D01*
G37*
G36*
X125171161Y-90006492D02*
G01*
X126560726Y-90177109D01*
X126414483Y-91368164D01*
X125024918Y-91197547D01*
X125171161Y-90006492D01*
G37*
G36*
X127585517Y-71631836D02*
G01*
X128975082Y-71802453D01*
X128828839Y-72993508D01*
X127439274Y-72822891D01*
X127585517Y-71631836D01*
G37*
G36*
X127171161Y-75006492D02*
G01*
X128560726Y-75177109D01*
X128414483Y-76368164D01*
X127024918Y-76197547D01*
X127171161Y-75006492D01*
G37*
G36*
X128975082Y-113197547D02*
G01*
X127585517Y-113368164D01*
X127439274Y-112177109D01*
X128828839Y-112006492D01*
X128975082Y-113197547D01*
G37*
G36*
X128560726Y-109822891D02*
G01*
X127171161Y-109993508D01*
X127024918Y-108802453D01*
X128414483Y-108631836D01*
X128560726Y-109822891D01*
G37*
G36*
X124975082Y-98197547D02*
G01*
X123585517Y-98368164D01*
X123439274Y-97177109D01*
X124828839Y-97006492D01*
X124975082Y-98197547D01*
G37*
G36*
X124560726Y-94822891D02*
G01*
X123171161Y-94993508D01*
X123024918Y-93802453D01*
X124414483Y-93631836D01*
X124560726Y-94822891D01*
G37*
G36*
X126975082Y-83197547D02*
G01*
X125585517Y-83368164D01*
X125439274Y-82177109D01*
X126828839Y-82006492D01*
X126975082Y-83197547D01*
G37*
G36*
X126560726Y-79822891D02*
G01*
X125171161Y-79993508D01*
X125024918Y-78802453D01*
X126414483Y-78631836D01*
X126560726Y-79822891D01*
G37*
G36*
X122975082Y-113197547D02*
G01*
X121585517Y-113368164D01*
X121439274Y-112177109D01*
X122828839Y-112006492D01*
X122975082Y-113197547D01*
G37*
G36*
X122560726Y-109822891D02*
G01*
X121171161Y-109993508D01*
X121024918Y-108802453D01*
X122414483Y-108631836D01*
X122560726Y-109822891D01*
G37*
G36*
X129975082Y-98197547D02*
G01*
X128585517Y-98368164D01*
X128439274Y-97177109D01*
X129828839Y-97006492D01*
X129975082Y-98197547D01*
G37*
G36*
X129560726Y-94822891D02*
G01*
X128171161Y-94993508D01*
X128024918Y-93802453D01*
X129414483Y-93631836D01*
X129560726Y-94822891D01*
G37*
G36*
X130975082Y-83197547D02*
G01*
X129585517Y-83368164D01*
X129439274Y-82177109D01*
X130828839Y-82006492D01*
X130975082Y-83197547D01*
G37*
G36*
X130560726Y-79822891D02*
G01*
X129171161Y-79993508D01*
X129024918Y-78802453D01*
X130414483Y-78631836D01*
X130560726Y-79822891D01*
G37*
M02*
