G04 #@! TF.GenerationSoftware,KiCad,Pcbnew,(5.1.9)-1*
G04 #@! TF.CreationDate,2021-11-23T16:25:02-08:00*
G04 #@! TF.ProjectId,Claudia_choc,436c6175-6469-4615-9f63-686f632e6b69,rev?*
G04 #@! TF.SameCoordinates,Original*
G04 #@! TF.FileFunction,Copper,L1,Top*
G04 #@! TF.FilePolarity,Positive*
%FSLAX46Y46*%
G04 Gerber Fmt 4.6, Leading zero omitted, Abs format (unit mm)*
G04 Created by KiCad (PCBNEW (5.1.9)-1) date 2021-11-23 16:25:02*
%MOMM*%
%LPD*%
G01*
G04 APERTURE LIST*
G04 #@! TA.AperFunction,ComponentPad*
%ADD10C,2.000000*%
G04 #@! TD*
G04 #@! TA.AperFunction,ComponentPad*
%ADD11C,1.752600*%
G04 #@! TD*
G04 #@! TA.AperFunction,ComponentPad*
%ADD12R,1.752600X1.752600*%
G04 #@! TD*
G04 #@! TA.AperFunction,SMDPad,CuDef*
%ADD13C,0.100000*%
G04 #@! TD*
G04 #@! TA.AperFunction,ViaPad*
%ADD14C,0.800000*%
G04 #@! TD*
G04 #@! TA.AperFunction,Conductor*
%ADD15C,0.200000*%
G04 #@! TD*
G04 APERTURE END LIST*
D10*
X32079970Y-53591352D03*
X36786775Y-56285045D03*
X174330985Y-114932695D03*
X179549641Y-116407695D03*
X29758359Y-72499356D03*
X34465164Y-75193049D03*
X27436748Y-91407361D03*
X32143553Y-94101054D03*
X51568377Y-51185962D03*
X56275182Y-53879655D03*
X49246766Y-70093966D03*
X53953571Y-72787659D03*
X46925155Y-89001971D03*
X51631960Y-91695664D03*
X71056784Y-48780572D03*
X75763589Y-51474265D03*
X68735173Y-67688576D03*
X73441978Y-70382269D03*
X66413562Y-86596581D03*
X71120367Y-89290274D03*
X89384385Y-55829184D03*
X94091190Y-58522877D03*
X87062774Y-74737188D03*
X91769579Y-77430881D03*
X84741163Y-93645193D03*
X89447968Y-96338886D03*
X61148295Y-109941415D03*
X65855100Y-112635108D03*
X103649168Y-95966804D03*
X108355973Y-98660497D03*
X160233761Y-78277492D03*
X165452417Y-79752492D03*
X162555371Y-97185497D03*
X167774027Y-98660497D03*
X179141765Y-75955881D03*
X184360421Y-77430881D03*
X181463376Y-94863886D03*
X186682032Y-96338886D03*
X205056244Y-111160108D03*
X210274900Y-112635108D03*
X195147755Y-49999265D03*
X200366411Y-51474265D03*
X197469366Y-68907269D03*
X202688022Y-70382269D03*
X199790977Y-87815274D03*
X205009633Y-89290274D03*
X214636162Y-52404655D03*
X219854818Y-53879655D03*
X216957773Y-71312659D03*
X222176429Y-72787659D03*
X219279384Y-90220664D03*
X224498040Y-91695664D03*
X234124569Y-54810045D03*
X239343225Y-56285045D03*
X238767791Y-92626054D03*
X243986447Y-94101054D03*
X108292389Y-58150795D03*
X112999194Y-60844488D03*
X105970778Y-77058799D03*
X110677583Y-79752492D03*
X236446180Y-73718049D03*
X241664836Y-75193049D03*
X176820154Y-57047877D03*
X182038810Y-58522877D03*
X157912150Y-59369488D03*
X163130806Y-60844488D03*
X91873554Y-113714002D03*
X96580359Y-116407695D03*
D11*
X145643600Y-37820600D03*
X130403600Y-65760600D03*
X145643600Y-40360600D03*
X145643600Y-42900600D03*
X145643600Y-45440600D03*
X145643600Y-47980600D03*
X145643600Y-50520600D03*
X145643600Y-53060600D03*
X145643600Y-55600600D03*
X145643600Y-58140600D03*
X145643600Y-60680600D03*
X145643600Y-63220600D03*
X145643600Y-65760600D03*
X130403600Y-63220600D03*
X130403600Y-60680600D03*
X130403600Y-58140600D03*
X130403600Y-55600600D03*
X130403600Y-53060600D03*
X130403600Y-50520600D03*
X130403600Y-47980600D03*
X130403600Y-45440600D03*
X130403600Y-42900600D03*
X130403600Y-40360600D03*
D12*
X130403600Y-37820600D03*
G04 #@! TA.AperFunction,SMDPad,CuDef*
D13*
G36*
X154414483Y-113368164D02*
G01*
X153024918Y-113197547D01*
X153171161Y-112006492D01*
X154560726Y-112177109D01*
X154414483Y-113368164D01*
G37*
G04 #@! TD.AperFunction*
G04 #@! TA.AperFunction,SMDPad,CuDef*
G36*
X154828839Y-109993508D02*
G01*
X153439274Y-109822891D01*
X153585517Y-108631836D01*
X154975082Y-108802453D01*
X154828839Y-109993508D01*
G37*
G04 #@! TD.AperFunction*
G04 #@! TA.AperFunction,SMDPad,CuDef*
G36*
X152414483Y-98368164D02*
G01*
X151024918Y-98197547D01*
X151171161Y-97006492D01*
X152560726Y-97177109D01*
X152414483Y-98368164D01*
G37*
G04 #@! TD.AperFunction*
G04 #@! TA.AperFunction,SMDPad,CuDef*
G36*
X152828839Y-94993508D02*
G01*
X151439274Y-94822891D01*
X151585517Y-93631836D01*
X152975082Y-93802453D01*
X152828839Y-94993508D01*
G37*
G04 #@! TD.AperFunction*
G04 #@! TA.AperFunction,SMDPad,CuDef*
G36*
X146414483Y-83368164D02*
G01*
X145024918Y-83197547D01*
X145171161Y-82006492D01*
X146560726Y-82177109D01*
X146414483Y-83368164D01*
G37*
G04 #@! TD.AperFunction*
G04 #@! TA.AperFunction,SMDPad,CuDef*
G36*
X146828839Y-79993508D02*
G01*
X145439274Y-79822891D01*
X145585517Y-78631836D01*
X146975082Y-78802453D01*
X146828839Y-79993508D01*
G37*
G04 #@! TD.AperFunction*
G04 #@! TA.AperFunction,SMDPad,CuDef*
G36*
X148414483Y-113368164D02*
G01*
X147024918Y-113197547D01*
X147171161Y-112006492D01*
X148560726Y-112177109D01*
X148414483Y-113368164D01*
G37*
G04 #@! TD.AperFunction*
G04 #@! TA.AperFunction,SMDPad,CuDef*
G36*
X148828839Y-109993508D02*
G01*
X147439274Y-109822891D01*
X147585517Y-108631836D01*
X148975082Y-108802453D01*
X148828839Y-109993508D01*
G37*
G04 #@! TD.AperFunction*
G04 #@! TA.AperFunction,SMDPad,CuDef*
G36*
X147414483Y-98368164D02*
G01*
X146024918Y-98197547D01*
X146171161Y-97006492D01*
X147560726Y-97177109D01*
X147414483Y-98368164D01*
G37*
G04 #@! TD.AperFunction*
G04 #@! TA.AperFunction,SMDPad,CuDef*
G36*
X147828839Y-94993508D02*
G01*
X146439274Y-94822891D01*
X146585517Y-93631836D01*
X147975082Y-93802453D01*
X147828839Y-94993508D01*
G37*
G04 #@! TD.AperFunction*
G04 #@! TA.AperFunction,SMDPad,CuDef*
G36*
X150414483Y-83368164D02*
G01*
X149024918Y-83197547D01*
X149171161Y-82006492D01*
X150560726Y-82177109D01*
X150414483Y-83368164D01*
G37*
G04 #@! TD.AperFunction*
G04 #@! TA.AperFunction,SMDPad,CuDef*
G36*
X150828839Y-79993508D02*
G01*
X149439274Y-79822891D01*
X149585517Y-78631836D01*
X150975082Y-78802453D01*
X150828839Y-79993508D01*
G37*
G04 #@! TD.AperFunction*
G04 #@! TA.AperFunction,SMDPad,CuDef*
G36*
X151024918Y-101802453D02*
G01*
X152414483Y-101631836D01*
X152560726Y-102822891D01*
X151171161Y-102993508D01*
X151024918Y-101802453D01*
G37*
G04 #@! TD.AperFunction*
G04 #@! TA.AperFunction,SMDPad,CuDef*
G36*
X151439274Y-105177109D02*
G01*
X152828839Y-105006492D01*
X152975082Y-106197547D01*
X151585517Y-106368164D01*
X151439274Y-105177109D01*
G37*
G04 #@! TD.AperFunction*
G04 #@! TA.AperFunction,SMDPad,CuDef*
G36*
X149024918Y-86802453D02*
G01*
X150414483Y-86631836D01*
X150560726Y-87822891D01*
X149171161Y-87993508D01*
X149024918Y-86802453D01*
G37*
G04 #@! TD.AperFunction*
G04 #@! TA.AperFunction,SMDPad,CuDef*
G36*
X149439274Y-90177109D02*
G01*
X150828839Y-90006492D01*
X150975082Y-91197547D01*
X149585517Y-91368164D01*
X149439274Y-90177109D01*
G37*
G04 #@! TD.AperFunction*
G04 #@! TA.AperFunction,SMDPad,CuDef*
G36*
X147024918Y-71802453D02*
G01*
X148414483Y-71631836D01*
X148560726Y-72822891D01*
X147171161Y-72993508D01*
X147024918Y-71802453D01*
G37*
G04 #@! TD.AperFunction*
G04 #@! TA.AperFunction,SMDPad,CuDef*
G36*
X147439274Y-75177109D02*
G01*
X148828839Y-75006492D01*
X148975082Y-76197547D01*
X147585517Y-76368164D01*
X147439274Y-75177109D01*
G37*
G04 #@! TD.AperFunction*
G04 #@! TA.AperFunction,SMDPad,CuDef*
G36*
X151131371Y-115878679D02*
G01*
X152121321Y-116868629D01*
X151272793Y-117717157D01*
X150282843Y-116727207D01*
X151131371Y-115878679D01*
G37*
G04 #@! TD.AperFunction*
G04 #@! TA.AperFunction,SMDPad,CuDef*
G36*
X148727207Y-118282843D02*
G01*
X149717157Y-119272793D01*
X148868629Y-120121321D01*
X147878679Y-119131371D01*
X148727207Y-118282843D01*
G37*
G04 #@! TD.AperFunction*
G04 #@! TA.AperFunction,SMDPad,CuDef*
G36*
X145439274Y-105177109D02*
G01*
X146828839Y-105006492D01*
X146975082Y-106197547D01*
X145585517Y-106368164D01*
X145439274Y-105177109D01*
G37*
G04 #@! TD.AperFunction*
G04 #@! TA.AperFunction,SMDPad,CuDef*
G36*
X145024918Y-101802453D02*
G01*
X146414483Y-101631836D01*
X146560726Y-102822891D01*
X145171161Y-102993508D01*
X145024918Y-101802453D01*
G37*
G04 #@! TD.AperFunction*
G04 #@! TA.AperFunction,SMDPad,CuDef*
G36*
X144024918Y-86802453D02*
G01*
X145414483Y-86631836D01*
X145560726Y-87822891D01*
X144171161Y-87993508D01*
X144024918Y-86802453D01*
G37*
G04 #@! TD.AperFunction*
G04 #@! TA.AperFunction,SMDPad,CuDef*
G36*
X144439274Y-90177109D02*
G01*
X145828839Y-90006492D01*
X145975082Y-91197547D01*
X144585517Y-91368164D01*
X144439274Y-90177109D01*
G37*
G04 #@! TD.AperFunction*
G04 #@! TA.AperFunction,SMDPad,CuDef*
G36*
X143024918Y-71802453D02*
G01*
X144414483Y-71631836D01*
X144560726Y-72822891D01*
X143171161Y-72993508D01*
X143024918Y-71802453D01*
G37*
G04 #@! TD.AperFunction*
G04 #@! TA.AperFunction,SMDPad,CuDef*
G36*
X143439274Y-75177109D02*
G01*
X144828839Y-75006492D01*
X144975082Y-76197547D01*
X143585517Y-76368164D01*
X143439274Y-75177109D01*
G37*
G04 #@! TD.AperFunction*
G04 #@! TA.AperFunction,SMDPad,CuDef*
G36*
X143131371Y-115878679D02*
G01*
X144121321Y-116868629D01*
X143272793Y-117717157D01*
X142282843Y-116727207D01*
X143131371Y-115878679D01*
G37*
G04 #@! TD.AperFunction*
G04 #@! TA.AperFunction,SMDPad,CuDef*
G36*
X140727207Y-118282843D02*
G01*
X141717157Y-119272793D01*
X140868629Y-120121321D01*
X139878679Y-119131371D01*
X140727207Y-118282843D01*
G37*
G04 #@! TD.AperFunction*
G04 #@! TA.AperFunction,SMDPad,CuDef*
G36*
X139439274Y-102177109D02*
G01*
X140828839Y-102006492D01*
X140975082Y-103197547D01*
X139585517Y-103368164D01*
X139439274Y-102177109D01*
G37*
G04 #@! TD.AperFunction*
G04 #@! TA.AperFunction,SMDPad,CuDef*
G36*
X139024918Y-98802453D02*
G01*
X140414483Y-98631836D01*
X140560726Y-99822891D01*
X139171161Y-99993508D01*
X139024918Y-98802453D01*
G37*
G04 #@! TD.AperFunction*
G04 #@! TA.AperFunction,SMDPad,CuDef*
G36*
X139024918Y-82802453D02*
G01*
X140414483Y-82631836D01*
X140560726Y-83822891D01*
X139171161Y-83993508D01*
X139024918Y-82802453D01*
G37*
G04 #@! TD.AperFunction*
G04 #@! TA.AperFunction,SMDPad,CuDef*
G36*
X139439274Y-86177109D02*
G01*
X140828839Y-86006492D01*
X140975082Y-87197547D01*
X139585517Y-87368164D01*
X139439274Y-86177109D01*
G37*
G04 #@! TD.AperFunction*
G04 #@! TA.AperFunction,SMDPad,CuDef*
G36*
X139439274Y-73177109D02*
G01*
X140828839Y-73006492D01*
X140975082Y-74197547D01*
X139585517Y-74368164D01*
X139439274Y-73177109D01*
G37*
G04 #@! TD.AperFunction*
G04 #@! TA.AperFunction,SMDPad,CuDef*
G36*
X139024918Y-69802453D02*
G01*
X140414483Y-69631836D01*
X140560726Y-70822891D01*
X139171161Y-70993508D01*
X139024918Y-69802453D01*
G37*
G04 #@! TD.AperFunction*
G04 #@! TA.AperFunction,SMDPad,CuDef*
G36*
X131878679Y-116868629D02*
G01*
X132868629Y-115878679D01*
X133717157Y-116727207D01*
X132727207Y-117717157D01*
X131878679Y-116868629D01*
G37*
G04 #@! TD.AperFunction*
G04 #@! TA.AperFunction,SMDPad,CuDef*
G36*
X134282843Y-119272793D02*
G01*
X135272793Y-118282843D01*
X136121321Y-119131371D01*
X135131371Y-120121321D01*
X134282843Y-119272793D01*
G37*
G04 #@! TD.AperFunction*
G04 #@! TA.AperFunction,SMDPad,CuDef*
G36*
X135171161Y-102006492D02*
G01*
X136560726Y-102177109D01*
X136414483Y-103368164D01*
X135024918Y-103197547D01*
X135171161Y-102006492D01*
G37*
G04 #@! TD.AperFunction*
G04 #@! TA.AperFunction,SMDPad,CuDef*
G36*
X135585517Y-98631836D02*
G01*
X136975082Y-98802453D01*
X136828839Y-99993508D01*
X135439274Y-99822891D01*
X135585517Y-98631836D01*
G37*
G04 #@! TD.AperFunction*
G04 #@! TA.AperFunction,SMDPad,CuDef*
G36*
X135585517Y-82631836D02*
G01*
X136975082Y-82802453D01*
X136828839Y-83993508D01*
X135439274Y-83822891D01*
X135585517Y-82631836D01*
G37*
G04 #@! TD.AperFunction*
G04 #@! TA.AperFunction,SMDPad,CuDef*
G36*
X135171161Y-86006492D02*
G01*
X136560726Y-86177109D01*
X136414483Y-87368164D01*
X135024918Y-87197547D01*
X135171161Y-86006492D01*
G37*
G04 #@! TD.AperFunction*
G04 #@! TA.AperFunction,SMDPad,CuDef*
G36*
X135171161Y-73006492D02*
G01*
X136560726Y-73177109D01*
X136414483Y-74368164D01*
X135024918Y-74197547D01*
X135171161Y-73006492D01*
G37*
G04 #@! TD.AperFunction*
G04 #@! TA.AperFunction,SMDPad,CuDef*
G36*
X135585517Y-69631836D02*
G01*
X136975082Y-69802453D01*
X136828839Y-70993508D01*
X135439274Y-70822891D01*
X135585517Y-69631836D01*
G37*
G04 #@! TD.AperFunction*
G04 #@! TA.AperFunction,SMDPad,CuDef*
G36*
X123878679Y-116868629D02*
G01*
X124868629Y-115878679D01*
X125717157Y-116727207D01*
X124727207Y-117717157D01*
X123878679Y-116868629D01*
G37*
G04 #@! TD.AperFunction*
G04 #@! TA.AperFunction,SMDPad,CuDef*
G36*
X126282843Y-119272793D02*
G01*
X127272793Y-118282843D01*
X128121321Y-119131371D01*
X127131371Y-120121321D01*
X126282843Y-119272793D01*
G37*
G04 #@! TD.AperFunction*
G04 #@! TA.AperFunction,SMDPad,CuDef*
G36*
X129585517Y-101631836D02*
G01*
X130975082Y-101802453D01*
X130828839Y-102993508D01*
X129439274Y-102822891D01*
X129585517Y-101631836D01*
G37*
G04 #@! TD.AperFunction*
G04 #@! TA.AperFunction,SMDPad,CuDef*
G36*
X129171161Y-105006492D02*
G01*
X130560726Y-105177109D01*
X130414483Y-106368164D01*
X129024918Y-106197547D01*
X129171161Y-105006492D01*
G37*
G04 #@! TD.AperFunction*
G04 #@! TA.AperFunction,SMDPad,CuDef*
G36*
X130585517Y-86631836D02*
G01*
X131975082Y-86802453D01*
X131828839Y-87993508D01*
X130439274Y-87822891D01*
X130585517Y-86631836D01*
G37*
G04 #@! TD.AperFunction*
G04 #@! TA.AperFunction,SMDPad,CuDef*
G36*
X130171161Y-90006492D02*
G01*
X131560726Y-90177109D01*
X131414483Y-91368164D01*
X130024918Y-91197547D01*
X130171161Y-90006492D01*
G37*
G04 #@! TD.AperFunction*
G04 #@! TA.AperFunction,SMDPad,CuDef*
G36*
X131585517Y-71631836D02*
G01*
X132975082Y-71802453D01*
X132828839Y-72993508D01*
X131439274Y-72822891D01*
X131585517Y-71631836D01*
G37*
G04 #@! TD.AperFunction*
G04 #@! TA.AperFunction,SMDPad,CuDef*
G36*
X131171161Y-75006492D02*
G01*
X132560726Y-75177109D01*
X132414483Y-76368164D01*
X131024918Y-76197547D01*
X131171161Y-75006492D01*
G37*
G04 #@! TD.AperFunction*
G04 #@! TA.AperFunction,SMDPad,CuDef*
G36*
X123585517Y-101631836D02*
G01*
X124975082Y-101802453D01*
X124828839Y-102993508D01*
X123439274Y-102822891D01*
X123585517Y-101631836D01*
G37*
G04 #@! TD.AperFunction*
G04 #@! TA.AperFunction,SMDPad,CuDef*
G36*
X123171161Y-105006492D02*
G01*
X124560726Y-105177109D01*
X124414483Y-106368164D01*
X123024918Y-106197547D01*
X123171161Y-105006492D01*
G37*
G04 #@! TD.AperFunction*
G04 #@! TA.AperFunction,SMDPad,CuDef*
G36*
X125585517Y-86631836D02*
G01*
X126975082Y-86802453D01*
X126828839Y-87993508D01*
X125439274Y-87822891D01*
X125585517Y-86631836D01*
G37*
G04 #@! TD.AperFunction*
G04 #@! TA.AperFunction,SMDPad,CuDef*
G36*
X125171161Y-90006492D02*
G01*
X126560726Y-90177109D01*
X126414483Y-91368164D01*
X125024918Y-91197547D01*
X125171161Y-90006492D01*
G37*
G04 #@! TD.AperFunction*
G04 #@! TA.AperFunction,SMDPad,CuDef*
G36*
X127585517Y-71631836D02*
G01*
X128975082Y-71802453D01*
X128828839Y-72993508D01*
X127439274Y-72822891D01*
X127585517Y-71631836D01*
G37*
G04 #@! TD.AperFunction*
G04 #@! TA.AperFunction,SMDPad,CuDef*
G36*
X127171161Y-75006492D02*
G01*
X128560726Y-75177109D01*
X128414483Y-76368164D01*
X127024918Y-76197547D01*
X127171161Y-75006492D01*
G37*
G04 #@! TD.AperFunction*
G04 #@! TA.AperFunction,SMDPad,CuDef*
G36*
X128975082Y-113197547D02*
G01*
X127585517Y-113368164D01*
X127439274Y-112177109D01*
X128828839Y-112006492D01*
X128975082Y-113197547D01*
G37*
G04 #@! TD.AperFunction*
G04 #@! TA.AperFunction,SMDPad,CuDef*
G36*
X128560726Y-109822891D02*
G01*
X127171161Y-109993508D01*
X127024918Y-108802453D01*
X128414483Y-108631836D01*
X128560726Y-109822891D01*
G37*
G04 #@! TD.AperFunction*
G04 #@! TA.AperFunction,SMDPad,CuDef*
G36*
X124975082Y-98197547D02*
G01*
X123585517Y-98368164D01*
X123439274Y-97177109D01*
X124828839Y-97006492D01*
X124975082Y-98197547D01*
G37*
G04 #@! TD.AperFunction*
G04 #@! TA.AperFunction,SMDPad,CuDef*
G36*
X124560726Y-94822891D02*
G01*
X123171161Y-94993508D01*
X123024918Y-93802453D01*
X124414483Y-93631836D01*
X124560726Y-94822891D01*
G37*
G04 #@! TD.AperFunction*
G04 #@! TA.AperFunction,SMDPad,CuDef*
G36*
X126975082Y-83197547D02*
G01*
X125585517Y-83368164D01*
X125439274Y-82177109D01*
X126828839Y-82006492D01*
X126975082Y-83197547D01*
G37*
G04 #@! TD.AperFunction*
G04 #@! TA.AperFunction,SMDPad,CuDef*
G36*
X126560726Y-79822891D02*
G01*
X125171161Y-79993508D01*
X125024918Y-78802453D01*
X126414483Y-78631836D01*
X126560726Y-79822891D01*
G37*
G04 #@! TD.AperFunction*
G04 #@! TA.AperFunction,SMDPad,CuDef*
G36*
X122975082Y-113197547D02*
G01*
X121585517Y-113368164D01*
X121439274Y-112177109D01*
X122828839Y-112006492D01*
X122975082Y-113197547D01*
G37*
G04 #@! TD.AperFunction*
G04 #@! TA.AperFunction,SMDPad,CuDef*
G36*
X122560726Y-109822891D02*
G01*
X121171161Y-109993508D01*
X121024918Y-108802453D01*
X122414483Y-108631836D01*
X122560726Y-109822891D01*
G37*
G04 #@! TD.AperFunction*
G04 #@! TA.AperFunction,SMDPad,CuDef*
G36*
X129975082Y-98197547D02*
G01*
X128585517Y-98368164D01*
X128439274Y-97177109D01*
X129828839Y-97006492D01*
X129975082Y-98197547D01*
G37*
G04 #@! TD.AperFunction*
G04 #@! TA.AperFunction,SMDPad,CuDef*
G36*
X129560726Y-94822891D02*
G01*
X128171161Y-94993508D01*
X128024918Y-93802453D01*
X129414483Y-93631836D01*
X129560726Y-94822891D01*
G37*
G04 #@! TD.AperFunction*
G04 #@! TA.AperFunction,SMDPad,CuDef*
G36*
X130975082Y-83197547D02*
G01*
X129585517Y-83368164D01*
X129439274Y-82177109D01*
X130828839Y-82006492D01*
X130975082Y-83197547D01*
G37*
G04 #@! TD.AperFunction*
G04 #@! TA.AperFunction,SMDPad,CuDef*
G36*
X130560726Y-79822891D02*
G01*
X129171161Y-79993508D01*
X129024918Y-78802453D01*
X130414483Y-78631836D01*
X130560726Y-79822891D01*
G37*
G04 #@! TD.AperFunction*
D14*
X125552200Y-74091800D03*
X138099800Y-92430600D03*
X97950382Y-47934269D03*
X119557800Y-103682800D03*
X60134374Y-43291047D03*
X42729161Y-43613243D03*
X79622781Y-40885657D03*
X116858386Y-50255880D03*
X135382000Y-112687328D03*
X120421400Y-107492800D03*
X139792822Y-80518000D03*
X119430800Y-117703600D03*
X154935764Y-77546200D03*
X139725400Y-96520000D03*
X157226000Y-90932000D03*
X140741400Y-112687328D03*
X155600400Y-107467400D03*
D15*
X97570454Y-115417600D02*
X96580359Y-116407695D01*
X148000000Y-75700000D02*
X144000000Y-75700000D01*
X132000000Y-75700000D02*
X128000000Y-75700000D01*
X145792822Y-79312672D02*
X149792822Y-79312672D01*
X149792822Y-79312672D02*
X148361400Y-77881250D01*
X148361400Y-75841550D02*
X148207178Y-75687328D01*
X148361400Y-77881250D02*
X148361400Y-75841550D01*
X140207178Y-73687328D02*
X140207178Y-75183178D01*
X140711328Y-75687328D02*
X144207178Y-75687328D01*
X140207178Y-75183178D02*
X140711328Y-75687328D01*
X135792822Y-73687328D02*
X135792822Y-75255778D01*
X135361272Y-75687328D02*
X131792822Y-75687328D01*
X135792822Y-75255778D02*
X135361272Y-75687328D01*
X125792822Y-79312672D02*
X129792822Y-79312672D01*
X129792822Y-79312672D02*
X146207178Y-79312672D01*
X140207178Y-73687328D02*
X135792822Y-73687328D01*
X127792822Y-75687328D02*
X127147728Y-75687328D01*
X127147728Y-75687328D02*
X125552200Y-74091800D01*
X125552200Y-74091800D02*
X125552200Y-74091800D01*
X124207178Y-94312672D02*
X129207178Y-94312672D01*
X129207178Y-94312672D02*
X146792822Y-94312672D01*
X146792822Y-94312672D02*
X151792822Y-94312672D01*
X151792822Y-92272972D02*
X150207178Y-90687328D01*
X151792822Y-94312672D02*
X151792822Y-92272972D01*
X150207178Y-90687328D02*
X145207178Y-90687328D01*
X130792822Y-90687328D02*
X125792822Y-90687328D01*
X140207178Y-86687328D02*
X140207178Y-89407178D01*
X141487328Y-90687328D02*
X145207178Y-90687328D01*
X140207178Y-89407178D02*
X141487328Y-90687328D01*
X140207178Y-86687328D02*
X135792822Y-86687328D01*
X135792822Y-86687328D02*
X135792822Y-89352778D01*
X134458272Y-90687328D02*
X130792822Y-90687328D01*
X135792822Y-89352778D02*
X134458272Y-90687328D01*
X123792822Y-94312672D02*
X123792822Y-93275578D01*
X123792822Y-93275578D02*
X124637800Y-92430600D01*
X124637800Y-92430600D02*
X138099800Y-92430600D01*
X138099800Y-92430600D02*
X138099800Y-92430600D01*
X125277269Y-47934269D02*
X130403600Y-53060600D01*
X97950382Y-47934269D02*
X97950382Y-47934269D01*
X97950382Y-47934269D02*
X125277269Y-47934269D01*
X122207178Y-109312672D02*
X128207178Y-109312672D01*
X128207178Y-109312672D02*
X147792822Y-109312672D01*
X147792822Y-109312672D02*
X153792822Y-109312672D01*
X153792822Y-109312672D02*
X153792822Y-108555422D01*
X152207178Y-106969778D02*
X152207178Y-105687328D01*
X153792822Y-108555422D02*
X152207178Y-106969778D01*
X152207178Y-105687328D02*
X146207178Y-105687328D01*
X140207178Y-102687328D02*
X140207178Y-104367778D01*
X141526728Y-105687328D02*
X146207178Y-105687328D01*
X140207178Y-104367778D02*
X141526728Y-105687328D01*
X140207178Y-102687328D02*
X135792822Y-102687328D01*
X135792822Y-102687328D02*
X135792822Y-104338778D01*
X134444272Y-105687328D02*
X129792822Y-105687328D01*
X135792822Y-104338778D02*
X134444272Y-105687328D01*
X129792822Y-105687328D02*
X123792822Y-105687328D01*
X123792822Y-105687328D02*
X121562328Y-105687328D01*
X121562328Y-105687328D02*
X119557800Y-103682800D01*
X119557800Y-103682800D02*
X119557800Y-103682800D01*
X83097856Y-39460656D02*
X89592190Y-45954990D01*
X63964765Y-39460656D02*
X83097856Y-39460656D01*
X60134374Y-43291047D02*
X60134374Y-43291047D01*
X128377990Y-45954990D02*
X130403600Y-47980600D01*
X89592190Y-45954990D02*
X128377990Y-45954990D01*
X60134374Y-43291047D02*
X63964765Y-39460656D01*
X62255773Y-39060646D02*
X83510646Y-39060646D01*
X57703176Y-43613243D02*
X62255773Y-39060646D01*
X42729161Y-43613243D02*
X42729161Y-43613243D01*
X139387299Y-46804299D02*
X145643600Y-53060600D01*
X130026373Y-46804299D02*
X139387299Y-46804299D01*
X128777054Y-45554980D02*
X130026373Y-46804299D01*
X90004980Y-45554980D02*
X128777054Y-45554980D01*
X83510646Y-39060646D02*
X90004980Y-45554980D01*
X42729161Y-43613243D02*
X57703176Y-43613243D01*
X126238000Y-46355000D02*
X130403600Y-50520600D01*
X85092124Y-46355000D02*
X126238000Y-46355000D01*
X79622781Y-40885657D02*
X79622781Y-40885657D01*
X79622781Y-40885657D02*
X85092124Y-46355000D01*
X127202082Y-119202082D02*
X128346200Y-120346200D01*
X134057964Y-120346200D02*
X135202082Y-119202082D01*
X128346200Y-120346200D02*
X134057964Y-120346200D01*
X135202082Y-119202082D02*
X136345200Y-120345200D01*
X139654800Y-120345200D02*
X140797918Y-119202082D01*
X136345200Y-120345200D02*
X139654800Y-120345200D01*
X140797918Y-119202082D02*
X141941036Y-120345200D01*
X147654800Y-120345200D02*
X148797918Y-119202082D01*
X141941036Y-120345200D02*
X147654800Y-120345200D01*
X125058880Y-50255880D02*
X130403600Y-55600600D01*
X116858386Y-50255880D02*
X116858386Y-50255880D01*
X116858386Y-50255880D02*
X125058880Y-50255880D01*
X150063200Y-58140600D02*
X145643600Y-58140600D01*
X166067303Y-42136497D02*
X150063200Y-58140600D01*
X128134706Y-84759800D02*
X130207178Y-82687328D01*
X124968000Y-84759800D02*
X128134706Y-84759800D01*
X123526590Y-77679590D02*
X123526590Y-83318390D01*
X115468400Y-69621400D02*
X123526590Y-77679590D01*
X123526590Y-83318390D02*
X124968000Y-84759800D01*
X99351004Y-69621400D02*
X99542600Y-69621400D01*
X86014649Y-56285045D02*
X99351004Y-69621400D01*
X36786775Y-56285045D02*
X86014649Y-56285045D01*
X99542600Y-69621400D02*
X115468400Y-69621400D01*
X99351003Y-69621400D02*
X99542600Y-69621400D01*
X123266200Y-99720400D02*
X127174106Y-99720400D01*
X110413800Y-86868000D02*
X123266200Y-99720400D01*
X127174106Y-99720400D02*
X129207178Y-97687328D01*
X94093200Y-86868000D02*
X110413800Y-86868000D01*
X82418249Y-75193049D02*
X94093200Y-86868000D01*
X34465164Y-75193049D02*
X82418249Y-75193049D01*
X120205728Y-112687328D02*
X122207178Y-112687328D01*
X119100600Y-111582200D02*
X120205728Y-112687328D01*
X119100600Y-106737698D02*
X119100600Y-111582200D01*
X114140702Y-101777800D02*
X119100600Y-106737698D01*
X89521204Y-101777800D02*
X114140702Y-101777800D01*
X81844458Y-94101054D02*
X89521204Y-101777800D01*
X32143553Y-94101054D02*
X81844458Y-94101054D01*
X123926600Y-77444600D02*
X123926600Y-80406750D01*
X115697000Y-69215000D02*
X123926600Y-77444600D01*
X123926600Y-80406750D02*
X126207178Y-82687328D01*
X99510302Y-69215000D02*
X115697000Y-69215000D01*
X84174957Y-53879655D02*
X99510302Y-69215000D01*
X56275182Y-53879655D02*
X84174957Y-53879655D01*
X123668780Y-97148930D02*
X124207178Y-97687328D01*
X121278930Y-97148930D02*
X123668780Y-97148930D01*
X110591600Y-86461600D02*
X121278930Y-97148930D01*
X94252500Y-86461600D02*
X110591600Y-86461600D01*
X80578559Y-72787659D02*
X94252500Y-86461600D01*
X53953571Y-72787659D02*
X80578559Y-72787659D01*
X128207178Y-112687328D02*
X135382000Y-112687328D01*
X135382000Y-112687328D02*
X135382000Y-112687328D01*
X51631960Y-91695664D02*
X80004766Y-91695664D01*
X80004766Y-91695664D02*
X89648711Y-101339610D01*
X114268210Y-101339610D02*
X120421400Y-107492800D01*
X89648711Y-101339610D02*
X114268210Y-101339610D01*
X82335265Y-51474265D02*
X75763589Y-51474265D01*
X99669600Y-68808600D02*
X82335265Y-51474265D01*
X124703106Y-68808600D02*
X99669600Y-68808600D01*
X128207178Y-72312672D02*
X124703106Y-68808600D01*
X94411800Y-86055200D02*
X78738869Y-70382269D01*
X124949706Y-86055200D02*
X94411800Y-86055200D01*
X78738869Y-70382269D02*
X73441978Y-70382269D01*
X126207178Y-87312672D02*
X124949706Y-86055200D01*
X78165074Y-89290274D02*
X71120367Y-89290274D01*
X89814400Y-100939600D02*
X78165074Y-89290274D01*
X122834106Y-100939600D02*
X89814400Y-100939600D01*
X124207178Y-102312672D02*
X122834106Y-100939600D01*
X132207178Y-69342178D02*
X132207178Y-72312672D01*
X131267200Y-68402200D02*
X132207178Y-69342178D01*
X99923600Y-68402200D02*
X131267200Y-68402200D01*
X94091190Y-62569790D02*
X99923600Y-68402200D01*
X94091190Y-58522877D02*
X94091190Y-62569790D01*
X91769579Y-82803379D02*
X92887800Y-83921600D01*
X91769579Y-77430881D02*
X91769579Y-82803379D01*
X92887800Y-83921600D02*
X92769578Y-83803378D01*
X131207178Y-86708167D02*
X130147811Y-85648800D01*
X131207178Y-87312672D02*
X131207178Y-86708167D01*
X130147811Y-85648800D02*
X94615000Y-85648800D01*
X94615000Y-85648800D02*
X92887800Y-83921600D01*
X93635893Y-100526811D02*
X90447967Y-97338885D01*
X130207178Y-102312672D02*
X128421317Y-100526811D01*
X128421317Y-100526811D02*
X93635893Y-100526811D01*
X90447967Y-97338885D02*
X89447968Y-96338886D01*
X136207178Y-70312672D02*
X136207178Y-68541578D01*
X136207178Y-68541578D02*
X135458200Y-67792600D01*
X119947306Y-67792600D02*
X112999194Y-60844488D01*
X135458200Y-67792600D02*
X119947306Y-67792600D01*
X116167491Y-85242400D02*
X110677583Y-79752492D01*
X134277450Y-85242400D02*
X116167491Y-85242400D01*
X136207178Y-83312672D02*
X134277450Y-85242400D01*
X109822276Y-100126800D02*
X108355973Y-98660497D01*
X136207178Y-99312672D02*
X132358072Y-99312672D01*
X132358072Y-99312672D02*
X131543944Y-100126800D01*
X131543944Y-100126800D02*
X109822276Y-100126800D01*
X139792822Y-83312672D02*
X139792822Y-80518000D01*
X139792822Y-80518000D02*
X139792822Y-80518000D01*
X122275600Y-120548400D02*
X119430800Y-117703600D01*
X125855764Y-120548400D02*
X122275600Y-120548400D01*
X127202082Y-119202082D02*
X125855764Y-120548400D01*
X119430800Y-117703600D02*
X119430800Y-117703600D01*
X165912800Y-41706800D02*
X152019000Y-55600600D01*
X152019000Y-55600600D02*
X145643600Y-55600600D01*
X165942487Y-41736487D02*
X165912800Y-41706800D01*
X221051011Y-41736487D02*
X165942487Y-41736487D01*
X234124569Y-54810045D02*
X221051011Y-41736487D01*
X204368004Y-42136497D02*
X166067303Y-42136497D01*
X214636162Y-52404655D02*
X204368004Y-42136497D01*
X124797918Y-116797918D02*
X123417600Y-115417600D01*
X123417600Y-115417600D02*
X97570454Y-115417600D01*
X132797918Y-116797918D02*
X130706400Y-114706400D01*
X130706400Y-114706400D02*
X94843600Y-114706400D01*
X94843600Y-114706400D02*
X93878400Y-115671600D01*
X68891592Y-115671600D02*
X65855100Y-112635108D01*
X93878400Y-115671600D02*
X68891592Y-115671600D01*
X139792822Y-70312672D02*
X139792822Y-68741178D01*
X139792822Y-68741178D02*
X140792200Y-67741800D01*
X156233494Y-67741800D02*
X163130806Y-60844488D01*
X140792200Y-67741800D02*
X156233494Y-67741800D01*
X157142056Y-79752492D02*
X154935764Y-77546200D01*
X165452417Y-79752492D02*
X157142056Y-79752492D01*
X167121852Y-99312672D02*
X167774027Y-98660497D01*
X139792822Y-99312672D02*
X167121852Y-99312672D01*
X172668695Y-116407695D02*
X179549641Y-116407695D01*
X170916600Y-114655600D02*
X172668695Y-116407695D01*
X145344400Y-114655600D02*
X170916600Y-114655600D01*
X143202082Y-116797918D02*
X145344400Y-114655600D01*
X143792822Y-69084578D02*
X143792822Y-72312672D01*
X144735590Y-68141810D02*
X143792822Y-69084578D01*
X158375390Y-68141810D02*
X144735590Y-68141810D01*
X167994323Y-58522877D02*
X158375390Y-68141810D01*
X182038810Y-58522877D02*
X167994323Y-58522877D01*
X176320302Y-85471000D02*
X146634494Y-85471000D01*
X184360421Y-77430881D02*
X176320302Y-85471000D01*
X146634494Y-85471000D02*
X144792822Y-87312672D01*
X147811976Y-100293518D02*
X145792822Y-102312672D01*
X182727400Y-100293518D02*
X147811976Y-100293518D01*
X186682032Y-96338886D02*
X182727400Y-100293518D01*
X205202312Y-117707696D02*
X173402998Y-117707696D01*
X210274900Y-112635108D02*
X205202312Y-117707696D01*
X173402998Y-117707696D02*
X170750912Y-115055610D01*
X152944390Y-115055610D02*
X151202082Y-116797918D01*
X170750912Y-115055610D02*
X152944390Y-115055610D01*
X148628180Y-68541820D02*
X147792822Y-69377178D01*
X158541079Y-68541820D02*
X148628180Y-68541820D01*
X166757899Y-60325000D02*
X158541079Y-68541820D01*
X147792822Y-69377178D02*
X147792822Y-72312672D01*
X191515676Y-60325000D02*
X166757899Y-60325000D01*
X200366411Y-51474265D02*
X191515676Y-60325000D01*
X185757619Y-87312672D02*
X149792822Y-87312672D01*
X202688022Y-70382269D02*
X185757619Y-87312672D01*
X191987235Y-102312672D02*
X205009633Y-89290274D01*
X151792822Y-102312672D02*
X191987235Y-102312672D01*
X151678472Y-82687328D02*
X149792822Y-82687328D01*
X152349200Y-75299397D02*
X152349200Y-82016600D01*
X166923587Y-60725010D02*
X152349200Y-75299397D01*
X191700190Y-60725010D02*
X166923587Y-60725010D01*
X152349200Y-82016600D02*
X151678472Y-82687328D01*
X198545545Y-53879655D02*
X191700190Y-60725010D01*
X219854818Y-53879655D02*
X198545545Y-53879655D01*
X146792822Y-97687328D02*
X140892728Y-97687328D01*
X140892728Y-97687328D02*
X139725400Y-96520000D01*
X139725400Y-96520000D02*
X139725400Y-96520000D01*
X160401000Y-87757000D02*
X157226000Y-90932000D01*
X185878989Y-87757000D02*
X160401000Y-87757000D01*
X200848330Y-72787659D02*
X185878989Y-87757000D01*
X222176429Y-72787659D02*
X200848330Y-72787659D01*
X147792822Y-112687328D02*
X140741400Y-112687328D01*
X140741400Y-112687328D02*
X140741400Y-112687328D01*
X203198336Y-91695664D02*
X224498040Y-91695664D01*
X164896800Y-102870000D02*
X192024000Y-102870000D01*
X160299400Y-107467400D02*
X164896800Y-102870000D01*
X192024000Y-102870000D02*
X203198336Y-91695664D01*
X155600400Y-107467400D02*
X160299400Y-107467400D01*
X145792822Y-83291833D02*
X145792822Y-82687328D01*
X147387789Y-84886800D02*
X145792822Y-83291833D01*
X150901400Y-84886800D02*
X147387789Y-84886800D01*
X152749210Y-83038990D02*
X150901400Y-84886800D01*
X167076495Y-61137800D02*
X152749210Y-75465085D01*
X234490470Y-61137800D02*
X167076495Y-61137800D01*
X152749210Y-75465085D02*
X152749210Y-83038990D01*
X239343225Y-56285045D02*
X234490470Y-61137800D01*
X152147072Y-97687328D02*
X151792822Y-97687328D01*
X186038287Y-88163400D02*
X161671000Y-88163400D01*
X199008638Y-75193049D02*
X186038287Y-88163400D01*
X161671000Y-88163400D02*
X152147072Y-97687328D01*
X241664836Y-75193049D02*
X199008638Y-75193049D01*
X154498079Y-112687328D02*
X153792822Y-112687328D01*
X155645172Y-112687328D02*
X154498079Y-112687328D01*
X165062489Y-103270011D02*
X155645172Y-112687328D01*
X192233589Y-103270011D02*
X165062489Y-103270011D01*
X201402546Y-94101054D02*
X192233589Y-103270011D01*
X243986447Y-94101054D02*
X201402546Y-94101054D01*
M02*
