G04 #@! TF.GenerationSoftware,KiCad,Pcbnew,(5.1.9)-1*
G04 #@! TF.CreationDate,2021-11-23T16:25:02-08:00*
G04 #@! TF.ProjectId,Claudia_choc,436c6175-6469-4615-9f63-686f632e6b69,rev?*
G04 #@! TF.SameCoordinates,Original*
G04 #@! TF.FileFunction,Legend,Top*
G04 #@! TF.FilePolarity,Positive*
%FSLAX46Y46*%
G04 Gerber Fmt 4.6, Leading zero omitted, Abs format (unit mm)*
G04 Created by KiCad (PCBNEW (5.1.9)-1) date 2021-11-23 16:25:02*
%MOMM*%
%LPD*%
G01*
G04 APERTURE LIST*
%ADD10C,0.200000*%
%ADD11C,0.150000*%
G04 APERTURE END LIST*
D10*
X154801073Y-114322391D02*
X152418963Y-114029904D01*
X155532290Y-108367114D02*
X154801073Y-114322391D01*
X153150179Y-108074628D02*
X155532290Y-108367114D01*
X152418963Y-114029904D02*
X153150179Y-108074628D01*
X152452477Y-113756954D02*
X154834588Y-114049441D01*
X152467710Y-113632886D02*
X154849821Y-113925372D01*
X154816307Y-114198323D02*
X152434196Y-113905836D01*
X152801073Y-99322391D02*
X150418963Y-99029904D01*
X153532290Y-93367114D02*
X152801073Y-99322391D01*
X151150179Y-93074628D02*
X153532290Y-93367114D01*
X150418963Y-99029904D02*
X151150179Y-93074628D01*
X150452477Y-98756954D02*
X152834588Y-99049441D01*
X150467710Y-98632886D02*
X152849821Y-98925372D01*
X152816307Y-99198323D02*
X150434196Y-98905836D01*
X146801073Y-84322391D02*
X144418963Y-84029904D01*
X147532290Y-78367114D02*
X146801073Y-84322391D01*
X145150179Y-78074628D02*
X147532290Y-78367114D01*
X144418963Y-84029904D02*
X145150179Y-78074628D01*
X144452477Y-83756954D02*
X146834588Y-84049441D01*
X144467710Y-83632886D02*
X146849821Y-83925372D01*
X146816307Y-84198323D02*
X144434196Y-83905836D01*
X148801073Y-114322391D02*
X146418963Y-114029904D01*
X149532290Y-108367114D02*
X148801073Y-114322391D01*
X147150179Y-108074628D02*
X149532290Y-108367114D01*
X146418963Y-114029904D02*
X147150179Y-108074628D01*
X146452477Y-113756954D02*
X148834588Y-114049441D01*
X146467710Y-113632886D02*
X148849821Y-113925372D01*
X148816307Y-114198323D02*
X146434196Y-113905836D01*
X147801073Y-99322391D02*
X145418963Y-99029904D01*
X148532290Y-93367114D02*
X147801073Y-99322391D01*
X146150179Y-93074628D02*
X148532290Y-93367114D01*
X145418963Y-99029904D02*
X146150179Y-93074628D01*
X145452477Y-98756954D02*
X147834588Y-99049441D01*
X145467710Y-98632886D02*
X147849821Y-98925372D01*
X147816307Y-99198323D02*
X145434196Y-98905836D01*
X150801073Y-84322391D02*
X148418963Y-84029904D01*
X151532290Y-78367114D02*
X150801073Y-84322391D01*
X149150179Y-78074628D02*
X151532290Y-78367114D01*
X148418963Y-84029904D02*
X149150179Y-78074628D01*
X148452477Y-83756954D02*
X150834588Y-84049441D01*
X148467710Y-83632886D02*
X150849821Y-83925372D01*
X150816307Y-84198323D02*
X148434196Y-83905836D01*
X150418963Y-100970096D02*
X152801073Y-100677609D01*
X151150179Y-106925372D02*
X150418963Y-100970096D01*
X153532290Y-106632886D02*
X151150179Y-106925372D01*
X152801073Y-100677609D02*
X153532290Y-106632886D01*
X152834588Y-100950559D02*
X150452477Y-101243046D01*
X152849821Y-101074628D02*
X150467710Y-101367114D01*
X150434196Y-101094164D02*
X152816307Y-100801677D01*
X148418963Y-85970096D02*
X150801073Y-85677609D01*
X149150179Y-91925372D02*
X148418963Y-85970096D01*
X151532290Y-91632886D02*
X149150179Y-91925372D01*
X150801073Y-85677609D02*
X151532290Y-91632886D01*
X150834588Y-85950559D02*
X148452477Y-86243046D01*
X150849821Y-86074628D02*
X148467710Y-86367114D01*
X148434196Y-86094164D02*
X150816307Y-85801677D01*
X146418963Y-70970096D02*
X148801073Y-70677609D01*
X147150179Y-76925372D02*
X146418963Y-70970096D01*
X149532290Y-76632886D02*
X147150179Y-76925372D01*
X148801073Y-70677609D02*
X149532290Y-76632886D01*
X148834588Y-70950559D02*
X146452477Y-71243046D01*
X148849821Y-71074628D02*
X146467710Y-71367114D01*
X146434196Y-71094164D02*
X148816307Y-70801677D01*
X151414214Y-114888730D02*
X153111270Y-116585786D01*
X147171573Y-119131371D02*
X151414214Y-114888730D01*
X148868629Y-120828427D02*
X147171573Y-119131371D01*
X153111270Y-116585786D02*
X148868629Y-120828427D01*
X152916815Y-116780241D02*
X151219759Y-115083185D01*
X152828427Y-116868629D02*
X151131371Y-115171573D01*
X151325825Y-114977119D02*
X153022881Y-116674175D01*
X144434196Y-101094164D02*
X146816307Y-100801677D01*
X146849821Y-101074628D02*
X144467710Y-101367114D01*
X146834588Y-100950559D02*
X144452477Y-101243046D01*
X146801073Y-100677609D02*
X147532290Y-106632886D01*
X147532290Y-106632886D02*
X145150179Y-106925372D01*
X145150179Y-106925372D02*
X144418963Y-100970096D01*
X144418963Y-100970096D02*
X146801073Y-100677609D01*
X143418963Y-85970096D02*
X145801073Y-85677609D01*
X144150179Y-91925372D02*
X143418963Y-85970096D01*
X146532290Y-91632886D02*
X144150179Y-91925372D01*
X145801073Y-85677609D02*
X146532290Y-91632886D01*
X145834588Y-85950559D02*
X143452477Y-86243046D01*
X145849821Y-86074628D02*
X143467710Y-86367114D01*
X143434196Y-86094164D02*
X145816307Y-85801677D01*
X142418963Y-70970096D02*
X144801073Y-70677609D01*
X143150179Y-76925372D02*
X142418963Y-70970096D01*
X145532290Y-76632886D02*
X143150179Y-76925372D01*
X144801073Y-70677609D02*
X145532290Y-76632886D01*
X144834588Y-70950559D02*
X142452477Y-71243046D01*
X144849821Y-71074628D02*
X142467710Y-71367114D01*
X142434196Y-71094164D02*
X144816307Y-70801677D01*
X143414214Y-114888730D02*
X145111270Y-116585786D01*
X139171573Y-119131371D02*
X143414214Y-114888730D01*
X140868629Y-120828427D02*
X139171573Y-119131371D01*
X145111270Y-116585786D02*
X140868629Y-120828427D01*
X144916815Y-116780241D02*
X143219759Y-115083185D01*
X144828427Y-116868629D02*
X143131371Y-115171573D01*
X143325825Y-114977119D02*
X145022881Y-116674175D01*
X138434196Y-98094164D02*
X140816307Y-97801677D01*
X140849821Y-98074628D02*
X138467710Y-98367114D01*
X140834588Y-97950559D02*
X138452477Y-98243046D01*
X140801073Y-97677609D02*
X141532290Y-103632886D01*
X141532290Y-103632886D02*
X139150179Y-103925372D01*
X139150179Y-103925372D02*
X138418963Y-97970096D01*
X138418963Y-97970096D02*
X140801073Y-97677609D01*
X138418963Y-81970096D02*
X140801073Y-81677609D01*
X139150179Y-87925372D02*
X138418963Y-81970096D01*
X141532290Y-87632886D02*
X139150179Y-87925372D01*
X140801073Y-81677609D02*
X141532290Y-87632886D01*
X140834588Y-81950559D02*
X138452477Y-82243046D01*
X140849821Y-82074628D02*
X138467710Y-82367114D01*
X138434196Y-82094164D02*
X140816307Y-81801677D01*
X138434196Y-69094164D02*
X140816307Y-68801677D01*
X140849821Y-69074628D02*
X138467710Y-69367114D01*
X140834588Y-68950559D02*
X138452477Y-69243046D01*
X140801073Y-68677609D02*
X141532290Y-74632886D01*
X141532290Y-74632886D02*
X139150179Y-74925372D01*
X139150179Y-74925372D02*
X138418963Y-68970096D01*
X138418963Y-68970096D02*
X140801073Y-68677609D01*
X130888730Y-116585786D02*
X132585786Y-114888730D01*
X135131371Y-120828427D02*
X130888730Y-116585786D01*
X136828427Y-119131371D02*
X135131371Y-120828427D01*
X132585786Y-114888730D02*
X136828427Y-119131371D01*
X132780241Y-115083185D02*
X131083185Y-116780241D01*
X132868629Y-115171573D02*
X131171573Y-116868629D01*
X130977119Y-116674175D02*
X132674175Y-114977119D01*
X135183693Y-97801677D02*
X137565804Y-98094164D01*
X137532290Y-98367114D02*
X135150179Y-98074628D01*
X137547523Y-98243046D02*
X135165412Y-97950559D01*
X137581037Y-97970096D02*
X136849821Y-103925372D01*
X136849821Y-103925372D02*
X134467710Y-103632886D01*
X134467710Y-103632886D02*
X135198927Y-97677609D01*
X135198927Y-97677609D02*
X137581037Y-97970096D01*
X135198927Y-81677609D02*
X137581037Y-81970096D01*
X134467710Y-87632886D02*
X135198927Y-81677609D01*
X136849821Y-87925372D02*
X134467710Y-87632886D01*
X137581037Y-81970096D02*
X136849821Y-87925372D01*
X137547523Y-82243046D02*
X135165412Y-81950559D01*
X137532290Y-82367114D02*
X135150179Y-82074628D01*
X135183693Y-81801677D02*
X137565804Y-82094164D01*
X135183693Y-68801677D02*
X137565804Y-69094164D01*
X137532290Y-69367114D02*
X135150179Y-69074628D01*
X137547523Y-69243046D02*
X135165412Y-68950559D01*
X137581037Y-68970096D02*
X136849821Y-74925372D01*
X136849821Y-74925372D02*
X134467710Y-74632886D01*
X134467710Y-74632886D02*
X135198927Y-68677609D01*
X135198927Y-68677609D02*
X137581037Y-68970096D01*
X122888730Y-116585786D02*
X124585786Y-114888730D01*
X127131371Y-120828427D02*
X122888730Y-116585786D01*
X128828427Y-119131371D02*
X127131371Y-120828427D01*
X124585786Y-114888730D02*
X128828427Y-119131371D01*
X124780241Y-115083185D02*
X123083185Y-116780241D01*
X124868629Y-115171573D02*
X123171573Y-116868629D01*
X122977119Y-116674175D02*
X124674175Y-114977119D01*
X129198927Y-100677609D02*
X131581037Y-100970096D01*
X128467710Y-106632886D02*
X129198927Y-100677609D01*
X130849821Y-106925372D02*
X128467710Y-106632886D01*
X131581037Y-100970096D02*
X130849821Y-106925372D01*
X131547523Y-101243046D02*
X129165412Y-100950559D01*
X131532290Y-101367114D02*
X129150179Y-101074628D01*
X129183693Y-100801677D02*
X131565804Y-101094164D01*
X130198927Y-85677609D02*
X132581037Y-85970096D01*
X129467710Y-91632886D02*
X130198927Y-85677609D01*
X131849821Y-91925372D02*
X129467710Y-91632886D01*
X132581037Y-85970096D02*
X131849821Y-91925372D01*
X132547523Y-86243046D02*
X130165412Y-85950559D01*
X132532290Y-86367114D02*
X130150179Y-86074628D01*
X130183693Y-85801677D02*
X132565804Y-86094164D01*
X131198927Y-70677609D02*
X133581037Y-70970096D01*
X130467710Y-76632886D02*
X131198927Y-70677609D01*
X132849821Y-76925372D02*
X130467710Y-76632886D01*
X133581037Y-70970096D02*
X132849821Y-76925372D01*
X133547523Y-71243046D02*
X131165412Y-70950559D01*
X133532290Y-71367114D02*
X131150179Y-71074628D01*
X131183693Y-70801677D02*
X133565804Y-71094164D01*
X123198927Y-100677609D02*
X125581037Y-100970096D01*
X122467710Y-106632886D02*
X123198927Y-100677609D01*
X124849821Y-106925372D02*
X122467710Y-106632886D01*
X125581037Y-100970096D02*
X124849821Y-106925372D01*
X125547523Y-101243046D02*
X123165412Y-100950559D01*
X125532290Y-101367114D02*
X123150179Y-101074628D01*
X123183693Y-100801677D02*
X125565804Y-101094164D01*
X125198927Y-85677609D02*
X127581037Y-85970096D01*
X124467710Y-91632886D02*
X125198927Y-85677609D01*
X126849821Y-91925372D02*
X124467710Y-91632886D01*
X127581037Y-85970096D02*
X126849821Y-91925372D01*
X127547523Y-86243046D02*
X125165412Y-85950559D01*
X127532290Y-86367114D02*
X125150179Y-86074628D01*
X125183693Y-85801677D02*
X127565804Y-86094164D01*
X127198927Y-70677609D02*
X129581037Y-70970096D01*
X126467710Y-76632886D02*
X127198927Y-70677609D01*
X128849821Y-76925372D02*
X126467710Y-76632886D01*
X129581037Y-70970096D02*
X128849821Y-76925372D01*
X129547523Y-71243046D02*
X127165412Y-70950559D01*
X129532290Y-71367114D02*
X127150179Y-71074628D01*
X127183693Y-70801677D02*
X129565804Y-71094164D01*
X129581037Y-114029904D02*
X127198927Y-114322391D01*
X128849821Y-108074628D02*
X129581037Y-114029904D01*
X126467710Y-108367114D02*
X128849821Y-108074628D01*
X127198927Y-114322391D02*
X126467710Y-108367114D01*
X127165412Y-114049441D02*
X129547523Y-113756954D01*
X127150179Y-113925372D02*
X129532290Y-113632886D01*
X129565804Y-113905836D02*
X127183693Y-114198323D01*
X125581037Y-99029904D02*
X123198927Y-99322391D01*
X124849821Y-93074628D02*
X125581037Y-99029904D01*
X122467710Y-93367114D02*
X124849821Y-93074628D01*
X123198927Y-99322391D02*
X122467710Y-93367114D01*
X123165412Y-99049441D02*
X125547523Y-98756954D01*
X123150179Y-98925372D02*
X125532290Y-98632886D01*
X125565804Y-98905836D02*
X123183693Y-99198323D01*
X127581037Y-84029904D02*
X125198927Y-84322391D01*
X126849821Y-78074628D02*
X127581037Y-84029904D01*
X124467710Y-78367114D02*
X126849821Y-78074628D01*
X125198927Y-84322391D02*
X124467710Y-78367114D01*
X125165412Y-84049441D02*
X127547523Y-83756954D01*
X125150179Y-83925372D02*
X127532290Y-83632886D01*
X127565804Y-83905836D02*
X125183693Y-84198323D01*
X123581037Y-114029904D02*
X121198927Y-114322391D01*
X122849821Y-108074628D02*
X123581037Y-114029904D01*
X120467710Y-108367114D02*
X122849821Y-108074628D01*
X121198927Y-114322391D02*
X120467710Y-108367114D01*
X121165412Y-114049441D02*
X123547523Y-113756954D01*
X121150179Y-113925372D02*
X123532290Y-113632886D01*
X123565804Y-113905836D02*
X121183693Y-114198323D01*
X130581037Y-99029904D02*
X128198927Y-99322391D01*
X129849821Y-93074628D02*
X130581037Y-99029904D01*
X127467710Y-93367114D02*
X129849821Y-93074628D01*
X128198927Y-99322391D02*
X127467710Y-93367114D01*
X128165412Y-99049441D02*
X130547523Y-98756954D01*
X128150179Y-98925372D02*
X130532290Y-98632886D01*
X130565804Y-98905836D02*
X128183693Y-99198323D01*
X131581037Y-84029904D02*
X129198927Y-84322391D01*
X130849821Y-78074628D02*
X131581037Y-84029904D01*
X128467710Y-78367114D02*
X130849821Y-78074628D01*
X129198927Y-84322391D02*
X128467710Y-78367114D01*
X129165412Y-84049441D02*
X131547523Y-83756954D01*
X129150179Y-83925372D02*
X131532290Y-83632886D01*
X131565804Y-83905836D02*
X129183693Y-84198323D01*
D11*
X132285504Y-37342980D02*
X132856933Y-37342980D01*
X132571219Y-38342980D02*
X132571219Y-37342980D01*
X133095028Y-37342980D02*
X133761695Y-38342980D01*
X133761695Y-37342980D02*
X133095028Y-38342980D01*
X134333123Y-37342980D02*
X134428361Y-37342980D01*
X134523600Y-37390600D01*
X134571219Y-37438219D01*
X134618838Y-37533457D01*
X134666457Y-37723933D01*
X134666457Y-37962028D01*
X134618838Y-38152504D01*
X134571219Y-38247742D01*
X134523600Y-38295361D01*
X134428361Y-38342980D01*
X134333123Y-38342980D01*
X134237885Y-38295361D01*
X134190266Y-38247742D01*
X134142647Y-38152504D01*
X134095028Y-37962028D01*
X134095028Y-37723933D01*
X134142647Y-37533457D01*
X134190266Y-37438219D01*
X134237885Y-37390600D01*
X134333123Y-37342980D01*
X141933123Y-38342980D02*
X141599790Y-37866790D01*
X141361695Y-38342980D02*
X141361695Y-37342980D01*
X141742647Y-37342980D01*
X141837885Y-37390600D01*
X141885504Y-37438219D01*
X141933123Y-37533457D01*
X141933123Y-37676314D01*
X141885504Y-37771552D01*
X141837885Y-37819171D01*
X141742647Y-37866790D01*
X141361695Y-37866790D01*
X142314076Y-38057266D02*
X142790266Y-38057266D01*
X142218838Y-38342980D02*
X142552171Y-37342980D01*
X142885504Y-38342980D01*
X143123600Y-37342980D02*
X143361695Y-38342980D01*
X143552171Y-37628695D01*
X143742647Y-38342980D01*
X143980742Y-37342980D01*
M02*
