G04 #@! TF.GenerationSoftware,KiCad,Pcbnew,(5.1.9)-1*
G04 #@! TF.CreationDate,2021-11-23T16:25:02-08:00*
G04 #@! TF.ProjectId,Claudia_choc,436c6175-6469-4615-9f63-686f632e6b69,rev?*
G04 #@! TF.SameCoordinates,Original*
G04 #@! TF.FileFunction,Soldermask,Top*
G04 #@! TF.FilePolarity,Negative*
%FSLAX46Y46*%
G04 Gerber Fmt 4.6, Leading zero omitted, Abs format (unit mm)*
G04 Created by KiCad (PCBNEW (5.1.9)-1) date 2021-11-23 16:25:02*
%MOMM*%
%LPD*%
G01*
G04 APERTURE LIST*
%ADD10C,1.700000*%
%ADD11C,2.000000*%
%ADD12C,3.400000*%
%ADD13C,2.200000*%
%ADD14C,1.752600*%
%ADD15R,1.752600X1.752600*%
%ADD16C,0.100000*%
G04 APERTURE END LIST*
D10*
X42964808Y-51099304D03*
X32046800Y-49758742D03*
D11*
X32079970Y-53591352D03*
X36786775Y-56285045D03*
D12*
X37505804Y-50429023D03*
D10*
X184289616Y-109881392D03*
X173371608Y-111221954D03*
D11*
X174330985Y-114932695D03*
X179549641Y-116407695D03*
D12*
X178830612Y-110551673D03*
D10*
X40643197Y-70007308D03*
X29725189Y-68666746D03*
D11*
X29758359Y-72499356D03*
X34465164Y-75193049D03*
D12*
X35184193Y-69337027D03*
D10*
X38321586Y-88915313D03*
X27403578Y-87574751D03*
D11*
X27436748Y-91407361D03*
X32143553Y-94101054D03*
D12*
X32862582Y-88245032D03*
D10*
X62453215Y-48693914D03*
X51535207Y-47353352D03*
D11*
X51568377Y-51185962D03*
X56275182Y-53879655D03*
D12*
X56994211Y-48023633D03*
D10*
X60131604Y-67601918D03*
X49213596Y-66261356D03*
D11*
X49246766Y-70093966D03*
X53953571Y-72787659D03*
D12*
X54672600Y-66931637D03*
D10*
X57809993Y-86509923D03*
X46891985Y-85169361D03*
D11*
X46925155Y-89001971D03*
X51631960Y-91695664D03*
D12*
X52350989Y-85839642D03*
D10*
X81941622Y-46288524D03*
X71023614Y-44947962D03*
D11*
X71056784Y-48780572D03*
X75763589Y-51474265D03*
D12*
X76482618Y-45618243D03*
D10*
X79620011Y-65196528D03*
X68702003Y-63855966D03*
D11*
X68735173Y-67688576D03*
X73441978Y-70382269D03*
D12*
X74161007Y-64526247D03*
D10*
X77298400Y-84104533D03*
X66380392Y-82763971D03*
D11*
X66413562Y-86596581D03*
X71120367Y-89290274D03*
D12*
X71839396Y-83434252D03*
D10*
X100269223Y-53337136D03*
X89351215Y-51996574D03*
D11*
X89384385Y-55829184D03*
X94091190Y-58522877D03*
D12*
X94810219Y-52666855D03*
D10*
X97947612Y-72245140D03*
X87029604Y-70904578D03*
D11*
X87062774Y-74737188D03*
X91769579Y-77430881D03*
D12*
X92488608Y-71574859D03*
D10*
X95626001Y-91153145D03*
X84707993Y-89812583D03*
D11*
X84741163Y-93645193D03*
X89447968Y-96338886D03*
D12*
X90166997Y-90482864D03*
D10*
X72033133Y-107449367D03*
X61115125Y-106108805D03*
D11*
X61148295Y-109941415D03*
X65855100Y-112635108D03*
D12*
X66574129Y-106779086D03*
D10*
X114534006Y-93474756D03*
X103615998Y-92134194D03*
D11*
X103649168Y-95966804D03*
X108355973Y-98660497D03*
D12*
X109075002Y-92804475D03*
D10*
X170192392Y-73226189D03*
X159274384Y-74566751D03*
D11*
X160233761Y-78277492D03*
X165452417Y-79752492D03*
D12*
X164733388Y-73896470D03*
D10*
X172514002Y-92134194D03*
X161595994Y-93474756D03*
D11*
X162555371Y-97185497D03*
X167774027Y-98660497D03*
D12*
X167054998Y-92804475D03*
D10*
X189100396Y-70904578D03*
X178182388Y-72245140D03*
D11*
X179141765Y-75955881D03*
X184360421Y-77430881D03*
D12*
X183641392Y-71574859D03*
D10*
X191422007Y-89812583D03*
X180503999Y-91153145D03*
D11*
X181463376Y-94863886D03*
X186682032Y-96338886D03*
D12*
X185963003Y-90482864D03*
D10*
X215014875Y-106108805D03*
X204096867Y-107449367D03*
D11*
X205056244Y-111160108D03*
X210274900Y-112635108D03*
D12*
X209555871Y-106779086D03*
D10*
X205106386Y-44947962D03*
X194188378Y-46288524D03*
D11*
X195147755Y-49999265D03*
X200366411Y-51474265D03*
D12*
X199647382Y-45618243D03*
D10*
X207427997Y-63855966D03*
X196509989Y-65196528D03*
D11*
X197469366Y-68907269D03*
X202688022Y-70382269D03*
D12*
X201968993Y-64526247D03*
D10*
X209749608Y-82763971D03*
X198831600Y-84104533D03*
D11*
X199790977Y-87815274D03*
X205009633Y-89290274D03*
D12*
X204290604Y-83434252D03*
D10*
X224594793Y-47353352D03*
X213676785Y-48693914D03*
D11*
X214636162Y-52404655D03*
X219854818Y-53879655D03*
D12*
X219135789Y-48023633D03*
D10*
X226916404Y-66261356D03*
X215998396Y-67601918D03*
D11*
X216957773Y-71312659D03*
X222176429Y-72787659D03*
D12*
X221457400Y-66931637D03*
D10*
X229238015Y-85169361D03*
X218320007Y-86509923D03*
D11*
X219279384Y-90220664D03*
X224498040Y-91695664D03*
D12*
X223779011Y-85839642D03*
D10*
X244083200Y-49758742D03*
X233165192Y-51099304D03*
D11*
X234124569Y-54810045D03*
X239343225Y-56285045D03*
D12*
X238624196Y-50429023D03*
D10*
X248726422Y-87574751D03*
X237808414Y-88915313D03*
D11*
X238767791Y-92626054D03*
X243986447Y-94101054D03*
D12*
X243267418Y-88245032D03*
D10*
X119177227Y-55658747D03*
X108259219Y-54318185D03*
D11*
X108292389Y-58150795D03*
X112999194Y-60844488D03*
D12*
X113718223Y-54988466D03*
D10*
X116855616Y-74566751D03*
X105937608Y-73226189D03*
D11*
X105970778Y-77058799D03*
X110677583Y-79752492D03*
D12*
X111396612Y-73896470D03*
D10*
X246404811Y-68666746D03*
X235486803Y-70007308D03*
D11*
X236446180Y-73718049D03*
X241664836Y-75193049D03*
D12*
X240945807Y-69337027D03*
D10*
X186778785Y-51996574D03*
X175860777Y-53337136D03*
D11*
X176820154Y-57047877D03*
X182038810Y-58522877D03*
D12*
X181319781Y-52666855D03*
D10*
X167870781Y-54318185D03*
X156952773Y-55658747D03*
D11*
X157912150Y-59369488D03*
X163130806Y-60844488D03*
D12*
X162411777Y-54988466D03*
D10*
X102758392Y-111221954D03*
X91840384Y-109881392D03*
D11*
X91873554Y-113714002D03*
X96580359Y-116407695D03*
D12*
X97299388Y-110551673D03*
D13*
X43547200Y-39250000D03*
X226499534Y-104500000D03*
X49630466Y-104500000D03*
X115000000Y-41630600D03*
X161047200Y-41630600D03*
X232500000Y-39250000D03*
D14*
X145643600Y-37820600D03*
X130403600Y-65760600D03*
X145643600Y-40360600D03*
X145643600Y-42900600D03*
X145643600Y-45440600D03*
X145643600Y-47980600D03*
X145643600Y-50520600D03*
X145643600Y-53060600D03*
X145643600Y-55600600D03*
X145643600Y-58140600D03*
X145643600Y-60680600D03*
X145643600Y-63220600D03*
X145643600Y-65760600D03*
X130403600Y-63220600D03*
X130403600Y-60680600D03*
X130403600Y-58140600D03*
X130403600Y-55600600D03*
X130403600Y-53060600D03*
X130403600Y-50520600D03*
X130403600Y-47980600D03*
X130403600Y-45440600D03*
X130403600Y-42900600D03*
X130403600Y-40360600D03*
D15*
X130403600Y-37820600D03*
D16*
G36*
X154414483Y-113368164D02*
G01*
X153024918Y-113197547D01*
X153171161Y-112006492D01*
X154560726Y-112177109D01*
X154414483Y-113368164D01*
G37*
G36*
X154828839Y-109993508D02*
G01*
X153439274Y-109822891D01*
X153585517Y-108631836D01*
X154975082Y-108802453D01*
X154828839Y-109993508D01*
G37*
G36*
X152414483Y-98368164D02*
G01*
X151024918Y-98197547D01*
X151171161Y-97006492D01*
X152560726Y-97177109D01*
X152414483Y-98368164D01*
G37*
G36*
X152828839Y-94993508D02*
G01*
X151439274Y-94822891D01*
X151585517Y-93631836D01*
X152975082Y-93802453D01*
X152828839Y-94993508D01*
G37*
G36*
X146414483Y-83368164D02*
G01*
X145024918Y-83197547D01*
X145171161Y-82006492D01*
X146560726Y-82177109D01*
X146414483Y-83368164D01*
G37*
G36*
X146828839Y-79993508D02*
G01*
X145439274Y-79822891D01*
X145585517Y-78631836D01*
X146975082Y-78802453D01*
X146828839Y-79993508D01*
G37*
G36*
X148414483Y-113368164D02*
G01*
X147024918Y-113197547D01*
X147171161Y-112006492D01*
X148560726Y-112177109D01*
X148414483Y-113368164D01*
G37*
G36*
X148828839Y-109993508D02*
G01*
X147439274Y-109822891D01*
X147585517Y-108631836D01*
X148975082Y-108802453D01*
X148828839Y-109993508D01*
G37*
G36*
X147414483Y-98368164D02*
G01*
X146024918Y-98197547D01*
X146171161Y-97006492D01*
X147560726Y-97177109D01*
X147414483Y-98368164D01*
G37*
G36*
X147828839Y-94993508D02*
G01*
X146439274Y-94822891D01*
X146585517Y-93631836D01*
X147975082Y-93802453D01*
X147828839Y-94993508D01*
G37*
G36*
X150414483Y-83368164D02*
G01*
X149024918Y-83197547D01*
X149171161Y-82006492D01*
X150560726Y-82177109D01*
X150414483Y-83368164D01*
G37*
G36*
X150828839Y-79993508D02*
G01*
X149439274Y-79822891D01*
X149585517Y-78631836D01*
X150975082Y-78802453D01*
X150828839Y-79993508D01*
G37*
G36*
X151024918Y-101802453D02*
G01*
X152414483Y-101631836D01*
X152560726Y-102822891D01*
X151171161Y-102993508D01*
X151024918Y-101802453D01*
G37*
G36*
X151439274Y-105177109D02*
G01*
X152828839Y-105006492D01*
X152975082Y-106197547D01*
X151585517Y-106368164D01*
X151439274Y-105177109D01*
G37*
G36*
X149024918Y-86802453D02*
G01*
X150414483Y-86631836D01*
X150560726Y-87822891D01*
X149171161Y-87993508D01*
X149024918Y-86802453D01*
G37*
G36*
X149439274Y-90177109D02*
G01*
X150828839Y-90006492D01*
X150975082Y-91197547D01*
X149585517Y-91368164D01*
X149439274Y-90177109D01*
G37*
G36*
X147024918Y-71802453D02*
G01*
X148414483Y-71631836D01*
X148560726Y-72822891D01*
X147171161Y-72993508D01*
X147024918Y-71802453D01*
G37*
G36*
X147439274Y-75177109D02*
G01*
X148828839Y-75006492D01*
X148975082Y-76197547D01*
X147585517Y-76368164D01*
X147439274Y-75177109D01*
G37*
G36*
X151131371Y-115878679D02*
G01*
X152121321Y-116868629D01*
X151272793Y-117717157D01*
X150282843Y-116727207D01*
X151131371Y-115878679D01*
G37*
G36*
X148727207Y-118282843D02*
G01*
X149717157Y-119272793D01*
X148868629Y-120121321D01*
X147878679Y-119131371D01*
X148727207Y-118282843D01*
G37*
G36*
X145439274Y-105177109D02*
G01*
X146828839Y-105006492D01*
X146975082Y-106197547D01*
X145585517Y-106368164D01*
X145439274Y-105177109D01*
G37*
G36*
X145024918Y-101802453D02*
G01*
X146414483Y-101631836D01*
X146560726Y-102822891D01*
X145171161Y-102993508D01*
X145024918Y-101802453D01*
G37*
G36*
X144024918Y-86802453D02*
G01*
X145414483Y-86631836D01*
X145560726Y-87822891D01*
X144171161Y-87993508D01*
X144024918Y-86802453D01*
G37*
G36*
X144439274Y-90177109D02*
G01*
X145828839Y-90006492D01*
X145975082Y-91197547D01*
X144585517Y-91368164D01*
X144439274Y-90177109D01*
G37*
G36*
X143024918Y-71802453D02*
G01*
X144414483Y-71631836D01*
X144560726Y-72822891D01*
X143171161Y-72993508D01*
X143024918Y-71802453D01*
G37*
G36*
X143439274Y-75177109D02*
G01*
X144828839Y-75006492D01*
X144975082Y-76197547D01*
X143585517Y-76368164D01*
X143439274Y-75177109D01*
G37*
G36*
X143131371Y-115878679D02*
G01*
X144121321Y-116868629D01*
X143272793Y-117717157D01*
X142282843Y-116727207D01*
X143131371Y-115878679D01*
G37*
G36*
X140727207Y-118282843D02*
G01*
X141717157Y-119272793D01*
X140868629Y-120121321D01*
X139878679Y-119131371D01*
X140727207Y-118282843D01*
G37*
G36*
X139439274Y-102177109D02*
G01*
X140828839Y-102006492D01*
X140975082Y-103197547D01*
X139585517Y-103368164D01*
X139439274Y-102177109D01*
G37*
G36*
X139024918Y-98802453D02*
G01*
X140414483Y-98631836D01*
X140560726Y-99822891D01*
X139171161Y-99993508D01*
X139024918Y-98802453D01*
G37*
G36*
X139024918Y-82802453D02*
G01*
X140414483Y-82631836D01*
X140560726Y-83822891D01*
X139171161Y-83993508D01*
X139024918Y-82802453D01*
G37*
G36*
X139439274Y-86177109D02*
G01*
X140828839Y-86006492D01*
X140975082Y-87197547D01*
X139585517Y-87368164D01*
X139439274Y-86177109D01*
G37*
G36*
X139439274Y-73177109D02*
G01*
X140828839Y-73006492D01*
X140975082Y-74197547D01*
X139585517Y-74368164D01*
X139439274Y-73177109D01*
G37*
G36*
X139024918Y-69802453D02*
G01*
X140414483Y-69631836D01*
X140560726Y-70822891D01*
X139171161Y-70993508D01*
X139024918Y-69802453D01*
G37*
G36*
X131878679Y-116868629D02*
G01*
X132868629Y-115878679D01*
X133717157Y-116727207D01*
X132727207Y-117717157D01*
X131878679Y-116868629D01*
G37*
G36*
X134282843Y-119272793D02*
G01*
X135272793Y-118282843D01*
X136121321Y-119131371D01*
X135131371Y-120121321D01*
X134282843Y-119272793D01*
G37*
G36*
X135171161Y-102006492D02*
G01*
X136560726Y-102177109D01*
X136414483Y-103368164D01*
X135024918Y-103197547D01*
X135171161Y-102006492D01*
G37*
G36*
X135585517Y-98631836D02*
G01*
X136975082Y-98802453D01*
X136828839Y-99993508D01*
X135439274Y-99822891D01*
X135585517Y-98631836D01*
G37*
G36*
X135585517Y-82631836D02*
G01*
X136975082Y-82802453D01*
X136828839Y-83993508D01*
X135439274Y-83822891D01*
X135585517Y-82631836D01*
G37*
G36*
X135171161Y-86006492D02*
G01*
X136560726Y-86177109D01*
X136414483Y-87368164D01*
X135024918Y-87197547D01*
X135171161Y-86006492D01*
G37*
G36*
X135171161Y-73006492D02*
G01*
X136560726Y-73177109D01*
X136414483Y-74368164D01*
X135024918Y-74197547D01*
X135171161Y-73006492D01*
G37*
G36*
X135585517Y-69631836D02*
G01*
X136975082Y-69802453D01*
X136828839Y-70993508D01*
X135439274Y-70822891D01*
X135585517Y-69631836D01*
G37*
G36*
X123878679Y-116868629D02*
G01*
X124868629Y-115878679D01*
X125717157Y-116727207D01*
X124727207Y-117717157D01*
X123878679Y-116868629D01*
G37*
G36*
X126282843Y-119272793D02*
G01*
X127272793Y-118282843D01*
X128121321Y-119131371D01*
X127131371Y-120121321D01*
X126282843Y-119272793D01*
G37*
G36*
X129585517Y-101631836D02*
G01*
X130975082Y-101802453D01*
X130828839Y-102993508D01*
X129439274Y-102822891D01*
X129585517Y-101631836D01*
G37*
G36*
X129171161Y-105006492D02*
G01*
X130560726Y-105177109D01*
X130414483Y-106368164D01*
X129024918Y-106197547D01*
X129171161Y-105006492D01*
G37*
G36*
X130585517Y-86631836D02*
G01*
X131975082Y-86802453D01*
X131828839Y-87993508D01*
X130439274Y-87822891D01*
X130585517Y-86631836D01*
G37*
G36*
X130171161Y-90006492D02*
G01*
X131560726Y-90177109D01*
X131414483Y-91368164D01*
X130024918Y-91197547D01*
X130171161Y-90006492D01*
G37*
G36*
X131585517Y-71631836D02*
G01*
X132975082Y-71802453D01*
X132828839Y-72993508D01*
X131439274Y-72822891D01*
X131585517Y-71631836D01*
G37*
G36*
X131171161Y-75006492D02*
G01*
X132560726Y-75177109D01*
X132414483Y-76368164D01*
X131024918Y-76197547D01*
X131171161Y-75006492D01*
G37*
G36*
X123585517Y-101631836D02*
G01*
X124975082Y-101802453D01*
X124828839Y-102993508D01*
X123439274Y-102822891D01*
X123585517Y-101631836D01*
G37*
G36*
X123171161Y-105006492D02*
G01*
X124560726Y-105177109D01*
X124414483Y-106368164D01*
X123024918Y-106197547D01*
X123171161Y-105006492D01*
G37*
G36*
X125585517Y-86631836D02*
G01*
X126975082Y-86802453D01*
X126828839Y-87993508D01*
X125439274Y-87822891D01*
X125585517Y-86631836D01*
G37*
G36*
X125171161Y-90006492D02*
G01*
X126560726Y-90177109D01*
X126414483Y-91368164D01*
X125024918Y-91197547D01*
X125171161Y-90006492D01*
G37*
G36*
X127585517Y-71631836D02*
G01*
X128975082Y-71802453D01*
X128828839Y-72993508D01*
X127439274Y-72822891D01*
X127585517Y-71631836D01*
G37*
G36*
X127171161Y-75006492D02*
G01*
X128560726Y-75177109D01*
X128414483Y-76368164D01*
X127024918Y-76197547D01*
X127171161Y-75006492D01*
G37*
G36*
X128975082Y-113197547D02*
G01*
X127585517Y-113368164D01*
X127439274Y-112177109D01*
X128828839Y-112006492D01*
X128975082Y-113197547D01*
G37*
G36*
X128560726Y-109822891D02*
G01*
X127171161Y-109993508D01*
X127024918Y-108802453D01*
X128414483Y-108631836D01*
X128560726Y-109822891D01*
G37*
G36*
X124975082Y-98197547D02*
G01*
X123585517Y-98368164D01*
X123439274Y-97177109D01*
X124828839Y-97006492D01*
X124975082Y-98197547D01*
G37*
G36*
X124560726Y-94822891D02*
G01*
X123171161Y-94993508D01*
X123024918Y-93802453D01*
X124414483Y-93631836D01*
X124560726Y-94822891D01*
G37*
G36*
X126975082Y-83197547D02*
G01*
X125585517Y-83368164D01*
X125439274Y-82177109D01*
X126828839Y-82006492D01*
X126975082Y-83197547D01*
G37*
G36*
X126560726Y-79822891D02*
G01*
X125171161Y-79993508D01*
X125024918Y-78802453D01*
X126414483Y-78631836D01*
X126560726Y-79822891D01*
G37*
G36*
X122975082Y-113197547D02*
G01*
X121585517Y-113368164D01*
X121439274Y-112177109D01*
X122828839Y-112006492D01*
X122975082Y-113197547D01*
G37*
G36*
X122560726Y-109822891D02*
G01*
X121171161Y-109993508D01*
X121024918Y-108802453D01*
X122414483Y-108631836D01*
X122560726Y-109822891D01*
G37*
G36*
X129975082Y-98197547D02*
G01*
X128585517Y-98368164D01*
X128439274Y-97177109D01*
X129828839Y-97006492D01*
X129975082Y-98197547D01*
G37*
G36*
X129560726Y-94822891D02*
G01*
X128171161Y-94993508D01*
X128024918Y-93802453D01*
X129414483Y-93631836D01*
X129560726Y-94822891D01*
G37*
G36*
X130975082Y-83197547D02*
G01*
X129585517Y-83368164D01*
X129439274Y-82177109D01*
X130828839Y-82006492D01*
X130975082Y-83197547D01*
G37*
G36*
X130560726Y-79822891D02*
G01*
X129171161Y-79993508D01*
X129024918Y-78802453D01*
X130414483Y-78631836D01*
X130560726Y-79822891D01*
G37*
M02*
