%FSLAX45Y45*%
G04 Gerber Fmt 4.5, Leading zero omitted, Abs format (unit mm)*
G04 Created by KiCad (PCBNEW (5.1.9)-1) date 2021-11-23 16:25:23*
%MOMM*%
%LPD*%
G01*
G04 APERTURE LIST*
%TA.AperFunction,Profile*%
%ADD10C,0.200000*%
%TD*%
%ADD11C,0.200000*%
%ADD12C,0.300000*%
G04 APERTURE END LIST*
D10*
X8176252Y-12093092D02*
X7939865Y-12066799D01*
X7939865Y-12066799D02*
X7722672Y-12042770D01*
X7722672Y-12042770D02*
X7523757Y-12020844D01*
X7523757Y-12020844D02*
X7342206Y-12000860D01*
X7342206Y-12000860D02*
X7177104Y-11982658D01*
X7177104Y-11982658D02*
X7027535Y-11966078D01*
X7027535Y-11966078D02*
X6892585Y-11950959D01*
X6892585Y-11950959D02*
X6771339Y-11937142D01*
X6771339Y-11937142D02*
X6662881Y-11924465D01*
X6662881Y-11924465D02*
X6566296Y-11912770D01*
X6566296Y-11912770D02*
X6480670Y-11901894D01*
X6480670Y-11901894D02*
X6405087Y-11891679D01*
X6405087Y-11891679D02*
X6338632Y-11881963D01*
X6338632Y-11881963D02*
X6280390Y-11872587D01*
X6280390Y-11872587D02*
X6229447Y-11863390D01*
X6229447Y-11863390D02*
X6184886Y-11854211D01*
X6184886Y-11854211D02*
X6145794Y-11844891D01*
X6145794Y-11844891D02*
X6111254Y-11835269D01*
X6111254Y-11835269D02*
X6080353Y-11825185D01*
X6080353Y-11825185D02*
X6052174Y-11814479D01*
X6052174Y-11814479D02*
X6025804Y-11802990D01*
X6025804Y-11802990D02*
X6000325Y-11790557D01*
X6000325Y-11790557D02*
X5974825Y-11777022D01*
X5974825Y-11777022D02*
X5948387Y-11762222D01*
X5948387Y-11762222D02*
X5920097Y-11745999D01*
X5920097Y-11745999D02*
X5889040Y-11728191D01*
X5889040Y-11728191D02*
X5854300Y-11708639D01*
X5854300Y-11708639D02*
X5814962Y-11687182D01*
X5814962Y-11687182D02*
X5770112Y-11663659D01*
X5770112Y-11663659D02*
X5718834Y-11637911D01*
X5718834Y-11637911D02*
X5660213Y-11609777D01*
X5660213Y-11609777D02*
X5593335Y-11579098D01*
X13810486Y-12378372D02*
X13722696Y-12378370D01*
X13722696Y-12378370D02*
X13645492Y-12378350D01*
X13645492Y-12378350D02*
X13577781Y-12378293D01*
X13577781Y-12378293D02*
X13518467Y-12378182D01*
X13518467Y-12378182D02*
X13466456Y-12377997D01*
X13466456Y-12377997D02*
X13420654Y-12377722D01*
X13420654Y-12377722D02*
X13379965Y-12377338D01*
X13379965Y-12377338D02*
X13343297Y-12376826D01*
X13343297Y-12376826D02*
X13309553Y-12376169D01*
X13309553Y-12376169D02*
X13277640Y-12375348D01*
X13277640Y-12375348D02*
X13246463Y-12374346D01*
X13246463Y-12374346D02*
X13214928Y-12373143D01*
X13214928Y-12373143D02*
X13181940Y-12371723D01*
X13181940Y-12371723D02*
X13146405Y-12370066D01*
X13146405Y-12370066D02*
X13107227Y-12368154D01*
X13107227Y-12368154D02*
X13063314Y-12365970D01*
X13063314Y-12365970D02*
X13013569Y-12363495D01*
X13013569Y-12363495D02*
X12956899Y-12360711D01*
X12956899Y-12360711D02*
X12892210Y-12357600D01*
X12892210Y-12357600D02*
X12818406Y-12354144D01*
X12818406Y-12354144D02*
X12734393Y-12350324D01*
X12734393Y-12350324D02*
X12639077Y-12346123D01*
X12639077Y-12346123D02*
X12531363Y-12341522D01*
X12531363Y-12341522D02*
X12410157Y-12336502D01*
X12410157Y-12336502D02*
X12274364Y-12331047D01*
X12274364Y-12331047D02*
X12122890Y-12325137D01*
X12122890Y-12325137D02*
X11954641Y-12318755D01*
X11954641Y-12318755D02*
X11768521Y-12311882D01*
X11768521Y-12311882D02*
X11563436Y-12304501D01*
X11563436Y-12304501D02*
X11338292Y-12296592D01*
X11338292Y-12296592D02*
X11091994Y-12288138D01*
X11091994Y-12288138D02*
X10823448Y-12279121D01*
X2901443Y-3553968D02*
X2916313Y-3537524D01*
X2916313Y-3537524D02*
X2938332Y-3521150D01*
X2938332Y-3521150D02*
X2957739Y-3515432D01*
X2957739Y-3515432D02*
X2984862Y-3513606D01*
X2984862Y-3513606D02*
X3023075Y-3515447D01*
X3023075Y-3515447D02*
X3047394Y-3517671D01*
X3047394Y-3517671D02*
X3075751Y-3520726D01*
X3075751Y-3520726D02*
X3108566Y-3524585D01*
X3108566Y-3524585D02*
X3146262Y-3529218D01*
X3146262Y-3529218D02*
X3189259Y-3534597D01*
X3189259Y-3534597D02*
X3237981Y-3540694D01*
X3237981Y-3540694D02*
X3292847Y-3547481D01*
X3292847Y-3547481D02*
X3354281Y-3554929D01*
X3354281Y-3554929D02*
X3422703Y-3563009D01*
X3422703Y-3563009D02*
X3498535Y-3571694D01*
X3498535Y-3571694D02*
X3582199Y-3580955D01*
X3582199Y-3580955D02*
X3674116Y-3590764D01*
X3674116Y-3590764D02*
X3774708Y-3601092D01*
X3774708Y-3601092D02*
X3884396Y-3611910D01*
X3884396Y-3611910D02*
X4003603Y-3623191D01*
X4003603Y-3623191D02*
X4132749Y-3634907D01*
X4132749Y-3634907D02*
X4272257Y-3647028D01*
X4272257Y-3647028D02*
X4422547Y-3659526D01*
X4422547Y-3659526D02*
X4584042Y-3672374D01*
X4584042Y-3672374D02*
X4757164Y-3685542D01*
X4757164Y-3685542D02*
X4942333Y-3699002D01*
X22650450Y-3709924D02*
X22838177Y-3695471D01*
X22838177Y-3695471D02*
X23013691Y-3681373D01*
X23013691Y-3681373D02*
X23177419Y-3667655D01*
X23177419Y-3667655D02*
X23329788Y-3654345D01*
X23329788Y-3654345D02*
X23471226Y-3641467D01*
X23471226Y-3641467D02*
X23602160Y-3629050D01*
X23602160Y-3629050D02*
X23723017Y-3617118D01*
X23723017Y-3617118D02*
X23834225Y-3605699D01*
X23834225Y-3605699D02*
X23936211Y-3594819D01*
X23936211Y-3594819D02*
X24029402Y-3584504D01*
X24029402Y-3584504D02*
X24114226Y-3574781D01*
X24114226Y-3574781D02*
X24191110Y-3565676D01*
X24191110Y-3565676D02*
X24260481Y-3557215D01*
X24260481Y-3557215D02*
X24322768Y-3549425D01*
X24322768Y-3549425D02*
X24378396Y-3542332D01*
X24378396Y-3542332D02*
X24427794Y-3535962D01*
X24427794Y-3535962D02*
X24471389Y-3530343D01*
X24471389Y-3530343D02*
X24509608Y-3525499D01*
X24509608Y-3525499D02*
X24542878Y-3521459D01*
X24542878Y-3521459D02*
X24571628Y-3518247D01*
X24571628Y-3518247D02*
X24596284Y-3515890D01*
X24596284Y-3515890D02*
X24617273Y-3514416D01*
X24617273Y-3514416D02*
X24649962Y-3514217D01*
X24649962Y-3514217D02*
X24673114Y-3517862D01*
X24673114Y-3517862D02*
X24697438Y-3530998D01*
X24697438Y-3530998D02*
X24711704Y-3545174D01*
X24711704Y-3545174D02*
X24719534Y-3553968D01*
X2116329Y-9643110D02*
X2901443Y-3553968D01*
X24719534Y-3553968D02*
X25504394Y-9653016D01*
X14695932Y-3634232D02*
X14890182Y-3630260D01*
X14890182Y-3630260D02*
X15084439Y-3624845D01*
X15084439Y-3624845D02*
X15278702Y-3618116D01*
X15278702Y-3618116D02*
X15472969Y-3610200D01*
X15472969Y-3610200D02*
X15667238Y-3601227D01*
X15667238Y-3601227D02*
X15861510Y-3591325D01*
X15861510Y-3591325D02*
X16055783Y-3580622D01*
X16055783Y-3580622D02*
X16250054Y-3569248D01*
X16250054Y-3569248D02*
X16444324Y-3557330D01*
X16444324Y-3557330D02*
X16638592Y-3544998D01*
X16638592Y-3544998D02*
X16832855Y-3532380D01*
X16832855Y-3532380D02*
X17027112Y-3519604D01*
X17027112Y-3519604D02*
X17221363Y-3506799D01*
X17221363Y-3506799D02*
X17415607Y-3494094D01*
X17415607Y-3494094D02*
X17609841Y-3481617D01*
X17609841Y-3481617D02*
X17804065Y-3469496D01*
X17804065Y-3469496D02*
X17998278Y-3457861D01*
X17998278Y-3457861D02*
X18192478Y-3446840D01*
X18192478Y-3446840D02*
X18386664Y-3436561D01*
X18386664Y-3436561D02*
X18580835Y-3427154D01*
X18580835Y-3427154D02*
X18774990Y-3418746D01*
X18774990Y-3418746D02*
X18969128Y-3411466D01*
X18969128Y-3411466D02*
X19163247Y-3405442D01*
X19163247Y-3405442D02*
X19357346Y-3400804D01*
X19357346Y-3400804D02*
X19551424Y-3397680D01*
X19551424Y-3397680D02*
X19745480Y-3396199D01*
X19745480Y-3396199D02*
X19939512Y-3396488D01*
X19939512Y-3396488D02*
X20133520Y-3398677D01*
X20133520Y-3398677D02*
X20327502Y-3402894D01*
X20327502Y-3402894D02*
X20521457Y-3409268D01*
X20521457Y-3409268D02*
X20715383Y-3417927D01*
X20715383Y-3417927D02*
X20909280Y-3429000D01*
X10823448Y-12279121D02*
X10746033Y-12276546D01*
X10746033Y-12276546D02*
X10677952Y-12274263D01*
X10677952Y-12274263D02*
X10618235Y-12272222D01*
X10618235Y-12272222D02*
X10565916Y-12270373D01*
X10565916Y-12270373D02*
X10520028Y-12268666D01*
X10520028Y-12268666D02*
X10479602Y-12267050D01*
X10479602Y-12267050D02*
X10443672Y-12265476D01*
X10443672Y-12265476D02*
X10411269Y-12263894D01*
X10411269Y-12263894D02*
X10381426Y-12262252D01*
X10381426Y-12262252D02*
X10353176Y-12260503D01*
X10353176Y-12260503D02*
X10325550Y-12258594D01*
X10325550Y-12258594D02*
X10297582Y-12256477D01*
X10297582Y-12256477D02*
X10268304Y-12254100D01*
X10268304Y-12254100D02*
X10236748Y-12251415D01*
X10236748Y-12251415D02*
X10201947Y-12248370D01*
X10201947Y-12248370D02*
X10162934Y-12244916D01*
X10162934Y-12244916D02*
X10118740Y-12241002D01*
X10118740Y-12241002D02*
X10068397Y-12236579D01*
X10068397Y-12236579D02*
X10010940Y-12231596D01*
X10010940Y-12231596D02*
X9945400Y-12226003D01*
X9945400Y-12226003D02*
X9870809Y-12219751D01*
X9870809Y-12219751D02*
X9786199Y-12212788D01*
X9786199Y-12212788D02*
X9690605Y-12205066D01*
X9690605Y-12205066D02*
X9583057Y-12196533D01*
X9583057Y-12196533D02*
X9462588Y-12187140D01*
X9462588Y-12187140D02*
X9328231Y-12176837D01*
X9328231Y-12176837D02*
X9179018Y-12165573D01*
X9179018Y-12165573D02*
X9013982Y-12153298D01*
X9013982Y-12153298D02*
X8832155Y-12139963D01*
X8832155Y-12139963D02*
X8632569Y-12125517D01*
X8632569Y-12125517D02*
X8414258Y-12109910D01*
X8414258Y-12109910D02*
X8176252Y-12093092D01*
X12917932Y-3634232D02*
X12973488Y-3635120D01*
X12973488Y-3635120D02*
X13029045Y-3635952D01*
X13029045Y-3635952D02*
X13084603Y-3636726D01*
X13084603Y-3636726D02*
X13140162Y-3637442D01*
X13140162Y-3637442D02*
X13195723Y-3638101D01*
X13195723Y-3638101D02*
X13251284Y-3638703D01*
X13251284Y-3638703D02*
X13306846Y-3639248D01*
X13306846Y-3639248D02*
X13362410Y-3639735D01*
X13362410Y-3639735D02*
X13417973Y-3640165D01*
X13417973Y-3640165D02*
X13473538Y-3640538D01*
X13473538Y-3640538D02*
X13529103Y-3640853D01*
X13529103Y-3640853D02*
X13584668Y-3641111D01*
X13584668Y-3641111D02*
X13640234Y-3641312D01*
X13640234Y-3641312D02*
X13695800Y-3641455D01*
X13695800Y-3641455D02*
X13751366Y-3641541D01*
X13751366Y-3641541D02*
X13806932Y-3641570D01*
X13806932Y-3641570D02*
X13862498Y-3641541D01*
X13862498Y-3641541D02*
X13918065Y-3641455D01*
X13918065Y-3641455D02*
X13973631Y-3641312D01*
X13973631Y-3641312D02*
X14029196Y-3641111D01*
X14029196Y-3641111D02*
X14084762Y-3640853D01*
X14084762Y-3640853D02*
X14140327Y-3640538D01*
X14140327Y-3640538D02*
X14195891Y-3640165D01*
X14195891Y-3640165D02*
X14251455Y-3639735D01*
X14251455Y-3639735D02*
X14307018Y-3639248D01*
X14307018Y-3639248D02*
X14362580Y-3638704D01*
X14362580Y-3638704D02*
X14418142Y-3638102D01*
X14418142Y-3638102D02*
X14473702Y-3637442D01*
X14473702Y-3637442D02*
X14529261Y-3636726D01*
X14529261Y-3636726D02*
X14584820Y-3635952D01*
X14584820Y-3635952D02*
X14640376Y-3635120D01*
X14640376Y-3635120D02*
X14695932Y-3634232D01*
X5593335Y-11579098D02*
X5288647Y-11403491D01*
X5288647Y-11403491D02*
X5003013Y-11241195D01*
X5003013Y-11241195D02*
X4735791Y-11091622D01*
X4735791Y-11091622D02*
X4486342Y-10954182D01*
X4486342Y-10954182D02*
X4254025Y-10828287D01*
X4254025Y-10828287D02*
X4038199Y-10713349D01*
X4038199Y-10713349D02*
X3838224Y-10608780D01*
X3838224Y-10608780D02*
X3653458Y-10513991D01*
X3653458Y-10513991D02*
X3483261Y-10428393D01*
X3483261Y-10428393D02*
X3326993Y-10351398D01*
X3326993Y-10351398D02*
X3184012Y-10282418D01*
X3184012Y-10282418D02*
X3053679Y-10220865D01*
X3053679Y-10220865D02*
X2935352Y-10166149D01*
X2935352Y-10166149D02*
X2828391Y-10117682D01*
X2828391Y-10117682D02*
X2732156Y-10074877D01*
X2732156Y-10074877D02*
X2646005Y-10037144D01*
X2646005Y-10037144D02*
X2569298Y-10003895D01*
X2569298Y-10003895D02*
X2501394Y-9974542D01*
X2501394Y-9974542D02*
X2441653Y-9948495D01*
X2441653Y-9948495D02*
X2389434Y-9925168D01*
X2389434Y-9925168D02*
X2344097Y-9903971D01*
X2344097Y-9903971D02*
X2305000Y-9884316D01*
X2305000Y-9884316D02*
X2271503Y-9865614D01*
X2271503Y-9865614D02*
X2242966Y-9847277D01*
X2242966Y-9847277D02*
X2218747Y-9828717D01*
X2218747Y-9828717D02*
X2198207Y-9809345D01*
X2198207Y-9809345D02*
X2180704Y-9788572D01*
X2180704Y-9788572D02*
X2165598Y-9765811D01*
X2165598Y-9765811D02*
X2152248Y-9740473D01*
X2152248Y-9740473D02*
X2140013Y-9711968D01*
X2140013Y-9711968D02*
X2128254Y-9679710D01*
X2128254Y-9679710D02*
X2116329Y-9643110D01*
X19446470Y-12092684D02*
X19208993Y-12108393D01*
X19208993Y-12108393D02*
X18991136Y-12123034D01*
X18991136Y-12123034D02*
X18791935Y-12136650D01*
X18791935Y-12136650D02*
X18610426Y-12149285D01*
X18610426Y-12149285D02*
X18445645Y-12160980D01*
X18445645Y-12160980D02*
X18296628Y-12171780D01*
X18296628Y-12171780D02*
X18162411Y-12181726D01*
X18162411Y-12181726D02*
X18042031Y-12190863D01*
X18042031Y-12190863D02*
X17934522Y-12199234D01*
X17934522Y-12199234D02*
X17838922Y-12206880D01*
X17838922Y-12206880D02*
X17754267Y-12213846D01*
X17754267Y-12213846D02*
X17679592Y-12220175D01*
X17679592Y-12220175D02*
X17613933Y-12225908D01*
X17613933Y-12225908D02*
X17556328Y-12231091D01*
X17556328Y-12231091D02*
X17505810Y-12235764D01*
X17505810Y-12235764D02*
X17461418Y-12239973D01*
X17461418Y-12239973D02*
X17422186Y-12243758D01*
X17422186Y-12243758D02*
X17387151Y-12247165D01*
X17387151Y-12247165D02*
X17355349Y-12250235D01*
X17355349Y-12250235D02*
X17325816Y-12253012D01*
X17325816Y-12253012D02*
X17297589Y-12255538D01*
X17297589Y-12255538D02*
X17269702Y-12257858D01*
X17269702Y-12257858D02*
X17241192Y-12260013D01*
X17241192Y-12260013D02*
X17211096Y-12262047D01*
X17211096Y-12262047D02*
X17178449Y-12264003D01*
X17178449Y-12264003D02*
X17142287Y-12265923D01*
X17142287Y-12265923D02*
X17101646Y-12267852D01*
X17101646Y-12267852D02*
X17055564Y-12269832D01*
X17055564Y-12269832D02*
X17003074Y-12271906D01*
X17003074Y-12271906D02*
X16943215Y-12274116D01*
X16943215Y-12274116D02*
X16875021Y-12276507D01*
X16875021Y-12276507D02*
X16797528Y-12279121D01*
X22031452Y-11579098D02*
X21964439Y-11609653D01*
X21964439Y-11609653D02*
X21905705Y-11637678D01*
X21905705Y-11637678D02*
X21854333Y-11663332D01*
X21854333Y-11663332D02*
X21809405Y-11686775D01*
X21809405Y-11686775D02*
X21770006Y-11708166D01*
X21770006Y-11708166D02*
X21735219Y-11727664D01*
X21735219Y-11727664D02*
X21704127Y-11745428D01*
X21704127Y-11745428D02*
X21675813Y-11761620D01*
X21675813Y-11761620D02*
X21649361Y-11776396D01*
X21649361Y-11776396D02*
X21623854Y-11789919D01*
X21623854Y-11789919D02*
X21598375Y-11802345D01*
X21598375Y-11802345D02*
X21572008Y-11813836D01*
X21572008Y-11813836D02*
X21543836Y-11824551D01*
X21543836Y-11824551D02*
X21512943Y-11834648D01*
X21512943Y-11834648D02*
X21478411Y-11844288D01*
X21478411Y-11844288D02*
X21439324Y-11853630D01*
X21439324Y-11853630D02*
X21394766Y-11862833D01*
X21394766Y-11862833D02*
X21343819Y-11872058D01*
X21343819Y-11872058D02*
X21285568Y-11881462D01*
X21285568Y-11881462D02*
X21219095Y-11891207D01*
X21219095Y-11891207D02*
X21143484Y-11901450D01*
X21143484Y-11901450D02*
X21057817Y-11912352D01*
X21057817Y-11912352D02*
X20961180Y-11924073D01*
X20961180Y-11924073D02*
X20852654Y-11936771D01*
X20852654Y-11936771D02*
X20731323Y-11950606D01*
X20731323Y-11950606D02*
X20596270Y-11965738D01*
X20596270Y-11965738D02*
X20446580Y-11982325D01*
X20446580Y-11982325D02*
X20281334Y-12000528D01*
X20281334Y-12000528D02*
X20099617Y-12020506D01*
X20099617Y-12020506D02*
X19900512Y-12042418D01*
X19900512Y-12042418D02*
X19683102Y-12066425D01*
X19683102Y-12066425D02*
X19446470Y-12092684D01*
X16797528Y-12279121D02*
X16528982Y-12288138D01*
X16528982Y-12288138D02*
X16282684Y-12296592D01*
X16282684Y-12296592D02*
X16057540Y-12304500D01*
X16057540Y-12304500D02*
X15852454Y-12311881D01*
X15852454Y-12311881D02*
X15666334Y-12318754D01*
X15666334Y-12318754D02*
X15498084Y-12325135D01*
X15498084Y-12325135D02*
X15346610Y-12331044D01*
X15346610Y-12331044D02*
X15210817Y-12336499D01*
X15210817Y-12336499D02*
X15089610Y-12341517D01*
X15089610Y-12341517D02*
X14981896Y-12346118D01*
X14981896Y-12346118D02*
X14886580Y-12350319D01*
X14886580Y-12350319D02*
X14802567Y-12354138D01*
X14802567Y-12354138D02*
X14728763Y-12357593D01*
X14728763Y-12357593D02*
X14664073Y-12360704D01*
X14664073Y-12360704D02*
X14607404Y-12363487D01*
X14607404Y-12363487D02*
X14557659Y-12365961D01*
X14557659Y-12365961D02*
X14513745Y-12368145D01*
X14513745Y-12368145D02*
X14474568Y-12370056D01*
X14474568Y-12370056D02*
X14439032Y-12371712D01*
X14439032Y-12371712D02*
X14406044Y-12373133D01*
X14406044Y-12373133D02*
X14374509Y-12374335D01*
X14374509Y-12374335D02*
X14343332Y-12375338D01*
X14343332Y-12375338D02*
X14311419Y-12376159D01*
X14311419Y-12376159D02*
X14277675Y-12376816D01*
X14277675Y-12376816D02*
X14241007Y-12377328D01*
X14241007Y-12377328D02*
X14200318Y-12377713D01*
X14200318Y-12377713D02*
X14154516Y-12377989D01*
X14154516Y-12377989D02*
X14102505Y-12378175D01*
X14102505Y-12378175D02*
X14043191Y-12378287D01*
X14043191Y-12378287D02*
X13975480Y-12378346D01*
X13975480Y-12378346D02*
X13898276Y-12378368D01*
X13898276Y-12378368D02*
X13810486Y-12378372D01*
X25504394Y-9653016D02*
X25501269Y-9689348D01*
X25501269Y-9689348D02*
X25497316Y-9721314D01*
X25497316Y-9721314D02*
X25491938Y-9749505D01*
X25491938Y-9749505D02*
X25484537Y-9774509D01*
X25484537Y-9774509D02*
X25474518Y-9796919D01*
X25474518Y-9796919D02*
X25461281Y-9817325D01*
X25461281Y-9817325D02*
X25444230Y-9836317D01*
X25444230Y-9836317D02*
X25422769Y-9854486D01*
X25422769Y-9854486D02*
X25396298Y-9872423D01*
X25396298Y-9872423D02*
X25364222Y-9890717D01*
X25364222Y-9890717D02*
X25325943Y-9909961D01*
X25325943Y-9909961D02*
X25280863Y-9930743D01*
X25280863Y-9930743D02*
X25228386Y-9953655D01*
X25228386Y-9953655D02*
X25167915Y-9979287D01*
X25167915Y-9979287D02*
X25098851Y-10008231D01*
X25098851Y-10008231D02*
X25020598Y-10041076D01*
X25020598Y-10041076D02*
X24932558Y-10078413D01*
X24932558Y-10078413D02*
X24834135Y-10120832D01*
X24834135Y-10120832D02*
X24724731Y-10168925D01*
X24724731Y-10168925D02*
X24603748Y-10223281D01*
X24603748Y-10223281D02*
X24470590Y-10284492D01*
X24470590Y-10284492D02*
X24324659Y-10353147D01*
X24324659Y-10353147D02*
X24165358Y-10429838D01*
X24165358Y-10429838D02*
X23992090Y-10515155D01*
X23992090Y-10515155D02*
X23804257Y-10609689D01*
X23804257Y-10609689D02*
X23601262Y-10714030D01*
X23601262Y-10714030D02*
X23382509Y-10828769D01*
X23382509Y-10828769D02*
X23147399Y-10954496D01*
X23147399Y-10954496D02*
X22895336Y-11091801D01*
X22895336Y-11091801D02*
X22625721Y-11241276D01*
X22625721Y-11241276D02*
X22337959Y-11403512D01*
X22337959Y-11403512D02*
X22031452Y-11579098D01*
X4942333Y-3699002D02*
X4997850Y-3702033D01*
X4997850Y-3702033D02*
X5053277Y-3703299D01*
X5053277Y-3703299D02*
X5108620Y-3702901D01*
X5108620Y-3702901D02*
X5163884Y-3700943D01*
X5163884Y-3700943D02*
X5219075Y-3697526D01*
X5219075Y-3697526D02*
X5274201Y-3692754D01*
X5274201Y-3692754D02*
X5329266Y-3686729D01*
X5329266Y-3686729D02*
X5384278Y-3679553D01*
X5384278Y-3679553D02*
X5439241Y-3671330D01*
X5439241Y-3671330D02*
X5494164Y-3662162D01*
X5494164Y-3662162D02*
X5549050Y-3652151D01*
X5549050Y-3652151D02*
X5603907Y-3641400D01*
X5603907Y-3641400D02*
X5658742Y-3630012D01*
X5658742Y-3630012D02*
X5713558Y-3618089D01*
X5713558Y-3618089D02*
X5768364Y-3605734D01*
X5768364Y-3605734D02*
X5823166Y-3593050D01*
X5823166Y-3593050D02*
X5877968Y-3580138D01*
X5877968Y-3580138D02*
X5932778Y-3567102D01*
X5932778Y-3567102D02*
X5987601Y-3554045D01*
X5987601Y-3554045D02*
X6042444Y-3541068D01*
X6042444Y-3541068D02*
X6097313Y-3528275D01*
X6097313Y-3528275D02*
X6152214Y-3515767D01*
X6152214Y-3515767D02*
X6207153Y-3503649D01*
X6207153Y-3503649D02*
X6262137Y-3492021D01*
X6262137Y-3492021D02*
X6317170Y-3480988D01*
X6317170Y-3480988D02*
X6372260Y-3470651D01*
X6372260Y-3470651D02*
X6427413Y-3461113D01*
X6427413Y-3461113D02*
X6482634Y-3452477D01*
X6482634Y-3452477D02*
X6537931Y-3444845D01*
X6537931Y-3444845D02*
X6593308Y-3438319D01*
X6593308Y-3438319D02*
X6648773Y-3433004D01*
X6648773Y-3433004D02*
X6704331Y-3429000D01*
X6704331Y-3429000D02*
X6898280Y-3418646D01*
X6898280Y-3418646D02*
X7092253Y-3410615D01*
X7092253Y-3410615D02*
X7286249Y-3404782D01*
X7286249Y-3404782D02*
X7480267Y-3401024D01*
X7480267Y-3401024D02*
X7674306Y-3399216D01*
X7674306Y-3399216D02*
X7868365Y-3399234D01*
X7868365Y-3399234D02*
X8062443Y-3400954D01*
X8062443Y-3400954D02*
X8256540Y-3404253D01*
X8256540Y-3404253D02*
X8450654Y-3409005D01*
X8450654Y-3409005D02*
X8644785Y-3415088D01*
X8644785Y-3415088D02*
X8838931Y-3422376D01*
X8838931Y-3422376D02*
X9033092Y-3430746D01*
X9033092Y-3430746D02*
X9227266Y-3440073D01*
X9227266Y-3440073D02*
X9421453Y-3450235D01*
X9421453Y-3450235D02*
X9615652Y-3461105D01*
X9615652Y-3461105D02*
X9809861Y-3472562D01*
X9809861Y-3472562D02*
X10004081Y-3484479D01*
X10004081Y-3484479D02*
X10198309Y-3496734D01*
X10198309Y-3496734D02*
X10392546Y-3509202D01*
X10392546Y-3509202D02*
X10586790Y-3521759D01*
X10586790Y-3521759D02*
X10781040Y-3534281D01*
X10781040Y-3534281D02*
X10975295Y-3546645D01*
X10975295Y-3546645D02*
X11169554Y-3558725D01*
X11169554Y-3558725D02*
X11363817Y-3570397D01*
X11363817Y-3570397D02*
X11558083Y-3581539D01*
X11558083Y-3581539D02*
X11752350Y-3592025D01*
X11752350Y-3592025D02*
X11946617Y-3601732D01*
X11946617Y-3601732D02*
X12140885Y-3610535D01*
X12140885Y-3610535D02*
X12335151Y-3618311D01*
X12335151Y-3618311D02*
X12529415Y-3624935D01*
X12529415Y-3624935D02*
X12723675Y-3630283D01*
X12723675Y-3630283D02*
X12917932Y-3634232D01*
X20909280Y-3429000D02*
X20964231Y-3433212D01*
X20964231Y-3433212D02*
X21019081Y-3438785D01*
X21019081Y-3438785D02*
X21073835Y-3445614D01*
X21073835Y-3445614D02*
X21128502Y-3453590D01*
X21128502Y-3453590D02*
X21183086Y-3462607D01*
X21183086Y-3462607D02*
X21237596Y-3472559D01*
X21237596Y-3472559D02*
X21292038Y-3483339D01*
X21292038Y-3483339D02*
X21346418Y-3494840D01*
X21346418Y-3494840D02*
X21400743Y-3506956D01*
X21400743Y-3506956D02*
X21455020Y-3519579D01*
X21455020Y-3519579D02*
X21509256Y-3532604D01*
X21509256Y-3532604D02*
X21563456Y-3545924D01*
X21563456Y-3545924D02*
X21617629Y-3559432D01*
X21617629Y-3559432D02*
X21671780Y-3573021D01*
X21671780Y-3573021D02*
X21725916Y-3586584D01*
X21725916Y-3586584D02*
X21780045Y-3600016D01*
X21780045Y-3600016D02*
X21834171Y-3613209D01*
X21834171Y-3613209D02*
X21888304Y-3626056D01*
X21888304Y-3626056D02*
X21942448Y-3638451D01*
X21942448Y-3638451D02*
X21996610Y-3650288D01*
X21996610Y-3650288D02*
X22050798Y-3661460D01*
X22050798Y-3661460D02*
X22105019Y-3671859D01*
X22105019Y-3671859D02*
X22159277Y-3681380D01*
X22159277Y-3681380D02*
X22213581Y-3689915D01*
X22213581Y-3689915D02*
X22267938Y-3697358D01*
X22267938Y-3697358D02*
X22322353Y-3703603D01*
X22322353Y-3703603D02*
X22376833Y-3708542D01*
X22376833Y-3708542D02*
X22431385Y-3712069D01*
X22431385Y-3712069D02*
X22486017Y-3714077D01*
X22486017Y-3714077D02*
X22540733Y-3714460D01*
X22540733Y-3714460D02*
X22595542Y-3713112D01*
X22595542Y-3713112D02*
X22650450Y-3709924D01*
D11*
X4252916Y-4341324D02*
X4292916Y-4381324D01*
X4292916Y-4341324D02*
X4252916Y-4381324D01*
X5993437Y-4309105D02*
X6033437Y-4349105D01*
X6033437Y-4309105D02*
X5993437Y-4349105D01*
X7942278Y-4068566D02*
X7982278Y-4108566D01*
X7982278Y-4068566D02*
X7942278Y-4108566D01*
X9775038Y-4773427D02*
X9815038Y-4813427D01*
X9815038Y-4773427D02*
X9775038Y-4813427D01*
X11665839Y-5005588D02*
X11705839Y-5045588D01*
X11705839Y-5005588D02*
X11665839Y-5045588D01*
X11923080Y-11750360D02*
X11963080Y-11790360D01*
X11963080Y-11750360D02*
X11923080Y-11790360D01*
X11935780Y-10348280D02*
X11975780Y-10388280D01*
X11975780Y-10348280D02*
X11935780Y-10388280D01*
X12022140Y-10729280D02*
X12062140Y-10769280D01*
X12062140Y-10729280D02*
X12022140Y-10769280D01*
X12535220Y-7389180D02*
X12575220Y-7429180D01*
X12575220Y-7389180D02*
X12535220Y-7429180D01*
X13518200Y-11248733D02*
X13558200Y-11288733D01*
X13558200Y-11248733D02*
X13518200Y-11288733D01*
X13789980Y-9223060D02*
X13829980Y-9263060D01*
X13829980Y-9223060D02*
X13789980Y-9263060D01*
X13952540Y-9632000D02*
X13992540Y-9672000D01*
X13992540Y-9632000D02*
X13952540Y-9672000D01*
X13959282Y-8031800D02*
X13999282Y-8071800D01*
X13999282Y-8031800D02*
X13959282Y-8071800D01*
X14054140Y-11248733D02*
X14094140Y-11288733D01*
X14094140Y-11248733D02*
X14054140Y-11288733D01*
X15473576Y-7734620D02*
X15513576Y-7774620D01*
X15513576Y-7734620D02*
X15473576Y-7774620D01*
X15540040Y-10726740D02*
X15580040Y-10766740D01*
X15580040Y-10726740D02*
X15540040Y-10766740D01*
X15702600Y-9073200D02*
X15742600Y-9113200D01*
X15742600Y-9073200D02*
X15702600Y-9113200D01*
X13094970Y-3782060D02*
G75*
G03*
X13094970Y-3782060I-54610J0D01*
G01*
X13094970Y-4036060D02*
G75*
G03*
X13094970Y-4036060I-54610J0D01*
G01*
X13094970Y-4290060D02*
G75*
G03*
X13094970Y-4290060I-54610J0D01*
G01*
X13094970Y-4544060D02*
G75*
G03*
X13094970Y-4544060I-54610J0D01*
G01*
X13094970Y-4798060D02*
G75*
G03*
X13094970Y-4798060I-54610J0D01*
G01*
X13094970Y-5052060D02*
G75*
G03*
X13094970Y-5052060I-54610J0D01*
G01*
X13094970Y-5306060D02*
G75*
G03*
X13094970Y-5306060I-54610J0D01*
G01*
X13094970Y-5560060D02*
G75*
G03*
X13094970Y-5560060I-54610J0D01*
G01*
X13094970Y-5814060D02*
G75*
G03*
X13094970Y-5814060I-54610J0D01*
G01*
X13094970Y-6068060D02*
G75*
G03*
X13094970Y-6068060I-54610J0D01*
G01*
X13094970Y-6322060D02*
G75*
G03*
X13094970Y-6322060I-54610J0D01*
G01*
X13094970Y-6576060D02*
G75*
G03*
X13094970Y-6576060I-54610J0D01*
G01*
X14618970Y-3782060D02*
G75*
G03*
X14618970Y-3782060I-54610J0D01*
G01*
X14618970Y-4036060D02*
G75*
G03*
X14618970Y-4036060I-54610J0D01*
G01*
X14618970Y-4290060D02*
G75*
G03*
X14618970Y-4290060I-54610J0D01*
G01*
X14618970Y-4544060D02*
G75*
G03*
X14618970Y-4544060I-54610J0D01*
G01*
X14618970Y-4798060D02*
G75*
G03*
X14618970Y-4798060I-54610J0D01*
G01*
X14618970Y-5052060D02*
G75*
G03*
X14618970Y-5052060I-54610J0D01*
G01*
X14618970Y-5306060D02*
G75*
G03*
X14618970Y-5306060I-54610J0D01*
G01*
X14618970Y-5560060D02*
G75*
G03*
X14618970Y-5560060I-54610J0D01*
G01*
X14618970Y-5814060D02*
G75*
G03*
X14618970Y-5814060I-54610J0D01*
G01*
X14618970Y-6068060D02*
G75*
G03*
X14618970Y-6068060I-54610J0D01*
G01*
X14618970Y-6322060D02*
G75*
G03*
X14618970Y-6322060I-54610J0D01*
G01*
X14618970Y-6576060D02*
G75*
G03*
X14618970Y-6576060I-54610J0D01*
G01*
X2743675Y-9080736D02*
X2743675Y-9200736D01*
X2683675Y-9140736D02*
X2803675Y-9140736D01*
X2975836Y-7189936D02*
X2975836Y-7309936D01*
X2915836Y-7249936D02*
X3035836Y-7249936D01*
X3207997Y-5299135D02*
X3207997Y-5419135D01*
X3147997Y-5359135D02*
X3267997Y-5359135D01*
X3214355Y-9350105D02*
X3214355Y-9470105D01*
X3154355Y-9410105D02*
X3274355Y-9410105D01*
X3446516Y-7459305D02*
X3446516Y-7579305D01*
X3386516Y-7519305D02*
X3506516Y-7519305D01*
X3678677Y-5568505D02*
X3678677Y-5688504D01*
X3618677Y-5628504D02*
X3738677Y-5628504D01*
X4692516Y-8840197D02*
X4692516Y-8960197D01*
X4632516Y-8900197D02*
X4752516Y-8900197D01*
X4924677Y-6949397D02*
X4924677Y-7069397D01*
X4864677Y-7009397D02*
X4984677Y-7009397D01*
X5156838Y-5058596D02*
X5156838Y-5178596D01*
X5096838Y-5118596D02*
X5216838Y-5118596D01*
X5163196Y-9109566D02*
X5163196Y-9229566D01*
X5103196Y-9169566D02*
X5223196Y-9169566D01*
X5395357Y-7218766D02*
X5395357Y-7338766D01*
X5335357Y-7278766D02*
X5455357Y-7278766D01*
X5627518Y-5327966D02*
X5627518Y-5447966D01*
X5567518Y-5387966D02*
X5687518Y-5387966D01*
X6114829Y-10934142D02*
X6114829Y-11054142D01*
X6054829Y-10994142D02*
X6174829Y-10994142D01*
X6585510Y-11203511D02*
X6585510Y-11323511D01*
X6525510Y-11263511D02*
X6645510Y-11263511D01*
X6641356Y-8599658D02*
X6641356Y-8719658D01*
X6581356Y-8659658D02*
X6701356Y-8659658D01*
X6873517Y-6708858D02*
X6873517Y-6828858D01*
X6813517Y-6768858D02*
X6933517Y-6768858D01*
X7105678Y-4818057D02*
X7105678Y-4938057D01*
X7045678Y-4878057D02*
X7165678Y-4878057D01*
X7112037Y-8869027D02*
X7112037Y-8989027D01*
X7052037Y-8929027D02*
X7172037Y-8929027D01*
X7344198Y-6978227D02*
X7344198Y-7098227D01*
X7284198Y-7038227D02*
X7404198Y-7038227D01*
X7576359Y-5087427D02*
X7576359Y-5207427D01*
X7516359Y-5147427D02*
X7636359Y-5147427D01*
X8474116Y-9304519D02*
X8474116Y-9424519D01*
X8414116Y-9364519D02*
X8534116Y-9364519D01*
X8706277Y-7413719D02*
X8706277Y-7533719D01*
X8646277Y-7473719D02*
X8766277Y-7473719D01*
X8938439Y-5522918D02*
X8938439Y-5642918D01*
X8878439Y-5582918D02*
X8998439Y-5582918D01*
X8944797Y-9573889D02*
X8944797Y-9693889D01*
X8884797Y-9633889D02*
X9004797Y-9633889D01*
X9176958Y-7683088D02*
X9176958Y-7803088D01*
X9116958Y-7743088D02*
X9236958Y-7743088D01*
X9187355Y-11311400D02*
X9187355Y-11431400D01*
X9127355Y-11371400D02*
X9247355Y-11371400D01*
X9409119Y-5792288D02*
X9409119Y-5912288D01*
X9349119Y-5852288D02*
X9469119Y-5852288D01*
X9658036Y-11580769D02*
X9658036Y-11700769D01*
X9598036Y-11640769D02*
X9718036Y-11640769D01*
X10364917Y-9536680D02*
X10364917Y-9656680D01*
X10304917Y-9596680D02*
X10424917Y-9596680D01*
X10597078Y-7645880D02*
X10597078Y-7765880D01*
X10537078Y-7705880D02*
X10657078Y-7705880D01*
X10829239Y-5755079D02*
X10829239Y-5875079D01*
X10769239Y-5815079D02*
X10889239Y-5815079D01*
X10835597Y-9806050D02*
X10835597Y-9926050D01*
X10775597Y-9866050D02*
X10895597Y-9866050D01*
X11067758Y-7915249D02*
X11067758Y-8035249D01*
X11007758Y-7975249D02*
X11127758Y-7975249D01*
X11299919Y-6024449D02*
X11299919Y-6144449D01*
X11239919Y-6084449D02*
X11359919Y-6084449D01*
X15791215Y-5876949D02*
X15791215Y-5996949D01*
X15731215Y-5936949D02*
X15851215Y-5936949D01*
X16023376Y-7767749D02*
X16023376Y-7887749D01*
X15963376Y-7827749D02*
X16083376Y-7827749D01*
X16255537Y-9658550D02*
X16255537Y-9778550D01*
X16195537Y-9718550D02*
X16315537Y-9718550D01*
X16313081Y-6024449D02*
X16313081Y-6144449D01*
X16253081Y-6084449D02*
X16373081Y-6084449D01*
X16545242Y-7915249D02*
X16545242Y-8035249D01*
X16485242Y-7975249D02*
X16605242Y-7975249D01*
X16777403Y-9806050D02*
X16777403Y-9926050D01*
X16717403Y-9866050D02*
X16837403Y-9866050D01*
X17433099Y-11433269D02*
X17433099Y-11553269D01*
X17373099Y-11493269D02*
X17493099Y-11493269D01*
X17682015Y-5644788D02*
X17682015Y-5764788D01*
X17622015Y-5704788D02*
X17742015Y-5704788D01*
X17914177Y-7535588D02*
X17914177Y-7655588D01*
X17854177Y-7595588D02*
X17974177Y-7595588D01*
X17954964Y-11580769D02*
X17954964Y-11700769D01*
X17894964Y-11640769D02*
X18014964Y-11640769D01*
X18146338Y-9426389D02*
X18146338Y-9546389D01*
X18086338Y-9486389D02*
X18206338Y-9486389D01*
X18203881Y-5792288D02*
X18203881Y-5912288D01*
X18143881Y-5852288D02*
X18263881Y-5852288D01*
X18436042Y-7683088D02*
X18436042Y-7803088D01*
X18376042Y-7743088D02*
X18496042Y-7743088D01*
X18668203Y-9573889D02*
X18668203Y-9693889D01*
X18608203Y-9633889D02*
X18728203Y-9633889D01*
X19514776Y-4939927D02*
X19514776Y-5059927D01*
X19454776Y-4999927D02*
X19574776Y-4999927D01*
X19746937Y-6830727D02*
X19746937Y-6950727D01*
X19686937Y-6890727D02*
X19806937Y-6890727D01*
X19979098Y-8721527D02*
X19979098Y-8841527D01*
X19919098Y-8781527D02*
X20039098Y-8781527D01*
X20036641Y-5087427D02*
X20036641Y-5207427D01*
X19976641Y-5147427D02*
X20096641Y-5147427D01*
X20268802Y-6978227D02*
X20268802Y-7098227D01*
X20208802Y-7038227D02*
X20328802Y-7038227D01*
X20500963Y-8869027D02*
X20500963Y-8989027D01*
X20440963Y-8929027D02*
X20560963Y-8929027D01*
X20505624Y-11056011D02*
X20505624Y-11176011D01*
X20445624Y-11116011D02*
X20565624Y-11116011D01*
X21027490Y-11203511D02*
X21027490Y-11323511D01*
X20967490Y-11263511D02*
X21087490Y-11263511D01*
X21463616Y-5180466D02*
X21463616Y-5300466D01*
X21403616Y-5240466D02*
X21523616Y-5240466D01*
X21695777Y-7071266D02*
X21695777Y-7191266D01*
X21635777Y-7131266D02*
X21755777Y-7131266D01*
X21927938Y-8962066D02*
X21927938Y-9082066D01*
X21867938Y-9022066D02*
X21987938Y-9022066D01*
X21985482Y-5327966D02*
X21985482Y-5447966D01*
X21925482Y-5387966D02*
X22045482Y-5387966D01*
X22217643Y-7218766D02*
X22217643Y-7338766D01*
X22157643Y-7278766D02*
X22277643Y-7278766D01*
X22449804Y-9109566D02*
X22449804Y-9229566D01*
X22389804Y-9169566D02*
X22509804Y-9169566D01*
X23412457Y-5421005D02*
X23412457Y-5541005D01*
X23352457Y-5481005D02*
X23472457Y-5481005D01*
X23644618Y-7311805D02*
X23644618Y-7431805D01*
X23584618Y-7371805D02*
X23704618Y-7371805D01*
X23876779Y-9202605D02*
X23876779Y-9322605D01*
X23816779Y-9262605D02*
X23936779Y-9262605D01*
X23934322Y-5568505D02*
X23934322Y-5688504D01*
X23874322Y-5628504D02*
X23994322Y-5628504D01*
X24166484Y-7459305D02*
X24166484Y-7579305D01*
X24106484Y-7519305D02*
X24226484Y-7519305D01*
X24398645Y-9350105D02*
X24398645Y-9470105D01*
X24338645Y-9410105D02*
X24458645Y-9410105D01*
X2800462Y-8817580D02*
X2800462Y-8697370D01*
X2680253Y-8697370D01*
X2680253Y-8817580D01*
X2800462Y-8817580D01*
X3032624Y-6926779D02*
X3032624Y-6806570D01*
X2912414Y-6806570D01*
X2912414Y-6926779D01*
X3032624Y-6926779D01*
X3264785Y-5035979D02*
X3264785Y-4915770D01*
X3144575Y-4915770D01*
X3144575Y-5035979D01*
X3264785Y-5035979D01*
X3892263Y-8951636D02*
X3892263Y-8831427D01*
X3772054Y-8831427D01*
X3772054Y-8951636D01*
X3892263Y-8951636D01*
X4124424Y-7060835D02*
X4124424Y-6940626D01*
X4004215Y-6940626D01*
X4004215Y-7060835D01*
X4124424Y-7060835D01*
X4356586Y-5170035D02*
X4356586Y-5049826D01*
X4236376Y-5049826D01*
X4236376Y-5170035D01*
X4356586Y-5170035D01*
X4749303Y-8577041D02*
X4749303Y-8456831D01*
X4629094Y-8456831D01*
X4629094Y-8577041D01*
X4749303Y-8577041D01*
X4981464Y-6686240D02*
X4981464Y-6566031D01*
X4861255Y-6566031D01*
X4861255Y-6686240D01*
X4981464Y-6686240D01*
X5213625Y-4795440D02*
X5213625Y-4675231D01*
X5093416Y-4675231D01*
X5093416Y-4795440D01*
X5213625Y-4795440D01*
X5841104Y-8711097D02*
X5841104Y-8590888D01*
X5720895Y-8590888D01*
X5720895Y-8711097D01*
X5841104Y-8711097D01*
X6073265Y-6820296D02*
X6073265Y-6700087D01*
X5953056Y-6700087D01*
X5953056Y-6820296D01*
X6073265Y-6820296D01*
X6171617Y-10670985D02*
X6171617Y-10550776D01*
X6051408Y-10550776D01*
X6051408Y-10670985D01*
X6171617Y-10670985D01*
X6305426Y-4929496D02*
X6305426Y-4809287D01*
X6185217Y-4809287D01*
X6185217Y-4929496D01*
X6305426Y-4929496D01*
X6698144Y-8336502D02*
X6698144Y-8216292D01*
X6577934Y-8216292D01*
X6577934Y-8336502D01*
X6698144Y-8336502D01*
X6930305Y-6445701D02*
X6930305Y-6325492D01*
X6810096Y-6325492D01*
X6810096Y-6445701D01*
X6930305Y-6445701D01*
X7162466Y-4554901D02*
X7162466Y-4434692D01*
X7042257Y-4434692D01*
X7042257Y-4554901D01*
X7162466Y-4554901D01*
X7263418Y-10805041D02*
X7263418Y-10684832D01*
X7143209Y-10684832D01*
X7143209Y-10805041D01*
X7263418Y-10805041D01*
X7789945Y-8470558D02*
X7789945Y-8350349D01*
X7669735Y-8350349D01*
X7669735Y-8470558D01*
X7789945Y-8470558D01*
X8022106Y-6579757D02*
X8022106Y-6459548D01*
X7901896Y-6459548D01*
X7901896Y-6579757D01*
X8022106Y-6579757D01*
X8254267Y-4688957D02*
X8254267Y-4568748D01*
X8134057Y-4568748D01*
X8134057Y-4688957D01*
X8254267Y-4688957D01*
X8530904Y-9041363D02*
X8530904Y-8921154D01*
X8410695Y-8921154D01*
X8410695Y-9041363D01*
X8530904Y-9041363D01*
X8763065Y-7150562D02*
X8763065Y-7030353D01*
X8642856Y-7030353D01*
X8642856Y-7150562D01*
X8763065Y-7150562D01*
X8995226Y-5259762D02*
X8995226Y-5139553D01*
X8875017Y-5139553D01*
X8875017Y-5259762D01*
X8995226Y-5259762D01*
X9244143Y-11048244D02*
X9244143Y-10928035D01*
X9123934Y-10928035D01*
X9123934Y-11048244D01*
X9244143Y-11048244D01*
X9622705Y-9175419D02*
X9622705Y-9055210D01*
X9502495Y-9055210D01*
X9502495Y-9175419D01*
X9622705Y-9175419D01*
X9854866Y-7284619D02*
X9854866Y-7164409D01*
X9734657Y-7164409D01*
X9734657Y-7284619D01*
X9854866Y-7284619D01*
X10087027Y-5393818D02*
X10087027Y-5273609D01*
X9966818Y-5273609D01*
X9966818Y-5393818D01*
X10087027Y-5393818D01*
X10335944Y-11182300D02*
X10335944Y-11062091D01*
X10215735Y-11062091D01*
X10215735Y-11182300D01*
X10335944Y-11182300D01*
X10421705Y-9273524D02*
X10421705Y-9153315D01*
X10301495Y-9153315D01*
X10301495Y-9273524D01*
X10421705Y-9273524D01*
X10653866Y-7382724D02*
X10653866Y-7262514D01*
X10533656Y-7262514D01*
X10533656Y-7382724D01*
X10653866Y-7382724D01*
X10886027Y-5491923D02*
X10886027Y-5371714D01*
X10765817Y-5371714D01*
X10765817Y-5491923D01*
X10886027Y-5491923D01*
X11513505Y-9407580D02*
X11513505Y-9287371D01*
X11393296Y-9287371D01*
X11393296Y-9407580D01*
X11513505Y-9407580D01*
X11745666Y-7516780D02*
X11745666Y-7396570D01*
X11625457Y-7396570D01*
X11625457Y-7516780D01*
X11745666Y-7516780D01*
X11977827Y-5625979D02*
X11977827Y-5505770D01*
X11857618Y-5505770D01*
X11857618Y-5625979D01*
X11977827Y-5625979D01*
X15755382Y-5625979D02*
X15755382Y-5505770D01*
X15635173Y-5505770D01*
X15635173Y-5625979D01*
X15755382Y-5625979D01*
X15987543Y-7516780D02*
X15987543Y-7396570D01*
X15867334Y-7396570D01*
X15867334Y-7516780D01*
X15987543Y-7516780D01*
X16219704Y-9407580D02*
X16219704Y-9287371D01*
X16099495Y-9287371D01*
X16099495Y-9407580D01*
X16219704Y-9407580D01*
X16847183Y-5491923D02*
X16847183Y-5371714D01*
X16726973Y-5371714D01*
X16726973Y-5491923D01*
X16847183Y-5491923D01*
X17079344Y-7382724D02*
X17079344Y-7262514D01*
X16959135Y-7262514D01*
X16959135Y-7382724D01*
X17079344Y-7382724D01*
X17311505Y-9273524D02*
X17311505Y-9153315D01*
X17191296Y-9153315D01*
X17191296Y-9273524D01*
X17311505Y-9273524D01*
X17397266Y-11182300D02*
X17397266Y-11062091D01*
X17277056Y-11062091D01*
X17277056Y-11182300D01*
X17397266Y-11182300D01*
X17646182Y-5393818D02*
X17646182Y-5273609D01*
X17525973Y-5273609D01*
X17525973Y-5393818D01*
X17646182Y-5393818D01*
X17878344Y-7284619D02*
X17878344Y-7164409D01*
X17758134Y-7164409D01*
X17758134Y-7284619D01*
X17878344Y-7284619D01*
X18110505Y-9175419D02*
X18110505Y-9055210D01*
X17990295Y-9055210D01*
X17990295Y-9175419D01*
X18110505Y-9175419D01*
X18489066Y-11048244D02*
X18489066Y-10928035D01*
X18368857Y-10928035D01*
X18368857Y-11048244D01*
X18489066Y-11048244D01*
X18737983Y-5259762D02*
X18737983Y-5139553D01*
X18617774Y-5139553D01*
X18617774Y-5259762D01*
X18737983Y-5259762D01*
X18970144Y-7150562D02*
X18970144Y-7030353D01*
X18849935Y-7030353D01*
X18849935Y-7150562D01*
X18970144Y-7150562D01*
X19202305Y-9041363D02*
X19202305Y-8921154D01*
X19082096Y-8921154D01*
X19082096Y-9041363D01*
X19202305Y-9041363D01*
X19478943Y-4688957D02*
X19478943Y-4568748D01*
X19358733Y-4568748D01*
X19358733Y-4688957D01*
X19478943Y-4688957D01*
X19711104Y-6579757D02*
X19711104Y-6459548D01*
X19590894Y-6459548D01*
X19590894Y-6579757D01*
X19711104Y-6579757D01*
X19943265Y-8470558D02*
X19943265Y-8350349D01*
X19823055Y-8350349D01*
X19823055Y-8470558D01*
X19943265Y-8470558D01*
X20469791Y-10805041D02*
X20469791Y-10684832D01*
X20349582Y-10684832D01*
X20349582Y-10805041D01*
X20469791Y-10805041D01*
X20570743Y-4554901D02*
X20570743Y-4434692D01*
X20450534Y-4434692D01*
X20450534Y-4554901D01*
X20570743Y-4554901D01*
X20802904Y-6445701D02*
X20802904Y-6325492D01*
X20682695Y-6325492D01*
X20682695Y-6445701D01*
X20802904Y-6445701D01*
X21035066Y-8336502D02*
X21035066Y-8216292D01*
X20914856Y-8216292D01*
X20914856Y-8336502D01*
X21035066Y-8336502D01*
X21427783Y-4929496D02*
X21427783Y-4809287D01*
X21307574Y-4809287D01*
X21307574Y-4929496D01*
X21427783Y-4929496D01*
X21561592Y-10670985D02*
X21561592Y-10550776D01*
X21441383Y-10550776D01*
X21441383Y-10670985D01*
X21561592Y-10670985D01*
X21659944Y-6820296D02*
X21659944Y-6700087D01*
X21539735Y-6700087D01*
X21539735Y-6820296D01*
X21659944Y-6820296D01*
X21892105Y-8711097D02*
X21892105Y-8590888D01*
X21771896Y-8590888D01*
X21771896Y-8711097D01*
X21892105Y-8711097D01*
X22519584Y-4795440D02*
X22519584Y-4675231D01*
X22399375Y-4675231D01*
X22399375Y-4795440D01*
X22519584Y-4795440D01*
X22751745Y-6686240D02*
X22751745Y-6566031D01*
X22631536Y-6566031D01*
X22631536Y-6686240D01*
X22751745Y-6686240D01*
X22983906Y-8577041D02*
X22983906Y-8456831D01*
X22863697Y-8456831D01*
X22863697Y-8577041D01*
X22983906Y-8577041D01*
X23376624Y-5170035D02*
X23376624Y-5049826D01*
X23256414Y-5049826D01*
X23256414Y-5170035D01*
X23376624Y-5170035D01*
X23608785Y-7060835D02*
X23608785Y-6940626D01*
X23488576Y-6940626D01*
X23488576Y-7060835D01*
X23608785Y-7060835D01*
X23840946Y-8951636D02*
X23840946Y-8831427D01*
X23720737Y-8831427D01*
X23720737Y-8951636D01*
X23840946Y-8951636D01*
X24468425Y-5035979D02*
X24468425Y-4915770D01*
X24348215Y-4915770D01*
X24348215Y-5035979D01*
X24468425Y-5035979D01*
X24700586Y-6926779D02*
X24700586Y-6806570D01*
X24580376Y-6806570D01*
X24580376Y-6926779D01*
X24700586Y-6926779D01*
X24932747Y-8817580D02*
X24932747Y-8697370D01*
X24812537Y-8697370D01*
X24812537Y-8817580D01*
X24932747Y-8817580D01*
X4354720Y-4035000D02*
X4464720Y-3925000D01*
X4354720Y-3815000D01*
X4244720Y-3925000D01*
X4354720Y-4035000D01*
X4963047Y-10560000D02*
X5073047Y-10450000D01*
X4963047Y-10340000D01*
X4853047Y-10450000D01*
X4963047Y-10560000D01*
X11500000Y-4273060D02*
X11610000Y-4163060D01*
X11500000Y-4053060D01*
X11390000Y-4163060D01*
X11500000Y-4273060D01*
X16104720Y-4273060D02*
X16214720Y-4163060D01*
X16104720Y-4053060D01*
X15994720Y-4163060D01*
X16104720Y-4273060D01*
X22649953Y-10560000D02*
X22759953Y-10450000D01*
X22649953Y-10340000D01*
X22539953Y-10450000D01*
X22649953Y-10560000D01*
X23250000Y-4035000D02*
X23360000Y-3925000D01*
X23250000Y-3815000D01*
X23140000Y-3925000D01*
X23250000Y-4035000D01*
X3116258Y-8654503D02*
X3456258Y-8994503D01*
X3456258Y-8654503D02*
X3116258Y-8994503D01*
X3456258Y-8824503D02*
G75*
G03*
X3456258Y-8824503I-170000J0D01*
G01*
X3348419Y-6763703D02*
X3688419Y-7103703D01*
X3688419Y-6763703D02*
X3348419Y-7103703D01*
X3688419Y-6933703D02*
G75*
G03*
X3688419Y-6933703I-170000J0D01*
G01*
X3580580Y-4872902D02*
X3920580Y-5212902D01*
X3920580Y-4872902D02*
X3580580Y-5212902D01*
X3920580Y-5042902D02*
G75*
G03*
X3920580Y-5042902I-170000J0D01*
G01*
X5065099Y-8413964D02*
X5405099Y-8753964D01*
X5405099Y-8413964D02*
X5065099Y-8753964D01*
X5405099Y-8583964D02*
G75*
G03*
X5405099Y-8583964I-170000J0D01*
G01*
X5297260Y-6523164D02*
X5637260Y-6863164D01*
X5637260Y-6523164D02*
X5297260Y-6863164D01*
X5637260Y-6693164D02*
G75*
G03*
X5637260Y-6693164I-170000J0D01*
G01*
X5529421Y-4632363D02*
X5869421Y-4972363D01*
X5869421Y-4632363D02*
X5529421Y-4972363D01*
X5869421Y-4802363D02*
G75*
G03*
X5869421Y-4802363I-170000J0D01*
G01*
X6487413Y-10507909D02*
X6827413Y-10847909D01*
X6827413Y-10507909D02*
X6487413Y-10847909D01*
X6827413Y-10677909D02*
G75*
G03*
X6827413Y-10677909I-170000J0D01*
G01*
X7013940Y-8173425D02*
X7353940Y-8513425D01*
X7353940Y-8173425D02*
X7013940Y-8513425D01*
X7353940Y-8343425D02*
G75*
G03*
X7353940Y-8343425I-170000J0D01*
G01*
X7246101Y-6282625D02*
X7586101Y-6622625D01*
X7586101Y-6282625D02*
X7246101Y-6622625D01*
X7586101Y-6452625D02*
G75*
G03*
X7586101Y-6452625I-170000J0D01*
G01*
X7478262Y-4391824D02*
X7818262Y-4731824D01*
X7818262Y-4391824D02*
X7478262Y-4731824D01*
X7818262Y-4561824D02*
G75*
G03*
X7818262Y-4561824I-170000J0D01*
G01*
X8846700Y-8878286D02*
X9186700Y-9218286D01*
X9186700Y-8878286D02*
X8846700Y-9218286D01*
X9186700Y-9048286D02*
G75*
G03*
X9186700Y-9048286I-170000J0D01*
G01*
X9078861Y-6987486D02*
X9418861Y-7327486D01*
X9418861Y-6987486D02*
X9078861Y-7327486D01*
X9418861Y-7157486D02*
G75*
G03*
X9418861Y-7157486I-170000J0D01*
G01*
X9311022Y-5096686D02*
X9651022Y-5436686D01*
X9651022Y-5096686D02*
X9311022Y-5436686D01*
X9651022Y-5266686D02*
G75*
G03*
X9651022Y-5266686I-170000J0D01*
G01*
X9559939Y-10885167D02*
X9899939Y-11225167D01*
X9899939Y-10885167D02*
X9559939Y-11225167D01*
X9899939Y-11055167D02*
G75*
G03*
X9899939Y-11055167I-170000J0D01*
G01*
X10737500Y-9110448D02*
X11077500Y-9450448D01*
X11077500Y-9110448D02*
X10737500Y-9450448D01*
X11077500Y-9280448D02*
G75*
G03*
X11077500Y-9280448I-170000J0D01*
G01*
X10969661Y-7219647D02*
X11309661Y-7559647D01*
X11309661Y-7219647D02*
X10969661Y-7559647D01*
X11309661Y-7389647D02*
G75*
G03*
X11309661Y-7389647I-170000J0D01*
G01*
X11201822Y-5328847D02*
X11541822Y-5668847D01*
X11541822Y-5328847D02*
X11201822Y-5668847D01*
X11541822Y-5498847D02*
G75*
G03*
X11541822Y-5498847I-170000J0D01*
G01*
X16071178Y-5328847D02*
X16411178Y-5668847D01*
X16411178Y-5328847D02*
X16071178Y-5668847D01*
X16411178Y-5498847D02*
G75*
G03*
X16411178Y-5498847I-170000J0D01*
G01*
X16303339Y-7219647D02*
X16643339Y-7559647D01*
X16643339Y-7219647D02*
X16303339Y-7559647D01*
X16643339Y-7389647D02*
G75*
G03*
X16643339Y-7389647I-170000J0D01*
G01*
X16535500Y-9110448D02*
X16875500Y-9450448D01*
X16875500Y-9110448D02*
X16535500Y-9450448D01*
X16875500Y-9280448D02*
G75*
G03*
X16875500Y-9280448I-170000J0D01*
G01*
X17713061Y-10885167D02*
X18053061Y-11225167D01*
X18053061Y-10885167D02*
X17713061Y-11225167D01*
X18053061Y-11055167D02*
G75*
G03*
X18053061Y-11055167I-170000J0D01*
G01*
X17961978Y-5096686D02*
X18301978Y-5436686D01*
X18301978Y-5096686D02*
X17961978Y-5436686D01*
X18301978Y-5266686D02*
G75*
G03*
X18301978Y-5266686I-170000J0D01*
G01*
X18194139Y-6987486D02*
X18534139Y-7327486D01*
X18534139Y-6987486D02*
X18194139Y-7327486D01*
X18534139Y-7157486D02*
G75*
G03*
X18534139Y-7157486I-170000J0D01*
G01*
X18426300Y-8878286D02*
X18766300Y-9218286D01*
X18766300Y-8878286D02*
X18426300Y-9218286D01*
X18766300Y-9048286D02*
G75*
G03*
X18766300Y-9048286I-170000J0D01*
G01*
X19794738Y-4391824D02*
X20134738Y-4731824D01*
X20134738Y-4391824D02*
X19794738Y-4731824D01*
X20134738Y-4561824D02*
G75*
G03*
X20134738Y-4561824I-170000J0D01*
G01*
X20026899Y-6282625D02*
X20366899Y-6622625D01*
X20366899Y-6282625D02*
X20026899Y-6622625D01*
X20366899Y-6452625D02*
G75*
G03*
X20366899Y-6452625I-170000J0D01*
G01*
X20259060Y-8173425D02*
X20599060Y-8513425D01*
X20599060Y-8173425D02*
X20259060Y-8513425D01*
X20599060Y-8343425D02*
G75*
G03*
X20599060Y-8343425I-170000J0D01*
G01*
X20785587Y-10507909D02*
X21125587Y-10847909D01*
X21125587Y-10507909D02*
X20785587Y-10847909D01*
X21125587Y-10677909D02*
G75*
G03*
X21125587Y-10677909I-170000J0D01*
G01*
X21743579Y-4632363D02*
X22083579Y-4972363D01*
X22083579Y-4632363D02*
X21743579Y-4972363D01*
X22083579Y-4802363D02*
G75*
G03*
X22083579Y-4802363I-170000J0D01*
G01*
X21975740Y-6523164D02*
X22315740Y-6863164D01*
X22315740Y-6523164D02*
X21975740Y-6863164D01*
X22315740Y-6693164D02*
G75*
G03*
X22315740Y-6693164I-170000J0D01*
G01*
X22207901Y-8413964D02*
X22547901Y-8753964D01*
X22547901Y-8413964D02*
X22207901Y-8753964D01*
X22547901Y-8583964D02*
G75*
G03*
X22547901Y-8583964I-170000J0D01*
G01*
X23692420Y-4872902D02*
X24032420Y-5212902D01*
X24032420Y-4872902D02*
X23692420Y-5212902D01*
X24032420Y-5042902D02*
G75*
G03*
X24032420Y-5042902I-170000J0D01*
G01*
X23924581Y-6763703D02*
X24264581Y-7103703D01*
X24264581Y-6763703D02*
X23924581Y-7103703D01*
X24264581Y-6933703D02*
G75*
G03*
X24264581Y-6933703I-170000J0D01*
G01*
X24156742Y-8654503D02*
X24496742Y-8994503D01*
X24496742Y-8654503D02*
X24156742Y-8994503D01*
X24496742Y-8824503D02*
G75*
G03*
X24496742Y-8824503I-170000J0D01*
G01*
D12*
X2392757Y-12854098D02*
X2392757Y-12554098D01*
X2464186Y-12554098D01*
X2507043Y-12568384D01*
X2535614Y-12596955D01*
X2549900Y-12625527D01*
X2564186Y-12682670D01*
X2564186Y-12725527D01*
X2549900Y-12782670D01*
X2535614Y-12811241D01*
X2507043Y-12839812D01*
X2464186Y-12854098D01*
X2392757Y-12854098D01*
X2692757Y-12854098D02*
X2692757Y-12654098D01*
X2692757Y-12711241D02*
X2707043Y-12682670D01*
X2721329Y-12668384D01*
X2749900Y-12654098D01*
X2778472Y-12654098D01*
X2878471Y-12854098D02*
X2878471Y-12654098D01*
X2878471Y-12554098D02*
X2864186Y-12568384D01*
X2878471Y-12582670D01*
X2892757Y-12568384D01*
X2878471Y-12554098D01*
X2878471Y-12582670D01*
X3064186Y-12854098D02*
X3035614Y-12839812D01*
X3021329Y-12811241D01*
X3021329Y-12554098D01*
X3221329Y-12854098D02*
X3192757Y-12839812D01*
X3178471Y-12811241D01*
X3178471Y-12554098D01*
X3564186Y-12854098D02*
X3564186Y-12554098D01*
X3664186Y-12768384D01*
X3764186Y-12554098D01*
X3764186Y-12854098D01*
X4035614Y-12854098D02*
X4035614Y-12696955D01*
X4021329Y-12668384D01*
X3992757Y-12654098D01*
X3935614Y-12654098D01*
X3907043Y-12668384D01*
X4035614Y-12839812D02*
X4007043Y-12854098D01*
X3935614Y-12854098D01*
X3907043Y-12839812D01*
X3892757Y-12811241D01*
X3892757Y-12782670D01*
X3907043Y-12754098D01*
X3935614Y-12739812D01*
X4007043Y-12739812D01*
X4035614Y-12725527D01*
X4178471Y-12654098D02*
X4178471Y-12954098D01*
X4178471Y-12668384D02*
X4207043Y-12654098D01*
X4264186Y-12654098D01*
X4292757Y-12668384D01*
X4307043Y-12682670D01*
X4321329Y-12711241D01*
X4321329Y-12796955D01*
X4307043Y-12825527D01*
X4292757Y-12839812D01*
X4264186Y-12854098D01*
X4207043Y-12854098D01*
X4178471Y-12839812D01*
X4449900Y-12825527D02*
X4464186Y-12839812D01*
X4449900Y-12854098D01*
X4435614Y-12839812D01*
X4449900Y-12825527D01*
X4449900Y-12854098D01*
X4449900Y-12668384D02*
X4464186Y-12682670D01*
X4449900Y-12696955D01*
X4435614Y-12682670D01*
X4449900Y-12668384D01*
X4449900Y-12696955D01*
X2066329Y-13328384D02*
X2106329Y-13368384D01*
X2106329Y-13328384D02*
X2066329Y-13368384D01*
X2449900Y-13184098D02*
X2478472Y-13184098D01*
X2507043Y-13198384D01*
X2521329Y-13212670D01*
X2535614Y-13241241D01*
X2549900Y-13298384D01*
X2549900Y-13369812D01*
X2535614Y-13426955D01*
X2521329Y-13455527D01*
X2507043Y-13469812D01*
X2478472Y-13484098D01*
X2449900Y-13484098D01*
X2421329Y-13469812D01*
X2407043Y-13455527D01*
X2392757Y-13426955D01*
X2378472Y-13369812D01*
X2378472Y-13298384D01*
X2392757Y-13241241D01*
X2407043Y-13212670D01*
X2421329Y-13198384D01*
X2449900Y-13184098D01*
X2678472Y-13455527D02*
X2692757Y-13469812D01*
X2678472Y-13484098D01*
X2664186Y-13469812D01*
X2678472Y-13455527D01*
X2678472Y-13484098D01*
X2949900Y-13284098D02*
X2949900Y-13484098D01*
X2878471Y-13169812D02*
X2807043Y-13384098D01*
X2992757Y-13384098D01*
X3164186Y-13184098D02*
X3192757Y-13184098D01*
X3221329Y-13198384D01*
X3235614Y-13212670D01*
X3249900Y-13241241D01*
X3264186Y-13298384D01*
X3264186Y-13369812D01*
X3249900Y-13426955D01*
X3235614Y-13455527D01*
X3221329Y-13469812D01*
X3192757Y-13484098D01*
X3164186Y-13484098D01*
X3135614Y-13469812D01*
X3121329Y-13455527D01*
X3107043Y-13426955D01*
X3092757Y-13369812D01*
X3092757Y-13298384D01*
X3107043Y-13241241D01*
X3121329Y-13212670D01*
X3135614Y-13198384D01*
X3164186Y-13184098D01*
X3392757Y-13484098D02*
X3392757Y-13284098D01*
X3392757Y-13312670D02*
X3407043Y-13298384D01*
X3435614Y-13284098D01*
X3478471Y-13284098D01*
X3507043Y-13298384D01*
X3521329Y-13326955D01*
X3521329Y-13484098D01*
X3521329Y-13326955D02*
X3535614Y-13298384D01*
X3564186Y-13284098D01*
X3607043Y-13284098D01*
X3635614Y-13298384D01*
X3649900Y-13326955D01*
X3649900Y-13484098D01*
X3792757Y-13484098D02*
X3792757Y-13284098D01*
X3792757Y-13312670D02*
X3807043Y-13298384D01*
X3835614Y-13284098D01*
X3878471Y-13284098D01*
X3907043Y-13298384D01*
X3921329Y-13326955D01*
X3921329Y-13484098D01*
X3921329Y-13326955D02*
X3935614Y-13298384D01*
X3964186Y-13284098D01*
X4007043Y-13284098D01*
X4035614Y-13298384D01*
X4049900Y-13326955D01*
X4049900Y-13484098D01*
X4635614Y-13169812D02*
X4378472Y-13555527D01*
X5021329Y-13184098D02*
X5049900Y-13184098D01*
X5078472Y-13198384D01*
X5092757Y-13212670D01*
X5107043Y-13241241D01*
X5121329Y-13298384D01*
X5121329Y-13369812D01*
X5107043Y-13426955D01*
X5092757Y-13455527D01*
X5078472Y-13469812D01*
X5049900Y-13484098D01*
X5021329Y-13484098D01*
X4992757Y-13469812D01*
X4978472Y-13455527D01*
X4964186Y-13426955D01*
X4949900Y-13369812D01*
X4949900Y-13298384D01*
X4964186Y-13241241D01*
X4978472Y-13212670D01*
X4992757Y-13198384D01*
X5021329Y-13184098D01*
X5249900Y-13455527D02*
X5264186Y-13469812D01*
X5249900Y-13484098D01*
X5235614Y-13469812D01*
X5249900Y-13455527D01*
X5249900Y-13484098D01*
X5449900Y-13184098D02*
X5478472Y-13184098D01*
X5507043Y-13198384D01*
X5521329Y-13212670D01*
X5535614Y-13241241D01*
X5549900Y-13298384D01*
X5549900Y-13369812D01*
X5535614Y-13426955D01*
X5521329Y-13455527D01*
X5507043Y-13469812D01*
X5478472Y-13484098D01*
X5449900Y-13484098D01*
X5421329Y-13469812D01*
X5407043Y-13455527D01*
X5392757Y-13426955D01*
X5378472Y-13369812D01*
X5378472Y-13298384D01*
X5392757Y-13241241D01*
X5407043Y-13212670D01*
X5421329Y-13198384D01*
X5449900Y-13184098D01*
X5835614Y-13484098D02*
X5664186Y-13484098D01*
X5749900Y-13484098D02*
X5749900Y-13184098D01*
X5721329Y-13226955D01*
X5692757Y-13255527D01*
X5664186Y-13269812D01*
X6092757Y-13184098D02*
X6035614Y-13184098D01*
X6007043Y-13198384D01*
X5992757Y-13212670D01*
X5964186Y-13255527D01*
X5949900Y-13312670D01*
X5949900Y-13426955D01*
X5964186Y-13455527D01*
X5978471Y-13469812D01*
X6007043Y-13484098D01*
X6064186Y-13484098D01*
X6092757Y-13469812D01*
X6107043Y-13455527D01*
X6121329Y-13426955D01*
X6121329Y-13355527D01*
X6107043Y-13326955D01*
X6092757Y-13312670D01*
X6064186Y-13298384D01*
X6007043Y-13298384D01*
X5978471Y-13312670D01*
X5964186Y-13326955D01*
X5949900Y-13355527D01*
X6235614Y-13184098D02*
X6235614Y-13241241D01*
X6349900Y-13184098D02*
X6349900Y-13241241D01*
X6792757Y-13598384D02*
X6778471Y-13584098D01*
X6749900Y-13541241D01*
X6735614Y-13512670D01*
X6721329Y-13469812D01*
X6707043Y-13398384D01*
X6707043Y-13341241D01*
X6721329Y-13269812D01*
X6735614Y-13226955D01*
X6749900Y-13198384D01*
X6778471Y-13155527D01*
X6792757Y-13141241D01*
X7064186Y-13484098D02*
X6892757Y-13484098D01*
X6978471Y-13484098D02*
X6978471Y-13184098D01*
X6949900Y-13226955D01*
X6921329Y-13255527D01*
X6892757Y-13269812D01*
X7164186Y-13184098D02*
X7364186Y-13184098D01*
X7235614Y-13484098D01*
X7707043Y-13484098D02*
X7707043Y-13184098D01*
X7835614Y-13484098D02*
X7835614Y-13326955D01*
X7821329Y-13298384D01*
X7792757Y-13284098D01*
X7749900Y-13284098D01*
X7721329Y-13298384D01*
X7707043Y-13312670D01*
X8021329Y-13484098D02*
X7992757Y-13469812D01*
X7978471Y-13455527D01*
X7964186Y-13426955D01*
X7964186Y-13341241D01*
X7978471Y-13312670D01*
X7992757Y-13298384D01*
X8021329Y-13284098D01*
X8064186Y-13284098D01*
X8092757Y-13298384D01*
X8107043Y-13312670D01*
X8121329Y-13341241D01*
X8121329Y-13426955D01*
X8107043Y-13455527D01*
X8092757Y-13469812D01*
X8064186Y-13484098D01*
X8021329Y-13484098D01*
X8292757Y-13484098D02*
X8264186Y-13469812D01*
X8249900Y-13441241D01*
X8249900Y-13184098D01*
X8521329Y-13469812D02*
X8492757Y-13484098D01*
X8435614Y-13484098D01*
X8407043Y-13469812D01*
X8392757Y-13441241D01*
X8392757Y-13326955D01*
X8407043Y-13298384D01*
X8435614Y-13284098D01*
X8492757Y-13284098D01*
X8521329Y-13298384D01*
X8535614Y-13326955D01*
X8535614Y-13355527D01*
X8392757Y-13384098D01*
X8649900Y-13469812D02*
X8678472Y-13484098D01*
X8735614Y-13484098D01*
X8764186Y-13469812D01*
X8778472Y-13441241D01*
X8778472Y-13426955D01*
X8764186Y-13398384D01*
X8735614Y-13384098D01*
X8692757Y-13384098D01*
X8664186Y-13369812D01*
X8649900Y-13341241D01*
X8649900Y-13326955D01*
X8664186Y-13298384D01*
X8692757Y-13284098D01*
X8735614Y-13284098D01*
X8764186Y-13298384D01*
X8878472Y-13598384D02*
X8892757Y-13584098D01*
X8921329Y-13541241D01*
X8935614Y-13512670D01*
X8949900Y-13469812D01*
X8964186Y-13398384D01*
X8964186Y-13341241D01*
X8949900Y-13269812D01*
X8935614Y-13226955D01*
X8921329Y-13198384D01*
X8892757Y-13155527D01*
X8878472Y-13141241D01*
X2106329Y-13744384D02*
G75*
G03*
X2106329Y-13744384I-54610J0D01*
G01*
X2549900Y-13880098D02*
X2378472Y-13880098D01*
X2464186Y-13880098D02*
X2464186Y-13580098D01*
X2435614Y-13622955D01*
X2407043Y-13651527D01*
X2378472Y-13665812D01*
X2678472Y-13851527D02*
X2692757Y-13865812D01*
X2678472Y-13880098D01*
X2664186Y-13865812D01*
X2678472Y-13851527D01*
X2678472Y-13880098D01*
X2878471Y-13580098D02*
X2907043Y-13580098D01*
X2935614Y-13594384D01*
X2949900Y-13608670D01*
X2964186Y-13637241D01*
X2978471Y-13694384D01*
X2978471Y-13765812D01*
X2964186Y-13822955D01*
X2949900Y-13851527D01*
X2935614Y-13865812D01*
X2907043Y-13880098D01*
X2878471Y-13880098D01*
X2849900Y-13865812D01*
X2835614Y-13851527D01*
X2821329Y-13822955D01*
X2807043Y-13765812D01*
X2807043Y-13694384D01*
X2821329Y-13637241D01*
X2835614Y-13608670D01*
X2849900Y-13594384D01*
X2878471Y-13580098D01*
X3121329Y-13880098D02*
X3178471Y-13880098D01*
X3207043Y-13865812D01*
X3221329Y-13851527D01*
X3249900Y-13808670D01*
X3264186Y-13751527D01*
X3264186Y-13637241D01*
X3249900Y-13608670D01*
X3235614Y-13594384D01*
X3207043Y-13580098D01*
X3149900Y-13580098D01*
X3121329Y-13594384D01*
X3107043Y-13608670D01*
X3092757Y-13637241D01*
X3092757Y-13708670D01*
X3107043Y-13737241D01*
X3121329Y-13751527D01*
X3149900Y-13765812D01*
X3207043Y-13765812D01*
X3235614Y-13751527D01*
X3249900Y-13737241D01*
X3264186Y-13708670D01*
X3392757Y-13880098D02*
X3392757Y-13680098D01*
X3392757Y-13708670D02*
X3407043Y-13694384D01*
X3435614Y-13680098D01*
X3478471Y-13680098D01*
X3507043Y-13694384D01*
X3521329Y-13722955D01*
X3521329Y-13880098D01*
X3521329Y-13722955D02*
X3535614Y-13694384D01*
X3564186Y-13680098D01*
X3607043Y-13680098D01*
X3635614Y-13694384D01*
X3649900Y-13722955D01*
X3649900Y-13880098D01*
X3792757Y-13880098D02*
X3792757Y-13680098D01*
X3792757Y-13708670D02*
X3807043Y-13694384D01*
X3835614Y-13680098D01*
X3878471Y-13680098D01*
X3907043Y-13694384D01*
X3921329Y-13722955D01*
X3921329Y-13880098D01*
X3921329Y-13722955D02*
X3935614Y-13694384D01*
X3964186Y-13680098D01*
X4007043Y-13680098D01*
X4035614Y-13694384D01*
X4049900Y-13722955D01*
X4049900Y-13880098D01*
X4635614Y-13565812D02*
X4378472Y-13951527D01*
X5021329Y-13580098D02*
X5049900Y-13580098D01*
X5078472Y-13594384D01*
X5092757Y-13608670D01*
X5107043Y-13637241D01*
X5121329Y-13694384D01*
X5121329Y-13765812D01*
X5107043Y-13822955D01*
X5092757Y-13851527D01*
X5078472Y-13865812D01*
X5049900Y-13880098D01*
X5021329Y-13880098D01*
X4992757Y-13865812D01*
X4978472Y-13851527D01*
X4964186Y-13822955D01*
X4949900Y-13765812D01*
X4949900Y-13694384D01*
X4964186Y-13637241D01*
X4978472Y-13608670D01*
X4992757Y-13594384D01*
X5021329Y-13580098D01*
X5249900Y-13851527D02*
X5264186Y-13865812D01*
X5249900Y-13880098D01*
X5235614Y-13865812D01*
X5249900Y-13851527D01*
X5249900Y-13880098D01*
X5449900Y-13580098D02*
X5478472Y-13580098D01*
X5507043Y-13594384D01*
X5521329Y-13608670D01*
X5535614Y-13637241D01*
X5549900Y-13694384D01*
X5549900Y-13765812D01*
X5535614Y-13822955D01*
X5521329Y-13851527D01*
X5507043Y-13865812D01*
X5478472Y-13880098D01*
X5449900Y-13880098D01*
X5421329Y-13865812D01*
X5407043Y-13851527D01*
X5392757Y-13822955D01*
X5378472Y-13765812D01*
X5378472Y-13694384D01*
X5392757Y-13637241D01*
X5407043Y-13608670D01*
X5421329Y-13594384D01*
X5449900Y-13580098D01*
X5807043Y-13680098D02*
X5807043Y-13880098D01*
X5735614Y-13565812D02*
X5664186Y-13780098D01*
X5849900Y-13780098D01*
X5935614Y-13580098D02*
X6121329Y-13580098D01*
X6021329Y-13694384D01*
X6064186Y-13694384D01*
X6092757Y-13708670D01*
X6107043Y-13722955D01*
X6121329Y-13751527D01*
X6121329Y-13822955D01*
X6107043Y-13851527D01*
X6092757Y-13865812D01*
X6064186Y-13880098D01*
X5978471Y-13880098D01*
X5949900Y-13865812D01*
X5935614Y-13851527D01*
X6235614Y-13580098D02*
X6235614Y-13637241D01*
X6349900Y-13580098D02*
X6349900Y-13637241D01*
X6792757Y-13994384D02*
X6778471Y-13980098D01*
X6749900Y-13937241D01*
X6735614Y-13908670D01*
X6721329Y-13865812D01*
X6707043Y-13794384D01*
X6707043Y-13737241D01*
X6721329Y-13665812D01*
X6735614Y-13622955D01*
X6749900Y-13594384D01*
X6778471Y-13551527D01*
X6792757Y-13537241D01*
X6892757Y-13608670D02*
X6907043Y-13594384D01*
X6935614Y-13580098D01*
X7007043Y-13580098D01*
X7035614Y-13594384D01*
X7049900Y-13608670D01*
X7064186Y-13637241D01*
X7064186Y-13665812D01*
X7049900Y-13708670D01*
X6878471Y-13880098D01*
X7064186Y-13880098D01*
X7321329Y-13680098D02*
X7321329Y-13880098D01*
X7249900Y-13565812D02*
X7178471Y-13780098D01*
X7364186Y-13780098D01*
X7707043Y-13880098D02*
X7707043Y-13580098D01*
X7835614Y-13880098D02*
X7835614Y-13722955D01*
X7821329Y-13694384D01*
X7792757Y-13680098D01*
X7749900Y-13680098D01*
X7721329Y-13694384D01*
X7707043Y-13708670D01*
X8021329Y-13880098D02*
X7992757Y-13865812D01*
X7978471Y-13851527D01*
X7964186Y-13822955D01*
X7964186Y-13737241D01*
X7978471Y-13708670D01*
X7992757Y-13694384D01*
X8021329Y-13680098D01*
X8064186Y-13680098D01*
X8092757Y-13694384D01*
X8107043Y-13708670D01*
X8121329Y-13737241D01*
X8121329Y-13822955D01*
X8107043Y-13851527D01*
X8092757Y-13865812D01*
X8064186Y-13880098D01*
X8021329Y-13880098D01*
X8292757Y-13880098D02*
X8264186Y-13865812D01*
X8249900Y-13837241D01*
X8249900Y-13580098D01*
X8521329Y-13865812D02*
X8492757Y-13880098D01*
X8435614Y-13880098D01*
X8407043Y-13865812D01*
X8392757Y-13837241D01*
X8392757Y-13722955D01*
X8407043Y-13694384D01*
X8435614Y-13680098D01*
X8492757Y-13680098D01*
X8521329Y-13694384D01*
X8535614Y-13722955D01*
X8535614Y-13751527D01*
X8392757Y-13780098D01*
X8649900Y-13865812D02*
X8678472Y-13880098D01*
X8735614Y-13880098D01*
X8764186Y-13865812D01*
X8778472Y-13837241D01*
X8778472Y-13822955D01*
X8764186Y-13794384D01*
X8735614Y-13780098D01*
X8692757Y-13780098D01*
X8664186Y-13765812D01*
X8649900Y-13737241D01*
X8649900Y-13722955D01*
X8664186Y-13694384D01*
X8692757Y-13680098D01*
X8735614Y-13680098D01*
X8764186Y-13694384D01*
X8878472Y-13994384D02*
X8892757Y-13980098D01*
X8921329Y-13937241D01*
X8935614Y-13908670D01*
X8949900Y-13865812D01*
X8964186Y-13794384D01*
X8964186Y-13737241D01*
X8949900Y-13665812D01*
X8935614Y-13622955D01*
X8921329Y-13594384D01*
X8892757Y-13551527D01*
X8878472Y-13537241D01*
X2046329Y-14080384D02*
X2046329Y-14200384D01*
X1986329Y-14140384D02*
X2106329Y-14140384D01*
X2549900Y-14276098D02*
X2378472Y-14276098D01*
X2464186Y-14276098D02*
X2464186Y-13976098D01*
X2435614Y-14018955D01*
X2407043Y-14047527D01*
X2378472Y-14061812D01*
X2678472Y-14247527D02*
X2692757Y-14261812D01*
X2678472Y-14276098D01*
X2664186Y-14261812D01*
X2678472Y-14247527D01*
X2678472Y-14276098D01*
X2807043Y-14004670D02*
X2821329Y-13990384D01*
X2849900Y-13976098D01*
X2921329Y-13976098D01*
X2949900Y-13990384D01*
X2964186Y-14004670D01*
X2978471Y-14033241D01*
X2978471Y-14061812D01*
X2964186Y-14104670D01*
X2792757Y-14276098D01*
X2978471Y-14276098D01*
X3164186Y-13976098D02*
X3192757Y-13976098D01*
X3221329Y-13990384D01*
X3235614Y-14004670D01*
X3249900Y-14033241D01*
X3264186Y-14090384D01*
X3264186Y-14161812D01*
X3249900Y-14218955D01*
X3235614Y-14247527D01*
X3221329Y-14261812D01*
X3192757Y-14276098D01*
X3164186Y-14276098D01*
X3135614Y-14261812D01*
X3121329Y-14247527D01*
X3107043Y-14218955D01*
X3092757Y-14161812D01*
X3092757Y-14090384D01*
X3107043Y-14033241D01*
X3121329Y-14004670D01*
X3135614Y-13990384D01*
X3164186Y-13976098D01*
X3392757Y-14276098D02*
X3392757Y-14076098D01*
X3392757Y-14104670D02*
X3407043Y-14090384D01*
X3435614Y-14076098D01*
X3478471Y-14076098D01*
X3507043Y-14090384D01*
X3521329Y-14118955D01*
X3521329Y-14276098D01*
X3521329Y-14118955D02*
X3535614Y-14090384D01*
X3564186Y-14076098D01*
X3607043Y-14076098D01*
X3635614Y-14090384D01*
X3649900Y-14118955D01*
X3649900Y-14276098D01*
X3792757Y-14276098D02*
X3792757Y-14076098D01*
X3792757Y-14104670D02*
X3807043Y-14090384D01*
X3835614Y-14076098D01*
X3878471Y-14076098D01*
X3907043Y-14090384D01*
X3921329Y-14118955D01*
X3921329Y-14276098D01*
X3921329Y-14118955D02*
X3935614Y-14090384D01*
X3964186Y-14076098D01*
X4007043Y-14076098D01*
X4035614Y-14090384D01*
X4049900Y-14118955D01*
X4049900Y-14276098D01*
X4635614Y-13961812D02*
X4378472Y-14347527D01*
X5021329Y-13976098D02*
X5049900Y-13976098D01*
X5078472Y-13990384D01*
X5092757Y-14004670D01*
X5107043Y-14033241D01*
X5121329Y-14090384D01*
X5121329Y-14161812D01*
X5107043Y-14218955D01*
X5092757Y-14247527D01*
X5078472Y-14261812D01*
X5049900Y-14276098D01*
X5021329Y-14276098D01*
X4992757Y-14261812D01*
X4978472Y-14247527D01*
X4964186Y-14218955D01*
X4949900Y-14161812D01*
X4949900Y-14090384D01*
X4964186Y-14033241D01*
X4978472Y-14004670D01*
X4992757Y-13990384D01*
X5021329Y-13976098D01*
X5249900Y-14247527D02*
X5264186Y-14261812D01*
X5249900Y-14276098D01*
X5235614Y-14261812D01*
X5249900Y-14247527D01*
X5249900Y-14276098D01*
X5449900Y-13976098D02*
X5478472Y-13976098D01*
X5507043Y-13990384D01*
X5521329Y-14004670D01*
X5535614Y-14033241D01*
X5549900Y-14090384D01*
X5549900Y-14161812D01*
X5535614Y-14218955D01*
X5521329Y-14247527D01*
X5507043Y-14261812D01*
X5478472Y-14276098D01*
X5449900Y-14276098D01*
X5421329Y-14261812D01*
X5407043Y-14247527D01*
X5392757Y-14218955D01*
X5378472Y-14161812D01*
X5378472Y-14090384D01*
X5392757Y-14033241D01*
X5407043Y-14004670D01*
X5421329Y-13990384D01*
X5449900Y-13976098D01*
X5807043Y-14076098D02*
X5807043Y-14276098D01*
X5735614Y-13961812D02*
X5664186Y-14176098D01*
X5849900Y-14176098D01*
X5935614Y-13976098D02*
X6135614Y-13976098D01*
X6007043Y-14276098D01*
X6235614Y-13976098D02*
X6235614Y-14033241D01*
X6349900Y-13976098D02*
X6349900Y-14033241D01*
X6792757Y-14390384D02*
X6778471Y-14376098D01*
X6749900Y-14333241D01*
X6735614Y-14304670D01*
X6721329Y-14261812D01*
X6707043Y-14190384D01*
X6707043Y-14133241D01*
X6721329Y-14061812D01*
X6735614Y-14018955D01*
X6749900Y-13990384D01*
X6778471Y-13947527D01*
X6792757Y-13933241D01*
X7035614Y-13976098D02*
X6978471Y-13976098D01*
X6949900Y-13990384D01*
X6935614Y-14004670D01*
X6907043Y-14047527D01*
X6892757Y-14104670D01*
X6892757Y-14218955D01*
X6907043Y-14247527D01*
X6921329Y-14261812D01*
X6949900Y-14276098D01*
X7007043Y-14276098D01*
X7035614Y-14261812D01*
X7049900Y-14247527D01*
X7064186Y-14218955D01*
X7064186Y-14147527D01*
X7049900Y-14118955D01*
X7035614Y-14104670D01*
X7007043Y-14090384D01*
X6949900Y-14090384D01*
X6921329Y-14104670D01*
X6907043Y-14118955D01*
X6892757Y-14147527D01*
X7235614Y-14104670D02*
X7207043Y-14090384D01*
X7192757Y-14076098D01*
X7178471Y-14047527D01*
X7178471Y-14033241D01*
X7192757Y-14004670D01*
X7207043Y-13990384D01*
X7235614Y-13976098D01*
X7292757Y-13976098D01*
X7321329Y-13990384D01*
X7335614Y-14004670D01*
X7349900Y-14033241D01*
X7349900Y-14047527D01*
X7335614Y-14076098D01*
X7321329Y-14090384D01*
X7292757Y-14104670D01*
X7235614Y-14104670D01*
X7207043Y-14118955D01*
X7192757Y-14133241D01*
X7178471Y-14161812D01*
X7178471Y-14218955D01*
X7192757Y-14247527D01*
X7207043Y-14261812D01*
X7235614Y-14276098D01*
X7292757Y-14276098D01*
X7321329Y-14261812D01*
X7335614Y-14247527D01*
X7349900Y-14218955D01*
X7349900Y-14161812D01*
X7335614Y-14133241D01*
X7321329Y-14118955D01*
X7292757Y-14104670D01*
X7707043Y-14276098D02*
X7707043Y-13976098D01*
X7835614Y-14276098D02*
X7835614Y-14118955D01*
X7821329Y-14090384D01*
X7792757Y-14076098D01*
X7749900Y-14076098D01*
X7721329Y-14090384D01*
X7707043Y-14104670D01*
X8021329Y-14276098D02*
X7992757Y-14261812D01*
X7978471Y-14247527D01*
X7964186Y-14218955D01*
X7964186Y-14133241D01*
X7978471Y-14104670D01*
X7992757Y-14090384D01*
X8021329Y-14076098D01*
X8064186Y-14076098D01*
X8092757Y-14090384D01*
X8107043Y-14104670D01*
X8121329Y-14133241D01*
X8121329Y-14218955D01*
X8107043Y-14247527D01*
X8092757Y-14261812D01*
X8064186Y-14276098D01*
X8021329Y-14276098D01*
X8292757Y-14276098D02*
X8264186Y-14261812D01*
X8249900Y-14233241D01*
X8249900Y-13976098D01*
X8521329Y-14261812D02*
X8492757Y-14276098D01*
X8435614Y-14276098D01*
X8407043Y-14261812D01*
X8392757Y-14233241D01*
X8392757Y-14118955D01*
X8407043Y-14090384D01*
X8435614Y-14076098D01*
X8492757Y-14076098D01*
X8521329Y-14090384D01*
X8535614Y-14118955D01*
X8535614Y-14147527D01*
X8392757Y-14176098D01*
X8649900Y-14261812D02*
X8678472Y-14276098D01*
X8735614Y-14276098D01*
X8764186Y-14261812D01*
X8778472Y-14233241D01*
X8778472Y-14218955D01*
X8764186Y-14190384D01*
X8735614Y-14176098D01*
X8692757Y-14176098D01*
X8664186Y-14161812D01*
X8649900Y-14133241D01*
X8649900Y-14118955D01*
X8664186Y-14090384D01*
X8692757Y-14076098D01*
X8735614Y-14076098D01*
X8764186Y-14090384D01*
X8878472Y-14390384D02*
X8892757Y-14376098D01*
X8921329Y-14333241D01*
X8935614Y-14304670D01*
X8949900Y-14261812D01*
X8964186Y-14190384D01*
X8964186Y-14133241D01*
X8949900Y-14061812D01*
X8935614Y-14018955D01*
X8921329Y-13990384D01*
X8892757Y-13947527D01*
X8878472Y-13933241D01*
X2081433Y-14596489D02*
X2081433Y-14476279D01*
X1961224Y-14476279D01*
X1961224Y-14596489D01*
X2081433Y-14596489D01*
X2549900Y-14672098D02*
X2378472Y-14672098D01*
X2464186Y-14672098D02*
X2464186Y-14372098D01*
X2435614Y-14414955D01*
X2407043Y-14443527D01*
X2378472Y-14457812D01*
X2678472Y-14643527D02*
X2692757Y-14657812D01*
X2678472Y-14672098D01*
X2664186Y-14657812D01*
X2678472Y-14643527D01*
X2678472Y-14672098D01*
X2792757Y-14372098D02*
X2992757Y-14372098D01*
X2864186Y-14672098D01*
X3164186Y-14372098D02*
X3192757Y-14372098D01*
X3221329Y-14386384D01*
X3235614Y-14400670D01*
X3249900Y-14429241D01*
X3264186Y-14486384D01*
X3264186Y-14557812D01*
X3249900Y-14614955D01*
X3235614Y-14643527D01*
X3221329Y-14657812D01*
X3192757Y-14672098D01*
X3164186Y-14672098D01*
X3135614Y-14657812D01*
X3121329Y-14643527D01*
X3107043Y-14614955D01*
X3092757Y-14557812D01*
X3092757Y-14486384D01*
X3107043Y-14429241D01*
X3121329Y-14400670D01*
X3135614Y-14386384D01*
X3164186Y-14372098D01*
X3392757Y-14672098D02*
X3392757Y-14472098D01*
X3392757Y-14500670D02*
X3407043Y-14486384D01*
X3435614Y-14472098D01*
X3478471Y-14472098D01*
X3507043Y-14486384D01*
X3521329Y-14514955D01*
X3521329Y-14672098D01*
X3521329Y-14514955D02*
X3535614Y-14486384D01*
X3564186Y-14472098D01*
X3607043Y-14472098D01*
X3635614Y-14486384D01*
X3649900Y-14514955D01*
X3649900Y-14672098D01*
X3792757Y-14672098D02*
X3792757Y-14472098D01*
X3792757Y-14500670D02*
X3807043Y-14486384D01*
X3835614Y-14472098D01*
X3878471Y-14472098D01*
X3907043Y-14486384D01*
X3921329Y-14514955D01*
X3921329Y-14672098D01*
X3921329Y-14514955D02*
X3935614Y-14486384D01*
X3964186Y-14472098D01*
X4007043Y-14472098D01*
X4035614Y-14486384D01*
X4049900Y-14514955D01*
X4049900Y-14672098D01*
X4635614Y-14357812D02*
X4378472Y-14743527D01*
X5021329Y-14372098D02*
X5049900Y-14372098D01*
X5078472Y-14386384D01*
X5092757Y-14400670D01*
X5107043Y-14429241D01*
X5121329Y-14486384D01*
X5121329Y-14557812D01*
X5107043Y-14614955D01*
X5092757Y-14643527D01*
X5078472Y-14657812D01*
X5049900Y-14672098D01*
X5021329Y-14672098D01*
X4992757Y-14657812D01*
X4978472Y-14643527D01*
X4964186Y-14614955D01*
X4949900Y-14557812D01*
X4949900Y-14486384D01*
X4964186Y-14429241D01*
X4978472Y-14400670D01*
X4992757Y-14386384D01*
X5021329Y-14372098D01*
X5249900Y-14643527D02*
X5264186Y-14657812D01*
X5249900Y-14672098D01*
X5235614Y-14657812D01*
X5249900Y-14643527D01*
X5249900Y-14672098D01*
X5449900Y-14372098D02*
X5478472Y-14372098D01*
X5507043Y-14386384D01*
X5521329Y-14400670D01*
X5535614Y-14429241D01*
X5549900Y-14486384D01*
X5549900Y-14557812D01*
X5535614Y-14614955D01*
X5521329Y-14643527D01*
X5507043Y-14657812D01*
X5478472Y-14672098D01*
X5449900Y-14672098D01*
X5421329Y-14657812D01*
X5407043Y-14643527D01*
X5392757Y-14614955D01*
X5378472Y-14557812D01*
X5378472Y-14486384D01*
X5392757Y-14429241D01*
X5407043Y-14400670D01*
X5421329Y-14386384D01*
X5449900Y-14372098D01*
X5807043Y-14372098D02*
X5749900Y-14372098D01*
X5721329Y-14386384D01*
X5707043Y-14400670D01*
X5678471Y-14443527D01*
X5664186Y-14500670D01*
X5664186Y-14614955D01*
X5678471Y-14643527D01*
X5692757Y-14657812D01*
X5721329Y-14672098D01*
X5778471Y-14672098D01*
X5807043Y-14657812D01*
X5821329Y-14643527D01*
X5835614Y-14614955D01*
X5835614Y-14543527D01*
X5821329Y-14514955D01*
X5807043Y-14500670D01*
X5778471Y-14486384D01*
X5721329Y-14486384D01*
X5692757Y-14500670D01*
X5678471Y-14514955D01*
X5664186Y-14543527D01*
X5935614Y-14372098D02*
X6135614Y-14372098D01*
X6007043Y-14672098D01*
X6235614Y-14372098D02*
X6235614Y-14429241D01*
X6349900Y-14372098D02*
X6349900Y-14429241D01*
X6792757Y-14786384D02*
X6778471Y-14772098D01*
X6749900Y-14729241D01*
X6735614Y-14700670D01*
X6721329Y-14657812D01*
X6707043Y-14586384D01*
X6707043Y-14529241D01*
X6721329Y-14457812D01*
X6735614Y-14414955D01*
X6749900Y-14386384D01*
X6778471Y-14343527D01*
X6792757Y-14329241D01*
X7035614Y-14372098D02*
X6978471Y-14372098D01*
X6949900Y-14386384D01*
X6935614Y-14400670D01*
X6907043Y-14443527D01*
X6892757Y-14500670D01*
X6892757Y-14614955D01*
X6907043Y-14643527D01*
X6921329Y-14657812D01*
X6949900Y-14672098D01*
X7007043Y-14672098D01*
X7035614Y-14657812D01*
X7049900Y-14643527D01*
X7064186Y-14614955D01*
X7064186Y-14543527D01*
X7049900Y-14514955D01*
X7035614Y-14500670D01*
X7007043Y-14486384D01*
X6949900Y-14486384D01*
X6921329Y-14500670D01*
X6907043Y-14514955D01*
X6892757Y-14543527D01*
X7235614Y-14500670D02*
X7207043Y-14486384D01*
X7192757Y-14472098D01*
X7178471Y-14443527D01*
X7178471Y-14429241D01*
X7192757Y-14400670D01*
X7207043Y-14386384D01*
X7235614Y-14372098D01*
X7292757Y-14372098D01*
X7321329Y-14386384D01*
X7335614Y-14400670D01*
X7349900Y-14429241D01*
X7349900Y-14443527D01*
X7335614Y-14472098D01*
X7321329Y-14486384D01*
X7292757Y-14500670D01*
X7235614Y-14500670D01*
X7207043Y-14514955D01*
X7192757Y-14529241D01*
X7178471Y-14557812D01*
X7178471Y-14614955D01*
X7192757Y-14643527D01*
X7207043Y-14657812D01*
X7235614Y-14672098D01*
X7292757Y-14672098D01*
X7321329Y-14657812D01*
X7335614Y-14643527D01*
X7349900Y-14614955D01*
X7349900Y-14557812D01*
X7335614Y-14529241D01*
X7321329Y-14514955D01*
X7292757Y-14500670D01*
X7707043Y-14672098D02*
X7707043Y-14372098D01*
X7835614Y-14672098D02*
X7835614Y-14514955D01*
X7821329Y-14486384D01*
X7792757Y-14472098D01*
X7749900Y-14472098D01*
X7721329Y-14486384D01*
X7707043Y-14500670D01*
X8021329Y-14672098D02*
X7992757Y-14657812D01*
X7978471Y-14643527D01*
X7964186Y-14614955D01*
X7964186Y-14529241D01*
X7978471Y-14500670D01*
X7992757Y-14486384D01*
X8021329Y-14472098D01*
X8064186Y-14472098D01*
X8092757Y-14486384D01*
X8107043Y-14500670D01*
X8121329Y-14529241D01*
X8121329Y-14614955D01*
X8107043Y-14643527D01*
X8092757Y-14657812D01*
X8064186Y-14672098D01*
X8021329Y-14672098D01*
X8292757Y-14672098D02*
X8264186Y-14657812D01*
X8249900Y-14629241D01*
X8249900Y-14372098D01*
X8521329Y-14657812D02*
X8492757Y-14672098D01*
X8435614Y-14672098D01*
X8407043Y-14657812D01*
X8392757Y-14629241D01*
X8392757Y-14514955D01*
X8407043Y-14486384D01*
X8435614Y-14472098D01*
X8492757Y-14472098D01*
X8521329Y-14486384D01*
X8535614Y-14514955D01*
X8535614Y-14543527D01*
X8392757Y-14572098D01*
X8649900Y-14657812D02*
X8678472Y-14672098D01*
X8735614Y-14672098D01*
X8764186Y-14657812D01*
X8778472Y-14629241D01*
X8778472Y-14614955D01*
X8764186Y-14586384D01*
X8735614Y-14572098D01*
X8692757Y-14572098D01*
X8664186Y-14557812D01*
X8649900Y-14529241D01*
X8649900Y-14514955D01*
X8664186Y-14486384D01*
X8692757Y-14472098D01*
X8735614Y-14472098D01*
X8764186Y-14486384D01*
X8878472Y-14786384D02*
X8892757Y-14772098D01*
X8921329Y-14729241D01*
X8935614Y-14700670D01*
X8949900Y-14657812D01*
X8964186Y-14586384D01*
X8964186Y-14529241D01*
X8949900Y-14457812D01*
X8935614Y-14414955D01*
X8921329Y-14386384D01*
X8892757Y-14343527D01*
X8878472Y-14329241D01*
X9421329Y-14786384D02*
X9407043Y-14772098D01*
X9378472Y-14729241D01*
X9364186Y-14700670D01*
X9349900Y-14657812D01*
X9335614Y-14586384D01*
X9335614Y-14529241D01*
X9349900Y-14457812D01*
X9364186Y-14414955D01*
X9378472Y-14386384D01*
X9407043Y-14343527D01*
X9421329Y-14329241D01*
X9535614Y-14472098D02*
X9535614Y-14672098D01*
X9535614Y-14500670D02*
X9549900Y-14486384D01*
X9578472Y-14472098D01*
X9621329Y-14472098D01*
X9649900Y-14486384D01*
X9664186Y-14514955D01*
X9664186Y-14672098D01*
X9849900Y-14672098D02*
X9821329Y-14657812D01*
X9807043Y-14643527D01*
X9792757Y-14614955D01*
X9792757Y-14529241D01*
X9807043Y-14500670D01*
X9821329Y-14486384D01*
X9849900Y-14472098D01*
X9892757Y-14472098D01*
X9921329Y-14486384D01*
X9935614Y-14500670D01*
X9949900Y-14529241D01*
X9949900Y-14614955D01*
X9935614Y-14643527D01*
X9921329Y-14657812D01*
X9892757Y-14672098D01*
X9849900Y-14672098D01*
X10035614Y-14472098D02*
X10149900Y-14472098D01*
X10078472Y-14372098D02*
X10078472Y-14629241D01*
X10092757Y-14657812D01*
X10121329Y-14672098D01*
X10149900Y-14672098D01*
X10478472Y-14472098D02*
X10478472Y-14772098D01*
X10478472Y-14486384D02*
X10507043Y-14472098D01*
X10564186Y-14472098D01*
X10592757Y-14486384D01*
X10607043Y-14500670D01*
X10621329Y-14529241D01*
X10621329Y-14614955D01*
X10607043Y-14643527D01*
X10592757Y-14657812D01*
X10564186Y-14672098D01*
X10507043Y-14672098D01*
X10478472Y-14657812D01*
X10792757Y-14672098D02*
X10764186Y-14657812D01*
X10749900Y-14629241D01*
X10749900Y-14372098D01*
X11035614Y-14672098D02*
X11035614Y-14514955D01*
X11021329Y-14486384D01*
X10992757Y-14472098D01*
X10935614Y-14472098D01*
X10907043Y-14486384D01*
X11035614Y-14657812D02*
X11007043Y-14672098D01*
X10935614Y-14672098D01*
X10907043Y-14657812D01*
X10892757Y-14629241D01*
X10892757Y-14600670D01*
X10907043Y-14572098D01*
X10935614Y-14557812D01*
X11007043Y-14557812D01*
X11035614Y-14543527D01*
X11135614Y-14472098D02*
X11249900Y-14472098D01*
X11178472Y-14372098D02*
X11178472Y-14629241D01*
X11192757Y-14657812D01*
X11221329Y-14672098D01*
X11249900Y-14672098D01*
X11464186Y-14657812D02*
X11435614Y-14672098D01*
X11378471Y-14672098D01*
X11349900Y-14657812D01*
X11335614Y-14629241D01*
X11335614Y-14514955D01*
X11349900Y-14486384D01*
X11378471Y-14472098D01*
X11435614Y-14472098D01*
X11464186Y-14486384D01*
X11478471Y-14514955D01*
X11478471Y-14543527D01*
X11335614Y-14572098D01*
X11735614Y-14672098D02*
X11735614Y-14372098D01*
X11735614Y-14657812D02*
X11707043Y-14672098D01*
X11649900Y-14672098D01*
X11621329Y-14657812D01*
X11607043Y-14643527D01*
X11592757Y-14614955D01*
X11592757Y-14529241D01*
X11607043Y-14500670D01*
X11621329Y-14486384D01*
X11649900Y-14472098D01*
X11707043Y-14472098D01*
X11735614Y-14486384D01*
X11849900Y-14786384D02*
X11864186Y-14772098D01*
X11892757Y-14729241D01*
X11907043Y-14700670D01*
X11921329Y-14657812D01*
X11935614Y-14586384D01*
X11935614Y-14529241D01*
X11921329Y-14457812D01*
X11907043Y-14414955D01*
X11892757Y-14386384D01*
X11864186Y-14343527D01*
X11849900Y-14329241D01*
X1996329Y-15042384D02*
X2106329Y-14932384D01*
X1996329Y-14822384D01*
X1886329Y-14932384D01*
X1996329Y-15042384D01*
X2378472Y-14796670D02*
X2392757Y-14782384D01*
X2421329Y-14768098D01*
X2492757Y-14768098D01*
X2521329Y-14782384D01*
X2535614Y-14796670D01*
X2549900Y-14825241D01*
X2549900Y-14853812D01*
X2535614Y-14896670D01*
X2364186Y-15068098D01*
X2549900Y-15068098D01*
X2678472Y-15039527D02*
X2692757Y-15053812D01*
X2678472Y-15068098D01*
X2664186Y-15053812D01*
X2678472Y-15039527D01*
X2678472Y-15068098D01*
X2807043Y-14796670D02*
X2821329Y-14782384D01*
X2849900Y-14768098D01*
X2921329Y-14768098D01*
X2949900Y-14782384D01*
X2964186Y-14796670D01*
X2978471Y-14825241D01*
X2978471Y-14853812D01*
X2964186Y-14896670D01*
X2792757Y-15068098D01*
X2978471Y-15068098D01*
X3164186Y-14768098D02*
X3192757Y-14768098D01*
X3221329Y-14782384D01*
X3235614Y-14796670D01*
X3249900Y-14825241D01*
X3264186Y-14882384D01*
X3264186Y-14953812D01*
X3249900Y-15010955D01*
X3235614Y-15039527D01*
X3221329Y-15053812D01*
X3192757Y-15068098D01*
X3164186Y-15068098D01*
X3135614Y-15053812D01*
X3121329Y-15039527D01*
X3107043Y-15010955D01*
X3092757Y-14953812D01*
X3092757Y-14882384D01*
X3107043Y-14825241D01*
X3121329Y-14796670D01*
X3135614Y-14782384D01*
X3164186Y-14768098D01*
X3392757Y-15068098D02*
X3392757Y-14868098D01*
X3392757Y-14896670D02*
X3407043Y-14882384D01*
X3435614Y-14868098D01*
X3478471Y-14868098D01*
X3507043Y-14882384D01*
X3521329Y-14910955D01*
X3521329Y-15068098D01*
X3521329Y-14910955D02*
X3535614Y-14882384D01*
X3564186Y-14868098D01*
X3607043Y-14868098D01*
X3635614Y-14882384D01*
X3649900Y-14910955D01*
X3649900Y-15068098D01*
X3792757Y-15068098D02*
X3792757Y-14868098D01*
X3792757Y-14896670D02*
X3807043Y-14882384D01*
X3835614Y-14868098D01*
X3878471Y-14868098D01*
X3907043Y-14882384D01*
X3921329Y-14910955D01*
X3921329Y-15068098D01*
X3921329Y-14910955D02*
X3935614Y-14882384D01*
X3964186Y-14868098D01*
X4007043Y-14868098D01*
X4035614Y-14882384D01*
X4049900Y-14910955D01*
X4049900Y-15068098D01*
X4635614Y-14753812D02*
X4378472Y-15139527D01*
X5021329Y-14768098D02*
X5049900Y-14768098D01*
X5078472Y-14782384D01*
X5092757Y-14796670D01*
X5107043Y-14825241D01*
X5121329Y-14882384D01*
X5121329Y-14953812D01*
X5107043Y-15010955D01*
X5092757Y-15039527D01*
X5078472Y-15053812D01*
X5049900Y-15068098D01*
X5021329Y-15068098D01*
X4992757Y-15053812D01*
X4978472Y-15039527D01*
X4964186Y-15010955D01*
X4949900Y-14953812D01*
X4949900Y-14882384D01*
X4964186Y-14825241D01*
X4978472Y-14796670D01*
X4992757Y-14782384D01*
X5021329Y-14768098D01*
X5249900Y-15039527D02*
X5264186Y-15053812D01*
X5249900Y-15068098D01*
X5235614Y-15053812D01*
X5249900Y-15039527D01*
X5249900Y-15068098D01*
X5449900Y-14768098D02*
X5478472Y-14768098D01*
X5507043Y-14782384D01*
X5521329Y-14796670D01*
X5535614Y-14825241D01*
X5549900Y-14882384D01*
X5549900Y-14953812D01*
X5535614Y-15010955D01*
X5521329Y-15039527D01*
X5507043Y-15053812D01*
X5478472Y-15068098D01*
X5449900Y-15068098D01*
X5421329Y-15053812D01*
X5407043Y-15039527D01*
X5392757Y-15010955D01*
X5378472Y-14953812D01*
X5378472Y-14882384D01*
X5392757Y-14825241D01*
X5407043Y-14796670D01*
X5421329Y-14782384D01*
X5449900Y-14768098D01*
X5721329Y-14896670D02*
X5692757Y-14882384D01*
X5678471Y-14868098D01*
X5664186Y-14839527D01*
X5664186Y-14825241D01*
X5678471Y-14796670D01*
X5692757Y-14782384D01*
X5721329Y-14768098D01*
X5778471Y-14768098D01*
X5807043Y-14782384D01*
X5821329Y-14796670D01*
X5835614Y-14825241D01*
X5835614Y-14839527D01*
X5821329Y-14868098D01*
X5807043Y-14882384D01*
X5778471Y-14896670D01*
X5721329Y-14896670D01*
X5692757Y-14910955D01*
X5678471Y-14925241D01*
X5664186Y-14953812D01*
X5664186Y-15010955D01*
X5678471Y-15039527D01*
X5692757Y-15053812D01*
X5721329Y-15068098D01*
X5778471Y-15068098D01*
X5807043Y-15053812D01*
X5821329Y-15039527D01*
X5835614Y-15010955D01*
X5835614Y-14953812D01*
X5821329Y-14925241D01*
X5807043Y-14910955D01*
X5778471Y-14896670D01*
X5935614Y-14768098D02*
X6135614Y-14768098D01*
X6007043Y-15068098D01*
X6235614Y-14768098D02*
X6235614Y-14825241D01*
X6349900Y-14768098D02*
X6349900Y-14825241D01*
X6792757Y-15182384D02*
X6778471Y-15168098D01*
X6749900Y-15125241D01*
X6735614Y-15096670D01*
X6721329Y-15053812D01*
X6707043Y-14982384D01*
X6707043Y-14925241D01*
X6721329Y-14853812D01*
X6735614Y-14810955D01*
X6749900Y-14782384D01*
X6778471Y-14739527D01*
X6792757Y-14725241D01*
X7035614Y-14768098D02*
X6978471Y-14768098D01*
X6949900Y-14782384D01*
X6935614Y-14796670D01*
X6907043Y-14839527D01*
X6892757Y-14896670D01*
X6892757Y-15010955D01*
X6907043Y-15039527D01*
X6921329Y-15053812D01*
X6949900Y-15068098D01*
X7007043Y-15068098D01*
X7035614Y-15053812D01*
X7049900Y-15039527D01*
X7064186Y-15010955D01*
X7064186Y-14939527D01*
X7049900Y-14910955D01*
X7035614Y-14896670D01*
X7007043Y-14882384D01*
X6949900Y-14882384D01*
X6921329Y-14896670D01*
X6907043Y-14910955D01*
X6892757Y-14939527D01*
X7421329Y-15068098D02*
X7421329Y-14768098D01*
X7549900Y-15068098D02*
X7549900Y-14910955D01*
X7535614Y-14882384D01*
X7507043Y-14868098D01*
X7464186Y-14868098D01*
X7435614Y-14882384D01*
X7421329Y-14896670D01*
X7735614Y-15068098D02*
X7707043Y-15053812D01*
X7692757Y-15039527D01*
X7678471Y-15010955D01*
X7678471Y-14925241D01*
X7692757Y-14896670D01*
X7707043Y-14882384D01*
X7735614Y-14868098D01*
X7778471Y-14868098D01*
X7807043Y-14882384D01*
X7821329Y-14896670D01*
X7835614Y-14925241D01*
X7835614Y-15010955D01*
X7821329Y-15039527D01*
X7807043Y-15053812D01*
X7778471Y-15068098D01*
X7735614Y-15068098D01*
X8007043Y-15068098D02*
X7978471Y-15053812D01*
X7964186Y-15025241D01*
X7964186Y-14768098D01*
X8235614Y-15053812D02*
X8207043Y-15068098D01*
X8149900Y-15068098D01*
X8121329Y-15053812D01*
X8107043Y-15025241D01*
X8107043Y-14910955D01*
X8121329Y-14882384D01*
X8149900Y-14868098D01*
X8207043Y-14868098D01*
X8235614Y-14882384D01*
X8249900Y-14910955D01*
X8249900Y-14939527D01*
X8107043Y-14968098D01*
X8364186Y-15053812D02*
X8392757Y-15068098D01*
X8449900Y-15068098D01*
X8478472Y-15053812D01*
X8492757Y-15025241D01*
X8492757Y-15010955D01*
X8478472Y-14982384D01*
X8449900Y-14968098D01*
X8407043Y-14968098D01*
X8378471Y-14953812D01*
X8364186Y-14925241D01*
X8364186Y-14910955D01*
X8378471Y-14882384D01*
X8407043Y-14868098D01*
X8449900Y-14868098D01*
X8478472Y-14882384D01*
X8592757Y-15182384D02*
X8607043Y-15168098D01*
X8635614Y-15125241D01*
X8649900Y-15096670D01*
X8664186Y-15053812D01*
X8678472Y-14982384D01*
X8678472Y-14925241D01*
X8664186Y-14853812D01*
X8649900Y-14810955D01*
X8635614Y-14782384D01*
X8607043Y-14739527D01*
X8592757Y-14725241D01*
X9135614Y-15182384D02*
X9121329Y-15168098D01*
X9092757Y-15125241D01*
X9078472Y-15096670D01*
X9064186Y-15053812D01*
X9049900Y-14982384D01*
X9049900Y-14925241D01*
X9064186Y-14853812D01*
X9078472Y-14810955D01*
X9092757Y-14782384D01*
X9121329Y-14739527D01*
X9135614Y-14725241D01*
X9249900Y-14868098D02*
X9249900Y-15068098D01*
X9249900Y-14896670D02*
X9264186Y-14882384D01*
X9292757Y-14868098D01*
X9335614Y-14868098D01*
X9364186Y-14882384D01*
X9378472Y-14910955D01*
X9378472Y-15068098D01*
X9564186Y-15068098D02*
X9535614Y-15053812D01*
X9521329Y-15039527D01*
X9507043Y-15010955D01*
X9507043Y-14925241D01*
X9521329Y-14896670D01*
X9535614Y-14882384D01*
X9564186Y-14868098D01*
X9607043Y-14868098D01*
X9635614Y-14882384D01*
X9649900Y-14896670D01*
X9664186Y-14925241D01*
X9664186Y-15010955D01*
X9649900Y-15039527D01*
X9635614Y-15053812D01*
X9607043Y-15068098D01*
X9564186Y-15068098D01*
X9749900Y-14868098D02*
X9864186Y-14868098D01*
X9792757Y-14768098D02*
X9792757Y-15025241D01*
X9807043Y-15053812D01*
X9835614Y-15068098D01*
X9864186Y-15068098D01*
X10192757Y-14868098D02*
X10192757Y-15168098D01*
X10192757Y-14882384D02*
X10221329Y-14868098D01*
X10278472Y-14868098D01*
X10307043Y-14882384D01*
X10321329Y-14896670D01*
X10335614Y-14925241D01*
X10335614Y-15010955D01*
X10321329Y-15039527D01*
X10307043Y-15053812D01*
X10278472Y-15068098D01*
X10221329Y-15068098D01*
X10192757Y-15053812D01*
X10507043Y-15068098D02*
X10478472Y-15053812D01*
X10464186Y-15025241D01*
X10464186Y-14768098D01*
X10749900Y-15068098D02*
X10749900Y-14910955D01*
X10735614Y-14882384D01*
X10707043Y-14868098D01*
X10649900Y-14868098D01*
X10621329Y-14882384D01*
X10749900Y-15053812D02*
X10721329Y-15068098D01*
X10649900Y-15068098D01*
X10621329Y-15053812D01*
X10607043Y-15025241D01*
X10607043Y-14996670D01*
X10621329Y-14968098D01*
X10649900Y-14953812D01*
X10721329Y-14953812D01*
X10749900Y-14939527D01*
X10849900Y-14868098D02*
X10964186Y-14868098D01*
X10892757Y-14768098D02*
X10892757Y-15025241D01*
X10907043Y-15053812D01*
X10935614Y-15068098D01*
X10964186Y-15068098D01*
X11178472Y-15053812D02*
X11149900Y-15068098D01*
X11092757Y-15068098D01*
X11064186Y-15053812D01*
X11049900Y-15025241D01*
X11049900Y-14910955D01*
X11064186Y-14882384D01*
X11092757Y-14868098D01*
X11149900Y-14868098D01*
X11178472Y-14882384D01*
X11192757Y-14910955D01*
X11192757Y-14939527D01*
X11049900Y-14968098D01*
X11449900Y-15068098D02*
X11449900Y-14768098D01*
X11449900Y-15053812D02*
X11421329Y-15068098D01*
X11364186Y-15068098D01*
X11335614Y-15053812D01*
X11321329Y-15039527D01*
X11307043Y-15010955D01*
X11307043Y-14925241D01*
X11321329Y-14896670D01*
X11335614Y-14882384D01*
X11364186Y-14868098D01*
X11421329Y-14868098D01*
X11449900Y-14882384D01*
X11564186Y-15182384D02*
X11578471Y-15168098D01*
X11607043Y-15125241D01*
X11621329Y-15096670D01*
X11635614Y-15053812D01*
X11649900Y-14982384D01*
X11649900Y-14925241D01*
X11635614Y-14853812D01*
X11621329Y-14810955D01*
X11607043Y-14782384D01*
X11578471Y-14739527D01*
X11564186Y-14725241D01*
X1766329Y-15158384D02*
X2106329Y-15498384D01*
X2106329Y-15158384D02*
X1766329Y-15498384D01*
X2106329Y-15328384D02*
G75*
G03*
X2106329Y-15328384I-170000J0D01*
G01*
X2364186Y-15164098D02*
X2549900Y-15164098D01*
X2449900Y-15278384D01*
X2492757Y-15278384D01*
X2521329Y-15292670D01*
X2535614Y-15306955D01*
X2549900Y-15335527D01*
X2549900Y-15406955D01*
X2535614Y-15435527D01*
X2521329Y-15449812D01*
X2492757Y-15464098D01*
X2407043Y-15464098D01*
X2378472Y-15449812D01*
X2364186Y-15435527D01*
X2678472Y-15435527D02*
X2692757Y-15449812D01*
X2678472Y-15464098D01*
X2664186Y-15449812D01*
X2678472Y-15435527D01*
X2678472Y-15464098D01*
X2949900Y-15264098D02*
X2949900Y-15464098D01*
X2878471Y-15149812D02*
X2807043Y-15364098D01*
X2992757Y-15364098D01*
X3164186Y-15164098D02*
X3192757Y-15164098D01*
X3221329Y-15178384D01*
X3235614Y-15192670D01*
X3249900Y-15221241D01*
X3264186Y-15278384D01*
X3264186Y-15349812D01*
X3249900Y-15406955D01*
X3235614Y-15435527D01*
X3221329Y-15449812D01*
X3192757Y-15464098D01*
X3164186Y-15464098D01*
X3135614Y-15449812D01*
X3121329Y-15435527D01*
X3107043Y-15406955D01*
X3092757Y-15349812D01*
X3092757Y-15278384D01*
X3107043Y-15221241D01*
X3121329Y-15192670D01*
X3135614Y-15178384D01*
X3164186Y-15164098D01*
X3392757Y-15464098D02*
X3392757Y-15264098D01*
X3392757Y-15292670D02*
X3407043Y-15278384D01*
X3435614Y-15264098D01*
X3478471Y-15264098D01*
X3507043Y-15278384D01*
X3521329Y-15306955D01*
X3521329Y-15464098D01*
X3521329Y-15306955D02*
X3535614Y-15278384D01*
X3564186Y-15264098D01*
X3607043Y-15264098D01*
X3635614Y-15278384D01*
X3649900Y-15306955D01*
X3649900Y-15464098D01*
X3792757Y-15464098D02*
X3792757Y-15264098D01*
X3792757Y-15292670D02*
X3807043Y-15278384D01*
X3835614Y-15264098D01*
X3878471Y-15264098D01*
X3907043Y-15278384D01*
X3921329Y-15306955D01*
X3921329Y-15464098D01*
X3921329Y-15306955D02*
X3935614Y-15278384D01*
X3964186Y-15264098D01*
X4007043Y-15264098D01*
X4035614Y-15278384D01*
X4049900Y-15306955D01*
X4049900Y-15464098D01*
X4635614Y-15149812D02*
X4378472Y-15535527D01*
X5021329Y-15164098D02*
X5049900Y-15164098D01*
X5078472Y-15178384D01*
X5092757Y-15192670D01*
X5107043Y-15221241D01*
X5121329Y-15278384D01*
X5121329Y-15349812D01*
X5107043Y-15406955D01*
X5092757Y-15435527D01*
X5078472Y-15449812D01*
X5049900Y-15464098D01*
X5021329Y-15464098D01*
X4992757Y-15449812D01*
X4978472Y-15435527D01*
X4964186Y-15406955D01*
X4949900Y-15349812D01*
X4949900Y-15278384D01*
X4964186Y-15221241D01*
X4978472Y-15192670D01*
X4992757Y-15178384D01*
X5021329Y-15164098D01*
X5249900Y-15435527D02*
X5264186Y-15449812D01*
X5249900Y-15464098D01*
X5235614Y-15449812D01*
X5249900Y-15435527D01*
X5249900Y-15464098D01*
X5549900Y-15464098D02*
X5378472Y-15464098D01*
X5464186Y-15464098D02*
X5464186Y-15164098D01*
X5435614Y-15206955D01*
X5407043Y-15235527D01*
X5378472Y-15249812D01*
X5649900Y-15164098D02*
X5835614Y-15164098D01*
X5735614Y-15278384D01*
X5778471Y-15278384D01*
X5807043Y-15292670D01*
X5821329Y-15306955D01*
X5835614Y-15335527D01*
X5835614Y-15406955D01*
X5821329Y-15435527D01*
X5807043Y-15449812D01*
X5778471Y-15464098D01*
X5692757Y-15464098D01*
X5664186Y-15449812D01*
X5649900Y-15435527D01*
X6092757Y-15264098D02*
X6092757Y-15464098D01*
X6021329Y-15149812D02*
X5949900Y-15364098D01*
X6135614Y-15364098D01*
X6235614Y-15164098D02*
X6235614Y-15221241D01*
X6349900Y-15164098D02*
X6349900Y-15221241D01*
X6792757Y-15578384D02*
X6778471Y-15564098D01*
X6749900Y-15521241D01*
X6735614Y-15492670D01*
X6721329Y-15449812D01*
X6707043Y-15378384D01*
X6707043Y-15321241D01*
X6721329Y-15249812D01*
X6735614Y-15206955D01*
X6749900Y-15178384D01*
X6778471Y-15135527D01*
X6792757Y-15121241D01*
X6878471Y-15164098D02*
X7064186Y-15164098D01*
X6964186Y-15278384D01*
X7007043Y-15278384D01*
X7035614Y-15292670D01*
X7049900Y-15306955D01*
X7064186Y-15335527D01*
X7064186Y-15406955D01*
X7049900Y-15435527D01*
X7035614Y-15449812D01*
X7007043Y-15464098D01*
X6921329Y-15464098D01*
X6892757Y-15449812D01*
X6878471Y-15435527D01*
X7321329Y-15264098D02*
X7321329Y-15464098D01*
X7249900Y-15149812D02*
X7178471Y-15364098D01*
X7364186Y-15364098D01*
X7707043Y-15464098D02*
X7707043Y-15164098D01*
X7835614Y-15464098D02*
X7835614Y-15306955D01*
X7821329Y-15278384D01*
X7792757Y-15264098D01*
X7749900Y-15264098D01*
X7721329Y-15278384D01*
X7707043Y-15292670D01*
X8021329Y-15464098D02*
X7992757Y-15449812D01*
X7978471Y-15435527D01*
X7964186Y-15406955D01*
X7964186Y-15321241D01*
X7978471Y-15292670D01*
X7992757Y-15278384D01*
X8021329Y-15264098D01*
X8064186Y-15264098D01*
X8092757Y-15278384D01*
X8107043Y-15292670D01*
X8121329Y-15321241D01*
X8121329Y-15406955D01*
X8107043Y-15435527D01*
X8092757Y-15449812D01*
X8064186Y-15464098D01*
X8021329Y-15464098D01*
X8292757Y-15464098D02*
X8264186Y-15449812D01*
X8249900Y-15421241D01*
X8249900Y-15164098D01*
X8521329Y-15449812D02*
X8492757Y-15464098D01*
X8435614Y-15464098D01*
X8407043Y-15449812D01*
X8392757Y-15421241D01*
X8392757Y-15306955D01*
X8407043Y-15278384D01*
X8435614Y-15264098D01*
X8492757Y-15264098D01*
X8521329Y-15278384D01*
X8535614Y-15306955D01*
X8535614Y-15335527D01*
X8392757Y-15364098D01*
X8649900Y-15449812D02*
X8678472Y-15464098D01*
X8735614Y-15464098D01*
X8764186Y-15449812D01*
X8778472Y-15421241D01*
X8778472Y-15406955D01*
X8764186Y-15378384D01*
X8735614Y-15364098D01*
X8692757Y-15364098D01*
X8664186Y-15349812D01*
X8649900Y-15321241D01*
X8649900Y-15306955D01*
X8664186Y-15278384D01*
X8692757Y-15264098D01*
X8735614Y-15264098D01*
X8764186Y-15278384D01*
X8878472Y-15578384D02*
X8892757Y-15564098D01*
X8921329Y-15521241D01*
X8935614Y-15492670D01*
X8949900Y-15449812D01*
X8964186Y-15378384D01*
X8964186Y-15321241D01*
X8949900Y-15249812D01*
X8935614Y-15206955D01*
X8921329Y-15178384D01*
X8892757Y-15135527D01*
X8878472Y-15121241D01*
X9421329Y-15578384D02*
X9407043Y-15564098D01*
X9378472Y-15521241D01*
X9364186Y-15492670D01*
X9349900Y-15449812D01*
X9335614Y-15378384D01*
X9335614Y-15321241D01*
X9349900Y-15249812D01*
X9364186Y-15206955D01*
X9378472Y-15178384D01*
X9407043Y-15135527D01*
X9421329Y-15121241D01*
X9535614Y-15264098D02*
X9535614Y-15464098D01*
X9535614Y-15292670D02*
X9549900Y-15278384D01*
X9578472Y-15264098D01*
X9621329Y-15264098D01*
X9649900Y-15278384D01*
X9664186Y-15306955D01*
X9664186Y-15464098D01*
X9849900Y-15464098D02*
X9821329Y-15449812D01*
X9807043Y-15435527D01*
X9792757Y-15406955D01*
X9792757Y-15321241D01*
X9807043Y-15292670D01*
X9821329Y-15278384D01*
X9849900Y-15264098D01*
X9892757Y-15264098D01*
X9921329Y-15278384D01*
X9935614Y-15292670D01*
X9949900Y-15321241D01*
X9949900Y-15406955D01*
X9935614Y-15435527D01*
X9921329Y-15449812D01*
X9892757Y-15464098D01*
X9849900Y-15464098D01*
X10035614Y-15264098D02*
X10149900Y-15264098D01*
X10078472Y-15164098D02*
X10078472Y-15421241D01*
X10092757Y-15449812D01*
X10121329Y-15464098D01*
X10149900Y-15464098D01*
X10478472Y-15264098D02*
X10478472Y-15564098D01*
X10478472Y-15278384D02*
X10507043Y-15264098D01*
X10564186Y-15264098D01*
X10592757Y-15278384D01*
X10607043Y-15292670D01*
X10621329Y-15321241D01*
X10621329Y-15406955D01*
X10607043Y-15435527D01*
X10592757Y-15449812D01*
X10564186Y-15464098D01*
X10507043Y-15464098D01*
X10478472Y-15449812D01*
X10792757Y-15464098D02*
X10764186Y-15449812D01*
X10749900Y-15421241D01*
X10749900Y-15164098D01*
X11035614Y-15464098D02*
X11035614Y-15306955D01*
X11021329Y-15278384D01*
X10992757Y-15264098D01*
X10935614Y-15264098D01*
X10907043Y-15278384D01*
X11035614Y-15449812D02*
X11007043Y-15464098D01*
X10935614Y-15464098D01*
X10907043Y-15449812D01*
X10892757Y-15421241D01*
X10892757Y-15392670D01*
X10907043Y-15364098D01*
X10935614Y-15349812D01*
X11007043Y-15349812D01*
X11035614Y-15335527D01*
X11135614Y-15264098D02*
X11249900Y-15264098D01*
X11178472Y-15164098D02*
X11178472Y-15421241D01*
X11192757Y-15449812D01*
X11221329Y-15464098D01*
X11249900Y-15464098D01*
X11464186Y-15449812D02*
X11435614Y-15464098D01*
X11378471Y-15464098D01*
X11349900Y-15449812D01*
X11335614Y-15421241D01*
X11335614Y-15306955D01*
X11349900Y-15278384D01*
X11378471Y-15264098D01*
X11435614Y-15264098D01*
X11464186Y-15278384D01*
X11478471Y-15306955D01*
X11478471Y-15335527D01*
X11335614Y-15364098D01*
X11735614Y-15464098D02*
X11735614Y-15164098D01*
X11735614Y-15449812D02*
X11707043Y-15464098D01*
X11649900Y-15464098D01*
X11621329Y-15449812D01*
X11607043Y-15435527D01*
X11592757Y-15406955D01*
X11592757Y-15321241D01*
X11607043Y-15292670D01*
X11621329Y-15278384D01*
X11649900Y-15264098D01*
X11707043Y-15264098D01*
X11735614Y-15278384D01*
X11849900Y-15578384D02*
X11864186Y-15564098D01*
X11892757Y-15521241D01*
X11907043Y-15492670D01*
X11921329Y-15449812D01*
X11935614Y-15378384D01*
X11935614Y-15321241D01*
X11921329Y-15249812D01*
X11907043Y-15206955D01*
X11892757Y-15178384D01*
X11864186Y-15135527D01*
X11849900Y-15121241D01*
M02*
